  0
SECTION
  2
HEADER
  9
$ACADVER
  1
AC1015
  9
$ACADMAINTVER
 70
20
  9
$DWGCODEPAGE
  3
ANSI_1252
  9
$LASTSAVEDBY
  1
unknown
  9
$INSBASE
 10
0.0
 20
0.0
 30
0.0
  9
$EXTMIN
 10
1e+20
 20
1e+20
 30
1e+20
  9
$EXTMAX
 10
-1e+20
 20
-1e+20
 30
-1e+20
  9
$LIMMIN
 10
0.0
 20
0.0
  9
$LIMMAX
 10
12.0
 20
9.0
  9
$ORTHOMODE
 70
0
  9
$REGENMODE
 70
1
  9
$FILLMODE
 70
1
  9
$QTEXTMODE
 70
0
  9
$MIRRTEXT
 70
0
  9
$LTSCALE
 40
1.0
  9
$ATTMODE
 70
1
  9
$TEXTSIZE
 40
0.2
  9
$TRACEWID
 40
0.05
  9
$TEXTSTYLE
  7
Notes
  9
$CLAYER
  8
0
  9
$CELTYPE
  6
ByLayer
  9
$CECOLOR
 62
256
  9
$CELTSCALE
 40
1.0
  9
$DISPSILH
 70
0
  9
$DIMSCALE
 40
1.0
  9
$DIMASZ
 40
3.0
  9
$DIMEXO
 40
1.5
  9
$DIMDLI
 40
6.0
  9
$DIMRND
 40
0.0
  9
$DIMDLE
 40
0.0
  9
$DIMEXE
 40
3.0
  9
$DIMTP
 40
0.0
  9
$DIMTM
 40
0.0
  9
$DIMTXT
 40
3.0
  9
$DIMCEN
 40
3.0
  9
$DIMTSZ
 40
0.0
  9
$DIMTOL
 70
0
  9
$DIMLIM
 70
0
  9
$DIMTIH
 70
0
  9
$DIMTOH
 70
0
  9
$DIMSE1
 70
0
  9
$DIMSE2
 70
0
  9
$DIMTAD
 70
1
  9
$DIMZIN
 70
3
  9
$DIMBLK
  1

  9
$DIMASO
 70
1
  9
$DIMSHO
 70
1
  9
$DIMPOST
  1

  9
$DIMAPOST
  1

  9
$DIMALT
 70
0
  9
$DIMALTD
 70
2
  9
$DIMALTF
 40
25.4
  9
$DIMLFAC
 40
1.0
  9
$DIMTOFL
 70
0
  9
$DIMTVP
 40
0.0
  9
$DIMTIX
 70
0
  9
$DIMSOXD
 70
0
  9
$DIMSAH
 70
0
  9
$DIMBLK1
  1

  9
$DIMBLK2
  1

  9
$DIMSTYLE
  2
Civil-Metric
  9
$DIMCLRD
 70
0
  9
$DIMCLRE
 70
0
  9
$DIMCLRT
 70
0
  9
$DIMTFAC
 40
1.0
  9
$DIMGAP
 40
2.0
  9
$DIMJUST
 70
0
  9
$DIMSD1
 70
0
  9
$DIMSD2
 70
0
  9
$DIMTOLJ
 70
1
  9
$DIMTZIN
 70
0
  9
$DIMALTZ
 70
0
  9
$DIMALTTZ
 70
0
  9
$DIMUPT
 70
0
  9
$DIMDEC
 70
2
  9
$DIMTDEC
 70
2
  9
$DIMALTU
 70
2
  9
$DIMALTTD
 70
2
  9
$DIMTXSTY
  7
Standard
  9
$DIMAUNIT
 70
0
  9
$DIMADEC
 70
2
  9
$DIMALTRND
 40
0.0
  9
$DIMAZIN
 70
2
  9
$DIMDSEP
 70
46
  9
$DIMATFIT
 70
3
  9
$DIMFRAC
 70
1
  9
$DIMLDRBLK
  1

  9
$DIMLUNIT
 70
2
  9
$DIMLWD
 70
-2
  9
$DIMLWE
 70
-2
  9
$DIMTMOVE
 70
0
  9
$LUNITS
 70
2
  9
$LUPREC
 70
4
  9
$SKETCHINC
 40
0.1
  9
$FILLETRAD
 40
0.0
  9
$AUNITS
 70
4
  9
$AUPREC
 70
5
  9
$MENU
  1
.
  9
$ELEVATION
 40
0.0
  9
$PELEVATION
 40
0.0
  9
$THICKNESS
 40
0.0
  9
$LIMCHECK
 70
0
  9
$CHAMFERA
 40
0.0
  9
$CHAMFERB
 40
0.0
  9
$CHAMFERC
 40
0.0
  9
$CHAMFERD
 40
0.0
  9
$SKPOLY
 70
0
  9
$TDCREATE
 40
2457448.6862152778
  9
$TDUPDATE
 40
2457448.6862152778
  9
$TDINDWG
 40
0.0
  9
$TDUSRTIMER
 40
0.0
  9
$USRTIMER
 70
1
  9
$ANGBASE
 50
0.0
  9
$ANGDIR
 70
0
  9
$PDMODE
 70
0
  9
$PDSIZE
 40
0.0
  9
$PLINEWID
 40
0.0
  9
$SPLFRAME
 70
0
  9
$SPLINETYPE
 70
6
  9
$SPLINESEGS
 70
8
  9
$HANDSEED
  5
80A
  9
$SURFTAB1
 70
6
  9
$SURFTAB2
 70
6
  9
$SURFTYPE
 70
6
  9
$SURFU
 70
6
  9
$SURFV
 70
6
  9
$UCSBASE
  2

  9
$UCSNAME
  2

  9
$UCSORG
 10
0.0
 20
0.0
 30
0.0
  9
$UCSXDIR
 10
1.0
 20
0.0
 30
0.0
  9
$UCSYDIR
 10
0.0
 20
1.0
 30
0.0
  9
$UCSORTHOREF
  2

  9
$UCSORTHOVIEW
 70
0
  9
$UCSORGTOP
 10
0.0
 20
0.0
 30
0.0
  9
$UCSORGBOTTOM
 10
0.0
 20
0.0
 30
0.0
  9
$UCSORGLEFT
 10
0.0
 20
0.0
 30
0.0
  9
$UCSORGRIGHT
 10
0.0
 20
0.0
 30
0.0
  9
$UCSORGFRONT
 10
0.0
 20
0.0
 30
0.0
  9
$UCSORGBACK
 10
0.0
 20
0.0
 30
0.0
  9
$PUCSBASE
  2

  9
$PUCSNAME
  2

  9
$PUCSORG
 10
0.0
 20
0.0
 30
0.0
  9
$PUCSXDIR
 10
1.0
 20
0.0
 30
0.0
  9
$PUCSYDIR
 10
0.0
 20
1.0
 30
0.0
  9
$PUCSORTHOREF
  2

  9
$PUCSORTHOVIEW
 70
0
  9
$PUCSORGTOP
 10
0.0
 20
0.0
 30
0.0
  9
$PUCSORGBOTTOM
 10
0.0
 20
0.0
 30
0.0
  9
$PUCSORGLEFT
 10
0.0
 20
0.0
 30
0.0
  9
$PUCSORGRIGHT
 10
0.0
 20
0.0
 30
0.0
  9
$PUCSORGFRONT
 10
0.0
 20
0.0
 30
0.0
  9
$PUCSORGBACK
 10
0.0
 20
0.0
 30
0.0
  9
$USERI1
 70
0
  9
$USERI2
 70
0
  9
$USERI3
 70
0
  9
$USERI4
 70
0
  9
$USERI5
 70
0
  9
$USERR1
 40
0.0
  9
$USERR2
 40
0.0
  9
$USERR3
 40
0.0
  9
$USERR4
 40
0.0
  9
$USERR5
 40
0.0
  9
$WORLDVIEW
 70
1
  9
$SHADEDGE
 70
3
  9
$SHADEDIF
 70
70
  9
$TILEMODE
 70
1
  9
$MAXACTVP
 70
64
  9
$PINSBASE
 10
0.0
 20
0.0
 30
0.0
  9
$PLIMCHECK
 70
0
  9
$PEXTMIN
 10
0.62886676639706
 20
0.7999999523162842
 30
0.0
  9
$PEXTMAX
 10
9.028866384927335
 20
7.199999570846558
 30
0.0
  9
$PLIMMIN
 10
-0.7005418191744587
 20
-0.2281003861915408
  9
$PLIMMAX
 10
10.29945794052965
 20
8.27189937351257
  9
$UNITMODE
 70
0
  9
$VISRETAIN
 70
1
  9
$PLINEGEN
 70
0
  9
$PSLTSCALE
 70
1
  9
$TREEDEPTH
 70
3020
  9
$CMLSTYLE
  2
Standard
  9
$CMLJUST
 70
0
  9
$CMLSCALE
 40
1.0
  9
$PROXYGRAPHICS
 70
1
  9
$MEASUREMENT
 70
1
  9
$CELWEIGHT
370
-1
  9
$ENDCAPS
280
0
  9
$JOINSTYLE
280
0
  9
$LWDISPLAY
290
0
  9
$INSUNITS
 70
4
  9
$HYPERLINKBASE
  1

  9
$STYLESHEET
  1

  9
$XEDIT
290
1
  9
$CEPSNTYPE
380
0
  9
$PSTYLEMODE
290
1
  9
$FINGERPRINTGUID
  2
{39DB1BDD-BC6C-46D3-A333-DFCC0DC4782D}
  9
$VERSIONGUID
  2
{69EEBB2D-7039-498F-9366-3F994E4A07E7}
  9
$EXTNAMES
290
1
  9
$PSVPSCALE
 40
0.0
  9
$OLESTARTUP
290
0
  0
ENDSEC
  0
SECTION
  2
CLASSES
  0
CLASS
  1
ACDBDICTIONARYWDFLT
  2
AcDbDictionaryWithDefault
  3
ObjectDBX Classes
 90
0
280
0
281
0
  0
CLASS
  1
ACDBPLACEHOLDER
  2
AcDbPlaceHolder
  3
ObjectDBX Classes
 90
0
280
0
281
0
  0
CLASS
  1
LAYOUT
  2
AcDbLayout
  3
ObjectDBX Classes
 90
0
280
0
281
0
  0
CLASS
  1
DICTIONARYVAR
  2
AcDbDictionaryVar
  3
ObjectDBX Classes
 90
0
280
0
281
0
  0
CLASS
  1
TABLESTYLE
  2
AcDbTableStyle
  3
ObjectDBX Classes
 90
4095
280
0
281
0
  0
CLASS
  1
MATERIAL
  2
AcDbMaterial
  3
ObjectDBX Classes
 90
1153
280
0
281
0
  0
CLASS
  1
VISUALSTYLE
  2
AcDbVisualStyle
  3
ObjectDBX Classes
 90
4095
280
0
281
0
  0
CLASS
  1
SCALE
  2
AcDbScale
  3
ObjectDBX Classes
 90
1153
280
0
281
0
  0
CLASS
  1
MLEADERSTYLE
  2
AcDbMLeaderStyle
  3
ACDB_MLEADERSTYLE_CLASS
 90
4095
280
0
281
0
  0
CLASS
  1
CELLSTYLEMAP
  2
AcDbCellStyleMap
  3
ObjectDBX Classes
 90
1152
280
0
281
0
  0
CLASS
  1
EXACXREFPANELOBJECT
  2
ExAcXREFPanelObject
  3
EXAC_ESW
 90
33793
280
0
281
0
  0
CLASS
  1
NPOCOLLECTION
  2
AcDbImpNonPersistentObjectsCollection
  3
ObjectDBX Classes
 90
33921
280
0
281
0
  0
CLASS
  1
LAYER_INDEX
  2
AcDbLayerIndex
  3
ObjectDBX Classes
 90
32768
280
0
281
0
  0
CLASS
  1
SPATIAL_INDEX
  2
AcDbSpatialIndex
  3
ObjectDBX Classes
 90
32768
280
0
281
0
  0
CLASS
  1
IDBUFFER
  2
AcDbIdBuffer
  3
ObjectDBX Classes
 90
32768
280
0
281
0
  0
CLASS
  1
DIMASSOC
  2
AcDbDimAssoc
  3
"AcDbDimAssoc|Product Desc:     AcDim ARX App For Dimension|Company:          Autodesk, Inc.|WEB Address:      www.autodesk.com"
 90
32768
280
0
281
0
  0
ENDSEC
  0
SECTION
  2
TABLES
  0
TABLE
  2
VPORT
  5
8
330
0
100
AcDbSymbolTable
 70
1
  0
VPORT
  5
94
330
8
100
AcDbSymbolTableRecord
100
AcDbViewportTableRecord
  2
*Active
 70
0
 10
0.0
 20
0.0
 11
1.0
 21
1.0
 12
68.7397286580374
 22
49.8327539171525
 13
0.0
 23
0.0
 14
0.5
 24
0.5
 15
0.5
 25
0.5
 16
0.0
 26
0.0
 36
1.0
 17
0.0
 27
0.0
 37
0.0
 40
69.03946035988814
 41
1.341176470588235
 42
50.0
 43
0.0
 44
0.0
 50
0.0
 51
0.0
 71
0
 72
1000
 73
1
 74
3
 75
0
 76
0
 77
0
 78
0
281
0
 65
1
110
0.0
120
0.0
130
0.0
111
1.0
121
0.0
131
0.0
112
0.0
122
1.0
132
0.0
 79
0
146
0.0
  0
ENDTAB
  0
TABLE
  2
LTYPE
  5
5
330
0
100
AcDbSymbolTable
 70
7
  0
LTYPE
  5
14
330
5
100
AcDbSymbolTableRecord
100
AcDbLinetypeTableRecord
  2
ByBlock
 70
0
  3

 72
65
 73
0
 40
0.0
  0
LTYPE
  5
15
330
5
100
AcDbSymbolTableRecord
100
AcDbLinetypeTableRecord
  2
ByLayer
 70
0
  3

 72
65
 73
0
 40
0.0
  0
LTYPE
  5
16
330
5
100
AcDbSymbolTableRecord
100
AcDbLinetypeTableRecord
  2
Continuous
 70
0
  3
Solid line
 72
65
 73
0
 40
0.0
  0
LTYPE
  5
1B1
330
5
100
AcDbSymbolTableRecord
100
AcDbLinetypeTableRecord
  2
CENTER
 70
0
  3
Center ____ _ ____ _ ____ _ ____ _ ____ _ ____
 72
65
 73
4
 40
2.0
 49
1.25
 74
0
 49
-0.25
 74
0
 49
0.25
 74
0
 49
-0.25
 74
0
  0
LTYPE
  5
1B2
330
5
100
AcDbSymbolTableRecord
100
AcDbLinetypeTableRecord
  2
DASHED
 70
0
  3
Dashed __ __ __ __ __ __ __ __ __ __ __ __ __ _
 72
65
 73
2
 40
0.75
 49
0.5
 74
0
 49
-0.25
 74
0
  0
LTYPE
  5
1B3
330
5
100
AcDbSymbolTableRecord
100
AcDbLinetypeTableRecord
  2
PHANTOM
 70
0
  3
Phantom ______  __  __  ______  __  __  ______
 72
65
 73
6
 40
2.5
 49
1.25
 74
0
 49
-0.25
 74
0
 49
0.25
 74
0
 49
-0.25
 74
0
 49
0.25
 74
0
 49
-0.25
 74
0
  0
LTYPE
  5
39E
330
5
100
AcDbSymbolTableRecord
100
AcDbLinetypeTableRecord
  2
HIDDEN
 70
0
  3
Hidden __ __ __ __ __ __ __ __ __ __ __ __ __ __
 72
65
 73
2
 40
9.524999999999999
 49
6.349999999999999
 74
0
 49
-3.174999999999999
 74
0
  0
ENDTAB
  0
TABLE
  2
LAYER
  5
2
102
{ACAD_XDICTIONARY
360
2A2
102
}
330
0
100
AcDbSymbolTable
 70
5
  0
LAYER
  5
10
102
{ACAD_XDICTIONARY
360
E6
102
}
330
2
100
AcDbSymbolTableRecord
100
AcDbLayerTableRecord
  2
0
 70
0
 62
7
  6
Continuous
370
-3
390
F
  0
LAYER
  5
1B4
330
2
100
AcDbSymbolTableRecord
100
AcDbLayerTableRecord
  2
View Port
 70
0
 62
7
  6
Continuous
290
0
370
-3
390
F
1001
AcAecLayerStandard
1000

1000
View Ports, set to Not Plot
  0
LAYER
  5
21D
330
2
100
AcDbSymbolTableRecord
100
AcDbLayerTableRecord
  2
Defpoints
 70
0
 62
7
  6
Continuous
290
0
370
-3
390
F
  0
LAYER
  5
482
330
2
100
AcDbSymbolTableRecord
100
AcDbLayerTableRecord
  2
frame
 70
0
 62
7
  6
Continuous
290
1
390
E
  0
LAYER
  5
483
330
2
100
AcDbSymbolTableRecord
100
AcDbLayerTableRecord
  2
media
 70
0
 62
7
  6
Continuous
290
1
390
E
  0
ENDTAB
  0
TABLE
  2
STYLE
  5
3
330
0
100
AcDbSymbolTable
 70
3
  0
STYLE
  5
11
330
3
100
AcDbSymbolTableRecord
100
AcDbTextStyleTableRecord
  2
Standard
 70
0
 40
0.0
 41
1.0
 50
0.0
 71
0
 42
0.2
  3
arial.ttf
  4

1001
ACAD
1000
Arial
1071
34
  0
STYLE
  5
DC
330
3
100
AcDbSymbolTableRecord
100
AcDbTextStyleTableRecord
  2
Annotative
 70
0
 40
0.0
 41
1.0
 50
0.0
 71
0
 42
0.2
  3
arial.ttf
  4

1001
AcadAnnotative
1000
AnnotativeData
1002
{
1070
1
1070
1
1002
}
1001
ACAD
1000
Arial
1071
34
  0
STYLE
  5
178
330
3
100
AcDbSymbolTableRecord
100
AcDbTextStyleTableRecord
  2
Notes
 70
0
 40
3.0
 41
1.0
 50
0.0
 71
0
 42
0.2
  3
arial.ttf
  4

1001
AcadAnnotative
1000
AnnotativeData
1002
{
1070
1
1070
1
1002
}
1001
AcadAnnoPO
1070
1
1001
ACAD
1000
Arial
1071
34
  0
ENDTAB
  0
TABLE
  2
VIEW
  5
6
330
0
100
AcDbSymbolTable
 70
0
  0
ENDTAB
  0
TABLE
  2
UCS
  5
7
330
0
100
AcDbSymbolTable
 70
0
  0
ENDTAB
  0
TABLE
  2
APPID
  5
9
330
0
100
AcDbSymbolTable
 70
11
  0
APPID
  5
12
330
9
100
AcDbSymbolTableRecord
100
AcDbRegAppTableRecord
  2
ACAD
 70
0
  0
APPID
  5
DD
330
9
100
AcDbSymbolTableRecord
100
AcDbRegAppTableRecord
  2
AcadAnnoPO
 70
0
  0
APPID
  5
DE
330
9
100
AcDbSymbolTableRecord
100
AcDbRegAppTableRecord
  2
AcadAnnotative
 70
0
  0
APPID
  5
DF
330
9
100
AcDbSymbolTableRecord
100
AcDbRegAppTableRecord
  2
ACAD_DSTYLE_DIMJAG
 70
0
  0
APPID
  5
E0
330
9
100
AcDbSymbolTableRecord
100
AcDbRegAppTableRecord
  2
ACAD_DSTYLE_DIMTALN
 70
0
  0
APPID
  5
107
330
9
100
AcDbSymbolTableRecord
100
AcDbRegAppTableRecord
  2
ACAD_MLEADERVER
 70
0
  0
APPID
  5
1B5
330
9
100
AcDbSymbolTableRecord
100
AcDbRegAppTableRecord
  2
AcAecLayerStandard
 70
0
  0
APPID
  5
1BA
330
9
100
AcDbSymbolTableRecord
100
AcDbRegAppTableRecord
  2
ACAD_EXEMPT_FROM_CAD_STANDARDS
 70
0
  0
APPID
  5
237
330
9
100
AcDbSymbolTableRecord
100
AcDbRegAppTableRecord
  2
ACAD_DSTYLE_DIMBREAK
 70
0
  0
APPID
  5
28E
330
9
100
AcDbSymbolTableRecord
100
AcDbRegAppTableRecord
  2
ACAD_PSEXT
 70
0
  0
APPID
  5
809
330
9
100
AcDbSymbolTableRecord
100
AcDbRegAppTableRecord
  2
HATCHBACKGROUNDCOLOR
 70
0
  0
ENDTAB
  0
TABLE
  2
DIMSTYLE
  5
A
330
0
100
AcDbSymbolTable
 70
3
100
AcDbDimStyleTable
 71
3
340
242
340
27
340
E1
  0
DIMSTYLE
105
27
330
A
100
AcDbSymbolTableRecord
100
AcDbDimStyleTableRecord
  2
Standard
 70
0
 41
3.0
 42
2.0
 43
9.0
 44
5.0
140
3.0
141
2.0
147
2.0
340
11
1001
ACAD_DSTYLE_DIMJAG
1070
388
1040
38.0
1001
ACAD_DSTYLE_DIMBREAK
1070
391
1040
90.0
1001
ACAD_DSTYLE_DIMTALN
1070
392
1070
0
  0
DIMSTYLE
105
E1
330
A
100
AcDbSymbolTableRecord
100
AcDbDimStyleTableRecord
  2
Annotative
 70
0
 40
0.0
 41
3.0
 42
2.5
 43
10.0
 44
5.0
140
3.0
141
2.0
147
2.0
340
11
1001
AcadAnnotative
1000
AnnotativeData
1002
{
1070
1
1070
1
1002
}
1001
ACAD_DSTYLE_DIMJAG
1070
388
1040
38.0
1001
ACAD_DSTYLE_DIMBREAK
1070
391
1040
90.0
1001
ACAD_DSTYLE_DIMTALN
1070
392
1070
0
  0
DIMSTYLE
105
242
330
A
100
AcDbSymbolTableRecord
100
AcDbDimStyleTableRecord
  2
Civil-Metric
 70
0
 41
3.0
 42
1.5
 43
6.0
 44
3.0
 73
0
 74
0
 77
1
 78
3
 79
2
140
3.0
141
3.0
147
2.0
179
2
271
2
272
2
276
1
340
11
1001
ACAD_DSTYLE_DIMBREAK
1070
391
1040
3.0
1001
ACAD_DSTYLE_DIMJAG
1070
388
1040
38.0
1001
ACAD_DSTYLE_DIMTALN
1070
392
1070
0
  0
ENDTAB
  0
TABLE
  2
BLOCK_RECORD
  5
1
330
0
100
AcDbSymbolTable
 70
4
  0
BLOCK_RECORD
  5
1F
102
{ACAD_XDICTIONARY
360
15D
102
}
330
1
100
AcDbSymbolTableRecord
100
AcDbBlockTableRecord
  2
*Model_Space
340
22
  0
BLOCK_RECORD
  5
58
330
1
100
AcDbSymbolTableRecord
100
AcDbBlockTableRecord
  2
*Paper_Space
340
59
  0
BLOCK_RECORD
  5
238
330
1
100
AcDbSymbolTableRecord
100
AcDbBlockTableRecord
  2
_ArchTick
340
0
  0
BLOCK_RECORD
  5
23C
330
1
100
AcDbSymbolTableRecord
100
AcDbBlockTableRecord
  2
_Open30
340
0
  0
ENDTAB
  0
ENDSEC
  0
SECTION
  2
BLOCKS
  0
BLOCK
  5
20
330
1F
100
AcDbEntity
  8
0
100
AcDbBlockBegin
  2
*Model_Space
 70
0
 10
0.0
 20
0.0
 30
0.0
  3
*Model_Space
  1

  0
ENDBLK
  5
21
330
1F
100
AcDbEntity
  8
0
100
AcDbBlockEnd
  0
BLOCK
  5
23A
330
238
100
AcDbEntity
  8
0
100
AcDbBlockBegin
  2
_ArchTick
 70
0
 10
0.0
 20
0.0
 30
0.0
  3
_ArchTick
  1

  0
LWPOLYLINE
  5
239
330
238
100
AcDbEntity
  8
0
  6
ByBlock
 62
0
100
AcDbPolyline
 90
2
 70
0
 43
0.15
 10
-0.5
 20
-0.5
 10
0.5
 20
0.5
  0
ENDBLK
  5
23B
330
238
100
AcDbEntity
  8
0
100
AcDbBlockEnd
  0
BLOCK
  5
240
330
23C
100
AcDbEntity
  8
0
100
AcDbBlockBegin
  2
_Open30
 70
0
 10
0.0
 20
0.0
 30
0.0
  3
_Open30
  1

  0
LINE
  5
23D
330
23C
100
AcDbEntity
  8
0
  6
ByBlock
 62
0
370
-2
100
AcDbLine
 10
-1.0
 20
0.26794919
 30
0.0
 11
0.0
 21
0.0
 31
0.0
  0
LINE
  5
23E
330
23C
100
AcDbEntity
  8
0
  6
ByBlock
 62
0
370
-2
100
AcDbLine
 10
0.0
 20
0.0
 30
0.0
 11
-1.0
 21
-0.26794919
 31
0.0
  0
LINE
  5
23F
330
23C
100
AcDbEntity
  8
0
  6
ByBlock
 62
0
370
-2
100
AcDbLine
 10
0.0
 20
0.0
 30
0.0
 11
-1.0
 21
0.0
 31
0.0
  0
ENDBLK
  5
241
330
23C
100
AcDbEntity
  8
0
100
AcDbBlockEnd
  0
BLOCK
  5
5A
330
58
100
AcDbEntity
 67
1
  8
0
100
AcDbBlockBegin
  2
*Paper_Space
 70
0
 10
0.0
 20
0.0
 30
0.0
  3
*Paper_Space
  1

  0
ENDBLK
  5
5B
330
58
100
AcDbEntity
 67
1
  8
0
100
AcDbBlockEnd
  0
ENDSEC
  0
SECTION
  2
ENTITIES
  0
LWPOLYLINE
  5
484
330
1F
100
AcDbEntity
  8
frame
 67
0
100
AcDbPolyline
 90
5
 70
0
 10
0
 20
0
 10
100
 20
0
 10
100
 20
25
 10
0
 20
25
 10
0
 20
0
  0
CIRCLE
  5
485
330
1F
100
AcDbEntity
  8
media
 67
0
100
AcDbCircle
 10
83.84995234461387
 20
1.2039605337363035
 40
0.6423040359010039
  0
CIRCLE
  5
486
330
1F
100
AcDbEntity
  8
media
 67
0
100
AcDbCircle
 10
1.6137183671216053
 20
9.924063935221906
 40
0.647595083344298
  0
CIRCLE
  5
487
330
1F
100
AcDbEntity
  8
media
 67
0
100
AcDbCircle
 10
25.944766999391796
 20
11.942584322415195
 40
0.9987434974103035
  0
CIRCLE
  5
488
330
1F
100
AcDbEntity
  8
media
 67
0
100
AcDbCircle
 10
80.70399383553236
 20
8.123270257728688
 40
0.6485351277029575
  0
CIRCLE
  5
489
330
1F
100
AcDbEntity
  8
media
 67
0
100
AcDbCircle
 10
29.686078457200487
 20
9.758455651284311
 40
0.9486006703021621
  0
CIRCLE
  5
48A
330
1F
100
AcDbEntity
  8
media
 67
0
100
AcDbCircle
 10
27.215555658402412
 20
13.675156409908835
 40
1.0293639433681494
  0
CIRCLE
  5
48B
330
1F
100
AcDbEntity
  8
media
 67
0
100
AcDbCircle
 10
70.82916596414474
 20
17.389233598445202
 40
0.9287672037475241
  0
CIRCLE
  5
48C
330
1F
100
AcDbEntity
  8
media
 67
0
100
AcDbCircle
 10
23.817005132511408
 20
8.986630513041693
 40
1.1059491809568118
  0
CIRCLE
  5
48D
330
1F
100
AcDbEntity
  8
media
 67
0
100
AcDbCircle
 10
52.88328776827102
 20
7.4888028488765395
 40
1.0956636776466113
  0
CIRCLE
  5
48E
330
1F
100
AcDbEntity
  8
media
 67
0
100
AcDbCircle
 10
90.07724328496374
 20
16.576122813230576
 40
1.0048274760813072
  0
CIRCLE
  5
48F
330
1F
100
AcDbEntity
  8
media
 67
0
100
AcDbCircle
 10
27.04816467082122
 20
20.707263888915787
 40
0.5165041161384499
  0
CIRCLE
  5
490
330
1F
100
AcDbEntity
  8
media
 67
0
100
AcDbCircle
 10
88.5569828163715
 20
3.145130663731017
 40
0.5636766584681879
  0
CIRCLE
  5
491
330
1F
100
AcDbEntity
  8
media
 67
0
100
AcDbCircle
 10
52.268804768812515
 20
13.363486946870708
 40
1.1375621813462047
  0
CIRCLE
  5
492
330
1F
100
AcDbEntity
  8
media
 67
0
100
AcDbCircle
 10
20.907331645008004
 20
19.629602476159025
 40
0.6927361528386541
  0
CIRCLE
  5
493
330
1F
100
AcDbEntity
  8
media
 67
0
100
AcDbCircle
 10
92.82999983704642
 20
12.295235009803948
 40
0.5550264215880647
  0
CIRCLE
  5
494
330
1F
100
AcDbEntity
  8
media
 67
0
100
AcDbCircle
 10
25.790047217071145
 20
22.246656582067526
 40
1.1796515047883958
  0
CIRCLE
  5
495
330
1F
100
AcDbEntity
  8
media
 67
0
100
AcDbCircle
 10
62.917749985329806
 20
17.11084490003008
 40
0.9017542052675285
  0
CIRCLE
  5
496
330
1F
100
AcDbEntity
  8
media
 67
0
100
AcDbCircle
 10
3.557871165295765
 20
18.352119634341136
 40
0.7787872122861723
  0
CIRCLE
  5
497
330
1F
100
AcDbEntity
  8
media
 67
0
100
AcDbCircle
 10
70.19864138138402
 20
2.0800953062710317
 40
1.1874371700155164
  0
CIRCLE
  5
498
330
1F
100
AcDbEntity
  8
media
 67
0
100
AcDbCircle
 10
32.87953528113332
 20
11.672822206925757
 40
1.11672556707635
  0
CIRCLE
  5
499
330
1F
100
AcDbEntity
  8
media
 67
0
100
AcDbCircle
 10
76.04952628258874
 20
8.493128646355792
 40
0.52577889385276
  0
CIRCLE
  5
49A
330
1F
100
AcDbEntity
  8
media
 67
0
100
AcDbCircle
 10
32.32007919745912
 20
7.967634854505393
 40
0.9054346129041617
  0
CIRCLE
  5
49B
330
1F
100
AcDbEntity
  8
media
 67
0
100
AcDbCircle
 10
52.98227978284797
 20
7.767261950039769
 40
0.6298737019096753
  0
CIRCLE
  5
49C
330
1F
100
AcDbEntity
  8
media
 67
0
100
AcDbCircle
 10
83.91224568496598
 20
11.883766831296871
 40
0.7921760317337116
  0
CIRCLE
  5
49D
330
1F
100
AcDbEntity
  8
media
 67
0
100
AcDbCircle
 10
28.695798555923407
 20
16.216309546124556
 40
0.9804416339448545
  0
CIRCLE
  5
49E
330
1F
100
AcDbEntity
  8
media
 67
0
100
AcDbCircle
 10
33.50957164425547
 20
1.4629923531420248
 40
1.0462097440444085
  0
CIRCLE
  5
49F
330
1F
100
AcDbEntity
  8
media
 67
0
100
AcDbCircle
 10
73.59841218116435
 20
7.445576263367077
 40
0.6881680704172591
  0
CIRCLE
  5
4A0
330
1F
100
AcDbEntity
  8
media
 67
0
100
AcDbCircle
 10
27.375545448232366
 20
16.52889392091297
 40
1.0560624676181112
  0
CIRCLE
  5
4A1
330
1F
100
AcDbEntity
  8
media
 67
0
100
AcDbCircle
 10
61.99365593543697
 20
16.21219921795059
 40
0.9869750675045919
  0
CIRCLE
  5
4A2
330
1F
100
AcDbEntity
  8
media
 67
0
100
AcDbCircle
 10
7.294791364504752
 20
20.61937174993911
 40
0.5139444643634715
  0
CIRCLE
  5
4A3
330
1F
100
AcDbEntity
  8
media
 67
0
100
AcDbCircle
 10
4.733234000475738
 20
20.9877560312911
 40
1.0127085904259276
  0
CIRCLE
  5
4A4
330
1F
100
AcDbEntity
  8
media
 67
0
100
AcDbCircle
 10
5.922300420506733
 20
20.69902958797792
 40
1.1343164504563703
  0
CIRCLE
  5
4A5
330
1F
100
AcDbEntity
  8
media
 67
0
100
AcDbCircle
 10
51.1066892246026
 20
21.662144506867584
 40
0.7631403954771416
  0
CIRCLE
  5
4A6
330
1F
100
AcDbEntity
  8
media
 67
0
100
AcDbCircle
 10
28.627580303583937
 20
21.258549378690322
 40
0.5042532288430663
  0
CIRCLE
  5
4A7
330
1F
100
AcDbEntity
  8
media
 67
0
100
AcDbCircle
 10
98.10138634470606
 20
5.921175501100764
 40
1.1003851161562606
  0
CIRCLE
  5
4A8
330
1F
100
AcDbEntity
  8
media
 67
0
100
AcDbCircle
 10
19.08018180450895
 20
15.753357592177453
 40
1.166322821408511
  0
CIRCLE
  5
4A9
330
1F
100
AcDbEntity
  8
media
 67
0
100
AcDbCircle
 10
42.82953784454044
 20
22.541540190791682
 40
0.9884289163401281
  0
CIRCLE
  5
4AA
330
1F
100
AcDbEntity
  8
media
 67
0
100
AcDbCircle
 10
39.95692351135693
 20
22.51076098907726
 40
0.6963296719054188
  0
CIRCLE
  5
4AB
330
1F
100
AcDbEntity
  8
media
 67
0
100
AcDbCircle
 10
28.780079944693487
 20
19.96132386473192
 40
0.5109865026803051
  0
CIRCLE
  5
4AC
330
1F
100
AcDbEntity
  8
media
 67
0
100
AcDbCircle
 10
98.98464726642882
 20
2.898096752140706
 40
0.7290978067241378
  0
CIRCLE
  5
4AD
330
1F
100
AcDbEntity
  8
media
 67
0
100
AcDbCircle
 10
62.05425507653858
 20
9.128225124462976
 40
0.6082957251059936
  0
CIRCLE
  5
4AE
330
1F
100
AcDbEntity
  8
media
 67
0
100
AcDbCircle
 10
49.74882583007386
 20
5.993324816308044
 40
0.6196775229940007
  0
CIRCLE
  5
4AF
330
1F
100
AcDbEntity
  8
media
 67
0
100
AcDbCircle
 10
44.64567237297087
 20
5.206959667102262
 40
0.9372572157809658
  0
CIRCLE
  5
4B0
330
1F
100
AcDbEntity
  8
media
 67
0
100
AcDbCircle
 10
20.15208511882434
 20
9.445528676540075
 40
0.9145818675700317
  0
CIRCLE
  5
4B1
330
1F
100
AcDbEntity
  8
media
 67
0
100
AcDbCircle
 10
72.7096401070013
 20
22.48984036315639
 40
1.0163390726842172
  0
CIRCLE
  5
4B2
330
1F
100
AcDbEntity
  8
media
 67
0
100
AcDbCircle
 10
40.905924267987494
 20
16.04716997362538
 40
1.1786389157989594
  0
CIRCLE
  5
4B3
330
1F
100
AcDbEntity
  8
media
 67
0
100
AcDbCircle
 10
44.71707218994499
 20
1.5046648803192073
 40
1.0067632452198536
  0
CIRCLE
  5
4B4
330
1F
100
AcDbEntity
  8
media
 67
0
100
AcDbCircle
 10
70.35441156622149
 20
21.92469900546175
 40
0.8970623332968104
  0
CIRCLE
  5
4B5
330
1F
100
AcDbEntity
  8
media
 67
0
100
AcDbCircle
 10
93.5168248275872
 20
13.212975275122178
 40
0.6087849186723455
  0
CIRCLE
  5
4B6
330
1F
100
AcDbEntity
  8
media
 67
0
100
AcDbCircle
 10
60.75835501703014
 20
7.955556289681288
 40
0.8093715220646158
  0
CIRCLE
  5
4B7
330
1F
100
AcDbEntity
  8
media
 67
0
100
AcDbCircle
 10
55.01315846542179
 20
22.806244564002387
 40
0.7285019062082849
  0
CIRCLE
  5
4B8
330
1F
100
AcDbEntity
  8
media
 67
0
100
AcDbCircle
 10
29.4922706466498
 20
21.696810348519396
 40
1.1556047943914263
  0
CIRCLE
  5
4B9
330
1F
100
AcDbEntity
  8
media
 67
0
100
AcDbCircle
 10
67.86518813665344
 20
15.952250049960801
 40
0.8839619573861429
  0
CIRCLE
  5
4BA
330
1F
100
AcDbEntity
  8
media
 67
0
100
AcDbCircle
 10
23.967299308866732
 20
14.332894976615043
 40
0.7075782328881557
  0
CIRCLE
  5
4BB
330
1F
100
AcDbEntity
  8
media
 67
0
100
AcDbCircle
 10
71.14697069132191
 20
18.927435523586258
 40
0.851496495741831
  0
CIRCLE
  5
4BC
330
1F
100
AcDbEntity
  8
media
 67
0
100
AcDbCircle
 10
17.66118244479195
 20
1.9519832842851041
 40
1.0058134758663777
  0
CIRCLE
  5
4BD
330
1F
100
AcDbEntity
  8
media
 67
0
100
AcDbCircle
 10
83.90315200274459
 20
8.345021343275
 40
0.614560208551473
  0
CIRCLE
  5
4BE
330
1F
100
AcDbEntity
  8
media
 67
0
100
AcDbCircle
 10
1.5953233395832296
 20
1.6694360627555827
 40
0.7249335084820101
  0
CIRCLE
  5
4BF
330
1F
100
AcDbEntity
  8
media
 67
0
100
AcDbCircle
 10
41.462189519591625
 20
7.758269309933582
 40
0.5213899251266206
  0
CIRCLE
  5
4C0
330
1F
100
AcDbEntity
  8
media
 67
0
100
AcDbCircle
 10
73.44764022206516
 20
13.432840157062635
 40
0.6625785621641834
  0
CIRCLE
  5
4C1
330
1F
100
AcDbEntity
  8
media
 67
0
100
AcDbCircle
 10
62.47742810757656
 20
18.7245172694527
 40
0.902669343057845
  0
CIRCLE
  5
4C2
330
1F
100
AcDbEntity
  8
media
 67
0
100
AcDbCircle
 10
83.73449812683589
 20
3.81049103409306
 40
1.158315391381684
  0
CIRCLE
  5
4C3
330
1F
100
AcDbEntity
  8
media
 67
0
100
AcDbCircle
 10
94.5901071029343
 20
6.12915740349668
 40
0.5983315534398823
  0
CIRCLE
  5
4C4
330
1F
100
AcDbEntity
  8
media
 67
0
100
AcDbCircle
 10
75.35657483615364
 20
2.2172957386740206
 40
0.5219551468918344
  0
CIRCLE
  5
4C5
330
1F
100
AcDbEntity
  8
media
 67
0
100
AcDbCircle
 10
50.04850553873937
 20
20.418533313220998
 40
1.1098044382009062
  0
CIRCLE
  5
4C6
330
1F
100
AcDbEntity
  8
media
 67
0
100
AcDbCircle
 10
1.0558777599588316
 20
2.9830239537979804
 40
0.9299031426568567
  0
CIRCLE
  5
4C7
330
1F
100
AcDbEntity
  8
media
 67
0
100
AcDbCircle
 10
40.423965569914266
 20
6.412846212555886
 40
1.0467740515580175
  0
CIRCLE
  5
4C8
330
1F
100
AcDbEntity
  8
media
 67
0
100
AcDbCircle
 10
11.911522270755917
 20
8.694333297363379
 40
0.6594918142718813
  0
CIRCLE
  5
4C9
330
1F
100
AcDbEntity
  8
media
 67
0
100
AcDbCircle
 10
51.42732477969738
 20
10.134483977426237
 40
0.9965492575858146
  0
CIRCLE
  5
4CA
330
1F
100
AcDbEntity
  8
media
 67
0
100
AcDbCircle
 10
11.368373610278
 20
15.572792454100577
 40
1.0433727895717002
  0
CIRCLE
  5
4CB
330
1F
100
AcDbEntity
  8
media
 67
0
100
AcDbCircle
 10
82.66185517494844
 20
22.199279512244473
 40
0.7845212278079577
  0
CIRCLE
  5
4CC
330
1F
100
AcDbEntity
  8
media
 67
0
100
AcDbCircle
 10
76.50308172998635
 20
4.485973609132984
 40
1.1817981777991644
  0
CIRCLE
  5
4CD
330
1F
100
AcDbEntity
  8
media
 67
0
100
AcDbCircle
 10
43.79331353590022
 20
20.668910563552107
 40
0.7632498431277223
  0
CIRCLE
  5
4CE
330
1F
100
AcDbEntity
  8
media
 67
0
100
AcDbCircle
 10
52.522604351900455
 20
12.724404952369984
 40
0.71488764214434
  0
CIRCLE
  5
4CF
330
1F
100
AcDbEntity
  8
media
 67
0
100
AcDbCircle
 10
86.47180230382432
 20
22.245094703206775
 40
0.8922526171684408
  0
CIRCLE
  5
4D0
330
1F
100
AcDbEntity
  8
media
 67
0
100
AcDbCircle
 10
76.8587756479139
 20
1.0330348387143014
 40
1.1474816074839356
  0
CIRCLE
  5
4D1
330
1F
100
AcDbEntity
  8
media
 67
0
100
AcDbCircle
 10
16.667754429235575
 20
15.18480617668413
 40
0.6273993672779865
  0
CIRCLE
  5
4D2
330
1F
100
AcDbEntity
  8
media
 67
0
100
AcDbCircle
 10
83.43927309234309
 20
3.764945285924161
 40
0.794619936036245
  0
CIRCLE
  5
4D3
330
1F
100
AcDbEntity
  8
media
 67
0
100
AcDbCircle
 10
43.310714698073895
 20
2.923569468612942
 40
0.622240427756732
  0
CIRCLE
  5
4D4
330
1F
100
AcDbEntity
  8
media
 67
0
100
AcDbCircle
 10
59.581692479049664
 20
3.7744042028871676
 40
0.8461165457104163
  0
CIRCLE
  5
4D5
330
1F
100
AcDbEntity
  8
media
 67
0
100
AcDbCircle
 10
37.35713540697261
 20
17.93030685317955
 40
0.8333980905717717
  0
CIRCLE
  5
4D6
330
1F
100
AcDbEntity
  8
media
 67
0
100
AcDbCircle
 10
23.378385020586496
 20
11.689858181756367
 40
1.0499017899322065
  0
CIRCLE
  5
4D7
330
1F
100
AcDbEntity
  8
media
 67
0
100
AcDbCircle
 10
41.8482072578555
 20
22.86309880439374
 40
0.7769004787321718
  0
CIRCLE
  5
4D8
330
1F
100
AcDbEntity
  8
media
 67
0
100
AcDbCircle
 10
68.33344407315772
 20
14.327848692135182
 40
0.7103945869359835
  0
CIRCLE
  5
4D9
330
1F
100
AcDbEntity
  8
media
 67
0
100
AcDbCircle
 10
70.50397386858484
 20
8.989947472559741
 40
1.1203081237942278
  0
CIRCLE
  5
4DA
330
1F
100
AcDbEntity
  8
media
 67
0
100
AcDbCircle
 10
90.75764728576165
 20
22.47154807258992
 40
1.1617251517691216
  0
CIRCLE
  5
4DB
330
1F
100
AcDbEntity
  8
media
 67
0
100
AcDbCircle
 10
62.963911584767324
 20
19.520923981273707
 40
0.9084993531541699
  0
CIRCLE
  5
4DC
330
1F
100
AcDbEntity
  8
media
 67
0
100
AcDbCircle
 10
81.11341387010022
 20
6.107099604554153
 40
0.5321168406671206
  0
CIRCLE
  5
4DD
330
1F
100
AcDbEntity
  8
media
 67
0
100
AcDbCircle
 10
83.71167433977661
 20
17.76324392208962
 40
0.6652455145823376
  0
CIRCLE
  5
4DE
330
1F
100
AcDbEntity
  8
media
 67
0
100
AcDbCircle
 10
37.883141262177965
 20
19.341730534887297
 40
1.0224718550910954
  0
CIRCLE
  5
4DF
330
1F
100
AcDbEntity
  8
media
 67
0
100
AcDbCircle
 10
75.40169258930521
 20
13.029160625981262
 40
0.7625309133530258
  0
CIRCLE
  5
4E0
330
1F
100
AcDbEntity
  8
media
 67
0
100
AcDbCircle
 10
13.763224019622049
 20
12.428832286750009
 40
0.6698209015781982
  0
CIRCLE
  5
4E1
330
1F
100
AcDbEntity
  8
media
 67
0
100
AcDbCircle
 10
90.93192660669607
 20
21.568396552465643
 40
1.0086977570474482
  0
CIRCLE
  5
4E2
330
1F
100
AcDbEntity
  8
media
 67
0
100
AcDbCircle
 10
95.98647066353949
 20
2.912094343445755
 40
0.9332519409140253
  0
CIRCLE
  5
4E3
330
1F
100
AcDbEntity
  8
media
 67
0
100
AcDbCircle
 10
17.24401886978287
 20
23.275774138675153
 40
0.9642473946451497
  0
CIRCLE
  5
4E4
330
1F
100
AcDbEntity
  8
media
 67
0
100
AcDbCircle
 10
52.23199907885268
 20
6.4320788027162745
 40
0.664169779054763
  0
CIRCLE
  5
4E5
330
1F
100
AcDbEntity
  8
media
 67
0
100
AcDbCircle
 10
27.465439972339603
 20
23.08433244502559
 40
0.9644393576663766
  0
CIRCLE
  5
4E6
330
1F
100
AcDbEntity
  8
media
 67
0
100
AcDbCircle
 10
57.938905019195424
 20
12.687219786691614
 40
0.5010345382611888
  0
CIRCLE
  5
4E7
330
1F
100
AcDbEntity
  8
media
 67
0
100
AcDbCircle
 10
12.835748942391948
 20
6.5585494142341325
 40
0.6255339494189109
  0
CIRCLE
  5
4E8
330
1F
100
AcDbEntity
  8
media
 67
0
100
AcDbCircle
 10
81.41160996689314
 20
7.954654151845689
 40
0.5371557091486834
  0
CIRCLE
  5
4E9
330
1F
100
AcDbEntity
  8
media
 67
0
100
AcDbCircle
 10
48.408932163882426
 20
1.8182714336707884
 40
0.9303885870083058
  0
CIRCLE
  5
4EA
330
1F
100
AcDbEntity
  8
media
 67
0
100
AcDbCircle
 10
65.21665151671841
 20
14.800213763027033
 40
1.0285397303082684
  0
CIRCLE
  5
4EB
330
1F
100
AcDbEntity
  8
media
 67
0
100
AcDbCircle
 10
25.013947316784815
 20
23.815818652487625
 40
0.5892548179494821
  0
CIRCLE
  5
4EC
330
1F
100
AcDbEntity
  8
media
 67
0
100
AcDbCircle
 10
39.79257380609028
 20
1.8236106920926458
 40
0.97720861075763
  0
CIRCLE
  5
4ED
330
1F
100
AcDbEntity
  8
media
 67
0
100
AcDbCircle
 10
5.574717029004625
 20
10.74684435329773
 40
0.6314846191097723
  0
CIRCLE
  5
4EE
330
1F
100
AcDbEntity
  8
media
 67
0
100
AcDbCircle
 10
43.22898647729704
 20
20.952990981626908
 40
0.528908227582351
  0
CIRCLE
  5
4EF
330
1F
100
AcDbEntity
  8
media
 67
0
100
AcDbCircle
 10
1.5468118866095735
 20
6.114173813719633
 40
0.7518768752782308
  0
CIRCLE
  5
4F0
330
1F
100
AcDbEntity
  8
media
 67
0
100
AcDbCircle
 10
76.81063314660229
 20
9.922685529985761
 40
0.5899398970381451
  0
CIRCLE
  5
4F1
330
1F
100
AcDbEntity
  8
media
 67
0
100
AcDbCircle
 10
37.59249556053906
 20
16.58828974613111
 40
0.7342811961919891
  0
CIRCLE
  5
4F2
330
1F
100
AcDbEntity
  8
media
 67
0
100
AcDbCircle
 10
78.68735033998072
 20
6.1289694069564975
 40
1.1977390103494068
  0
CIRCLE
  5
4F3
330
1F
100
AcDbEntity
  8
media
 67
0
100
AcDbCircle
 10
68.40845916235449
 20
17.16185318036133
 40
1.142364705252717
  0
CIRCLE
  5
4F4
330
1F
100
AcDbEntity
  8
media
 67
0
100
AcDbCircle
 10
57.959676710296165
 20
20.842443989581092
 40
0.6688215294096358
  0
CIRCLE
  5
4F5
330
1F
100
AcDbEntity
  8
media
 67
0
100
AcDbCircle
 10
11.847934403990877
 20
12.953687552687901
 40
0.9493094544933742
  0
CIRCLE
  5
4F6
330
1F
100
AcDbEntity
  8
media
 67
0
100
AcDbCircle
 10
17.614475883324925
 20
12.780469990315064
 40
1.1399412267297322
  0
CIRCLE
  5
4F7
330
1F
100
AcDbEntity
  8
media
 67
0
100
AcDbCircle
 10
89.5473587192475
 20
21.831412174173476
 40
1.1741926464863965
  0
CIRCLE
  5
4F8
330
1F
100
AcDbEntity
  8
media
 67
0
100
AcDbCircle
 10
73.85133056187581
 20
13.869507106845376
 40
1.0213616755621144
  0
CIRCLE
  5
4F9
330
1F
100
AcDbEntity
  8
media
 67
0
100
AcDbCircle
 10
66.39248446275005
 20
3.4267802215012253
 40
0.6667999664662054
  0
CIRCLE
  5
4FA
330
1F
100
AcDbEntity
  8
media
 67
0
100
AcDbCircle
 10
42.15560905993834
 20
1.8436545819470016
 40
0.8777131491159137
  0
CIRCLE
  5
4FB
330
1F
100
AcDbEntity
  8
media
 67
0
100
AcDbCircle
 10
44.84478784868353
 20
13.812002434721585
 40
0.8322391089487615
  0
CIRCLE
  5
4FC
330
1F
100
AcDbEntity
  8
media
 67
0
100
AcDbCircle
 10
94.07708040740756
 20
12.975807359709261
 40
0.9682960410094754
  0
CIRCLE
  5
4FD
330
1F
100
AcDbEntity
  8
media
 67
0
100
AcDbCircle
 10
52.171094777403
 20
21.08994039326098
 40
0.778780584259208
  0
CIRCLE
  5
4FE
330
1F
100
AcDbEntity
  8
media
 67
0
100
AcDbCircle
 10
32.69576817045551
 20
15.088633703497754
 40
0.8101418337640006
  0
CIRCLE
  5
4FF
330
1F
100
AcDbEntity
  8
media
 67
0
100
AcDbCircle
 10
3.8524105111292
 20
6.486418549057373
 40
0.7750492951723095
  0
CIRCLE
  5
500
330
1F
100
AcDbEntity
  8
media
 67
0
100
AcDbCircle
 10
21.514779645521173
 20
2.4208418057481866
 40
0.5790657705055896
  0
CIRCLE
  5
501
330
1F
100
AcDbEntity
  8
media
 67
0
100
AcDbCircle
 10
76.27916659852146
 20
1.8088722444257908
 40
1.0359038330610715
  0
CIRCLE
  5
502
330
1F
100
AcDbEntity
  8
media
 67
0
100
AcDbCircle
 10
8.0009472587775
 20
8.2018844698873
 40
1.126304259409214
  0
CIRCLE
  5
503
330
1F
100
AcDbEntity
  8
media
 67
0
100
AcDbCircle
 10
60.94266145279237
 20
9.383052097259208
 40
0.7855179010101614
  0
CIRCLE
  5
504
330
1F
100
AcDbEntity
  8
media
 67
0
100
AcDbCircle
 10
46.71721024639395
 20
5.598042871911642
 40
0.5176972582111885
  0
CIRCLE
  5
505
330
1F
100
AcDbEntity
  8
media
 67
0
100
AcDbCircle
 10
59.2816350890277
 20
1.4885774913100034
 40
0.5565622530288332
  0
CIRCLE
  5
506
330
1F
100
AcDbEntity
  8
media
 67
0
100
AcDbCircle
 10
95.23900321766462
 20
4.716280308234293
 40
1.194596776509403
  0
CIRCLE
  5
507
330
1F
100
AcDbEntity
  8
media
 67
0
100
AcDbCircle
 10
74.59654247623614
 20
23.218569553366773
 40
1.081492513899145
  0
CIRCLE
  5
508
330
1F
100
AcDbEntity
  8
media
 67
0
100
AcDbCircle
 10
46.49537542313617
 20
15.252626089994493
 40
0.5774108050647015
  0
CIRCLE
  5
509
330
1F
100
AcDbEntity
  8
media
 67
0
100
AcDbCircle
 10
52.79113139301457
 20
1.7238160080111937
 40
1.1942035117799419
  0
CIRCLE
  5
50A
330
1F
100
AcDbEntity
  8
media
 67
0
100
AcDbCircle
 10
36.353669973272126
 20
20.62396613718308
 40
0.5719306723538959
  0
CIRCLE
  5
50B
330
1F
100
AcDbEntity
  8
media
 67
0
100
AcDbCircle
 10
90.61581343124544
 20
23.08202502358052
 40
0.5022958404563688
  0
CIRCLE
  5
50C
330
1F
100
AcDbEntity
  8
media
 67
0
100
AcDbCircle
 10
65.38873293833204
 20
15.787010553699877
 40
0.541906797344802
  0
CIRCLE
  5
50D
330
1F
100
AcDbEntity
  8
media
 67
0
100
AcDbCircle
 10
68.52435546046017
 20
17.0362005670836
 40
0.7513601847790783
  0
CIRCLE
  5
50E
330
1F
100
AcDbEntity
  8
media
 67
0
100
AcDbCircle
 10
37.08707281406281
 20
21.225360040506995
 40
0.6897252707417868
  0
CIRCLE
  5
50F
330
1F
100
AcDbEntity
  8
media
 67
0
100
AcDbCircle
 10
33.2909234554901
 20
22.835602905886432
 40
0.8005274472726169
  0
CIRCLE
  5
510
330
1F
100
AcDbEntity
  8
media
 67
0
100
AcDbCircle
 10
86.24756073366169
 20
13.915115036383447
 40
0.8667927405417603
  0
CIRCLE
  5
511
330
1F
100
AcDbEntity
  8
media
 67
0
100
AcDbCircle
 10
26.434619908052618
 20
14.99985769345983
 40
0.7287286072683009
  0
CIRCLE
  5
512
330
1F
100
AcDbEntity
  8
media
 67
0
100
AcDbCircle
 10
61.6059587734927
 20
12.238291571893335
 40
0.7640031920032779
  0
CIRCLE
  5
513
330
1F
100
AcDbEntity
  8
media
 67
0
100
AcDbCircle
 10
33.83373336440404
 20
12.993137034076131
 40
1.1719031118469887
  0
CIRCLE
  5
514
330
1F
100
AcDbEntity
  8
media
 67
0
100
AcDbCircle
 10
25.380046873243426
 20
10.364834161558777
 40
0.8629773881870433
  0
CIRCLE
  5
515
330
1F
100
AcDbEntity
  8
media
 67
0
100
AcDbCircle
 10
34.35958137665283
 20
6.657412172844869
 40
0.5200987561678558
  0
CIRCLE
  5
516
330
1F
100
AcDbEntity
  8
media
 67
0
100
AcDbCircle
 10
74.59305213670874
 20
2.5799882729122534
 40
1.0321043894185302
  0
CIRCLE
  5
517
330
1F
100
AcDbEntity
  8
media
 67
0
100
AcDbCircle
 10
70.68743313380632
 20
15.54382010027636
 40
0.7955890203204254
  0
CIRCLE
  5
518
330
1F
100
AcDbEntity
  8
media
 67
0
100
AcDbCircle
 10
19.881764817075464
 20
18.581955316026406
 40
0.74249434050704
  0
CIRCLE
  5
519
330
1F
100
AcDbEntity
  8
media
 67
0
100
AcDbCircle
 10
2.1774420656525564
 20
2.6508158654211402
 40
0.5982917539802404
  0
CIRCLE
  5
51A
330
1F
100
AcDbEntity
  8
media
 67
0
100
AcDbCircle
 10
65.39094748411816
 20
12.093844149709945
 40
1.1805097586793605
  0
CIRCLE
  5
51B
330
1F
100
AcDbEntity
  8
media
 67
0
100
AcDbCircle
 10
1.9311192832082056
 20
8.532768960579947
 40
0.9268816620793816
  0
CIRCLE
  5
51C
330
1F
100
AcDbEntity
  8
media
 67
0
100
AcDbCircle
 10
21.88539307370069
 20
13.592970105158303
 40
0.5141716245353894
  0
CIRCLE
  5
51D
330
1F
100
AcDbEntity
  8
media
 67
0
100
AcDbCircle
 10
55.581250968019766
 20
14.255007935746846
 40
1.0999917484395105
  0
CIRCLE
  5
51E
330
1F
100
AcDbEntity
  8
media
 67
0
100
AcDbCircle
 10
26.39067345446254
 20
1.1441245751002054
 40
1.1507637730990101
  0
CIRCLE
  5
51F
330
1F
100
AcDbEntity
  8
media
 67
0
100
AcDbCircle
 10
53.603729364000344
 20
4.8243111902856874
 40
1.1638195169233698
  0
CIRCLE
  5
520
330
1F
100
AcDbEntity
  8
media
 67
0
100
AcDbCircle
 10
77.10336355994059
 20
17.493432107602775
 40
1.055688160912529
  0
CIRCLE
  5
521
330
1F
100
AcDbEntity
  8
media
 67
0
100
AcDbCircle
 10
48.91887959665863
 20
13.985839928048875
 40
1.029137263252459
  0
CIRCLE
  5
522
330
1F
100
AcDbEntity
  8
media
 67
0
100
AcDbCircle
 10
27.033682526406732
 20
10.580941292616698
 40
0.7437675464784627
  0
CIRCLE
  5
523
330
1F
100
AcDbEntity
  8
media
 67
0
100
AcDbCircle
 10
85.09965934473534
 20
15.531453724890692
 40
1.1172217447095907
  0
CIRCLE
  5
524
330
1F
100
AcDbEntity
  8
media
 67
0
100
AcDbCircle
 10
29.229938749533076
 20
14.030432872335346
 40
0.858022259969409
  0
CIRCLE
  5
525
330
1F
100
AcDbEntity
  8
media
 67
0
100
AcDbCircle
 10
46.68717359555267
 20
3.3218412425471926
 40
0.5107374221266396
  0
CIRCLE
  5
526
330
1F
100
AcDbEntity
  8
media
 67
0
100
AcDbCircle
 10
91.71967527672695
 20
18.670611743293186
 40
0.9554741257608166
  0
CIRCLE
  5
527
330
1F
100
AcDbEntity
  8
media
 67
0
100
AcDbCircle
 10
96.67127691759322
 20
9.79254491033508
 40
1.1895143942225923
  0
CIRCLE
  5
528
330
1F
100
AcDbEntity
  8
media
 67
0
100
AcDbCircle
 10
77.23467571104935
 20
4.536392372805904
 40
0.9321542119813755
  0
CIRCLE
  5
529
330
1F
100
AcDbEntity
  8
media
 67
0
100
AcDbCircle
 10
23.950822553396574
 20
19.34577063022702
 40
0.5976713332422809
  0
CIRCLE
  5
52A
330
1F
100
AcDbEntity
  8
media
 67
0
100
AcDbCircle
 10
12.107922889606746
 20
23.120338926769307
 40
0.5297936714033311
  0
CIRCLE
  5
52B
330
1F
100
AcDbEntity
  8
media
 67
0
100
AcDbCircle
 10
49.24271827041538
 20
21.118672404342373
 40
0.9439622134364838
  0
CIRCLE
  5
52C
330
1F
100
AcDbEntity
  8
media
 67
0
100
AcDbCircle
 10
49.016025960880086
 20
9.593733291458687
 40
0.9728046221890616
  0
CIRCLE
  5
52D
330
1F
100
AcDbEntity
  8
media
 67
0
100
AcDbCircle
 10
1.842275271370488
 20
13.239591933813593
 40
0.6989603971006219
  0
CIRCLE
  5
52E
330
1F
100
AcDbEntity
  8
media
 67
0
100
AcDbCircle
 10
51.26463604127628
 20
21.530106666117316
 40
0.9849487790505389
  0
CIRCLE
  5
52F
330
1F
100
AcDbEntity
  8
media
 67
0
100
AcDbCircle
 10
19.749716744493835
 20
10.667677351566033
 40
0.5371880064165436
  0
CIRCLE
  5
530
330
1F
100
AcDbEntity
  8
media
 67
0
100
AcDbCircle
 10
10.254709220116586
 20
18.633075227300633
 40
1.0434403385601811
  0
CIRCLE
  5
531
330
1F
100
AcDbEntity
  8
media
 67
0
100
AcDbCircle
 10
46.89986918994781
 20
21.672258453884247
 40
1.1584958108323455
  0
CIRCLE
  5
532
330
1F
100
AcDbEntity
  8
media
 67
0
100
AcDbCircle
 10
87.43601999721733
 20
3.2694395441053272
 40
1.099509189666371
  0
CIRCLE
  5
533
330
1F
100
AcDbEntity
  8
media
 67
0
100
AcDbCircle
 10
8.578414879399293
 20
21.90213392149993
 40
0.9253791149809871
  0
CIRCLE
  5
534
330
1F
100
AcDbEntity
  8
media
 67
0
100
AcDbCircle
 10
11.021067256832756
 20
7.041990752368359
 40
0.8200792432422763
  0
CIRCLE
  5
535
330
1F
100
AcDbEntity
  8
media
 67
0
100
AcDbCircle
 10
8.233415501301916
 20
20.287138088523744
 40
1.1063483541947041
  0
CIRCLE
  5
536
330
1F
100
AcDbEntity
  8
media
 67
0
100
AcDbCircle
 10
5.912239288707804
 20
4.935284706035038
 40
0.5830671041665574
  0
CIRCLE
  5
537
330
1F
100
AcDbEntity
  8
media
 67
0
100
AcDbCircle
 10
26.00580905082412
 20
16.42686558339814
 40
1.0256530716725103
  0
CIRCLE
  5
538
330
1F
100
AcDbEntity
  8
media
 67
0
100
AcDbCircle
 10
89.16839573788863
 20
17.453451639820052
 40
0.6381272963479573
  0
CIRCLE
  5
539
330
1F
100
AcDbEntity
  8
media
 67
0
100
AcDbCircle
 10
44.52990715675687
 20
12.133307887831975
 40
1.127728759251479
  0
CIRCLE
  5
53A
330
1F
100
AcDbEntity
  8
media
 67
0
100
AcDbCircle
 10
10.15729105459228
 20
8.2881644677562
 40
1.0151542002890588
  0
CIRCLE
  5
53B
330
1F
100
AcDbEntity
  8
media
 67
0
100
AcDbCircle
 10
56.80707504023496
 20
17.164784658003363
 40
0.9112467645144181
  0
CIRCLE
  5
53C
330
1F
100
AcDbEntity
  8
media
 67
0
100
AcDbCircle
 10
94.09553571307295
 20
16.444908662304734
 40
0.9871261592555757
  0
CIRCLE
  5
53D
330
1F
100
AcDbEntity
  8
media
 67
0
100
AcDbCircle
 10
17.673979726521807
 20
18.002551756361637
 40
0.6569607909218779
  0
CIRCLE
  5
53E
330
1F
100
AcDbEntity
  8
media
 67
0
100
AcDbCircle
 10
62.59730116970999
 20
8.542309450622543
 40
1.0216598759108333
  0
CIRCLE
  5
53F
330
1F
100
AcDbEntity
  8
media
 67
0
100
AcDbCircle
 10
35.70998154458799
 20
23.67997723145907
 40
1.1231011748077189
  0
CIRCLE
  5
540
330
1F
100
AcDbEntity
  8
media
 67
0
100
AcDbCircle
 10
42.186855912281295
 20
16.64361905302714
 40
0.7634134726909682
  0
CIRCLE
  5
541
330
1F
100
AcDbEntity
  8
media
 67
0
100
AcDbCircle
 10
96.02961986942987
 20
20.56905108676814
 40
0.5763822684455518
  0
CIRCLE
  5
542
330
1F
100
AcDbEntity
  8
media
 67
0
100
AcDbCircle
 10
18.280986334523533
 20
11.30224993669282
 40
1.1510304865915058
  0
CIRCLE
  5
543
330
1F
100
AcDbEntity
  8
media
 67
0
100
AcDbCircle
 10
83.04154437554338
 20
10.259032438239096
 40
0.8023957246225911
  0
CIRCLE
  5
544
330
1F
100
AcDbEntity
  8
media
 67
0
100
AcDbCircle
 10
6.687760211456159
 20
13.634689746219921
 40
0.9635834634686791
  0
CIRCLE
  5
545
330
1F
100
AcDbEntity
  8
media
 67
0
100
AcDbCircle
 10
55.84431217801873
 20
12.326656219902201
 40
0.7148670428597785
  0
CIRCLE
  5
546
330
1F
100
AcDbEntity
  8
media
 67
0
100
AcDbCircle
 10
86.28282274888196
 20
11.34614104424941
 40
1.0487465503381372
  0
CIRCLE
  5
547
330
1F
100
AcDbEntity
  8
media
 67
0
100
AcDbCircle
 10
33.06368713847631
 20
19.55740066264243
 40
1.1653122320503497
  0
CIRCLE
  5
548
330
1F
100
AcDbEntity
  8
media
 67
0
100
AcDbCircle
 10
70.20892602407727
 20
1.836487989253579
 40
1.0447043269451903
  0
CIRCLE
  5
549
330
1F
100
AcDbEntity
  8
media
 67
0
100
AcDbCircle
 10
94.60590983012675
 20
3.185531803113304
 40
0.9129062195443682
  0
CIRCLE
  5
54A
330
1F
100
AcDbEntity
  8
media
 67
0
100
AcDbCircle
 10
75.87143059451144
 20
17.10775876262619
 40
1.1391667761990374
  0
CIRCLE
  5
54B
330
1F
100
AcDbEntity
  8
media
 67
0
100
AcDbCircle
 10
22.353848038623514
 20
5.908575495622777
 40
1.0587555606665089
  0
CIRCLE
  5
54C
330
1F
100
AcDbEntity
  8
media
 67
0
100
AcDbCircle
 10
53.54433471232407
 20
18.961163419402002
 40
0.955814615375854
  0
CIRCLE
  5
54D
330
1F
100
AcDbEntity
  8
media
 67
0
100
AcDbCircle
 10
49.0570829392462
 20
19.550909039763614
 40
0.6822414783967494
  0
CIRCLE
  5
54E
330
1F
100
AcDbEntity
  8
media
 67
0
100
AcDbCircle
 10
43.6649824488549
 20
10.29286194820645
 40
1.0618349346727207
  0
CIRCLE
  5
54F
330
1F
100
AcDbEntity
  8
media
 67
0
100
AcDbCircle
 10
11.300757866096662
 20
4.083931924771001
 40
0.5204547267436523
  0
CIRCLE
  5
550
330
1F
100
AcDbEntity
  8
media
 67
0
100
AcDbCircle
 10
81.03639230915392
 20
20.294153451115108
 40
0.7879244477276621
  0
CIRCLE
  5
551
330
1F
100
AcDbEntity
  8
media
 67
0
100
AcDbCircle
 10
58.75795349369421
 20
12.7544067068583
 40
0.7369349557771672
  0
CIRCLE
  5
552
330
1F
100
AcDbEntity
  8
media
 67
0
100
AcDbCircle
 10
71.4731325821094
 20
13.774318135036498
 40
1.1512859721404605
  0
CIRCLE
  5
553
330
1F
100
AcDbEntity
  8
media
 67
0
100
AcDbCircle
 10
62.757908034131894
 20
17.04640288917491
 40
0.6362111724556584
  0
CIRCLE
  5
554
330
1F
100
AcDbEntity
  8
media
 67
0
100
AcDbCircle
 10
61.85449859064385
 20
11.216107991029817
 40
0.7397523817546428
  0
CIRCLE
  5
555
330
1F
100
AcDbEntity
  8
media
 67
0
100
AcDbCircle
 10
87.24429365319455
 20
1.9000152397865016
 40
0.5801526807824425
  0
CIRCLE
  5
556
330
1F
100
AcDbEntity
  8
media
 67
0
100
AcDbCircle
 10
95.00294186396495
 20
13.44189569467819
 40
1.0251870382151145
  0
CIRCLE
  5
557
330
1F
100
AcDbEntity
  8
media
 67
0
100
AcDbCircle
 10
8.294617340109287
 20
5.786979415047892
 40
1.0114390653914545
  0
CIRCLE
  5
558
330
1F
100
AcDbEntity
  8
media
 67
0
100
AcDbCircle
 10
48.74479049713954
 20
21.67725376908506
 40
0.7682318629860695
  0
CIRCLE
  5
559
330
1F
100
AcDbEntity
  8
media
 67
0
100
AcDbCircle
 10
75.22297116623685
 20
13.404999563500933
 40
0.7657233322997459
  0
CIRCLE
  5
55A
330
1F
100
AcDbEntity
  8
media
 67
0
100
AcDbCircle
 10
38.028449402110574
 20
17.263132354327464
 40
0.7502940024313391
  0
CIRCLE
  5
55B
330
1F
100
AcDbEntity
  8
media
 67
0
100
AcDbCircle
 10
82.55572896951438
 20
2.4076432045262415
 40
0.541420696451244
  0
CIRCLE
  5
55C
330
1F
100
AcDbEntity
  8
media
 67
0
100
AcDbCircle
 10
56.08992235932176
 20
9.446273355819109
 40
0.5447664751819542
  0
CIRCLE
  5
55D
330
1F
100
AcDbEntity
  8
media
 67
0
100
AcDbCircle
 10
8.045780880629442
 20
1.3774642628302254
 40
0.6306010257331315
  0
CIRCLE
  5
55E
330
1F
100
AcDbEntity
  8
media
 67
0
100
AcDbCircle
 10
45.33481139793996
 20
23.581807650560922
 40
0.5920765007819888
  0
CIRCLE
  5
55F
330
1F
100
AcDbEntity
  8
media
 67
0
100
AcDbCircle
 10
10.106692179382451
 20
17.136282140390453
 40
0.9468868476555403
  0
CIRCLE
  5
560
330
1F
100
AcDbEntity
  8
media
 67
0
100
AcDbCircle
 10
47.24033789674709
 20
11.076974515792225
 40
0.763035445366173
  0
CIRCLE
  5
561
330
1F
100
AcDbEntity
  8
media
 67
0
100
AcDbCircle
 10
90.91779864207521
 20
9.825183530951943
 40
1.0101332831309464
  0
CIRCLE
  5
562
330
1F
100
AcDbEntity
  8
media
 67
0
100
AcDbCircle
 10
8.569356220386776
 20
6.091475461136689
 40
0.8544635095908844
  0
CIRCLE
  5
563
330
1F
100
AcDbEntity
  8
media
 67
0
100
AcDbCircle
 10
79.88001160413526
 20
3.1404574994581687
 40
0.6441875991706781
  0
CIRCLE
  5
564
330
1F
100
AcDbEntity
  8
media
 67
0
100
AcDbCircle
 10
37.034476936389126
 20
21.112284596795014
 40
0.7292394875406117
  0
CIRCLE
  5
565
330
1F
100
AcDbEntity
  8
media
 67
0
100
AcDbCircle
 10
11.775721088451641
 20
13.302279742671617
 40
0.5989855499653565
  0
CIRCLE
  5
566
330
1F
100
AcDbEntity
  8
media
 67
0
100
AcDbCircle
 10
9.43157175868239
 20
11.63632862660525
 40
0.8638236068665138
  0
CIRCLE
  5
567
330
1F
100
AcDbEntity
  8
media
 67
0
100
AcDbCircle
 10
31.018228139472853
 20
9.753926405459902
 40
0.5947603372081856
  0
CIRCLE
  5
568
330
1F
100
AcDbEntity
  8
media
 67
0
100
AcDbCircle
 10
87.58408669651176
 20
4.909766794089133
 40
0.809299773864816
  0
CIRCLE
  5
569
330
1F
100
AcDbEntity
  8
media
 67
0
100
AcDbCircle
 10
86.31264065945436
 20
13.577152408376676
 40
1.1908701601116403
  0
CIRCLE
  5
56A
330
1F
100
AcDbEntity
  8
media
 67
0
100
AcDbCircle
 10
29.66960616801112
 20
11.910512065976691
 40
0.5927323817133585
  0
CIRCLE
  5
56B
330
1F
100
AcDbEntity
  8
media
 67
0
100
AcDbCircle
 10
15.707729745619176
 20
19.035638185190013
 40
1.1285842664116492
  0
CIRCLE
  5
56C
330
1F
100
AcDbEntity
  8
media
 67
0
100
AcDbCircle
 10
77.46643873937408
 20
15.63363797001745
 40
0.6806995038094721
  0
CIRCLE
  5
56D
330
1F
100
AcDbEntity
  8
media
 67
0
100
AcDbCircle
 10
92.81293373048709
 20
23.240799964939878
 40
1.0246707491486085
  0
CIRCLE
  5
56E
330
1F
100
AcDbEntity
  8
media
 67
0
100
AcDbCircle
 10
67.79548692596632
 20
5.192412809043427
 40
0.868101900576958
  0
CIRCLE
  5
56F
330
1F
100
AcDbEntity
  8
media
 67
0
100
AcDbCircle
 10
87.33185729798853
 20
13.246768905387707
 40
0.6877795199008789
  0
CIRCLE
  5
570
330
1F
100
AcDbEntity
  8
media
 67
0
100
AcDbCircle
 10
32.84459895460451
 20
2.7939719868541064
 40
1.0821213021782117
  0
CIRCLE
  5
571
330
1F
100
AcDbEntity
  8
media
 67
0
100
AcDbCircle
 10
39.61821873598533
 20
18.01489910599109
 40
0.7949999565924449
  0
CIRCLE
  5
572
330
1F
100
AcDbEntity
  8
media
 67
0
100
AcDbCircle
 10
80.46338044232557
 20
14.403103520690506
 40
0.8467850358714766
  0
CIRCLE
  5
573
330
1F
100
AcDbEntity
  8
media
 67
0
100
AcDbCircle
 10
17.099141239789624
 20
11.121503831442212
 40
0.9172026471802897
  0
CIRCLE
  5
574
330
1F
100
AcDbEntity
  8
media
 67
0
100
AcDbCircle
 10
75.25967679848661
 20
2.853483961898538
 40
0.7442558393696092
  0
CIRCLE
  5
575
330
1F
100
AcDbEntity
  8
media
 67
0
100
AcDbCircle
 10
63.264451058419674
 20
18.207087446684206
 40
0.6681703201403886
  0
CIRCLE
  5
576
330
1F
100
AcDbEntity
  8
media
 67
0
100
AcDbCircle
 10
71.58379912460452
 20
3.5062751661282734
 40
1.137654231673026
  0
CIRCLE
  5
577
330
1F
100
AcDbEntity
  8
media
 67
0
100
AcDbCircle
 10
50.050785217299
 20
16.80860476631754
 40
0.6431695254393024
  0
CIRCLE
  5
578
330
1F
100
AcDbEntity
  8
media
 67
0
100
AcDbCircle
 10
12.800321475817402
 20
23.48836400470536
 40
0.6268518852891511
  0
CIRCLE
  5
579
330
1F
100
AcDbEntity
  8
media
 67
0
100
AcDbCircle
 10
3.313867679009719
 20
21.77516179608307
 40
0.733988616658339
  0
CIRCLE
  5
57A
330
1F
100
AcDbEntity
  8
media
 67
0
100
AcDbCircle
 10
81.25655976130338
 20
18.322703687516015
 40
0.7423063819083737
  0
CIRCLE
  5
57B
330
1F
100
AcDbEntity
  8
media
 67
0
100
AcDbCircle
 10
8.322603817621193
 20
5.515824133770689
 40
0.9820861297668572
  0
CIRCLE
  5
57C
330
1F
100
AcDbEntity
  8
media
 67
0
100
AcDbCircle
 10
63.046188261359454
 20
4.054453384176053
 40
0.9574636301658457
  0
CIRCLE
  5
57D
330
1F
100
AcDbEntity
  8
media
 67
0
100
AcDbCircle
 10
63.47622490778882
 20
19.271559732666113
 40
0.5374021321394917
  0
CIRCLE
  5
57E
330
1F
100
AcDbEntity
  8
media
 67
0
100
AcDbCircle
 10
12.130963573082449
 20
22.096450559456876
 40
0.9752510192235309
  0
CIRCLE
  5
57F
330
1F
100
AcDbEntity
  8
media
 67
0
100
AcDbCircle
 10
21.708059306551668
 20
18.255238549024945
 40
1.1690887029561225
  0
CIRCLE
  5
580
330
1F
100
AcDbEntity
  8
media
 67
0
100
AcDbCircle
 10
31.33107784526387
 20
1.3946687233110662
 40
0.9598756745525183
  0
CIRCLE
  5
581
330
1F
100
AcDbEntity
  8
media
 67
0
100
AcDbCircle
 10
38.13188062551658
 20
14.329095060781503
 40
1.1276423282130366
  0
CIRCLE
  5
582
330
1F
100
AcDbEntity
  8
media
 67
0
100
AcDbCircle
 10
79.99320449943848
 20
15.191747577867606
 40
1.1930560939003658
  0
CIRCLE
  5
583
330
1F
100
AcDbEntity
  8
media
 67
0
100
AcDbCircle
 10
71.71586002612835
 20
13.926473812284756
 40
0.6580583878482147
  0
CIRCLE
  5
584
330
1F
100
AcDbEntity
  8
media
 67
0
100
AcDbCircle
 10
91.2273153299335
 20
14.755732632336775
 40
0.8441873826645978
  0
CIRCLE
  5
585
330
1F
100
AcDbEntity
  8
media
 67
0
100
AcDbCircle
 10
14.40390834059383
 20
16.24936710253658
 40
0.7630632148563441
  0
CIRCLE
  5
586
330
1F
100
AcDbEntity
  8
media
 67
0
100
AcDbCircle
 10
76.4895018463704
 20
21.028055837774073
 40
1.0121617680227608
  0
CIRCLE
  5
587
330
1F
100
AcDbEntity
  8
media
 67
0
100
AcDbCircle
 10
44.5778225264961
 20
9.625984413013226
 40
0.9147551248337038
  0
CIRCLE
  5
588
330
1F
100
AcDbEntity
  8
media
 67
0
100
AcDbCircle
 10
49.71351161146006
 20
15.428195831597655
 40
0.6596690483180294
  0
CIRCLE
  5
589
330
1F
100
AcDbEntity
  8
media
 67
0
100
AcDbCircle
 10
93.51764776412524
 20
21.176122851747312
 40
0.8495466680177324
  0
CIRCLE
  5
58A
330
1F
100
AcDbEntity
  8
media
 67
0
100
AcDbCircle
 10
67.58651977462075
 20
11.864671732364041
 40
0.669251710016436
  0
CIRCLE
  5
58B
330
1F
100
AcDbEntity
  8
media
 67
0
100
AcDbCircle
 10
20.11241538172501
 20
9.223804199847018
 40
0.8108839669983352
  0
CIRCLE
  5
58C
330
1F
100
AcDbEntity
  8
media
 67
0
100
AcDbCircle
 10
52.382864249321244
 20
23.341853678790923
 40
0.9218945515485477
  0
CIRCLE
  5
58D
330
1F
100
AcDbEntity
  8
media
 67
0
100
AcDbCircle
 10
33.08444493313379
 20
17.46225409673533
 40
0.6089133950009267
  0
CIRCLE
  5
58E
330
1F
100
AcDbEntity
  8
media
 67
0
100
AcDbCircle
 10
27.113259043833907
 20
11.374053162145547
 40
1.0081289254357597
  0
CIRCLE
  5
58F
330
1F
100
AcDbEntity
  8
media
 67
0
100
AcDbCircle
 10
98.71185962321029
 20
3.7772076703454633
 40
0.5841157130533255
  0
CIRCLE
  5
590
330
1F
100
AcDbEntity
  8
media
 67
0
100
AcDbCircle
 10
66.82169429334267
 20
11.425352557697346
 40
1.0022420796860878
  0
CIRCLE
  5
591
330
1F
100
AcDbEntity
  8
media
 67
0
100
AcDbCircle
 10
91.3294442550744
 20
10.967922442554112
 40
0.8679069966392339
  0
CIRCLE
  5
592
330
1F
100
AcDbEntity
  8
media
 67
0
100
AcDbCircle
 10
37.72382340954689
 20
12.930096766512595
 40
0.8731118089260559
  0
CIRCLE
  5
593
330
1F
100
AcDbEntity
  8
media
 67
0
100
AcDbCircle
 10
60.374709218416584
 20
18.518713102315314
 40
1.0643611675368105
  0
CIRCLE
  5
594
330
1F
100
AcDbEntity
  8
media
 67
0
100
AcDbCircle
 10
77.10882143328075
 20
13.877917786786785
 40
0.7377365094687045
  0
CIRCLE
  5
595
330
1F
100
AcDbEntity
  8
media
 67
0
100
AcDbCircle
 10
15.708118586003538
 20
23.69530271240381
 40
1.0843487091875426
  0
CIRCLE
  5
596
330
1F
100
AcDbEntity
  8
media
 67
0
100
AcDbCircle
 10
95.86339347713076
 20
23.82514195627093
 40
0.7437211287334996
  0
CIRCLE
  5
597
330
1F
100
AcDbEntity
  8
media
 67
0
100
AcDbCircle
 10
32.574561792785076
 20
7.586468421871496
 40
0.5297210811796224
  0
CIRCLE
  5
598
330
1F
100
AcDbEntity
  8
media
 67
0
100
AcDbCircle
 10
13.572493694442073
 20
9.614938064061251
 40
0.8121888068137724
  0
CIRCLE
  5
599
330
1F
100
AcDbEntity
  8
media
 67
0
100
AcDbCircle
 10
35.18193031324505
 20
5.389960990799205
 40
1.1650833524046744
  0
CIRCLE
  5
59A
330
1F
100
AcDbEntity
  8
media
 67
0
100
AcDbCircle
 10
66.68587038764103
 20
18.599917714818723
 40
0.7755011269289853
  0
CIRCLE
  5
59B
330
1F
100
AcDbEntity
  8
media
 67
0
100
AcDbCircle
 10
52.31020292108024
 20
9.847679297681063
 40
1.1255327780129187
  0
CIRCLE
  5
59C
330
1F
100
AcDbEntity
  8
media
 67
0
100
AcDbCircle
 10
34.22376644414856
 20
21.188735681541534
 40
0.5121146068341572
  0
CIRCLE
  5
59D
330
1F
100
AcDbEntity
  8
media
 67
0
100
AcDbCircle
 10
37.29306154675145
 20
17.942466616966524
 40
1.1915973080762043
  0
CIRCLE
  5
59E
330
1F
100
AcDbEntity
  8
media
 67
0
100
AcDbCircle
 10
61.28446833099748
 20
4.058825267291292
 40
0.6699193174236122
  0
CIRCLE
  5
59F
330
1F
100
AcDbEntity
  8
media
 67
0
100
AcDbCircle
 10
49.70905369045551
 20
16.078031334488806
 40
0.6818867989848536
  0
CIRCLE
  5
5A0
330
1F
100
AcDbEntity
  8
media
 67
0
100
AcDbCircle
 10
6.084228822784174
 20
6.335499558737846
 40
0.6786208387907597
  0
CIRCLE
  5
5A1
330
1F
100
AcDbEntity
  8
media
 67
0
100
AcDbCircle
 10
27.51647394643556
 20
4.121787570178379
 40
0.5527050710424917
  0
CIRCLE
  5
5A2
330
1F
100
AcDbEntity
  8
media
 67
0
100
AcDbCircle
 10
74.33037216545512
 20
2.988414361019335
 40
1.1835792020939402
  0
CIRCLE
  5
5A3
330
1F
100
AcDbEntity
  8
media
 67
0
100
AcDbCircle
 10
87.2835031331415
 20
3.7948199290776454
 40
0.6855840831114213
  0
CIRCLE
  5
5A4
330
1F
100
AcDbEntity
  8
media
 67
0
100
AcDbCircle
 10
27.32200071618623
 20
1.8142796244105786
 40
0.5543371258906339
  0
CIRCLE
  5
5A5
330
1F
100
AcDbEntity
  8
media
 67
0
100
AcDbCircle
 10
74.3777206674525
 20
14.515415509117485
 40
1.0690080750989521
  0
CIRCLE
  5
5A6
330
1F
100
AcDbEntity
  8
media
 67
0
100
AcDbCircle
 10
36.134878036014726
 20
9.396157739090931
 40
1.1705325834155493
  0
CIRCLE
  5
5A7
330
1F
100
AcDbEntity
  8
media
 67
0
100
AcDbCircle
 10
89.8459601554491
 20
14.386108001318009
 40
0.946065223935461
  0
CIRCLE
  5
5A8
330
1F
100
AcDbEntity
  8
media
 67
0
100
AcDbCircle
 10
5.826393102050018
 20
5.082006785719122
 40
0.6098101083122832
  0
CIRCLE
  5
5A9
330
1F
100
AcDbEntity
  8
media
 67
0
100
AcDbCircle
 10
91.3666229699076
 20
14.017506063829003
 40
0.8832118756961476
  0
CIRCLE
  5
5AA
330
1F
100
AcDbEntity
  8
media
 67
0
100
AcDbCircle
 10
68.38240081733097
 20
2.69411824044304
 40
1.1309547021561128
  0
CIRCLE
  5
5AB
330
1F
100
AcDbEntity
  8
media
 67
0
100
AcDbCircle
 10
38.19424961429476
 20
15.246236783296627
 40
1.1209229730357597
  0
CIRCLE
  5
5AC
330
1F
100
AcDbEntity
  8
media
 67
0
100
AcDbCircle
 10
76.85469736557677
 20
14.983189072666397
 40
0.8769704754582315
  0
CIRCLE
  5
5AD
330
1F
100
AcDbEntity
  8
media
 67
0
100
AcDbCircle
 10
30.84643314867264
 20
4.545423857576483
 40
0.9533814447452734
  0
CIRCLE
  5
5AE
330
1F
100
AcDbEntity
  8
media
 67
0
100
AcDbCircle
 10
65.4650047030672
 20
13.917088750989068
 40
1.1461347064609604
  0
CIRCLE
  5
5AF
330
1F
100
AcDbEntity
  8
media
 67
0
100
AcDbCircle
 10
42.718587418200606
 20
6.703612260857274
 40
0.6918152024840601
  0
CIRCLE
  5
5B0
330
1F
100
AcDbEntity
  8
media
 67
0
100
AcDbCircle
 10
35.68541817277054
 20
16.093844089233052
 40
0.5589934509356095
  0
CIRCLE
  5
5B1
330
1F
100
AcDbEntity
  8
media
 67
0
100
AcDbCircle
 10
52.48479321029193
 20
15.691859316936641
 40
1.0472230627286883
  0
CIRCLE
  5
5B2
330
1F
100
AcDbEntity
  8
media
 67
0
100
AcDbCircle
 10
27.201088089665816
 20
9.446263418950762
 40
1.166896070946573
  0
CIRCLE
  5
5B3
330
1F
100
AcDbEntity
  8
media
 67
0
100
AcDbCircle
 10
15.898066689647909
 20
20.263521710086728
 40
0.9673931147906799
  0
CIRCLE
  5
5B4
330
1F
100
AcDbEntity
  8
media
 67
0
100
AcDbCircle
 10
50.151176305027484
 20
18.266866480047995
 40
0.6875650309880731
  0
CIRCLE
  5
5B5
330
1F
100
AcDbEntity
  8
media
 67
0
100
AcDbCircle
 10
44.489706366891866
 20
23.48235604706004
 40
0.6314497786484293
  0
CIRCLE
  5
5B6
330
1F
100
AcDbEntity
  8
media
 67
0
100
AcDbCircle
 10
95.12161614207417
 20
10.533923407298012
 40
1.1435232514080678
  0
CIRCLE
  5
5B7
330
1F
100
AcDbEntity
  8
media
 67
0
100
AcDbCircle
 10
64.49577752394286
 20
15.4184050466582
 40
0.5248478548689688
  0
CIRCLE
  5
5B8
330
1F
100
AcDbEntity
  8
media
 67
0
100
AcDbCircle
 10
79.98766553129623
 20
21.477012903500366
 40
0.9560797496279266
  0
CIRCLE
  5
5B9
330
1F
100
AcDbEntity
  8
media
 67
0
100
AcDbCircle
 10
36.698500546282006
 20
13.893376202316317
 40
0.9327568877771759
  0
CIRCLE
  5
5BA
330
1F
100
AcDbEntity
  8
media
 67
0
100
AcDbCircle
 10
80.33464248709136
 20
9.995555939060766
 40
1.1158970745330055
  0
CIRCLE
  5
5BB
330
1F
100
AcDbEntity
  8
media
 67
0
100
AcDbCircle
 10
73.2874239618407
 20
2.2097372731598135
 40
1.0951322280713276
  0
CIRCLE
  5
5BC
330
1F
100
AcDbEntity
  8
media
 67
0
100
AcDbCircle
 10
63.59389543713173
 20
17.423503236665717
 40
0.5006476447496144
  0
CIRCLE
  5
5BD
330
1F
100
AcDbEntity
  8
media
 67
0
100
AcDbCircle
 10
84.83756694925417
 20
12.531389526921645
 40
0.5053384502690909
  0
CIRCLE
  5
5BE
330
1F
100
AcDbEntity
  8
media
 67
0
100
AcDbCircle
 10
46.36913181140364
 20
13.311596864468743
 40
1.0633544245640736
  0
CIRCLE
  5
5BF
330
1F
100
AcDbEntity
  8
media
 67
0
100
AcDbCircle
 10
92.24166705965862
 20
12.128317264022975
 40
0.9250205506457883
  0
CIRCLE
  5
5C0
330
1F
100
AcDbEntity
  8
media
 67
0
100
AcDbCircle
 10
12.045955862499733
 20
13.704365625644053
 40
1.0619909758276176
  0
CIRCLE
  5
5C1
330
1F
100
AcDbEntity
  8
media
 67
0
100
AcDbCircle
 10
23.777227396631865
 20
22.649988283645463
 40
0.8899200923885309
  0
CIRCLE
  5
5C2
330
1F
100
AcDbEntity
  8
media
 67
0
100
AcDbCircle
 10
28.715799074969823
 20
17.583193098309692
 40
0.8903980448208488
  0
CIRCLE
  5
5C3
330
1F
100
AcDbEntity
  8
media
 67
0
100
AcDbCircle
 10
83.19076824721368
 20
7.456568192094009
 40
1.0196194294626015
  0
CIRCLE
  5
5C4
330
1F
100
AcDbEntity
  8
media
 67
0
100
AcDbCircle
 10
83.48001345568822
 20
19.89246913004781
 40
0.5503864121745577
  0
CIRCLE
  5
5C5
330
1F
100
AcDbEntity
  8
media
 67
0
100
AcDbCircle
 10
3.4903216710976093
 20
6.153762551855493
 40
0.7243260313195667
  0
CIRCLE
  5
5C6
330
1F
100
AcDbEntity
  8
media
 67
0
100
AcDbCircle
 10
31.655013121152113
 20
4.411416314035082
 40
0.8112479279498165
  0
CIRCLE
  5
5C7
330
1F
100
AcDbEntity
  8
media
 67
0
100
AcDbCircle
 10
63.346276550954194
 20
3.3972205647358438
 40
0.5110654408103081
  0
CIRCLE
  5
5C8
330
1F
100
AcDbEntity
  8
media
 67
0
100
AcDbCircle
 10
61.83587629214241
 20
16.185058285590113
 40
1.1396692973457798
  0
CIRCLE
  5
5C9
330
1F
100
AcDbEntity
  8
media
 67
0
100
AcDbCircle
 10
71.43484430333531
 20
22.068808346530194
 40
0.8581460566264707
  0
CIRCLE
  5
5CA
330
1F
100
AcDbEntity
  8
media
 67
0
100
AcDbCircle
 10
29.781782476438877
 20
17.75270101242878
 40
0.6933322385975239
  0
CIRCLE
  5
5CB
330
1F
100
AcDbEntity
  8
media
 67
0
100
AcDbCircle
 10
76.84083768224058
 20
13.076653236358172
 40
0.5192129148077682
  0
CIRCLE
  5
5CC
330
1F
100
AcDbEntity
  8
media
 67
0
100
AcDbCircle
 10
37.82739955105082
 20
14.148085370212765
 40
0.940649768718238
  0
CIRCLE
  5
5CD
330
1F
100
AcDbEntity
  8
media
 67
0
100
AcDbCircle
 10
59.69311177117607
 20
2.6625253259831223
 40
0.5214773459336001
  0
CIRCLE
  5
5CE
330
1F
100
AcDbEntity
  8
media
 67
0
100
AcDbCircle
 10
2.3630024834511882
 20
1.665444602862856
 40
0.5763046946645594
  0
CIRCLE
  5
5CF
330
1F
100
AcDbEntity
  8
media
 67
0
100
AcDbCircle
 10
91.88131595072848
 20
19.455677576543632
 40
0.8869307525211187
  0
CIRCLE
  5
5D0
330
1F
100
AcDbEntity
  8
media
 67
0
100
AcDbCircle
 10
31.46409547672992
 20
7.2668726340150975
 40
0.5049494838936943
  0
CIRCLE
  5
5D1
330
1F
100
AcDbEntity
  8
media
 67
0
100
AcDbCircle
 10
40.92399059002487
 20
12.804677671813613
 40
0.7274668590485287
  0
CIRCLE
  5
5D2
330
1F
100
AcDbEntity
  8
media
 67
0
100
AcDbCircle
 10
34.98690573651889
 20
12.052502674135564
 40
0.5007375919862292
  0
CIRCLE
  5
5D3
330
1F
100
AcDbEntity
  8
media
 67
0
100
AcDbCircle
 10
13.788813688489245
 20
5.598940182171446
 40
0.6271987626399208
  0
CIRCLE
  5
5D4
330
1F
100
AcDbEntity
  8
media
 67
0
100
AcDbCircle
 10
4.813025026476735
 20
13.322025194024596
 40
0.9680291302989619
  0
CIRCLE
  5
5D5
330
1F
100
AcDbEntity
  8
media
 67
0
100
AcDbCircle
 10
78.2263383762623
 20
7.5382541816025
 40
0.9921593704675802
  0
CIRCLE
  5
5D6
330
1F
100
AcDbEntity
  8
media
 67
0
100
AcDbCircle
 10
69.42466491805683
 20
11.876657327851007
 40
0.6495854408334842
  0
CIRCLE
  5
5D7
330
1F
100
AcDbEntity
  8
media
 67
0
100
AcDbCircle
 10
45.88064648177942
 20
8.64544737365415
 40
0.8341613522275515
  0
CIRCLE
  5
5D8
330
1F
100
AcDbEntity
  8
media
 67
0
100
AcDbCircle
 10
98.60598214354746
 20
19.64200883277776
 40
1.022376432843382
  0
CIRCLE
  5
5D9
330
1F
100
AcDbEntity
  8
media
 67
0
100
AcDbCircle
 10
88.09318054301363
 20
4.118238770518504
 40
1.1382959303438644
  0
CIRCLE
  5
5DA
330
1F
100
AcDbEntity
  8
media
 67
0
100
AcDbCircle
 10
83.25351197196915
 20
4.925926021098405
 40
1.002773393884743
  0
CIRCLE
  5
5DB
330
1F
100
AcDbEntity
  8
media
 67
0
100
AcDbCircle
 10
9.695619683156064
 20
21.19479267990704
 40
0.9119784227870222
  0
CIRCLE
  5
5DC
330
1F
100
AcDbEntity
  8
media
 67
0
100
AcDbCircle
 10
2.6574551036453085
 20
14.51344253601038
 40
1.150631845382634
  0
CIRCLE
  5
5DD
330
1F
100
AcDbEntity
  8
media
 67
0
100
AcDbCircle
 10
10.979547708973667
 20
17.98283653654168
 40
0.73531417953756
  0
CIRCLE
  5
5DE
330
1F
100
AcDbEntity
  8
media
 67
0
100
AcDbCircle
 10
43.65627122675607
 20
5.647411301088454
 40
0.9201177712456545
  0
CIRCLE
  5
5DF
330
1F
100
AcDbEntity
  8
media
 67
0
100
AcDbCircle
 10
49.36467964139242
 20
13.205284993129867
 40
0.8213263760483336
  0
CIRCLE
  5
5E0
330
1F
100
AcDbEntity
  8
media
 67
0
100
AcDbCircle
 10
16.834454579542204
 20
2.0879917718851324
 40
1.0269218613813118
  0
CIRCLE
  5
5E1
330
1F
100
AcDbEntity
  8
media
 67
0
100
AcDbCircle
 10
4.772854421079031
 20
23.597970892105277
 40
0.6749181020439733
  0
CIRCLE
  5
5E2
330
1F
100
AcDbEntity
  8
media
 67
0
100
AcDbCircle
 10
56.6394047707624
 20
22.075926123255023
 40
0.9199213051884301
  0
CIRCLE
  5
5E3
330
1F
100
AcDbEntity
  8
media
 67
0
100
AcDbCircle
 10
51.80069518638038
 20
17.896704397537253
 40
0.5054268886153656
  0
CIRCLE
  5
5E4
330
1F
100
AcDbEntity
  8
media
 67
0
100
AcDbCircle
 10
29.262618509262882
 20
10.220525833204361
 40
0.7535227458414879
  0
CIRCLE
  5
5E5
330
1F
100
AcDbEntity
  8
media
 67
0
100
AcDbCircle
 10
83.1203819048205
 20
8.919211435491569
 40
0.5037258837546864
  0
CIRCLE
  5
5E6
330
1F
100
AcDbEntity
  8
media
 67
0
100
AcDbCircle
 10
79.09240309736145
 20
3.1195861016484843
 40
0.7283220850049468
  0
CIRCLE
  5
5E7
330
1F
100
AcDbEntity
  8
media
 67
0
100
AcDbCircle
 10
27.073267079918065
 20
3.058581406241418
 40
0.6430105432344102
  0
CIRCLE
  5
5E8
330
1F
100
AcDbEntity
  8
media
 67
0
100
AcDbCircle
 10
97.3035222551974
 20
16.6841179708678
 40
1.0766567111537375
  0
CIRCLE
  5
5E9
330
1F
100
AcDbEntity
  8
media
 67
0
100
AcDbCircle
 10
49.03509478142604
 20
11.786517810772006
 40
0.8936506082900268
  0
CIRCLE
  5
5EA
330
1F
100
AcDbEntity
  8
media
 67
0
100
AcDbCircle
 10
7.637741931392533
 20
14.758116937926301
 40
0.7275897239239146
  0
CIRCLE
  5
5EB
330
1F
100
AcDbEntity
  8
media
 67
0
100
AcDbCircle
 10
31.389132982383842
 20
14.415110851267173
 40
1.0417362672667074
  0
CIRCLE
  5
5EC
330
1F
100
AcDbEntity
  8
media
 67
0
100
AcDbCircle
 10
1.851861913996706
 20
15.796363786866612
 40
0.664619215504981
  0
CIRCLE
  5
5ED
330
1F
100
AcDbEntity
  8
media
 67
0
100
AcDbCircle
 10
47.555512191971516
 20
5.412884393921168
 40
0.5671500014299797
  0
CIRCLE
  5
5EE
330
1F
100
AcDbEntity
  8
media
 67
0
100
AcDbCircle
 10
72.75044751718337
 20
2.653007394787481
 40
0.5514047077612224
  0
CIRCLE
  5
5EF
330
1F
100
AcDbEntity
  8
media
 67
0
100
AcDbCircle
 10
94.7293367370935
 20
3.261475227060323
 40
0.932911108998165
  0
CIRCLE
  5
5F0
330
1F
100
AcDbEntity
  8
media
 67
0
100
AcDbCircle
 10
52.002576388128716
 20
10.39085793458798
 40
0.6580835588797329
  0
CIRCLE
  5
5F1
330
1F
100
AcDbEntity
  8
media
 67
0
100
AcDbCircle
 10
89.74100663397846
 20
14.3742359041598
 40
0.7695444803140417
  0
CIRCLE
  5
5F2
330
1F
100
AcDbEntity
  8
media
 67
0
100
AcDbCircle
 10
22.61302940844646
 20
2.455378976234391
 40
0.837131724625749
  0
CIRCLE
  5
5F3
330
1F
100
AcDbEntity
  8
media
 67
0
100
AcDbCircle
 10
81.66680500016224
 20
18.88631799273138
 40
0.5218361630804238
  0
CIRCLE
  5
5F4
330
1F
100
AcDbEntity
  8
media
 67
0
100
AcDbCircle
 10
40.68939830949179
 20
23.18688063511726
 40
0.6787828649022463
  0
CIRCLE
  5
5F5
330
1F
100
AcDbEntity
  8
media
 67
0
100
AcDbCircle
 10
56.633110507391336
 20
14.636651273368704
 40
0.7807989819274348
  0
CIRCLE
  5
5F6
330
1F
100
AcDbEntity
  8
media
 67
0
100
AcDbCircle
 10
11.14445096206086
 20
23.3493261971552
 40
1.0606859200054115
  0
CIRCLE
  5
5F7
330
1F
100
AcDbEntity
  8
media
 67
0
100
AcDbCircle
 10
58.464792716392274
 20
6.400832694114205
 40
0.5983890903615171
  0
CIRCLE
  5
5F8
330
1F
100
AcDbEntity
  8
media
 67
0
100
AcDbCircle
 10
80.48666633700377
 20
10.494924859199735
 40
1.1404622705479461
  0
CIRCLE
  5
5F9
330
1F
100
AcDbEntity
  8
media
 67
0
100
AcDbCircle
 10
48.45334936000511
 20
13.052256447727363
 40
0.9562550295236273
  0
CIRCLE
  5
5FA
330
1F
100
AcDbEntity
  8
media
 67
0
100
AcDbCircle
 10
88.25636215861749
 20
13.884010740849307
 40
0.8458910122427736
  0
CIRCLE
  5
5FB
330
1F
100
AcDbEntity
  8
media
 67
0
100
AcDbCircle
 10
96.04803684623992
 20
16.382637772911828
 40
0.6476939994415387
  0
CIRCLE
  5
5FC
330
1F
100
AcDbEntity
  8
media
 67
0
100
AcDbCircle
 10
7.850356042976323
 20
11.945081274724421
 40
1.071186151465634
  0
CIRCLE
  5
5FD
330
1F
100
AcDbEntity
  8
media
 67
0
100
AcDbCircle
 10
9.754388882745587
 20
14.660042907623716
 40
1.0642588645236963
  0
CIRCLE
  5
5FE
330
1F
100
AcDbEntity
  8
media
 67
0
100
AcDbCircle
 10
19.71756038842075
 20
21.943242882693145
 40
0.6518106704243829
  0
CIRCLE
  5
5FF
330
1F
100
AcDbEntity
  8
media
 67
0
100
AcDbCircle
 10
68.75626580800817
 20
6.613424022290133
 40
0.5151297990611425
  0
CIRCLE
  5
600
330
1F
100
AcDbEntity
  8
media
 67
0
100
AcDbCircle
 10
89.9664220851292
 20
16.519348377163407
 40
0.7954760068297428
  0
CIRCLE
  5
601
330
1F
100
AcDbEntity
  8
media
 67
0
100
AcDbCircle
 10
23.637128674228943
 20
19.01540925335662
 40
0.8104048499928549
  0
CIRCLE
  5
602
330
1F
100
AcDbEntity
  8
media
 67
0
100
AcDbCircle
 10
35.0423653631839
 20
17.18083160577789
 40
0.6302461511637946
  0
CIRCLE
  5
603
330
1F
100
AcDbEntity
  8
media
 67
0
100
AcDbCircle
 10
92.8382005792634
 20
4.393144598113798
 40
1.093646792459535
  0
CIRCLE
  5
604
330
1F
100
AcDbEntity
  8
media
 67
0
100
AcDbCircle
 10
86.96344887101466
 20
22.15271770002429
 40
1.137608304762488
  0
CIRCLE
  5
605
330
1F
100
AcDbEntity
  8
media
 67
0
100
AcDbCircle
 10
1.662841466246797
 20
7.2815989388115
 40
1.1609396268908303
  0
CIRCLE
  5
606
330
1F
100
AcDbEntity
  8
media
 67
0
100
AcDbCircle
 10
91.11269861090935
 20
21.063596935437857
 40
1.1872209600146975
  0
CIRCLE
  5
607
330
1F
100
AcDbEntity
  8
media
 67
0
100
AcDbCircle
 10
60.569721994712125
 20
1.8586643701703072
 40
0.7674098892661878
  0
CIRCLE
  5
608
330
1F
100
AcDbEntity
  8
media
 67
0
100
AcDbCircle
 10
89.88403359863706
 20
8.874781812626047
 40
0.8601015832452161
  0
CIRCLE
  5
609
330
1F
100
AcDbEntity
  8
media
 67
0
100
AcDbCircle
 10
70.96695295131512
 20
12.169535189935303
 40
0.947843644219305
  0
CIRCLE
  5
60A
330
1F
100
AcDbEntity
  8
media
 67
0
100
AcDbCircle
 10
59.682077229230586
 20
10.718119623863652
 40
1.1329046310337185
  0
CIRCLE
  5
60B
330
1F
100
AcDbEntity
  8
media
 67
0
100
AcDbCircle
 10
90.44339271753692
 20
2.2045130771564945
 40
0.9902293199642431
  0
CIRCLE
  5
60C
330
1F
100
AcDbEntity
  8
media
 67
0
100
AcDbCircle
 10
28.517428702675083
 20
3.6804170501914104
 40
0.6621227602665276
  0
CIRCLE
  5
60D
330
1F
100
AcDbEntity
  8
media
 67
0
100
AcDbCircle
 10
11.32501999074798
 20
4.788722704264235
 40
0.6587791201235942
  0
CIRCLE
  5
60E
330
1F
100
AcDbEntity
  8
media
 67
0
100
AcDbCircle
 10
27.462938908625237
 20
2.042703419442474
 40
0.6621646977681686
  0
CIRCLE
  5
60F
330
1F
100
AcDbEntity
  8
media
 67
0
100
AcDbCircle
 10
20.295649807242825
 20
1.18607201797816
 40
0.8508384308272167
  0
CIRCLE
  5
610
330
1F
100
AcDbEntity
  8
media
 67
0
100
AcDbCircle
 10
54.19965562441363
 20
23.102167896677138
 40
1.170999954380564
  0
CIRCLE
  5
611
330
1F
100
AcDbEntity
  8
media
 67
0
100
AcDbCircle
 10
82.07284876129165
 20
2.364992484845207
 40
0.93663914277758
  0
CIRCLE
  5
612
330
1F
100
AcDbEntity
  8
media
 67
0
100
AcDbCircle
 10
61.2582085163599
 20
12.66596057862988
 40
1.02498458194348
  0
CIRCLE
  5
613
330
1F
100
AcDbEntity
  8
media
 67
0
100
AcDbCircle
 10
5.833475227369913
 20
7.4993003899754545
 40
0.9141847135675187
  0
CIRCLE
  5
614
330
1F
100
AcDbEntity
  8
media
 67
0
100
AcDbCircle
 10
5.679458988573729
 20
5.542876444724773
 40
0.6014471404957321
  0
CIRCLE
  5
615
330
1F
100
AcDbEntity
  8
media
 67
0
100
AcDbCircle
 10
1.9292699794130534
 20
6.677887067077834
 40
1.0509808781940149
  0
CIRCLE
  5
616
330
1F
100
AcDbEntity
  8
media
 67
0
100
AcDbCircle
 10
28.00488030340809
 20
7.562320206054978
 40
1.0370000144308682
  0
CIRCLE
  5
617
330
1F
100
AcDbEntity
  8
media
 67
0
100
AcDbCircle
 10
59.214846480164596
 20
8.650429712741811
 40
0.6216754041697973
  0
CIRCLE
  5
618
330
1F
100
AcDbEntity
  8
media
 67
0
100
AcDbCircle
 10
34.21465312060824
 20
13.710796926650623
 40
1.0300910061634552
  0
CIRCLE
  5
619
330
1F
100
AcDbEntity
  8
media
 67
0
100
AcDbCircle
 10
65.2981759445552
 20
13.46859939122446
 40
0.7244441734386639
  0
CIRCLE
  5
61A
330
1F
100
AcDbEntity
  8
media
 67
0
100
AcDbCircle
 10
55.45884384626718
 20
23.97772895521164
 40
1.1753781075386993
  0
CIRCLE
  5
61B
330
1F
100
AcDbEntity
  8
media
 67
0
100
AcDbCircle
 10
37.87123756383408
 20
7.4670039827728285
 40
0.9959581160778885
  0
CIRCLE
  5
61C
330
1F
100
AcDbEntity
  8
media
 67
0
100
AcDbCircle
 10
40.050701416040546
 20
11.373037260431483
 40
0.8355397119108648
  0
CIRCLE
  5
61D
330
1F
100
AcDbEntity
  8
media
 67
0
100
AcDbCircle
 10
92.82068979672889
 20
20.88215852262535
 40
0.8225950226618984
  0
CIRCLE
  5
61E
330
1F
100
AcDbEntity
  8
media
 67
0
100
AcDbCircle
 10
11.874103853187455
 20
14.003271148576967
 40
1.1030405245666373
  0
CIRCLE
  5
61F
330
1F
100
AcDbEntity
  8
media
 67
0
100
AcDbCircle
 10
63.4179124002188
 20
19.04405492523111
 40
1.0285612545236185
  0
CIRCLE
  5
620
330
1F
100
AcDbEntity
  8
media
 67
0
100
AcDbCircle
 10
48.52989139670259
 20
10.203795173261195
 40
0.8016834048078534
  0
CIRCLE
  5
621
330
1F
100
AcDbEntity
  8
media
 67
0
100
AcDbCircle
 10
15.318169251026752
 20
5.851441833695512
 40
1.1298205777706793
  0
CIRCLE
  5
622
330
1F
100
AcDbEntity
  8
media
 67
0
100
AcDbCircle
 10
83.46209436421333
 20
7.315318089091539
 40
0.867170228208574
  0
CIRCLE
  5
623
330
1F
100
AcDbEntity
  8
media
 67
0
100
AcDbCircle
 10
27.46700418528169
 20
9.080270639055126
 40
0.5142453483829199
  0
CIRCLE
  5
624
330
1F
100
AcDbEntity
  8
media
 67
0
100
AcDbCircle
 10
46.949028672169696
 20
10.204580432106232
 40
1.0796217415107585
  0
CIRCLE
  5
625
330
1F
100
AcDbEntity
  8
media
 67
0
100
AcDbCircle
 10
31.01728554471691
 20
14.822883027786606
 40
0.5845646446168143
  0
CIRCLE
  5
626
330
1F
100
AcDbEntity
  8
media
 67
0
100
AcDbCircle
 10
88.41908928597883
 20
13.556576258612113
 40
0.6842696784585953
  0
CIRCLE
  5
627
330
1F
100
AcDbEntity
  8
media
 67
0
100
AcDbCircle
 10
39.14987795023665
 20
3.767743209450474
 40
0.9946251859179895
  0
CIRCLE
  5
628
330
1F
100
AcDbEntity
  8
media
 67
0
100
AcDbCircle
 10
85.87877369884464
 20
7.339378163692952
 40
1.0506393224656478
  0
CIRCLE
  5
629
330
1F
100
AcDbEntity
  8
media
 67
0
100
AcDbCircle
 10
60.80292207277185
 20
2.2186129519378364
 40
0.7029362465138461
  0
CIRCLE
  5
62A
330
1F
100
AcDbEntity
  8
media
 67
0
100
AcDbCircle
 10
41.25464882660116
 20
2.3366669767766637
 40
0.9130885151331796
  0
CIRCLE
  5
62B
330
1F
100
AcDbEntity
  8
media
 67
0
100
AcDbCircle
 10
74.99659744122249
 20
20.575854447204364
 40
1.164960971847799
  0
CIRCLE
  5
62C
330
1F
100
AcDbEntity
  8
media
 67
0
100
AcDbCircle
 10
75.16498974663558
 20
10.683146657383729
 40
0.7524577862368863
  0
CIRCLE
  5
62D
330
1F
100
AcDbEntity
  8
media
 67
0
100
AcDbCircle
 10
95.25079462413801
 20
17.74905414360627
 40
1.142171052969791
  0
CIRCLE
  5
62E
330
1F
100
AcDbEntity
  8
media
 67
0
100
AcDbCircle
 10
17.137665746430102
 20
4.934417516501501
 40
0.9205917033361752
  0
CIRCLE
  5
62F
330
1F
100
AcDbEntity
  8
media
 67
0
100
AcDbCircle
 10
47.74142959575531
 20
9.923075723470985
 40
0.8510873292896015
  0
CIRCLE
  5
630
330
1F
100
AcDbEntity
  8
media
 67
0
100
AcDbCircle
 10
54.01793119606548
 20
21.799878139722175
 40
1.1179078592446343
  0
CIRCLE
  5
631
330
1F
100
AcDbEntity
  8
media
 67
0
100
AcDbCircle
 10
69.48388078710813
 20
14.917159432573936
 40
0.5885982234787963
  0
CIRCLE
  5
632
330
1F
100
AcDbEntity
  8
media
 67
0
100
AcDbCircle
 10
93.78626916625211
 20
21.432064365726603
 40
1.0597127778606945
  0
CIRCLE
  5
633
330
1F
100
AcDbEntity
  8
media
 67
0
100
AcDbCircle
 10
53.39868496476338
 20
16.521551891072264
 40
1.110511377434753
  0
CIRCLE
  5
634
330
1F
100
AcDbEntity
  8
media
 67
0
100
AcDbCircle
 10
35.406213112344204
 20
14.827169463235597
 40
1.0616874437223645
  0
CIRCLE
  5
635
330
1F
100
AcDbEntity
  8
media
 67
0
100
AcDbCircle
 10
93.42770218771065
 20
2.9076941582212736
 40
0.786627388919134
  0
CIRCLE
  5
636
330
1F
100
AcDbEntity
  8
media
 67
0
100
AcDbCircle
 10
19.915025420614644
 20
2.3447696205652857
 40
0.6206285358203771
  0
CIRCLE
  5
637
330
1F
100
AcDbEntity
  8
media
 67
0
100
AcDbCircle
 10
31.553727555686535
 20
5.721605273778064
 40
1.0455648096370584
  0
CIRCLE
  5
638
330
1F
100
AcDbEntity
  8
media
 67
0
100
AcDbCircle
 10
25.186755724514455
 20
18.36203793671427
 40
0.76174418933173
  0
CIRCLE
  5
639
330
1F
100
AcDbEntity
  8
media
 67
0
100
AcDbCircle
 10
9.843175219354556
 20
19.248885520967153
 40
0.6004098642146357
  0
CIRCLE
  5
63A
330
1F
100
AcDbEntity
  8
media
 67
0
100
AcDbCircle
 10
38.12976448180311
 20
19.229253731896858
 40
1.0882701350087243
  0
CIRCLE
  5
63B
330
1F
100
AcDbEntity
  8
media
 67
0
100
AcDbCircle
 10
30.96977655214253
 20
4.860005073887754
 40
0.7391177054800364
  0
CIRCLE
  5
63C
330
1F
100
AcDbEntity
  8
media
 67
0
100
AcDbCircle
 10
56.0238538679846
 20
14.325387238400296
 40
0.6307128365180066
  0
CIRCLE
  5
63D
330
1F
100
AcDbEntity
  8
media
 67
0
100
AcDbCircle
 10
53.601250120536506
 20
9.847010401539498
 40
0.9085106111489076
  0
CIRCLE
  5
63E
330
1F
100
AcDbEntity
  8
media
 67
0
100
AcDbCircle
 10
2.3182118092899544
 20
20.14254486044784
 40
0.5324653576199737
  0
CIRCLE
  5
63F
330
1F
100
AcDbEntity
  8
media
 67
0
100
AcDbCircle
 10
2.065032547608819
 20
2.5097878295242193
 40
0.5745335961021795
  0
CIRCLE
  5
640
330
1F
100
AcDbEntity
  8
media
 67
0
100
AcDbCircle
 10
81.01606267382415
 20
15.256403749596968
 40
0.8883289008257602
  0
CIRCLE
  5
641
330
1F
100
AcDbEntity
  8
media
 67
0
100
AcDbCircle
 10
72.66581932098845
 20
20.814024902732076
 40
0.6617665879045183
  0
CIRCLE
  5
642
330
1F
100
AcDbEntity
  8
media
 67
0
100
AcDbCircle
 10
69.0237660864186
 20
20.643549806790393
 40
1.156150727236392
  0
CIRCLE
  5
643
330
1F
100
AcDbEntity
  8
media
 67
0
100
AcDbCircle
 10
53.9269013675557
 20
7.516307534656307
 40
0.6325516500621091
  0
CIRCLE
  5
644
330
1F
100
AcDbEntity
  8
media
 67
0
100
AcDbCircle
 10
60.14907911966668
 20
1.266608154921689
 40
0.8074923858495744
  0
CIRCLE
  5
645
330
1F
100
AcDbEntity
  8
media
 67
0
100
AcDbCircle
 10
83.41187041155435
 20
15.78273064986896
 40
1.0887781686066087
  0
CIRCLE
  5
646
330
1F
100
AcDbEntity
  8
media
 67
0
100
AcDbCircle
 10
62.921601315706894
 20
12.878625534040136
 40
0.6152905189025859
  0
CIRCLE
  5
647
330
1F
100
AcDbEntity
  8
media
 67
0
100
AcDbCircle
 10
23.333844501977456
 20
11.843837766722151
 40
0.7870172638209474
  0
CIRCLE
  5
648
330
1F
100
AcDbEntity
  8
media
 67
0
100
AcDbCircle
 10
94.85270679572676
 20
8.486754728850935
 40
0.6822090095637032
  0
CIRCLE
  5
649
330
1F
100
AcDbEntity
  8
media
 67
0
100
AcDbCircle
 10
97.44491869425963
 20
9.30903707343088
 40
0.8079028945233577
  0
CIRCLE
  5
64A
330
1F
100
AcDbEntity
  8
media
 67
0
100
AcDbCircle
 10
6.425253219114259
 20
1.641407268231293
 40
0.6073679271886834
  0
CIRCLE
  5
64B
330
1F
100
AcDbEntity
  8
media
 67
0
100
AcDbCircle
 10
4.523870202933579
 20
14.181285563892063
 40
0.5225273555235164
  0
CIRCLE
  5
64C
330
1F
100
AcDbEntity
  8
media
 67
0
100
AcDbCircle
 10
14.504964648504547
 20
17.91622088214383
 40
1.1775373025098974
  0
CIRCLE
  5
64D
330
1F
100
AcDbEntity
  8
media
 67
0
100
AcDbCircle
 10
64.09972716941124
 20
14.906677271991287
 40
0.9604948882992848
  0
CIRCLE
  5
64E
330
1F
100
AcDbEntity
  8
media
 67
0
100
AcDbCircle
 10
59.33349235823692
 20
13.514208722572661
 40
1.0962127736394174
  0
CIRCLE
  5
64F
330
1F
100
AcDbEntity
  8
media
 67
0
100
AcDbCircle
 10
87.26947582684669
 20
14.945598959333951
 40
0.7419890872244622
  0
CIRCLE
  5
650
330
1F
100
AcDbEntity
  8
media
 67
0
100
AcDbCircle
 10
71.87104732484684
 20
3.890139893222113
 40
0.59499194089914
  0
CIRCLE
  5
651
330
1F
100
AcDbEntity
  8
media
 67
0
100
AcDbCircle
 10
67.5481273734284
 20
1.3216754809051665
 40
0.5637235026330726
  0
CIRCLE
  5
652
330
1F
100
AcDbEntity
  8
media
 67
0
100
AcDbCircle
 10
75.02265652447352
 20
10.352296228798497
 40
0.955326877579249
  0
CIRCLE
  5
653
330
1F
100
AcDbEntity
  8
media
 67
0
100
AcDbCircle
 10
59.35227705723749
 20
17.02281334731034
 40
0.5788660369341516
  0
CIRCLE
  5
654
330
1F
100
AcDbEntity
  8
media
 67
0
100
AcDbCircle
 10
91.26269649638031
 20
21.951216483426634
 40
0.9288821074500633
  0
CIRCLE
  5
655
330
1F
100
AcDbEntity
  8
media
 67
0
100
AcDbCircle
 10
94.10038921707613
 20
7.040159072363314
 40
0.5775827953648696
  0
CIRCLE
  5
656
330
1F
100
AcDbEntity
  8
media
 67
0
100
AcDbCircle
 10
49.55357470756851
 20
1.5811382795827447
 40
1.0832293534814736
  0
CIRCLE
  5
657
330
1F
100
AcDbEntity
  8
media
 67
0
100
AcDbCircle
 10
4.207549370574249
 20
20.899154574831233
 40
0.6020890276661144
  0
CIRCLE
  5
658
330
1F
100
AcDbEntity
  8
media
 67
0
100
AcDbCircle
 10
41.65634916311137
 20
19.025224454554248
 40
1.0980160015566678
  0
CIRCLE
  5
659
330
1F
100
AcDbEntity
  8
media
 67
0
100
AcDbCircle
 10
98.10276018517976
 20
1.664186516168554
 40
0.6794011000095079
  0
CIRCLE
  5
65A
330
1F
100
AcDbEntity
  8
media
 67
0
100
AcDbCircle
 10
68.24744536334224
 20
13.316836423306702
 40
1.1708824417436259
  0
CIRCLE
  5
65B
330
1F
100
AcDbEntity
  8
media
 67
0
100
AcDbCircle
 10
87.00777444021404
 20
14.31090435864246
 40
0.5399746057377197
  0
CIRCLE
  5
65C
330
1F
100
AcDbEntity
  8
media
 67
0
100
AcDbCircle
 10
44.91099058985193
 20
21.426706970457587
 40
1.1559885108996886
  0
CIRCLE
  5
65D
330
1F
100
AcDbEntity
  8
media
 67
0
100
AcDbCircle
 10
74.75969103138688
 20
1.850462202328489
 40
1.0743943277824761
  0
CIRCLE
  5
65E
330
1F
100
AcDbEntity
  8
media
 67
0
100
AcDbCircle
 10
96.56465353408984
 20
8.55262305622277
 40
0.5114264761724413
  0
CIRCLE
  5
65F
330
1F
100
AcDbEntity
  8
media
 67
0
100
AcDbCircle
 10
79.3269841865402
 20
21.157602299685713
 40
1.0965104054655122
  0
CIRCLE
  5
660
330
1F
100
AcDbEntity
  8
media
 67
0
100
AcDbCircle
 10
51.996399904436146
 20
23.435863495611187
 40
0.511503421242516
  0
CIRCLE
  5
661
330
1F
100
AcDbEntity
  8
media
 67
0
100
AcDbCircle
 10
85.93252880632463
 20
16.143314641766537
 40
0.8147041858737847
  0
CIRCLE
  5
662
330
1F
100
AcDbEntity
  8
media
 67
0
100
AcDbCircle
 10
14.94858581070969
 20
19.326433266322855
 40
0.9966990636145084
  0
CIRCLE
  5
663
330
1F
100
AcDbEntity
  8
media
 67
0
100
AcDbCircle
 10
60.64786630640809
 20
1.6309904628242806
 40
0.9189104225892992
  0
CIRCLE
  5
664
330
1F
100
AcDbEntity
  8
media
 67
0
100
AcDbCircle
 10
90.97066853874446
 20
21.473812298989486
 40
0.8699729815936668
  0
CIRCLE
  5
665
330
1F
100
AcDbEntity
  8
media
 67
0
100
AcDbCircle
 10
66.25630630310299
 20
3.619559258403477
 40
0.5730712727084466
  0
CIRCLE
  5
666
330
1F
100
AcDbEntity
  8
media
 67
0
100
AcDbCircle
 10
69.4416494157376
 20
8.88262670971301
 40
1.0486476580670896
  0
CIRCLE
  5
667
330
1F
100
AcDbEntity
  8
media
 67
0
100
AcDbCircle
 10
46.40305011664753
 20
16.217550915500585
 40
0.7177397372338874
  0
CIRCLE
  5
668
330
1F
100
AcDbEntity
  8
media
 67
0
100
AcDbCircle
 10
39.712469582384756
 20
11.192132619235093
 40
1.1748644268463249
  0
CIRCLE
  5
669
330
1F
100
AcDbEntity
  8
media
 67
0
100
AcDbCircle
 10
42.865912418881365
 20
13.82702618547241
 40
0.9813114677759542
  0
CIRCLE
  5
66A
330
1F
100
AcDbEntity
  8
media
 67
0
100
AcDbCircle
 10
29.647026339685844
 20
15.815127294532358
 40
0.5625116877037608
  0
CIRCLE
  5
66B
330
1F
100
AcDbEntity
  8
media
 67
0
100
AcDbCircle
 10
44.74414669029921
 20
12.88765911214894
 40
0.6940843280548381
  0
CIRCLE
  5
66C
330
1F
100
AcDbEntity
  8
media
 67
0
100
AcDbCircle
 10
46.279223178653
 20
8.966404976583286
 40
0.8400150374992466
  0
CIRCLE
  5
66D
330
1F
100
AcDbEntity
  8
media
 67
0
100
AcDbCircle
 10
89.86901249459584
 20
10.160361304037659
 40
1.1866406929370055
  0
CIRCLE
  5
66E
330
1F
100
AcDbEntity
  8
media
 67
0
100
AcDbCircle
 10
45.55898299662997
 20
7.367749944397062
 40
1.0455564878001753
  0
CIRCLE
  5
66F
330
1F
100
AcDbEntity
  8
media
 67
0
100
AcDbCircle
 10
52.67268750255624
 20
23.087704019037748
 40
0.8339489214752824
  0
CIRCLE
  5
670
330
1F
100
AcDbEntity
  8
media
 67
0
100
AcDbCircle
 10
82.01588596668554
 20
22.714421182196425
 40
1.1678257109798935
  0
CIRCLE
  5
671
330
1F
100
AcDbEntity
  8
media
 67
0
100
AcDbCircle
 10
64.68715023713911
 20
9.580304071128834
 40
0.8399903340926809
  0
CIRCLE
  5
672
330
1F
100
AcDbEntity
  8
media
 67
0
100
AcDbCircle
 10
1.6367108595912085
 20
20.093712934928757
 40
0.9505288780498711
  0
CIRCLE
  5
673
330
1F
100
AcDbEntity
  8
media
 67
0
100
AcDbCircle
 10
77.87609936649007
 20
22.52687582299352
 40
0.7968713811062488
  0
CIRCLE
  5
674
330
1F
100
AcDbEntity
  8
media
 67
0
100
AcDbCircle
 10
5.976746482802019
 20
5.17716730130041
 40
0.6961939337149201
  0
CIRCLE
  5
675
330
1F
100
AcDbEntity
  8
media
 67
0
100
AcDbCircle
 10
4.835201558133527
 20
15.57849803518439
 40
1.1893814470092945
  0
CIRCLE
  5
676
330
1F
100
AcDbEntity
  8
media
 67
0
100
AcDbCircle
 10
36.09922035332551
 20
16.925285855424214
 40
0.5011094269866475
  0
CIRCLE
  5
677
330
1F
100
AcDbEntity
  8
media
 67
0
100
AcDbCircle
 10
23.832027239722173
 20
17.845657066839397
 40
0.5028607854221998
  0
CIRCLE
  5
678
330
1F
100
AcDbEntity
  8
media
 67
0
100
AcDbCircle
 10
26.89808108138567
 20
17.804256695460506
 40
0.5618241775039341
  0
CIRCLE
  5
679
330
1F
100
AcDbEntity
  8
media
 67
0
100
AcDbCircle
 10
56.86530364067502
 20
16.543398452160293
 40
1.0991461984483661
  0
CIRCLE
  5
67A
330
1F
100
AcDbEntity
  8
media
 67
0
100
AcDbCircle
 10
7.481830472752371
 20
10.345843697758466
 40
0.5586518800930927
  0
CIRCLE
  5
67B
330
1F
100
AcDbEntity
  8
media
 67
0
100
AcDbCircle
 10
29.270906109631607
 20
2.4360342549347154
 40
0.9270129401922274
  0
CIRCLE
  5
67C
330
1F
100
AcDbEntity
  8
media
 67
0
100
AcDbCircle
 10
21.92982242895994
 20
9.470964725582705
 40
0.9810278953453229
  0
CIRCLE
  5
67D
330
1F
100
AcDbEntity
  8
media
 67
0
100
AcDbCircle
 10
48.22676533476493
 20
17.205633409980976
 40
0.5322208171250724
  0
CIRCLE
  5
67E
330
1F
100
AcDbEntity
  8
media
 67
0
100
AcDbCircle
 10
42.25225571856789
 20
1.4410869366224635
 40
0.7021058913767191
  0
CIRCLE
  5
67F
330
1F
100
AcDbEntity
  8
media
 67
0
100
AcDbCircle
 10
23.9038575962777
 20
6.466989592182905
 40
0.5276930689449753
  0
CIRCLE
  5
680
330
1F
100
AcDbEntity
  8
media
 67
0
100
AcDbCircle
 10
18.92196082964608
 20
14.850091311379332
 40
0.8328137563776701
  0
CIRCLE
  5
681
330
1F
100
AcDbEntity
  8
media
 67
0
100
AcDbCircle
 10
67.57074346707817
 20
21.902044622564542
 40
0.6266008639284523
  0
CIRCLE
  5
682
330
1F
100
AcDbEntity
  8
media
 67
0
100
AcDbCircle
 10
81.94439243279734
 20
4.214291211859223
 40
0.7694192744421507
  0
CIRCLE
  5
683
330
1F
100
AcDbEntity
  8
media
 67
0
100
AcDbCircle
 10
48.551906292151784
 20
4.445757927856899
 40
1.1906426948146835
  0
CIRCLE
  5
684
330
1F
100
AcDbEntity
  8
media
 67
0
100
AcDbCircle
 10
12.184783019236985
 20
18.03175133587227
 40
0.6380463204625805
  0
CIRCLE
  5
685
330
1F
100
AcDbEntity
  8
media
 67
0
100
AcDbCircle
 10
89.96716890331862
 20
19.425499982481593
 40
1.036573638187849
  0
CIRCLE
  5
686
330
1F
100
AcDbEntity
  8
media
 67
0
100
AcDbCircle
 10
93.63755231262141
 20
23.142605308360146
 40
0.9281049039002661
  0
CIRCLE
  5
687
330
1F
100
AcDbEntity
  8
media
 67
0
100
AcDbCircle
 10
30.466705720495103
 20
21.886756813107795
 40
0.8512372333383611
  0
CIRCLE
  5
688
330
1F
100
AcDbEntity
  8
media
 67
0
100
AcDbCircle
 10
51.47279208249968
 20
4.1304102387791035
 40
0.5070954539709175
  0
CIRCLE
  5
689
330
1F
100
AcDbEntity
  8
media
 67
0
100
AcDbCircle
 10
1.462571670522419
 20
16.802402293676455
 40
0.7033520262825783
  0
CIRCLE
  5
68A
330
1F
100
AcDbEntity
  8
media
 67
0
100
AcDbCircle
 10
69.20907350736746
 20
7.223475200562089
 40
0.6107496853971387
  0
CIRCLE
  5
68B
330
1F
100
AcDbEntity
  8
media
 67
0
100
AcDbCircle
 10
67.77089621139804
 20
15.228849473158052
 40
1.1806589132329874
  0
CIRCLE
  5
68C
330
1F
100
AcDbEntity
  8
media
 67
0
100
AcDbCircle
 10
50.26096126357352
 20
4.999262282111783
 40
0.728015958523716
  0
CIRCLE
  5
68D
330
1F
100
AcDbEntity
  8
media
 67
0
100
AcDbCircle
 10
59.221890877173045
 20
12.17597838982191
 40
0.6517154501242888
  0
CIRCLE
  5
68E
330
1F
100
AcDbEntity
  8
media
 67
0
100
AcDbCircle
 10
41.07561298394777
 20
20.39126926989614
 40
0.546197842810854
  0
CIRCLE
  5
68F
330
1F
100
AcDbEntity
  8
media
 67
0
100
AcDbCircle
 10
17.815751673282197
 20
3.938078878109748
 40
0.5534235368033797
  0
CIRCLE
  5
690
330
1F
100
AcDbEntity
  8
media
 67
0
100
AcDbCircle
 10
51.743779478145335
 20
7.3381764311819495
 40
0.7114341025328115
  0
CIRCLE
  5
691
330
1F
100
AcDbEntity
  8
media
 67
0
100
AcDbCircle
 10
91.11711489149566
 20
21.326266948707016
 40
1.1949711887219894
  0
CIRCLE
  5
692
330
1F
100
AcDbEntity
  8
media
 67
0
100
AcDbCircle
 10
97.3743666483308
 20
12.721275491332884
 40
0.6129357143848584
  0
CIRCLE
  5
693
330
1F
100
AcDbEntity
  8
media
 67
0
100
AcDbCircle
 10
75.80037050035804
 20
18.038829447417324
 40
1.0738346153927272
  0
CIRCLE
  5
694
330
1F
100
AcDbEntity
  8
media
 67
0
100
AcDbCircle
 10
70.29984699887503
 20
7.223767768219566
 40
1.0574290797774086
  0
CIRCLE
  5
695
330
1F
100
AcDbEntity
  8
media
 67
0
100
AcDbCircle
 10
29.531727230957447
 20
12.379556148413595
 40
1.0269423361200538
  0
CIRCLE
  5
696
330
1F
100
AcDbEntity
  8
media
 67
0
100
AcDbCircle
 10
15.853786081816494
 20
20.10897467372405
 40
1.010192197429192
  0
CIRCLE
  5
697
330
1F
100
AcDbEntity
  8
media
 67
0
100
AcDbCircle
 10
91.82875900568612
 20
15.95060428616912
 40
1.0495037637727576
  0
CIRCLE
  5
698
330
1F
100
AcDbEntity
  8
media
 67
0
100
AcDbCircle
 10
48.98284448740628
 20
13.480484738582847
 40
1.1688408245451858
  0
CIRCLE
  5
699
330
1F
100
AcDbEntity
  8
media
 67
0
100
AcDbCircle
 10
9.71427745016122
 20
14.60475479559351
 40
0.7178932283307677
  0
CIRCLE
  5
69A
330
1F
100
AcDbEntity
  8
media
 67
0
100
AcDbCircle
 10
8.548266140336692
 20
4.525857443133173
 40
1.0820664260295534
  0
CIRCLE
  5
69B
330
1F
100
AcDbEntity
  8
media
 67
0
100
AcDbCircle
 10
67.99485101385815
 20
2.566669461432285
 40
0.6501846382962624
  0
CIRCLE
  5
69C
330
1F
100
AcDbEntity
  8
media
 67
0
100
AcDbCircle
 10
47.19028046669552
 20
5.324772792408784
 40
0.5592644608887717
  0
CIRCLE
  5
69D
330
1F
100
AcDbEntity
  8
media
 67
0
100
AcDbCircle
 10
58.561299472477295
 20
10.243750306374675
 40
0.9246179891291375
  0
CIRCLE
  5
69E
330
1F
100
AcDbEntity
  8
media
 67
0
100
AcDbCircle
 10
54.38835661178095
 20
22.181378632084982
 40
0.9286419729852076
  0
CIRCLE
  5
69F
330
1F
100
AcDbEntity
  8
media
 67
0
100
AcDbCircle
 10
93.70717469238463
 20
7.248839894640901
 40
0.5053881364976736
  0
CIRCLE
  5
6A0
330
1F
100
AcDbEntity
  8
media
 67
0
100
AcDbCircle
 10
36.94181268854299
 20
12.952738214685509
 40
1.1169955261520639
  0
CIRCLE
  5
6A1
330
1F
100
AcDbEntity
  8
media
 67
0
100
AcDbCircle
 10
80.85909433883442
 20
8.892883056066264
 40
0.8420701843705782
  0
CIRCLE
  5
6A2
330
1F
100
AcDbEntity
  8
media
 67
0
100
AcDbCircle
 10
2.4785044210590623
 20
1.2727149092248626
 40
0.9633693625900481
  0
CIRCLE
  5
6A3
330
1F
100
AcDbEntity
  8
media
 67
0
100
AcDbCircle
 10
93.93503383485728
 20
15.352899892584224
 40
0.595410050430498
  0
CIRCLE
  5
6A4
330
1F
100
AcDbEntity
  8
media
 67
0
100
AcDbCircle
 10
89.51190641091264
 20
16.812933747858935
 40
0.5318357045157053
  0
CIRCLE
  5
6A5
330
1F
100
AcDbEntity
  8
media
 67
0
100
AcDbCircle
 10
50.63106636190373
 20
2.311385446875513
 40
0.6675189907235721
  0
CIRCLE
  5
6A6
330
1F
100
AcDbEntity
  8
media
 67
0
100
AcDbCircle
 10
20.018843260647184
 20
16.58595852255729
 40
0.6285546599323618
  0
CIRCLE
  5
6A7
330
1F
100
AcDbEntity
  8
media
 67
0
100
AcDbCircle
 10
53.01400394603365
 20
9.852912010913073
 40
1.0889230749444343
  0
CIRCLE
  5
6A8
330
1F
100
AcDbEntity
  8
media
 67
0
100
AcDbCircle
 10
81.16551574811876
 20
6.148779255538816
 40
0.5960041352957898
  0
CIRCLE
  5
6A9
330
1F
100
AcDbEntity
  8
media
 67
0
100
AcDbCircle
 10
75.11359822480328
 20
22.273869206585474
 40
0.5127836365436172
  0
CIRCLE
  5
6AA
330
1F
100
AcDbEntity
  8
media
 67
0
100
AcDbCircle
 10
18.273184712484714
 20
17.40602845388227
 40
1.0706982491272783
  0
CIRCLE
  5
6AB
330
1F
100
AcDbEntity
  8
media
 67
0
100
AcDbCircle
 10
35.91694230837405
 20
15.769532174057014
 40
1.141314864222862
  0
CIRCLE
  5
6AC
330
1F
100
AcDbEntity
  8
media
 67
0
100
AcDbCircle
 10
10.287259438196518
 20
12.97172493050707
 40
1.19582144926399
  0
CIRCLE
  5
6AD
330
1F
100
AcDbEntity
  8
media
 67
0
100
AcDbCircle
 10
89.86453727337727
 20
13.695894726913668
 40
0.8267661393263952
  0
CIRCLE
  5
6AE
330
1F
100
AcDbEntity
  8
media
 67
0
100
AcDbCircle
 10
50.81152364735947
 20
13.09485393410709
 40
0.6752589881690918
  0
CIRCLE
  5
6AF
330
1F
100
AcDbEntity
  8
media
 67
0
100
AcDbCircle
 10
70.91892058761466
 20
11.877724257098585
 40
0.9012320935436284
  0
CIRCLE
  5
6B0
330
1F
100
AcDbEntity
  8
media
 67
0
100
AcDbCircle
 10
60.60898696713867
 20
12.498292282132859
 40
0.9003648933538577
  0
CIRCLE
  5
6B1
330
1F
100
AcDbEntity
  8
media
 67
0
100
AcDbCircle
 10
69.16368518303678
 20
12.110468819935848
 40
0.6455016196385508
  0
CIRCLE
  5
6B2
330
1F
100
AcDbEntity
  8
media
 67
0
100
AcDbCircle
 10
77.991936366259
 20
19.13132684481206
 40
0.5200806333667283
  0
CIRCLE
  5
6B3
330
1F
100
AcDbEntity
  8
media
 67
0
100
AcDbCircle
 10
54.59772016429537
 20
21.784044840924096
 40
0.8559206114160256
  0
CIRCLE
  5
6B4
330
1F
100
AcDbEntity
  8
media
 67
0
100
AcDbCircle
 10
14.128314629294042
 20
8.739468794771886
 40
0.6221788120777236
  0
CIRCLE
  5
6B5
330
1F
100
AcDbEntity
  8
media
 67
0
100
AcDbCircle
 10
42.144549069103796
 20
21.293679828059624
 40
0.8639145948990361
  0
CIRCLE
  5
6B6
330
1F
100
AcDbEntity
  8
media
 67
0
100
AcDbCircle
 10
10.737936177511285
 20
11.034838705935142
 40
0.9439397165406094
  0
CIRCLE
  5
6B7
330
1F
100
AcDbEntity
  8
media
 67
0
100
AcDbCircle
 10
4.2009272813436525
 20
2.978235765465215
 40
1.0094119176808243
  0
CIRCLE
  5
6B8
330
1F
100
AcDbEntity
  8
media
 67
0
100
AcDbCircle
 10
14.423856862051053
 20
17.60772690104683
 40
0.6567076506294751
  0
CIRCLE
  5
6B9
330
1F
100
AcDbEntity
  8
media
 67
0
100
AcDbCircle
 10
28.28030021278775
 20
9.508394142280892
 40
0.8018215662616008
  0
CIRCLE
  5
6BA
330
1F
100
AcDbEntity
  8
media
 67
0
100
AcDbCircle
 10
98.02747529543589
 20
2.1746249138963423
 40
1.1194778688829252
  0
CIRCLE
  5
6BB
330
1F
100
AcDbEntity
  8
media
 67
0
100
AcDbCircle
 10
26.44862367836876
 20
11.998445760011288
 40
0.9389296304187129
  0
CIRCLE
  5
6BC
330
1F
100
AcDbEntity
  8
media
 67
0
100
AcDbCircle
 10
56.19219130342182
 20
14.028104287254179
 40
0.7598320080797516
  0
CIRCLE
  5
6BD
330
1F
100
AcDbEntity
  8
media
 67
0
100
AcDbCircle
 10
4.790404650879122
 20
4.559278421497156
 40
0.8122746836097692
  0
CIRCLE
  5
6BE
330
1F
100
AcDbEntity
  8
media
 67
0
100
AcDbCircle
 10
21.957450157616673
 20
6.3425638301865535
 40
0.9237987432493694
  0
CIRCLE
  5
6BF
330
1F
100
AcDbEntity
  8
media
 67
0
100
AcDbCircle
 10
39.80414558061154
 20
20.03920666293288
 40
1.0798733447347026
  0
CIRCLE
  5
6C0
330
1F
100
AcDbEntity
  8
media
 67
0
100
AcDbCircle
 10
57.61301314676701
 20
18.62385562900377
 40
1.1231109329512052
  0
CIRCLE
  5
6C1
330
1F
100
AcDbEntity
  8
media
 67
0
100
AcDbCircle
 10
70.98304595040048
 20
16.210828212847055
 40
1.024674746748053
  0
CIRCLE
  5
6C2
330
1F
100
AcDbEntity
  8
media
 67
0
100
AcDbCircle
 10
51.412470122994975
 20
19.28931027498852
 40
1.19651917777795
  0
CIRCLE
  5
6C3
330
1F
100
AcDbEntity
  8
media
 67
0
100
AcDbCircle
 10
64.861505335537
 20
16.096625570553435
 40
1.1371351546877
  0
CIRCLE
  5
6C4
330
1F
100
AcDbEntity
  8
media
 67
0
100
AcDbCircle
 10
85.45443274636129
 20
13.591617304970375
 40
0.5009744429680634
  0
CIRCLE
  5
6C5
330
1F
100
AcDbEntity
  8
media
 67
0
100
AcDbCircle
 10
80.09822444244331
 20
15.875709148835677
 40
0.8890767918289789
  0
CIRCLE
  5
6C6
330
1F
100
AcDbEntity
  8
media
 67
0
100
AcDbCircle
 10
15.841367159311664
 20
1.49091454209126
 40
0.5831214527774412
  0
CIRCLE
  5
6C7
330
1F
100
AcDbEntity
  8
media
 67
0
100
AcDbCircle
 10
68.09012491037066
 20
23.90914547609003
 40
0.8039796691876702
  0
CIRCLE
  5
6C8
330
1F
100
AcDbEntity
  8
media
 67
0
100
AcDbCircle
 10
72.46372930045582
 20
8.869772595237386
 40
0.7978998400629851
  0
CIRCLE
  5
6C9
330
1F
100
AcDbEntity
  8
media
 67
0
100
AcDbCircle
 10
31.414656142158876
 20
9.534060637288757
 40
0.7663666553632427
  0
CIRCLE
  5
6CA
330
1F
100
AcDbEntity
  8
media
 67
0
100
AcDbCircle
 10
46.49353124169245
 20
5.58817540161316
 40
1.0813480848831478
  0
CIRCLE
  5
6CB
330
1F
100
AcDbEntity
  8
media
 67
0
100
AcDbCircle
 10
6.362327107225905
 20
7.8535020527062835
 40
0.932572175715487
  0
CIRCLE
  5
6CC
330
1F
100
AcDbEntity
  8
media
 67
0
100
AcDbCircle
 10
80.73639076567018
 20
17.419759182888022
 40
0.5888174501175585
  0
CIRCLE
  5
6CD
330
1F
100
AcDbEntity
  8
media
 67
0
100
AcDbCircle
 10
86.49490170424211
 20
8.199057675992503
 40
0.9441594755560461
  0
CIRCLE
  5
6CE
330
1F
100
AcDbEntity
  8
media
 67
0
100
AcDbCircle
 10
33.399525136116274
 20
22.40424586537947
 40
0.9265299039428125
  0
CIRCLE
  5
6CF
330
1F
100
AcDbEntity
  8
media
 67
0
100
AcDbCircle
 10
6.758493370507761
 20
11.75926044628157
 40
0.8112222061545463
  0
CIRCLE
  5
6D0
330
1F
100
AcDbEntity
  8
media
 67
0
100
AcDbCircle
 10
91.11430962308583
 20
5.416426870404895
 40
0.9128352945728646
  0
CIRCLE
  5
6D1
330
1F
100
AcDbEntity
  8
media
 67
0
100
AcDbCircle
 10
24.655960762937625
 20
2.9797864793793174
 40
0.7386420377338752
  0
CIRCLE
  5
6D2
330
1F
100
AcDbEntity
  8
media
 67
0
100
AcDbCircle
 10
69.24763072977001
 20
5.026234114890688
 40
1.1352847210655104
  0
CIRCLE
  5
6D3
330
1F
100
AcDbEntity
  8
media
 67
0
100
AcDbCircle
 10
57.541327783289276
 20
5.055195266492702
 40
0.9500968092848199
  0
CIRCLE
  5
6D4
330
1F
100
AcDbEntity
  8
media
 67
0
100
AcDbCircle
 10
59.31069860377143
 20
23.37299726005074
 40
0.8845921286420002
  0
CIRCLE
  5
6D5
330
1F
100
AcDbEntity
  8
media
 67
0
100
AcDbCircle
 10
19.64818188920175
 20
20.985116179512683
 40
0.601995953474447
  0
CIRCLE
  5
6D6
330
1F
100
AcDbEntity
  8
media
 67
0
100
AcDbCircle
 10
55.59733198757397
 20
16.613452832988127
 40
0.7876394882729265
  0
CIRCLE
  5
6D7
330
1F
100
AcDbEntity
  8
media
 67
0
100
AcDbCircle
 10
53.801229693996895
 20
2.855967165447528
 40
0.9674999261194773
  0
CIRCLE
  5
6D8
330
1F
100
AcDbEntity
  8
media
 67
0
100
AcDbCircle
 10
94.01989512499904
 20
23.672082282254934
 40
0.9542507496097922
  0
CIRCLE
  5
6D9
330
1F
100
AcDbEntity
  8
media
 67
0
100
AcDbCircle
 10
61.13566903209427
 20
17.79562539206168
 40
0.5492933845306239
  0
CIRCLE
  5
6DA
330
1F
100
AcDbEntity
  8
media
 67
0
100
AcDbCircle
 10
86.36906625492105
 20
23.610108290545913
 40
1.0524770260625378
  0
CIRCLE
  5
6DB
330
1F
100
AcDbEntity
  8
media
 67
0
100
AcDbCircle
 10
57.89362735590717
 20
1.474516639129296
 40
1.0432656896533092
  0
CIRCLE
  5
6DC
330
1F
100
AcDbEntity
  8
media
 67
0
100
AcDbCircle
 10
16.523798940294874
 20
5.7622481435773825
 40
0.571958629043736
  0
CIRCLE
  5
6DD
330
1F
100
AcDbEntity
  8
media
 67
0
100
AcDbCircle
 10
64.7103484766464
 20
5.867410071810765
 40
0.8522624316157849
  0
CIRCLE
  5
6DE
330
1F
100
AcDbEntity
  8
media
 67
0
100
AcDbCircle
 10
4.498562087262752
 20
13.497391301078427
 40
0.7586372935347385
  0
CIRCLE
  5
6DF
330
1F
100
AcDbEntity
  8
media
 67
0
100
AcDbCircle
 10
85.20532596886206
 20
10.822099340863671
 40
0.522462304951691
  0
CIRCLE
  5
6E0
330
1F
100
AcDbEntity
  8
media
 67
0
100
AcDbCircle
 10
22.176817235721295
 20
20.534370883203298
 40
1.0524106557117383
  0
CIRCLE
  5
6E1
330
1F
100
AcDbEntity
  8
media
 67
0
100
AcDbCircle
 10
17.31884076161453
 20
7.462783103788275
 40
0.8486467408166991
  0
CIRCLE
  5
6E2
330
1F
100
AcDbEntity
  8
media
 67
0
100
AcDbCircle
 10
51.71764616785122
 20
20.074812642827446
 40
1.1054869415775994
  0
CIRCLE
  5
6E3
330
1F
100
AcDbEntity
  8
media
 67
0
100
AcDbCircle
 10
74.54353253401317
 20
9.459927147613303
 40
0.891502436706596
  0
CIRCLE
  5
6E4
330
1F
100
AcDbEntity
  8
media
 67
0
100
AcDbCircle
 10
6.763288262136292
 20
17.058917778192967
 40
0.5575227826458657
  0
CIRCLE
  5
6E5
330
1F
100
AcDbEntity
  8
media
 67
0
100
AcDbCircle
 10
52.75448449413813
 20
10.583130941186948
 40
0.8628777011734768
  0
CIRCLE
  5
6E6
330
1F
100
AcDbEntity
  8
media
 67
0
100
AcDbCircle
 10
80.64808798019565
 20
8.435344132192668
 40
1.1457280413918287
  0
CIRCLE
  5
6E7
330
1F
100
AcDbEntity
  8
media
 67
0
100
AcDbCircle
 10
35.34219190411507
 20
20.832039837063725
 40
0.8643057975795406
  0
CIRCLE
  5
6E8
330
1F
100
AcDbEntity
  8
media
 67
0
100
AcDbCircle
 10
77.81134259838467
 20
16.785464850243883
 40
1.020572952247137
  0
CIRCLE
  5
6E9
330
1F
100
AcDbEntity
  8
media
 67
0
100
AcDbCircle
 10
78.71351393350618
 20
3.2944915364572176
 40
0.9286030482591177
  0
CIRCLE
  5
6EA
330
1F
100
AcDbEntity
  8
media
 67
0
100
AcDbCircle
 10
47.200282114314234
 20
4.726929277070587
 40
0.9622210434102121
  0
CIRCLE
  5
6EB
330
1F
100
AcDbEntity
  8
media
 67
0
100
AcDbCircle
 10
66.99051688716794
 20
11.787059243804318
 40
0.6082957539272249
  0
CIRCLE
  5
6EC
330
1F
100
AcDbEntity
  8
media
 67
0
100
AcDbCircle
 10
22.45589910041177
 20
4.428407645636376
 40
0.9509172665006228
  0
CIRCLE
  5
6ED
330
1F
100
AcDbEntity
  8
media
 67
0
100
AcDbCircle
 10
86.28661093760562
 20
20.560502171207766
 40
0.7643408246397564
  0
CIRCLE
  5
6EE
330
1F
100
AcDbEntity
  8
media
 67
0
100
AcDbCircle
 10
61.65798311382615
 20
14.184304699805661
 40
1.1412503469678117
  0
CIRCLE
  5
6EF
330
1F
100
AcDbEntity
  8
media
 67
0
100
AcDbCircle
 10
22.81338362432099
 20
4.71704165533065
 40
1.0002997615256046
  0
CIRCLE
  5
6F0
330
1F
100
AcDbEntity
  8
media
 67
0
100
AcDbCircle
 10
83.55600599448235
 20
20.185717040825875
 40
0.5280129339679788
  0
CIRCLE
  5
6F1
330
1F
100
AcDbEntity
  8
media
 67
0
100
AcDbCircle
 10
90.80678518830648
 20
18.26641123744428
 40
0.6251542276727101
  0
CIRCLE
  5
6F2
330
1F
100
AcDbEntity
  8
media
 67
0
100
AcDbCircle
 10
53.48805953198504
 20
23.260342887602437
 40
0.8935628845262409
  0
CIRCLE
  5
6F3
330
1F
100
AcDbEntity
  8
media
 67
0
100
AcDbCircle
 10
63.79635571849919
 20
22.062622500933738
 40
0.9451488832267971
  0
CIRCLE
  5
6F4
330
1F
100
AcDbEntity
  8
media
 67
0
100
AcDbCircle
 10
41.241161152215284
 20
19.148100895568106
 40
1.1699334359348916
  0
CIRCLE
  5
6F5
330
1F
100
AcDbEntity
  8
media
 67
0
100
AcDbCircle
 10
80.09950700146675
 20
21.12259017306792
 40
1.076406764995935
  0
CIRCLE
  5
6F6
330
1F
100
AcDbEntity
  8
media
 67
0
100
AcDbCircle
 10
40.809292545734436
 20
3.754682645727953
 40
1.1909410930660616
  0
CIRCLE
  5
6F7
330
1F
100
AcDbEntity
  8
media
 67
0
100
AcDbCircle
 10
1.5299424591449193
 20
3.6729804539792146
 40
0.856833956784983
  0
CIRCLE
  5
6F8
330
1F
100
AcDbEntity
  8
media
 67
0
100
AcDbCircle
 10
36.01231311804106
 20
2.19351146107092
 40
0.6927203813779954
  0
CIRCLE
  5
6F9
330
1F
100
AcDbEntity
  8
media
 67
0
100
AcDbCircle
 10
20.76809869842827
 20
22.641111743609812
 40
0.9345444243446208
  0
CIRCLE
  5
6FA
330
1F
100
AcDbEntity
  8
media
 67
0
100
AcDbCircle
 10
40.602236116060475
 20
21.255424853523195
 40
0.6261795895265582
  0
CIRCLE
  5
6FB
330
1F
100
AcDbEntity
  8
media
 67
0
100
AcDbCircle
 10
80.54283586049979
 20
4.636798989265599
 40
0.6902877118370729
  0
CIRCLE
  5
6FC
330
1F
100
AcDbEntity
  8
media
 67
0
100
AcDbCircle
 10
77.76271931936203
 20
22.941161405075214
 40
1.1520983817973982
  0
CIRCLE
  5
6FD
330
1F
100
AcDbEntity
  8
media
 67
0
100
AcDbCircle
 10
18.07953147754442
 20
10.656262331463441
 40
0.7183958058158796
  0
CIRCLE
  5
6FE
330
1F
100
AcDbEntity
  8
media
 67
0
100
AcDbCircle
 10
38.69891244580644
 20
19.544179154644546
 40
0.5276540213911959
  0
CIRCLE
  5
6FF
330
1F
100
AcDbEntity
  8
media
 67
0
100
AcDbCircle
 10
65.0519122797675
 20
14.704741797949696
 40
0.7518977077557274
  0
CIRCLE
  5
700
330
1F
100
AcDbEntity
  8
media
 67
0
100
AcDbCircle
 10
2.2150786938935756
 20
8.657827381194377
 40
0.9156701935423028
  0
CIRCLE
  5
701
330
1F
100
AcDbEntity
  8
media
 67
0
100
AcDbCircle
 10
75.00188289079583
 20
18.0188739894876
 40
1.0290772125259298
  0
CIRCLE
  5
702
330
1F
100
AcDbEntity
  8
media
 67
0
100
AcDbCircle
 10
57.65013196497283
 20
10.895898280903324
 40
0.7687641197175039
  0
CIRCLE
  5
703
330
1F
100
AcDbEntity
  8
media
 67
0
100
AcDbCircle
 10
28.57529440659739
 20
15.897137405235409
 40
1.0036745578984463
  0
CIRCLE
  5
704
330
1F
100
AcDbEntity
  8
media
 67
0
100
AcDbCircle
 10
81.37730035501068
 20
13.177610546384292
 40
1.0099489574328873
  0
CIRCLE
  5
705
330
1F
100
AcDbEntity
  8
media
 67
0
100
AcDbCircle
 10
4.186263322005702
 20
19.661011210698074
 40
0.6442202628516309
  0
CIRCLE
  5
706
330
1F
100
AcDbEntity
  8
media
 67
0
100
AcDbCircle
 10
29.808672142505
 20
14.32779695798307
 40
0.8403925240530399
  0
CIRCLE
  5
707
330
1F
100
AcDbEntity
  8
media
 67
0
100
AcDbCircle
 10
64.53599394966886
 20
8.949393707158855
 40
0.7476438243889048
  0
CIRCLE
  5
708
330
1F
100
AcDbEntity
  8
media
 67
0
100
AcDbCircle
 10
28.174846143957794
 20
21.989650769141516
 40
1.046311307620289
  0
CIRCLE
  5
709
330
1F
100
AcDbEntity
  8
media
 67
0
100
AcDbCircle
 10
66.03527404961928
 20
3.3401767723387636
 40
1.0674150229358108
  0
CIRCLE
  5
70A
330
1F
100
AcDbEntity
  8
media
 67
0
100
AcDbCircle
 10
31.639172229224815
 20
12.765281850562731
 40
0.9581123609234907
  0
CIRCLE
  5
70B
330
1F
100
AcDbEntity
  8
media
 67
0
100
AcDbCircle
 10
36.21732331696187
 20
6.045147587708176
 40
0.5706621564574064
  0
CIRCLE
  5
70C
330
1F
100
AcDbEntity
  8
media
 67
0
100
AcDbCircle
 10
35.626915859216716
 20
20.281733112353724
 40
0.9633952841995825
  0
CIRCLE
  5
70D
330
1F
100
AcDbEntity
  8
media
 67
0
100
AcDbCircle
 10
62.275098810639584
 20
22.975933386047103
 40
0.735616843908112
  0
CIRCLE
  5
70E
330
1F
100
AcDbEntity
  8
media
 67
0
100
AcDbCircle
 10
46.741507940863514
 20
13.601024273428989
 40
1.076541766455375
  0
CIRCLE
  5
70F
330
1F
100
AcDbEntity
  8
media
 67
0
100
AcDbCircle
 10
89.52449422878317
 20
22.933119326076337
 40
0.6295263449192479
  0
CIRCLE
  5
710
330
1F
100
AcDbEntity
  8
media
 67
0
100
AcDbCircle
 10
98.52734897250095
 20
5.396245766766188
 40
0.9281352265777209
  0
CIRCLE
  5
711
330
1F
100
AcDbEntity
  8
media
 67
0
100
AcDbCircle
 10
91.64784314157406
 20
3.4629402504477804
 40
0.7950421125294509
  0
CIRCLE
  5
712
330
1F
100
AcDbEntity
  8
media
 67
0
100
AcDbCircle
 10
96.8707125049726
 20
11.63401720418291
 40
0.5329368661287169
  0
CIRCLE
  5
713
330
1F
100
AcDbEntity
  8
media
 67
0
100
AcDbCircle
 10
49.84634638933155
 20
10.701743744047274
 40
1.1275319955127316
  0
CIRCLE
  5
714
330
1F
100
AcDbEntity
  8
media
 67
0
100
AcDbCircle
 10
95.03111519791183
 20
8.708193341808439
 40
0.5516828230965362
  0
CIRCLE
  5
715
330
1F
100
AcDbEntity
  8
media
 67
0
100
AcDbCircle
 10
86.60386073062145
 20
8.409264056472225
 40
1.1860839615304937
  0
CIRCLE
  5
716
330
1F
100
AcDbEntity
  8
media
 67
0
100
AcDbCircle
 10
51.65021308245423
 20
16.122505136328133
 40
0.5824098561582538
  0
CIRCLE
  5
717
330
1F
100
AcDbEntity
  8
media
 67
0
100
AcDbCircle
 10
39.139307614414335
 20
8.648813420816362
 40
0.9771032706321543
  0
CIRCLE
  5
718
330
1F
100
AcDbEntity
  8
media
 67
0
100
AcDbCircle
 10
19.483843141523487
 20
4.515866971723293
 40
0.5769416877046115
  0
CIRCLE
  5
719
330
1F
100
AcDbEntity
  8
media
 67
0
100
AcDbCircle
 10
76.89202908932022
 20
23.836113806193644
 40
0.7832997074708405
  0
CIRCLE
  5
71A
330
1F
100
AcDbEntity
  8
media
 67
0
100
AcDbCircle
 10
93.7120713237237
 20
6.452463289032878
 40
0.6190040009218358
  0
CIRCLE
  5
71B
330
1F
100
AcDbEntity
  8
media
 67
0
100
AcDbCircle
 10
20.109509117061524
 20
5.500642603792678
 40
0.9467739874001424
  0
CIRCLE
  5
71C
330
1F
100
AcDbEntity
  8
media
 67
0
100
AcDbCircle
 10
67.53022802794948
 20
21.17551727690452
 40
0.7946953029961524
  0
CIRCLE
  5
71D
330
1F
100
AcDbEntity
  8
media
 67
0
100
AcDbCircle
 10
58.349102518970874
 20
15.003482402723396
 40
0.6719874255062148
  0
CIRCLE
  5
71E
330
1F
100
AcDbEntity
  8
media
 67
0
100
AcDbCircle
 10
75.1385126814276
 20
9.423007732035313
 40
0.9112250627761127
  0
CIRCLE
  5
71F
330
1F
100
AcDbEntity
  8
media
 67
0
100
AcDbCircle
 10
36.93701801292483
 20
19.397828513225605
 40
0.7464030811993164
  0
CIRCLE
  5
720
330
1F
100
AcDbEntity
  8
media
 67
0
100
AcDbCircle
 10
50.34540344151004
 20
9.73104107036888
 40
0.5377654139476219
  0
CIRCLE
  5
721
330
1F
100
AcDbEntity
  8
media
 67
0
100
AcDbCircle
 10
3.4113822006837946
 20
16.753144686367854
 40
0.7463351814116413
  0
CIRCLE
  5
722
330
1F
100
AcDbEntity
  8
media
 67
0
100
AcDbCircle
 10
1.6186729710750873
 20
2.465148634464004
 40
1.1356215019288574
  0
CIRCLE
  5
723
330
1F
100
AcDbEntity
  8
media
 67
0
100
AcDbCircle
 10
15.209327109038643
 20
2.073308844773985
 40
1.0975036085011483
  0
CIRCLE
  5
724
330
1F
100
AcDbEntity
  8
media
 67
0
100
AcDbCircle
 10
78.42564692617727
 20
2.281459944294758
 40
0.6506515817627713
  0
CIRCLE
  5
725
330
1F
100
AcDbEntity
  8
media
 67
0
100
AcDbCircle
 10
76.77936297210772
 20
8.321576496330255
 40
0.899448944156846
  0
CIRCLE
  5
726
330
1F
100
AcDbEntity
  8
media
 67
0
100
AcDbCircle
 10
30.926959823514917
 20
7.281594065780363
 40
0.6431612841838239
  0
CIRCLE
  5
727
330
1F
100
AcDbEntity
  8
media
 67
0
100
AcDbCircle
 10
46.64821498887651
 20
2.5881166529533317
 40
0.5152924874242645
  0
CIRCLE
  5
728
330
1F
100
AcDbEntity
  8
media
 67
0
100
AcDbCircle
 10
31.999604086795788
 20
11.020153426158442
 40
0.6295427538560348
  0
CIRCLE
  5
729
330
1F
100
AcDbEntity
  8
media
 67
0
100
AcDbCircle
 10
26.14920180442867
 20
12.457908301785434
 40
0.8790306697054998
  0
CIRCLE
  5
72A
330
1F
100
AcDbEntity
  8
media
 67
0
100
AcDbCircle
 10
44.478184003507664
 20
13.428840318523614
 40
1.1853790765608392
  0
CIRCLE
  5
72B
330
1F
100
AcDbEntity
  8
media
 67
0
100
AcDbCircle
 10
26.596991130265202
 20
13.233385883140043
 40
0.8813807369927033
  0
CIRCLE
  5
72C
330
1F
100
AcDbEntity
  8
media
 67
0
100
AcDbCircle
 10
65.44383249420908
 20
5.729729174179098
 40
1.130541145686184
  0
CIRCLE
  5
72D
330
1F
100
AcDbEntity
  8
media
 67
0
100
AcDbCircle
 10
55.66322289922513
 20
11.534804591198021
 40
1.0104643219517762
  0
CIRCLE
  5
72E
330
1F
100
AcDbEntity
  8
media
 67
0
100
AcDbCircle
 10
2.856585549713174
 20
23.8350542628776
 40
0.8041477719158441
  0
CIRCLE
  5
72F
330
1F
100
AcDbEntity
  8
media
 67
0
100
AcDbCircle
 10
70.62379946016142
 20
17.066814637475023
 40
0.7239910357590761
  0
CIRCLE
  5
730
330
1F
100
AcDbEntity
  8
media
 67
0
100
AcDbCircle
 10
20.819213504070145
 20
2.2735703585308618
 40
1.1713196218399848
  0
CIRCLE
  5
731
330
1F
100
AcDbEntity
  8
media
 67
0
100
AcDbCircle
 10
5.020463390051321
 20
21.763810846932017
 40
0.5160177769158899
  0
CIRCLE
  5
732
330
1F
100
AcDbEntity
  8
media
 67
0
100
AcDbCircle
 10
82.31601665084372
 20
9.63110149345814
 40
1.1446181208181168
  0
CIRCLE
  5
733
330
1F
100
AcDbEntity
  8
media
 67
0
100
AcDbCircle
 10
91.68856033653933
 20
6.945748100187808
 40
0.6178122163648343
  0
CIRCLE
  5
734
330
1F
100
AcDbEntity
  8
media
 67
0
100
AcDbCircle
 10
93.36112477975954
 20
21.360601291084677
 40
1.0921083297894953
  0
CIRCLE
  5
735
330
1F
100
AcDbEntity
  8
media
 67
0
100
AcDbCircle
 10
98.2875217973525
 20
4.505332115820177
 40
0.607804378882195
  0
CIRCLE
  5
736
330
1F
100
AcDbEntity
  8
media
 67
0
100
AcDbCircle
 10
36.643815797161714
 20
18.2360713911349
 40
0.8726410435115848
  0
CIRCLE
  5
737
330
1F
100
AcDbEntity
  8
media
 67
0
100
AcDbCircle
 10
35.9422191144418
 20
13.879569847537232
 40
0.72548071561252
  0
CIRCLE
  5
738
330
1F
100
AcDbEntity
  8
media
 67
0
100
AcDbCircle
 10
96.3749374993809
 20
20.072186121605057
 40
1.132161737548563
  0
CIRCLE
  5
739
330
1F
100
AcDbEntity
  8
media
 67
0
100
AcDbCircle
 10
82.17269374978385
 20
21.451027186590682
 40
1.1895883598428492
  0
CIRCLE
  5
73A
330
1F
100
AcDbEntity
  8
media
 67
0
100
AcDbCircle
 10
12.79266822876823
 20
4.52105593225537
 40
1.096259749539437
  0
CIRCLE
  5
73B
330
1F
100
AcDbEntity
  8
media
 67
0
100
AcDbCircle
 10
49.744218512513726
 20
9.127693004739156
 40
0.6693291768235937
  0
CIRCLE
  5
73C
330
1F
100
AcDbEntity
  8
media
 67
0
100
AcDbCircle
 10
86.34721593734417
 20
21.27536113552909
 40
0.8907289448627824
  0
CIRCLE
  5
73D
330
1F
100
AcDbEntity
  8
media
 67
0
100
AcDbCircle
 10
79.82651148137114
 20
7.00181810081464
 40
0.500193818476203
  0
CIRCLE
  5
73E
330
1F
100
AcDbEntity
  8
media
 67
0
100
AcDbCircle
 10
6.789540580716083
 20
1.8699946349619143
 40
0.585686279438042
  0
CIRCLE
  5
73F
330
1F
100
AcDbEntity
  8
media
 67
0
100
AcDbCircle
 10
9.122878637382886
 20
9.348377030040318
 40
0.6041434918020586
  0
CIRCLE
  5
740
330
1F
100
AcDbEntity
  8
media
 67
0
100
AcDbCircle
 10
12.30112777303869
 20
15.704337002358661
 40
1.1666403855789849
  0
CIRCLE
  5
741
330
1F
100
AcDbEntity
  8
media
 67
0
100
AcDbCircle
 10
69.4137230606214
 20
9.064251831723414
 40
1.012846697802909
  0
CIRCLE
  5
742
330
1F
100
AcDbEntity
  8
media
 67
0
100
AcDbCircle
 10
73.03345131821617
 20
11.031983019332063
 40
0.7176203943149715
  0
CIRCLE
  5
743
330
1F
100
AcDbEntity
  8
media
 67
0
100
AcDbCircle
 10
22.185238871127233
 20
22.223156385331063
 40
0.8424130006874045
  0
CIRCLE
  5
744
330
1F
100
AcDbEntity
  8
media
 67
0
100
AcDbCircle
 10
63.0774166930234
 20
1.0457183084999773
 40
0.7962483657889738
  0
CIRCLE
  5
745
330
1F
100
AcDbEntity
  8
media
 67
0
100
AcDbCircle
 10
5.07294127437721
 20
2.169631036307202
 40
0.9069156765472166
  0
CIRCLE
  5
746
330
1F
100
AcDbEntity
  8
media
 67
0
100
AcDbCircle
 10
97.10856081458073
 20
2.248256789814501
 40
0.9628715561736079
  0
CIRCLE
  5
747
330
1F
100
AcDbEntity
  8
media
 67
0
100
AcDbCircle
 10
48.92502745847873
 20
18.66946453420343
 40
0.6413976639079492
  0
CIRCLE
  5
748
330
1F
100
AcDbEntity
  8
media
 67
0
100
AcDbCircle
 10
43.445384018245775
 20
18.30189225708531
 40
1.0514497749704557
  0
CIRCLE
  5
749
330
1F
100
AcDbEntity
  8
media
 67
0
100
AcDbCircle
 10
78.0915506777661
 20
3.23260088732751
 40
0.7490238985986409
  0
CIRCLE
  5
74A
330
1F
100
AcDbEntity
  8
media
 67
0
100
AcDbCircle
 10
53.43324879088803
 20
23.686428166074457
 40
1.08633840535309
  0
CIRCLE
  5
74B
330
1F
100
AcDbEntity
  8
media
 67
0
100
AcDbCircle
 10
24.963433459849316
 20
7.213433161277285
 40
0.8179026635444843
  0
CIRCLE
  5
74C
330
1F
100
AcDbEntity
  8
media
 67
0
100
AcDbCircle
 10
70.00795364019692
 20
5.120004275905411
 40
1.0584448275404765
  0
CIRCLE
  5
74D
330
1F
100
AcDbEntity
  8
media
 67
0
100
AcDbCircle
 10
58.54583060957347
 20
19.926723002488856
 40
1.1808154888313807
  0
CIRCLE
  5
74E
330
1F
100
AcDbEntity
  8
media
 67
0
100
AcDbCircle
 10
78.46561845330486
 20
23.167628664223493
 40
0.7282990715750022
  0
CIRCLE
  5
74F
330
1F
100
AcDbEntity
  8
media
 67
0
100
AcDbCircle
 10
22.273021846159903
 20
23.114648678929605
 40
0.5102770019317001
  0
CIRCLE
  5
750
330
1F
100
AcDbEntity
  8
media
 67
0
100
AcDbCircle
 10
75.98402194883063
 20
21.170920729008827
 40
0.7372696426392747
  0
CIRCLE
  5
751
330
1F
100
AcDbEntity
  8
media
 67
0
100
AcDbCircle
 10
15.71780395430637
 20
15.216380909238913
 40
0.9274111718913516
  0
CIRCLE
  5
752
330
1F
100
AcDbEntity
  8
media
 67
0
100
AcDbCircle
 10
40.765396931043526
 20
5.912854113326987
 40
0.9234423625558741
  0
CIRCLE
  5
753
330
1F
100
AcDbEntity
  8
media
 67
0
100
AcDbCircle
 10
10.896661894943005
 20
7.123703504354288
 40
0.992539029412054
  0
CIRCLE
  5
754
330
1F
100
AcDbEntity
  8
media
 67
0
100
AcDbCircle
 10
49.719120083176335
 20
15.135360614277868
 40
0.6908164978090593
  0
CIRCLE
  5
755
330
1F
100
AcDbEntity
  8
media
 67
0
100
AcDbCircle
 10
28.70285665445161
 20
18.669631088851926
 40
1.0575901828342165
  0
CIRCLE
  5
756
330
1F
100
AcDbEntity
  8
media
 67
0
100
AcDbCircle
 10
14.654814033547154
 20
12.911826325938746
 40
0.6784722511978099
  0
CIRCLE
  5
757
330
1F
100
AcDbEntity
  8
media
 67
0
100
AcDbCircle
 10
85.56417844251067
 20
4.638152143306888
 40
0.7892909232991466
  0
CIRCLE
  5
758
330
1F
100
AcDbEntity
  8
media
 67
0
100
AcDbCircle
 10
47.35742398746792
 20
12.20389379875843
 40
0.8275981190462383
  0
CIRCLE
  5
759
330
1F
100
AcDbEntity
  8
media
 67
0
100
AcDbCircle
 10
2.226776014242528
 20
8.915158714316446
 40
1.1993432035842453
  0
CIRCLE
  5
75A
330
1F
100
AcDbEntity
  8
media
 67
0
100
AcDbCircle
 10
89.93745380011909
 20
23.17704779342212
 40
0.5886920901012789
  0
CIRCLE
  5
75B
330
1F
100
AcDbEntity
  8
media
 67
0
100
AcDbCircle
 10
36.37061514001922
 20
7.481452834474762
 40
1.1052531180287508
  0
CIRCLE
  5
75C
330
1F
100
AcDbEntity
  8
media
 67
0
100
AcDbCircle
 10
51.16273733890835
 20
16.696267128439796
 40
0.7928398628113598
  0
CIRCLE
  5
75D
330
1F
100
AcDbEntity
  8
media
 67
0
100
AcDbCircle
 10
60.39181187625299
 20
12.33682973539133
 40
0.5406817357636576
  0
CIRCLE
  5
75E
330
1F
100
AcDbEntity
  8
media
 67
0
100
AcDbCircle
 10
29.644534258753477
 20
20.928017127714927
 40
0.5235049352524377
  0
CIRCLE
  5
75F
330
1F
100
AcDbEntity
  8
media
 67
0
100
AcDbCircle
 10
56.862366914026964
 20
8.75184298408277
 40
0.5495589170750671
  0
CIRCLE
  5
760
330
1F
100
AcDbEntity
  8
media
 67
0
100
AcDbCircle
 10
81.06725206051362
 20
10.538626132589618
 40
0.9785046953745589
  0
CIRCLE
  5
761
330
1F
100
AcDbEntity
  8
media
 67
0
100
AcDbCircle
 10
18.383660026654088
 20
20.97967299888315
 40
0.504822281261148
  0
CIRCLE
  5
762
330
1F
100
AcDbEntity
  8
media
 67
0
100
AcDbCircle
 10
17.514030007560745
 20
20.85858802790248
 40
0.8750052453742845
  0
CIRCLE
  5
763
330
1F
100
AcDbEntity
  8
media
 67
0
100
AcDbCircle
 10
22.812331396839404
 20
15.153184373053948
 40
1.0150244879830728
  0
CIRCLE
  5
764
330
1F
100
AcDbEntity
  8
media
 67
0
100
AcDbCircle
 10
55.27133861796165
 20
7.821984108302974
 40
1.1325554759388075
  0
CIRCLE
  5
765
330
1F
100
AcDbEntity
  8
media
 67
0
100
AcDbCircle
 10
27.797676420083324
 20
15.94877649945335
 40
0.8149070434660551
  0
CIRCLE
  5
766
330
1F
100
AcDbEntity
  8
media
 67
0
100
AcDbCircle
 10
8.45050371522901
 20
5.5037303643501545
 40
1.1249764623030243
  0
CIRCLE
  5
767
330
1F
100
AcDbEntity
  8
media
 67
0
100
AcDbCircle
 10
89.46686632012691
 20
11.377735273753013
 40
1.057585751779421
  0
CIRCLE
  5
768
330
1F
100
AcDbEntity
  8
media
 67
0
100
AcDbCircle
 10
37.442427662093934
 20
15.893899604099854
 40
0.9893946615102447
  0
CIRCLE
  5
769
330
1F
100
AcDbEntity
  8
media
 67
0
100
AcDbCircle
 10
63.454747203154284
 20
17.882057848733886
 40
0.8647495918970936
  0
CIRCLE
  5
76A
330
1F
100
AcDbEntity
  8
media
 67
0
100
AcDbCircle
 10
14.954830704541832
 20
14.130721355757329
 40
1.0319268283241971
  0
CIRCLE
  5
76B
330
1F
100
AcDbEntity
  8
media
 67
0
100
AcDbCircle
 10
94.36300243349967
 20
18.57551248701284
 40
0.5817347203294435
  0
CIRCLE
  5
76C
330
1F
100
AcDbEntity
  8
media
 67
0
100
AcDbCircle
 10
36.31923104149648
 20
19.576830303222245
 40
0.9577470192703987
  0
CIRCLE
  5
76D
330
1F
100
AcDbEntity
  8
media
 67
0
100
AcDbCircle
 10
28.341925624642524
 20
10.631191257802257
 40
0.7833063734181571
  0
CIRCLE
  5
76E
330
1F
100
AcDbEntity
  8
media
 67
0
100
AcDbCircle
 10
69.98325944866399
 20
7.896050101707278
 40
1.012598461407195
  0
CIRCLE
  5
76F
330
1F
100
AcDbEntity
  8
media
 67
0
100
AcDbCircle
 10
52.379726075426966
 20
22.104040432893083
 40
0.8963416965837265
  0
CIRCLE
  5
770
330
1F
100
AcDbEntity
  8
media
 67
0
100
AcDbCircle
 10
23.189900583325013
 20
10.050360177446082
 40
0.7412079706952108
  0
CIRCLE
  5
771
330
1F
100
AcDbEntity
  8
media
 67
0
100
AcDbCircle
 10
29.44457426377995
 20
1.032826272873244
 40
0.7802542566458466
  0
CIRCLE
  5
772
330
1F
100
AcDbEntity
  8
media
 67
0
100
AcDbCircle
 10
10.138790613365234
 20
13.740747906804303
 40
1.0458417718306954
  0
CIRCLE
  5
773
330
1F
100
AcDbEntity
  8
media
 67
0
100
AcDbCircle
 10
94.19370383968734
 20
13.411949043447043
 40
0.9527224433071739
  0
CIRCLE
  5
774
330
1F
100
AcDbEntity
  8
media
 67
0
100
AcDbCircle
 10
1.9020648934654447
 20
6.481087300528624
 40
0.6160332279778141
  0
CIRCLE
  5
775
330
1F
100
AcDbEntity
  8
media
 67
0
100
AcDbCircle
 10
55.39574981425975
 20
10.3969143180095
 40
0.6233375132511842
  0
CIRCLE
  5
776
330
1F
100
AcDbEntity
  8
media
 67
0
100
AcDbCircle
 10
41.036478498088904
 20
8.629490462850985
 40
0.8854726329174503
  0
CIRCLE
  5
777
330
1F
100
AcDbEntity
  8
media
 67
0
100
AcDbCircle
 10
31.995945323048925
 20
1.5077271767045515
 40
0.864696658006482
  0
CIRCLE
  5
778
330
1F
100
AcDbEntity
  8
media
 67
0
100
AcDbCircle
 10
3.719342044701056
 20
4.998925737438369
 40
0.8719638235788456
  0
CIRCLE
  5
779
330
1F
100
AcDbEntity
  8
media
 67
0
100
AcDbCircle
 10
41.51972342352751
 20
17.724508228593074
 40
0.5590446719312852
  0
CIRCLE
  5
77A
330
1F
100
AcDbEntity
  8
media
 67
0
100
AcDbCircle
 10
87.52474475708622
 20
6.663483366576563
 40
0.7615765239903272
  0
CIRCLE
  5
77B
330
1F
100
AcDbEntity
  8
media
 67
0
100
AcDbCircle
 10
34.23947147753122
 20
18.43108221792274
 40
0.9495114935712846
  0
CIRCLE
  5
77C
330
1F
100
AcDbEntity
  8
media
 67
0
100
AcDbCircle
 10
20.853457859602116
 20
19.4109504774912
 40
0.9458407543068665
  0
CIRCLE
  5
77D
330
1F
100
AcDbEntity
  8
media
 67
0
100
AcDbCircle
 10
21.042650487944307
 20
3.253169714658119
 40
1.186641204422
  0
CIRCLE
  5
77E
330
1F
100
AcDbEntity
  8
media
 67
0
100
AcDbCircle
 10
52.667021312088835
 20
19.782071520696757
 40
0.87520854344156
  0
CIRCLE
  5
77F
330
1F
100
AcDbEntity
  8
media
 67
0
100
AcDbCircle
 10
27.7442648948885
 20
10.335570283967861
 40
0.5176984709028079
  0
CIRCLE
  5
780
330
1F
100
AcDbEntity
  8
media
 67
0
100
AcDbCircle
 10
31.064393856500768
 20
6.644906533122713
 40
0.6513235656834948
  0
CIRCLE
  5
781
330
1F
100
AcDbEntity
  8
media
 67
0
100
AcDbCircle
 10
34.422183943591854
 20
6.173702926999532
 40
0.5997353261649812
  0
CIRCLE
  5
782
330
1F
100
AcDbEntity
  8
media
 67
0
100
AcDbCircle
 10
7.622086451967105
 20
6.194426214531098
 40
1.108658250912963
  0
CIRCLE
  5
783
330
1F
100
AcDbEntity
  8
media
 67
0
100
AcDbCircle
 10
45.71714291792072
 20
21.57066311972378
 40
1.1041962976749011
  0
CIRCLE
  5
784
330
1F
100
AcDbEntity
  8
media
 67
0
100
AcDbCircle
 10
5.038257061528557
 20
6.29819636092437
 40
1.1939769687462036
  0
CIRCLE
  5
785
330
1F
100
AcDbEntity
  8
media
 67
0
100
AcDbCircle
 10
5.3772389554437865
 20
12.46186875886534
 40
0.9453914460818678
  0
CIRCLE
  5
786
330
1F
100
AcDbEntity
  8
media
 67
0
100
AcDbCircle
 10
53.355934655558634
 20
3.6817951138010327
 40
0.9229225720639249
  0
CIRCLE
  5
787
330
1F
100
AcDbEntity
  8
media
 67
0
100
AcDbCircle
 10
70.10073882711899
 20
15.04435038023796
 40
1.1104193386365493
  0
CIRCLE
  5
788
330
1F
100
AcDbEntity
  8
media
 67
0
100
AcDbCircle
 10
11.041314322658415
 20
15.5573051220022
 40
0.9440402238866645
  0
CIRCLE
  5
789
330
1F
100
AcDbEntity
  8
media
 67
0
100
AcDbCircle
 10
61.829410698617174
 20
7.036600405633817
 40
0.820210548896362
  0
CIRCLE
  5
78A
330
1F
100
AcDbEntity
  8
media
 67
0
100
AcDbCircle
 10
56.4994591496081
 20
16.69611562621368
 40
0.9338549375050698
  0
CIRCLE
  5
78B
330
1F
100
AcDbEntity
  8
media
 67
0
100
AcDbCircle
 10
44.52205256498556
 20
17.544516154177252
 40
1.0293387903018365
  0
CIRCLE
  5
78C
330
1F
100
AcDbEntity
  8
media
 67
0
100
AcDbCircle
 10
53.36880409024148
 20
6.586224697905013
 40
0.9217258449409924
  0
CIRCLE
  5
78D
330
1F
100
AcDbEntity
  8
media
 67
0
100
AcDbCircle
 10
46.911711844480415
 20
15.061435418330317
 40
0.7347317295343694
  0
CIRCLE
  5
78E
330
1F
100
AcDbEntity
  8
media
 67
0
100
AcDbCircle
 10
84.82351888418604
 20
9.303678404857276
 40
0.6122139179365547
  0
CIRCLE
  5
78F
330
1F
100
AcDbEntity
  8
media
 67
0
100
AcDbCircle
 10
52.14917247128496
 20
6.257026238344611
 40
0.6236888749333651
  0
CIRCLE
  5
790
330
1F
100
AcDbEntity
  8
media
 67
0
100
AcDbCircle
 10
98.21508889397109
 20
18.58408845668772
 40
1.0073914362190108
  0
CIRCLE
  5
791
330
1F
100
AcDbEntity
  8
media
 67
0
100
AcDbCircle
 10
53.753043552667954
 20
11.638982826883511
 40
0.8454928523155282
  0
CIRCLE
  5
792
330
1F
100
AcDbEntity
  8
media
 67
0
100
AcDbCircle
 10
11.604904049606517
 20
22.23934892284248
 40
0.9564412014295763
  0
CIRCLE
  5
793
330
1F
100
AcDbEntity
  8
media
 67
0
100
AcDbCircle
 10
66.06509300774906
 20
15.905073745873008
 40
1.0811546069845228
  0
CIRCLE
  5
794
330
1F
100
AcDbEntity
  8
media
 67
0
100
AcDbCircle
 10
15.673563987859342
 20
11.071783251189608
 40
1.081134803843269
  0
CIRCLE
  5
795
330
1F
100
AcDbEntity
  8
media
 67
0
100
AcDbCircle
 10
68.19544686997259
 20
8.56751876267456
 40
1.0374988543887613
  0
CIRCLE
  5
796
330
1F
100
AcDbEntity
  8
media
 67
0
100
AcDbCircle
 10
63.363434167504906
 20
16.167514500781316
 40
0.5364893659596673
  0
CIRCLE
  5
797
330
1F
100
AcDbEntity
  8
media
 67
0
100
AcDbCircle
 10
98.23154478353194
 20
8.332138554921386
 40
0.8778114915033068
  0
CIRCLE
  5
798
330
1F
100
AcDbEntity
  8
media
 67
0
100
AcDbCircle
 10
10.973813433398625
 20
9.003567216793641
 40
1.055940506097182
  0
CIRCLE
  5
799
330
1F
100
AcDbEntity
  8
media
 67
0
100
AcDbCircle
 10
65.17228727056579
 20
15.565214996941947
 40
0.8616447861536769
  0
CIRCLE
  5
79A
330
1F
100
AcDbEntity
  8
media
 67
0
100
AcDbCircle
 10
60.34391148559411
 20
10.971339038355344
 40
0.6303432532154901
  0
CIRCLE
  5
79B
330
1F
100
AcDbEntity
  8
media
 67
0
100
AcDbCircle
 10
46.8569208555864
 20
9.204974234639808
 40
0.55261557044589
  0
CIRCLE
  5
79C
330
1F
100
AcDbEntity
  8
media
 67
0
100
AcDbCircle
 10
53.43209934452988
 20
20.183400202957493
 40
1.0015256084389994
  0
CIRCLE
  5
79D
330
1F
100
AcDbEntity
  8
media
 67
0
100
AcDbCircle
 10
64.11664970290667
 20
13.114820498267019
 40
0.9978272099044048
  0
CIRCLE
  5
79E
330
1F
100
AcDbEntity
  8
media
 67
0
100
AcDbCircle
 10
49.561276801552566
 20
21.473896618848062
 40
0.7870140377535487
  0
CIRCLE
  5
79F
330
1F
100
AcDbEntity
  8
media
 67
0
100
AcDbCircle
 10
38.05016062040559
 20
13.483133248163991
 40
0.653081163543209
  0
CIRCLE
  5
7A0
330
1F
100
AcDbEntity
  8
media
 67
0
100
AcDbCircle
 10
97.65427285883237
 20
23.59110585767142
 40
0.7359205017730162
  0
CIRCLE
  5
7A1
330
1F
100
AcDbEntity
  8
media
 67
0
100
AcDbCircle
 10
37.997893324365194
 20
5.197614009749075
 40
0.8404953080789181
  0
CIRCLE
  5
7A2
330
1F
100
AcDbEntity
  8
media
 67
0
100
AcDbCircle
 10
83.38609183466498
 20
15.798821259072605
 40
1.0431374071271209
  0
CIRCLE
  5
7A3
330
1F
100
AcDbEntity
  8
media
 67
0
100
AcDbCircle
 10
66.07553123348787
 20
23.64698894476031
 40
0.6666254287002792
  0
CIRCLE
  5
7A4
330
1F
100
AcDbEntity
  8
media
 67
0
100
AcDbCircle
 10
36.41234629335601
 20
13.389885881953989
 40
0.8978782740718032
  0
CIRCLE
  5
7A5
330
1F
100
AcDbEntity
  8
media
 67
0
100
AcDbCircle
 10
97.34156569743544
 20
11.87416780798435
 40
1.1285958532173486
  0
CIRCLE
  5
7A6
330
1F
100
AcDbEntity
  8
media
 67
0
100
AcDbCircle
 10
55.80457013769408
 20
2.6886328307315783
 40
1.1047361133038935
  0
CIRCLE
  5
7A7
330
1F
100
AcDbEntity
  8
media
 67
0
100
AcDbCircle
 10
94.97539440955153
 20
10.211532871996248
 40
0.6580103978742061
  0
CIRCLE
  5
7A8
330
1F
100
AcDbEntity
  8
media
 67
0
100
AcDbCircle
 10
34.442871610468444
 20
4.066975591050113
 40
1.1137930077614127
  0
CIRCLE
  5
7A9
330
1F
100
AcDbEntity
  8
media
 67
0
100
AcDbCircle
 10
32.746542292078146
 20
7.83975478449076
 40
1.1394334019562258
  0
CIRCLE
  5
7AA
330
1F
100
AcDbEntity
  8
media
 67
0
100
AcDbCircle
 10
62.02524986597706
 20
19.32003224049511
 40
0.5143798957897637
  0
CIRCLE
  5
7AB
330
1F
100
AcDbEntity
  8
media
 67
0
100
AcDbCircle
 10
48.21413635647926
 20
19.571008308644316
 40
1.1066813435835217
  0
CIRCLE
  5
7AC
330
1F
100
AcDbEntity
  8
media
 67
0
100
AcDbCircle
 10
38.160253589585665
 20
8.758873592904461
 40
1.1600822496185597
  0
CIRCLE
  5
7AD
330
1F
100
AcDbEntity
  8
media
 67
0
100
AcDbCircle
 10
67.73413621881278
 20
15.107246883195824
 40
0.9647715573459285
  0
CIRCLE
  5
7AE
330
1F
100
AcDbEntity
  8
media
 67
0
100
AcDbCircle
 10
77.41208641399047
 20
18.0584539028603
 40
1.024453699767511
  0
CIRCLE
  5
7AF
330
1F
100
AcDbEntity
  8
media
 67
0
100
AcDbCircle
 10
32.048358542038414
 20
6.245693887077922
 40
0.8933612704548191
  0
CIRCLE
  5
7B0
330
1F
100
AcDbEntity
  8
media
 67
0
100
AcDbCircle
 10
88.41060107976088
 20
5.778504868304944
 40
0.5457584047912565
  0
CIRCLE
  5
7B1
330
1F
100
AcDbEntity
  8
media
 67
0
100
AcDbCircle
 10
98.85662439122862
 20
8.645750440674599
 40
0.5619413553148096
  0
CIRCLE
  5
7B2
330
1F
100
AcDbEntity
  8
media
 67
0
100
AcDbCircle
 10
62.570154839312664
 20
5.647040379881692
 40
1.036965817064036
  0
CIRCLE
  5
7B3
330
1F
100
AcDbEntity
  8
media
 67
0
100
AcDbCircle
 10
88.5503717792116
 20
12.329855357585128
 40
0.8032089165328665
  0
CIRCLE
  5
7B4
330
1F
100
AcDbEntity
  8
media
 67
0
100
AcDbCircle
 10
51.85526941890069
 20
15.94266996363514
 40
1.0293414714402922
  0
CIRCLE
  5
7B5
330
1F
100
AcDbEntity
  8
media
 67
0
100
AcDbCircle
 10
74.15298479167618
 20
4.232300078842961
 40
0.5207510817081733
  0
CIRCLE
  5
7B6
330
1F
100
AcDbEntity
  8
media
 67
0
100
AcDbCircle
 10
29.872908046330913
 20
14.382050158692921
 40
1.1218646600040074
  0
CIRCLE
  5
7B7
330
1F
100
AcDbEntity
  8
media
 67
0
100
AcDbCircle
 10
82.56430374050683
 20
9.903508419518287
 40
0.7349359797971347
  0
CIRCLE
  5
7B8
330
1F
100
AcDbEntity
  8
media
 67
0
100
AcDbCircle
 10
55.71920717881903
 20
1.2948386466569204
 40
0.867922491336393
  0
CIRCLE
  5
7B9
330
1F
100
AcDbEntity
  8
media
 67
0
100
AcDbCircle
 10
96.36767691042657
 20
17.499353573860102
 40
0.7341305578096347
  0
CIRCLE
  5
7BA
330
1F
100
AcDbEntity
  8
media
 67
0
100
AcDbCircle
 10
80.17830466279997
 20
7.909177171022776
 40
1.1227165839927875
  0
CIRCLE
  5
7BB
330
1F
100
AcDbEntity
  8
media
 67
0
100
AcDbCircle
 10
71.79109163447033
 20
13.364630641323119
 40
0.6484770353492791
  0
CIRCLE
  5
7BC
330
1F
100
AcDbEntity
  8
media
 67
0
100
AcDbCircle
 10
27.82599959476596
 20
20.48407233885774
 40
1.089691188124199
  0
CIRCLE
  5
7BD
330
1F
100
AcDbEntity
  8
media
 67
0
100
AcDbCircle
 10
48.15891867818961
 20
19.013613124615198
 40
0.7969293242505118
  0
CIRCLE
  5
7BE
330
1F
100
AcDbEntity
  8
media
 67
0
100
AcDbCircle
 10
83.046278608559
 20
22.695480940377372
 40
0.6047840403389917
  0
CIRCLE
  5
7BF
330
1F
100
AcDbEntity
  8
media
 67
0
100
AcDbCircle
 10
83.09753918754204
 20
14.479478166576367
 40
0.5363809919918542
  0
CIRCLE
  5
7C0
330
1F
100
AcDbEntity
  8
media
 67
0
100
AcDbCircle
 10
73.38618389720413
 20
15.246882929672047
 40
0.6185261607587618
  0
CIRCLE
  5
7C1
330
1F
100
AcDbEntity
  8
media
 67
0
100
AcDbCircle
 10
90.76293039561266
 20
22.28880902762398
 40
1.1043606014032679
  0
CIRCLE
  5
7C2
330
1F
100
AcDbEntity
  8
media
 67
0
100
AcDbCircle
 10
92.77952185543337
 20
2.296536348472857
 40
0.7671753489871286
  0
CIRCLE
  5
7C3
330
1F
100
AcDbEntity
  8
media
 67
0
100
AcDbCircle
 10
62.71943839486151
 20
9.305388374850361
 40
0.8716860057676077
  0
CIRCLE
  5
7C4
330
1F
100
AcDbEntity
  8
media
 67
0
100
AcDbCircle
 10
98.88669372934872
 20
1.0148108828930862
 40
0.6880905716646064
  0
CIRCLE
  5
7C5
330
1F
100
AcDbEntity
  8
media
 67
0
100
AcDbCircle
 10
53.76150718548397
 20
17.85542444878781
 40
0.9698194608218751
  0
CIRCLE
  5
7C6
330
1F
100
AcDbEntity
  8
media
 67
0
100
AcDbCircle
 10
17.322575759592958
 20
18.77894357276638
 40
0.7165455653427651
  0
CIRCLE
  5
7C7
330
1F
100
AcDbEntity
  8
media
 67
0
100
AcDbCircle
 10
77.70008219063358
 20
10.233419728874805
 40
0.9035314495940543
  0
CIRCLE
  5
7C8
330
1F
100
AcDbEntity
  8
media
 67
0
100
AcDbCircle
 10
44.77096651738258
 20
17.87162633444749
 40
0.6705158253965571
  0
CIRCLE
  5
7C9
330
1F
100
AcDbEntity
  8
media
 67
0
100
AcDbCircle
 10
80.43844794584373
 20
3.799618597872839
 40
1.022288760237495
  0
CIRCLE
  5
7CA
330
1F
100
AcDbEntity
  8
media
 67
0
100
AcDbCircle
 10
70.68529843619845
 20
10.845347445932957
 40
0.8224608781471388
  0
CIRCLE
  5
7CB
330
1F
100
AcDbEntity
  8
media
 67
0
100
AcDbCircle
 10
18.276561036102603
 20
23.302857604940726
 40
1.0837647160465238
  0
CIRCLE
  5
7CC
330
1F
100
AcDbEntity
  8
media
 67
0
100
AcDbCircle
 10
98.67964614484183
 20
4.7866093537260594
 40
1.158873158497865
  0
CIRCLE
  5
7CD
330
1F
100
AcDbEntity
  8
media
 67
0
100
AcDbCircle
 10
93.59617997796948
 20
10.573864988429403
 40
0.8287204432206576
  0
CIRCLE
  5
7CE
330
1F
100
AcDbEntity
  8
media
 67
0
100
AcDbCircle
 10
38.59583728159378
 20
16.18801550279872
 40
0.7682067718342438
  0
CIRCLE
  5
7CF
330
1F
100
AcDbEntity
  8
media
 67
0
100
AcDbCircle
 10
63.303979649690135
 20
21.233939349552003
 40
1.1107656359422555
  0
CIRCLE
  5
7D0
330
1F
100
AcDbEntity
  8
media
 67
0
100
AcDbCircle
 10
24.61582382182464
 20
18.845133909437003
 40
0.9555185540249757
  0
CIRCLE
  5
7D1
330
1F
100
AcDbEntity
  8
media
 67
0
100
AcDbCircle
 10
25.337114317556097
 20
14.481760254547488
 40
0.9501913203198578
  0
CIRCLE
  5
7D2
330
1F
100
AcDbEntity
  8
media
 67
0
100
AcDbCircle
 10
21.586533985176565
 20
8.23658520088595
 40
0.7857472189933399
  0
CIRCLE
  5
7D3
330
1F
100
AcDbEntity
  8
media
 67
0
100
AcDbCircle
 10
36.54748930114793
 20
9.955196244630287
 40
0.6646650340742678
  0
CIRCLE
  5
7D4
330
1F
100
AcDbEntity
  8
media
 67
0
100
AcDbCircle
 10
79.36700551515247
 20
14.891602496173753
 40
0.9224304473171703
  0
CIRCLE
  5
7D5
330
1F
100
AcDbEntity
  8
media
 67
0
100
AcDbCircle
 10
94.8396504449457
 20
12.234774662058587
 40
0.6831518667916774
  0
CIRCLE
  5
7D6
330
1F
100
AcDbEntity
  8
media
 67
0
100
AcDbCircle
 10
59.16023961301379
 20
14.15094707661978
 40
0.517087735268772
  0
CIRCLE
  5
7D7
330
1F
100
AcDbEntity
  8
media
 67
0
100
AcDbCircle
 10
41.35991913661196
 20
2.2020678341425803
 40
1.0701874023444589
  0
CIRCLE
  5
7D8
330
1F
100
AcDbEntity
  8
media
 67
0
100
AcDbCircle
 10
16.888659527375584
 20
7.000176341465027
 40
1.1574766329627502
  0
CIRCLE
  5
7D9
330
1F
100
AcDbEntity
  8
media
 67
0
100
AcDbCircle
 10
51.60776086915423
 20
23.896909040837386
 40
1.0626561699095387
  0
CIRCLE
  5
7DA
330
1F
100
AcDbEntity
  8
media
 67
0
100
AcDbCircle
 10
43.46800690814599
 20
20.8899932286278
 40
1.1848197181519797
  0
CIRCLE
  5
7DB
330
1F
100
AcDbEntity
  8
media
 67
0
100
AcDbCircle
 10
71.51814476368719
 20
18.06593292821116
 40
0.9130205995699434
  0
CIRCLE
  5
7DC
330
1F
100
AcDbEntity
  8
media
 67
0
100
AcDbCircle
 10
29.717348420012513
 20
22.348245762123643
 40
0.9063241323898799
  0
CIRCLE
  5
7DD
330
1F
100
AcDbEntity
  8
media
 67
0
100
AcDbCircle
 10
75.45930083134787
 20
14.80816835224904
 40
0.7583849680840795
  0
CIRCLE
  5
7DE
330
1F
100
AcDbEntity
  8
media
 67
0
100
AcDbCircle
 10
38.32816166070751
 20
13.363577872650913
 40
1.0397797801117667
  0
CIRCLE
  5
7DF
330
1F
100
AcDbEntity
  8
media
 67
0
100
AcDbCircle
 10
21.937573852441304
 20
8.373212044017048
 40
0.7943782353863517
  0
CIRCLE
  5
7E0
330
1F
100
AcDbEntity
  8
media
 67
0
100
AcDbCircle
 10
88.98152922771224
 20
10.830508182983115
 40
0.9399836134102918
  0
CIRCLE
  5
7E1
330
1F
100
AcDbEntity
  8
media
 67
0
100
AcDbCircle
 10
97.30105703448649
 20
22.898256582322812
 40
0.7315408978842513
  0
CIRCLE
  5
7E2
330
1F
100
AcDbEntity
  8
media
 67
0
100
AcDbCircle
 10
65.04212727441254
 20
2.4322586355863534
 40
1.1694013772170293
  0
CIRCLE
  5
7E3
330
1F
100
AcDbEntity
  8
media
 67
0
100
AcDbCircle
 10
70.43514240315653
 20
3.797685594550627
 40
1.1704508857341802
  0
CIRCLE
  5
7E4
330
1F
100
AcDbEntity
  8
media
 67
0
100
AcDbCircle
 10
18.711097563980296
 20
4.7365454456581455
 40
0.9086754421676464
  0
CIRCLE
  5
7E5
330
1F
100
AcDbEntity
  8
media
 67
0
100
AcDbCircle
 10
97.61169420771357
 20
4.365749080590613
 40
1.1331715400565372
  0
CIRCLE
  5
7E6
330
1F
100
AcDbEntity
  8
media
 67
0
100
AcDbCircle
 10
34.736472006732875
 20
13.982205214380844
 40
1.0780602035013003
  0
CIRCLE
  5
7E7
330
1F
100
AcDbEntity
  8
media
 67
0
100
AcDbCircle
 10
87.92890524458699
 20
1.660038774279185
 40
0.862990874413907
  0
CIRCLE
  5
7E8
330
1F
100
AcDbEntity
  8
media
 67
0
100
AcDbCircle
 10
35.878629749341975
 20
19.809162708996283
 40
0.9255528896280484
  0
CIRCLE
  5
7E9
330
1F
100
AcDbEntity
  8
media
 67
0
100
AcDbCircle
 10
59.48429778094641
 20
19.344547782758536
 40
0.9725143354403032
  0
CIRCLE
  5
7EA
330
1F
100
AcDbEntity
  8
media
 67
0
100
AcDbCircle
 10
18.040584034865635
 20
14.19519303764938
 40
0.5741998089185623
  0
CIRCLE
  5
7EB
330
1F
100
AcDbEntity
  8
media
 67
0
100
AcDbCircle
 10
37.54367015592425
 20
2.420584932898783
 40
1.193664804413536
  0
CIRCLE
  5
7EC
330
1F
100
AcDbEntity
  8
media
 67
0
100
AcDbCircle
 10
97.59591269518157
 20
8.792506713122972
 40
1.1273856271132927
  0
CIRCLE
  5
7ED
330
1F
100
AcDbEntity
  8
media
 67
0
100
AcDbCircle
 10
37.21370685144123
 20
15.602462770099626
 40
0.8162412560478705
  0
CIRCLE
  5
7EE
330
1F
100
AcDbEntity
  8
media
 67
0
100
AcDbCircle
 10
39.881688060326645
 20
19.388679433608694
 40
0.9173561977777773
  0
CIRCLE
  5
7EF
330
1F
100
AcDbEntity
  8
media
 67
0
100
AcDbCircle
 10
19.180447233721562
 20
19.91134954664967
 40
1.1564523017529726
  0
CIRCLE
  5
7F0
330
1F
100
AcDbEntity
  8
media
 67
0
100
AcDbCircle
 10
63.310348128597745
 20
20.32570063116998
 40
0.9787125357019937
  0
CIRCLE
  5
7F1
330
1F
100
AcDbEntity
  8
media
 67
0
100
AcDbCircle
 10
34.89331241229081
 20
5.902706132336278
 40
1.1342608943226322
  0
CIRCLE
  5
7F2
330
1F
100
AcDbEntity
  8
media
 67
0
100
AcDbCircle
 10
24.773353152368095
 20
21.974277314060487
 40
0.6218880341088421
  0
CIRCLE
  5
7F3
330
1F
100
AcDbEntity
  8
media
 67
0
100
AcDbCircle
 10
33.06220775047139
 20
21.228087928516644
 40
0.6827728454057879
  0
CIRCLE
  5
7F4
330
1F
100
AcDbEntity
  8
media
 67
0
100
AcDbCircle
 10
31.616472176305287
 20
12.035485787518283
 40
0.9803167918772928
  0
CIRCLE
  5
7F5
330
1F
100
AcDbEntity
  8
media
 67
0
100
AcDbCircle
 10
8.849491545085778
 20
15.718491513794136
 40
0.6364368814147158
  0
CIRCLE
  5
7F6
330
1F
100
AcDbEntity
  8
media
 67
0
100
AcDbCircle
 10
36.460548022265925
 20
18.518146176790808
 40
0.6301051669629634
  0
CIRCLE
  5
7F7
330
1F
100
AcDbEntity
  8
media
 67
0
100
AcDbCircle
 10
51.62332550671591
 20
20.055529044300194
 40
0.7838706286872155
  0
CIRCLE
  5
7F8
330
1F
100
AcDbEntity
  8
media
 67
0
100
AcDbCircle
 10
94.77859139415098
 20
7.300830646902029
 40
0.666120009862413
  0
CIRCLE
  5
7F9
330
1F
100
AcDbEntity
  8
media
 67
0
100
AcDbCircle
 10
27.59103711234239
 20
2.4039606491868453
 40
0.8759528592079695
  0
CIRCLE
  5
7FA
330
1F
100
AcDbEntity
  8
media
 67
0
100
AcDbCircle
 10
37.36798452963261
 20
7.7327021540893055
 40
0.853919339523163
  0
CIRCLE
  5
7FB
330
1F
100
AcDbEntity
  8
media
 67
0
100
AcDbCircle
 10
5.489725334276519
 20
22.00399750588895
 40
0.8730562304338292
  0
CIRCLE
  5
7FC
330
1F
100
AcDbEntity
  8
media
 67
0
100
AcDbCircle
 10
51.32275397546564
 20
18.512101135358282
 40
0.6812644151222715
  0
CIRCLE
  5
7FD
330
1F
100
AcDbEntity
  8
media
 67
0
100
AcDbCircle
 10
77.0925209097181
 20
12.426147269535655
 40
0.5056741227239206
  0
CIRCLE
  5
7FE
330
1F
100
AcDbEntity
  8
media
 67
0
100
AcDbCircle
 10
62.322248433291115
 20
16.588296262747495
 40
0.9960520483582473
  0
CIRCLE
  5
7FF
330
1F
100
AcDbEntity
  8
media
 67
0
100
AcDbCircle
 10
18.973346543641167
 20
11.162402959906357
 40
0.6556242040617919
  0
CIRCLE
  5
800
330
1F
100
AcDbEntity
  8
media
 67
0
100
AcDbCircle
 10
32.29071952871257
 20
20.984016448745162
 40
1.1673983200976439
  0
CIRCLE
  5
801
330
1F
100
AcDbEntity
  8
media
 67
0
100
AcDbCircle
 10
36.013138679149975
 20
15.620023630301043
 40
0.5609545397116702
  0
CIRCLE
  5
802
330
1F
100
AcDbEntity
  8
media
 67
0
100
AcDbCircle
 10
47.56320562338534
 20
4.808011399482402
 40
0.5789710150717553
  0
CIRCLE
  5
803
330
1F
100
AcDbEntity
  8
media
 67
0
100
AcDbCircle
 10
59.219798112930334
 20
16.71090886209368
 40
0.6423843029676813
  0
CIRCLE
  5
804
330
1F
100
AcDbEntity
  8
media
 67
0
100
AcDbCircle
 10
4.843665292639514
 20
20.8600097058339
 40
0.886965564200319
  0
CIRCLE
  5
805
330
1F
100
AcDbEntity
  8
media
 67
0
100
AcDbCircle
 10
67.60153282363113
 20
16.633289240018385
 40
0.9258396195328489
  0
CIRCLE
  5
806
330
1F
100
AcDbEntity
  8
media
 67
0
100
AcDbCircle
 10
75.77363311027345
 20
6.856352923302411
 40
0.9789851369122236
  0
CIRCLE
  5
807
330
1F
100
AcDbEntity
  8
media
 67
0
100
AcDbCircle
 10
44.3220427544181
 20
4.073964961888298
 40
1.0941194701435628
  0
CIRCLE
  5
808
330
1F
100
AcDbEntity
  8
media
 67
0
100
AcDbCircle
 10
63.300476080345376
 20
15.149163420918875
 40
0.9225483223024189
  0
ENDSEC
  0
SECTION
  2
OBJECTS
  0
DICTIONARY
  5
C
330
0
100
AcDbDictionary
281
1
  3
ACAD_COLOR
350
73
  3
ACAD_GROUP
350
D
  3
ACAD_LAYOUT
350
1A
  3
ACAD_MATERIAL
350
72
  3
ACAD_MLEADERSTYLE
350
D7
  3
ACAD_MLINESTYLE
350
17
  3
ACAD_PLOTSETTINGS
350
19
  3
ACAD_PLOTSTYLENAME
350
E
  3
ACAD_SCALELIST
350
B6
  3
ACAD_TABLESTYLE
350
86
  3
ACAD_VISUALSTYLE
350
99
  3
ACDB_RECOMPOSE_DATA
350
40F
  3
AcDbVariableDictionary
350
66
  3
DWGPROPS
350
410
  0
DICTIONARY
  5
2A2
330
2
100
AcDbDictionary
280
1
281
1
  3
ACAD_LAYERSTATES
360
2A3
  0
DICTIONARY
  5
E6
330
10
100
AcDbDictionary
280
1
281
1
  0
DICTIONARY
  5
15D
330
1F
100
AcDbDictionary
280
1
281
1
  0
DICTIONARY
  5
28C
330
28B
100
AcDbDictionary
280
1
281
1
  3
ACAD_XREC_ROUNDTRIP
360
43A
  3
ASDK_XREC_ANNOTATION_SCALE_INFO
360
28D
  0
DICTIONARY
  5
291
330
290
100
AcDbDictionary
280
1
281
1
  3
ACAD_XREC_ROUNDTRIP
360
43B
  3
ASDK_XREC_ANNOTATION_SCALE_INFO
360
292
  0
DICTIONARY
  5
73
102
{ACAD_REACTORS
330
C
102
}
330
C
100
AcDbDictionary
281
1
  0
DICTIONARY
  5
D
102
{ACAD_REACTORS
330
C
102
}
330
C
100
AcDbDictionary
281
1
  0
DICTIONARY
  5
1A
102
{ACAD_REACTORS
330
C
102
}
330
C
100
AcDbDictionary
281
1
  3
Layout1
350
59
  3
Model
350
22
  0
DICTIONARY
  5
72
102
{ACAD_REACTORS
330
C
102
}
330
C
100
AcDbDictionary
281
1
  3
ByBlock
350
97
  3
ByLayer
350
96
  3
Global
350
98
  0
DICTIONARY
  5
D7
102
{ACAD_REACTORS
330
C
102
}
330
C
100
AcDbDictionary
281
1
  3
Annotative
350
E5
  3
Civil-Metric
350
288
  3
Standard
350
D8
  0
DICTIONARY
  5
17
102
{ACAD_REACTORS
330
C
102
}
330
C
100
AcDbDictionary
281
1
  3
Standard
350
18
  0
DICTIONARY
  5
19
102
{ACAD_REACTORS
330
C
102
}
330
C
100
AcDbDictionary
281
1
  0
ACDBDICTIONARYWDFLT
  5
E
102
{ACAD_REACTORS
330
C
102
}
330
C
100
AcDbDictionary
281
1
  3
Normal
350
F
100
AcDbDictionaryWithDefault
340
F
  0
DICTIONARY
  5
B6
102
{ACAD_REACTORS
330
C
102
}
330
C
100
AcDbDictionary
281
1
  3
A0
350
B7
  3
A1
350
347
  3
A2
350
348
  3
A3
350
349
  3
A4
350
34A
  3
A5
350
34B
  3
A6
350
34C
  3
A7
350
34D
  3
A8
350
34E
  3
A9
350
34F
  3
B0
350
350
  3
B1
350
351
  3
B2
350
352
  3
B3
350
353
  3
B4
350
354
  3
B5
350
355
  3
B6
350
356
  0
DICTIONARY
  5
86
102
{ACAD_REACTORS
330
C
102
}
330
C
100
AcDbDictionary
281
1
  3
Standard
350
87
  0
DICTIONARY
  5
99
102
{ACAD_REACTORS
330
C
102
}
330
C
100
AcDbDictionary
281
1
  3
2dWireframe
350
9F
  3
3D Hidden
350
A1
  3
3dWireframe
350
A0
  3
Basic
350
9E
  3
Brighten
350
A5
  3
ColorChange
350
A9
  3
Conceptual
350
A2
  3
Dim
350
A4
  3
EdgeColorOff
350
3B8
  3
Facepattern
350
A8
  3
Flat
350
9A
  3
FlatWithEdges
350
9B
  3
Gouraud
350
9C
  3
GouraudWithEdges
350
9D
  3
JitterOff
350
3B6
  3
Linepattern
350
A7
  3
OverhangOff
350
3B7
  3
Realistic
350
A3
  3
Thicken
350
A6
  0
XRECORD
  5
40F
102
{ACAD_REACTORS
330
C
102
}
330
C
100
AcDbXrecord
280
1
 90
1
330
87
  0
DICTIONARY
  5
66
102
{ACAD_REACTORS
330
C
102
}
330
C
100
AcDbDictionary
281
1
  3
ANNOALLVISIBLE
350
38E
  3
CANNOSCALE
350
F0
  3
CMLEADERSTYLE
350
EF
  3
CTABLESTYLE
350
89
  3
DIMASSOC
350
67
  3
HIDETEXT
350
6B
  3
INDEXCTL
350
3D2
  3
LAYEREVAL
350
14D
  3
LAYERNOTIFY
350
14E
  3
LIGHTINGUNITS
350
38F
  3
MSLTSCALE
350
3D0
  3
SORTENTS
350
3D1
  3
XCLIPFRAME
350
3D3
  0
XRECORD
  5
410
102
{ACAD_REACTORS
330
C
102
}
330
C
100
AcDbXrecord
280
1
  1
DWGPROPS COOKIE
  2

  3

  4

  6

  7

  8

  9

300
=
301
=
302
=
303
=
304
=
305
=
306
=
307
=
308
=
309
=
 40
0.0010436111111111
 41
2455631.34653463
 42
2455631.347576296
  1

 90
0
  0
DICTIONARY
  5
2A3
102
{ACAD_REACTORS
330
2A2
102
}
330
2A2
100
AcDbDictionary
281
1
  0
XRECORD
  5
43A
102
{ACAD_REACTORS
330
28C
102
}
330
28C
100
AcDbXrecord
280
1
102
SHADEPLOT
 70
0
  0
XRECORD
  5
28D
102
{ACAD_REACTORS
330
28C
102
}
330
28C
100
AcDbXrecord
280
1
 90
1
340
B7
  0
XRECORD
  5
43B
102
{ACAD_REACTORS
330
291
102
}
330
291
100
AcDbXrecord
280
1
102
SHADEPLOT
 70
0
  0
XRECORD
  5
292
102
{ACAD_REACTORS
330
291
102
}
330
291
100
AcDbXrecord
280
1
 90
1
340
B7
  0
LAYOUT
  5
59
102
{ACAD_XDICTIONARY
360
2A7
102
}
102
{ACAD_REACTORS
330
1A
102
}
330
1A
100
AcDbPlotSettings
  1

  2
DWFx ePlot (XPS Compatible).pc3
  4
ANSI_A_(8.50_x_11.00_Inches)
  6

 40
5.793749809265136
 41
17.79375076293945
 42
5.793746948242187
 43
17.79376220703125
 44
215.8999938964844
 45
279.3999938964844
 46
0.0
 47
0.0
 48
0.0
 49
0.0
140
0.0
141
0.0
142
1.0
143
1.0
 70
688
 72
0
 73
1
 74
5
  7
acad.ctb
 75
16
147
1.0
148
0.0
149
0.0
100
AcDbLayout
  1
Layout1
 70
1
 71
1
 10
-0.7005418191744587
 20
-0.2281003861915408
 11
10.29945794052965
 21
8.27189937351257
 12
0.0
 22
0.0
 32
0.0
 14
0.62886676639706
 24
0.7999999523162842
 34
0.0
 15
9.028866384927335
 25
7.199999570846558
 35
0.0
146
0.0
 13
0.0
 23
0.0
 33
0.0
 16
1.0
 26
0.0
 36
0.0
 17
0.0
 27
1.0
 37
0.0
 76
0
330
58
331
28B
1001
ACAD_PSEXT
1000
DWFx ePlot (XPS Compatible).pc3
1000
DWFx ePlot (XPS Compatible)
1000
File
1000

1070
0
  0
LAYOUT
  5
22
102
{ACAD_XDICTIONARY
360
411
102
}
102
{ACAD_REACTORS
330
1A
102
}
330
1A
100
AcDbPlotSettings
  1

  2
DWFx ePlot (XPS Compatible).pc3
  4
ANSI_A_(8.50_x_11.00_Inches)
  6

 40
5.793749809265136
 41
17.79375076293945
 42
5.793746948242187
 43
17.79376220703125
 44
215.8999938964844
 45
279.3999938964844
 46
0.0
 47
0.0
 48
0.0
 49
0.0
140
0.0
141
0.0
142
1.0
143
14.5331733075991
 70
11952
 72
0
 73
1
 74
0
  7

 75
0
147
0.068808097091715
148
114.9814160680965
149
300.291024640228
100
AcDbLayout
  1
Model
 70
1
 71
0
 10
0.0
 20
0.0
 11
12.0
 21
9.0
 12
0.0
 22
0.0
 32
0.0
 14
0.0
 24
0.0
 34
0.0
 15
0.0
 25
0.0
 35
0.0
146
0.0
 13
0.0
 23
0.0
 33
0.0
 16
1.0
 26
0.0
 36
0.0
 17
0.0
 27
1.0
 37
0.0
 76
0
330
1F
331
94
1001
ACAD_PSEXT
1000
DWFx ePlot (XPS Compatible).pc3
1000
DWFx ePlot (XPS Compatible)
1000
File
1000

1070
0
  0
MATERIAL
  5
97
102
{ACAD_XDICTIONARY
360
417
102
}
102
{ACAD_REACTORS
330
72
102
}
330
72
100
AcDbMaterial
  1
ByBlock
  0
MATERIAL
  5
96
102
{ACAD_XDICTIONARY
360
415
102
}
102
{ACAD_REACTORS
330
72
102
}
330
72
100
AcDbMaterial
  1
ByLayer
  0
MATERIAL
  5
98
102
{ACAD_XDICTIONARY
360
110
102
}
102
{ACAD_REACTORS
330
72
102
}
330
72
100
AcDbMaterial
  1
Global
 43
0.0208000000566244
 43
0.0
 43
0.0
 43
0.0
 43
0.0
 43
0.0208000000566244
 43
0.0
 43
0.0
 43
0.0
 43
0.0
 43
1.0
 43
0.0
 43
0.0
 43
0.0
 43
0.0
 43
1.0
 49
0.0208000000566244
 49
0.0
 49
0.0
 49
0.0
 49
0.0
 49
0.0208000000566244
 49
0.0
 49
0.0
 49
0.0
 49
0.0
 49
1.0
 49
0.0
 49
0.0
 49
0.0
 49
0.0
 49
1.0
142
0.0208000000566244
142
0.0
142
0.0
142
0.0
142
0.0
142
0.0208000000566244
142
0.0
142
0.0
142
0.0
142
0.0
142
1.0
142
0.0
142
0.0
142
0.0
142
0.0
142
1.0
144
0.0208000000566244
144
0.0
144
0.0
144
0.0
144
0.0
144
0.0208000000566244
144
0.0
144
0.0
144
0.0
144
0.0
144
1.0
144
0.0
144
0.0
144
0.0
144
0.0
144
1.0
1001
ACAD
1070
-1
1070
3
1070
0
1000

1071
0
1070
0
  0
MLEADERSTYLE
  5
E5
102
{ACAD_REACTORS
330
D7
102
}
330
D7
100
AcDbMLeaderStyle
170
2
171
1
172
0
 90
2
 40
0.0
 41
0.0
173
1
 91
-1056964608
340
14
 92
-2
290
1
 42
2.0
291
1
 43
9.0
  3
Standard
 44
4.0
300

342
11
174
1
178
1
175
1
176
0
 93
-1056964608
 45
4.0
292
0
297
0
 46
0.18
 94
-1056964608
 47
1.0
 49
1.0
140
1.0
293
1
141
0.0
294
1
177
0
142
1.0
295
0
296
1
143
3.0
1001
ACAD_MLEADERVER
1070
2
  0
MLEADERSTYLE
  5
288
102
{ACAD_REACTORS
330
D7
102
}
330
D7
100
AcDbMLeaderStyle
170
2
171
1
172
0
 90
2
 40
0.0
 41
0.0
173
1
 91
-1056964608
340
14
 92
-2
290
1
 42
2.0
291
1
 43
7.0
  3
Standard
 44
3.0
300

342
178
174
1
178
1
175
1
176
0
 93
-1056964608
 45
3.0
292
0
297
1
 46
0.18
 94
-1056964608
 47
1.0
 49
1.0
140
1.0
293
1
141
0.0
294
1
177
0
142
1.0
295
0
296
1
143
3.0
1001
ACAD_MLEADERVER
1070
2
  0
MLEADERSTYLE
  5
D8
102
{ACAD_REACTORS
330
D7
102
}
330
D7
100
AcDbMLeaderStyle
170
2
171
1
172
0
 90
2
 40
0.0
 41
0.0
173
1
 91
-1056964608
340
14
 92
-2
290
1
 42
2.0
291
1
 43
9.0
  3
Standard
 44
4.0
300

342
11
174
1
178
1
175
1
176
0
 93
-1056964608
 45
4.0
292
0
297
0
 46
0.18
 94
-1056964608
 47
1.0
 49
1.0
140
1.0
293
1
141
0.0
294
1
177
0
142
1.0
295
0
296
0
143
3.0
1001
ACAD_MLEADERVER
1070
2
  0
MLINESTYLE
  5
18
102
{ACAD_REACTORS
330
17
102
}
330
17
100
AcDbMlineStyle
  2
STANDARD
 70
0
  3

 62
256
 51
90.0
 52
90.0
 71
2
 49
0.5
 62
256
  6
BYLAYER
 49
-0.5
 62
256
  6
BYLAYER
  0
ACDBPLACEHOLDER
  5
F
102
{ACAD_REACTORS
330
E
102
}
330
E
  0
SCALE
  5
B7
102
{ACAD_REACTORS
330
B6
102
}
330
B6
100
AcDbScale
 70
0
300
1:1
140
1.0
141
1.0
290
1
  0
SCALE
  5
347
102
{ACAD_REACTORS
330
B6
102
}
330
B6
100
AcDbScale
 70
0
300
1:2
140
1.0
141
2.0
290
0
  0
SCALE
  5
348
102
{ACAD_REACTORS
330
B6
102
}
330
B6
100
AcDbScale
 70
0
300
1:4
140
1.0
141
4.0
290
0
  0
SCALE
  5
349
102
{ACAD_REACTORS
330
B6
102
}
330
B6
100
AcDbScale
 70
0
300
1:5
140
1.0
141
5.0
290
0
  0
SCALE
  5
34A
102
{ACAD_REACTORS
330
B6
102
}
330
B6
100
AcDbScale
 70
0
300
1:8
140
1.0
141
8.0
290
0
  0
SCALE
  5
34B
102
{ACAD_REACTORS
330
B6
102
}
330
B6
100
AcDbScale
 70
0
300
1:10
140
1.0
141
10.0
290
0
  0
SCALE
  5
34C
102
{ACAD_REACTORS
330
B6
102
}
330
B6
100
AcDbScale
 70
0
300
1:16
140
1.0
141
16.0
290
0
  0
SCALE
  5
34D
102
{ACAD_REACTORS
330
B6
102
}
330
B6
100
AcDbScale
 70
0
300
1:20
140
1.0
141
20.0
290
0
  0
SCALE
  5
34E
102
{ACAD_REACTORS
330
B6
102
}
330
B6
100
AcDbScale
 70
0
300
1:30
140
1.0
141
30.0
290
0
  0
SCALE
  5
34F
102
{ACAD_REACTORS
330
B6
102
}
330
B6
100
AcDbScale
 70
0
300
1:40
140
1.0
141
40.0
290
0
  0
SCALE
  5
350
102
{ACAD_REACTORS
330
B6
102
}
330
B6
100
AcDbScale
 70
0
300
1:50
140
1.0
141
50.0
290
0
  0
SCALE
  5
351
102
{ACAD_REACTORS
330
B6
102
}
330
B6
100
AcDbScale
 70
0
300
1:100
140
1.0
141
100.0
290
0
  0
SCALE
  5
352
102
{ACAD_REACTORS
330
B6
102
}
330
B6
100
AcDbScale
 70
0
300
2:1
140
2.0
141
1.0
290
0
  0
SCALE
  5
353
102
{ACAD_REACTORS
330
B6
102
}
330
B6
100
AcDbScale
 70
0
300
4:1
140
4.0
141
1.0
290
0
  0
SCALE
  5
354
102
{ACAD_REACTORS
330
B6
102
}
330
B6
100
AcDbScale
 70
0
300
8:1
140
8.0
141
1.0
290
0
  0
SCALE
  5
355
102
{ACAD_REACTORS
330
B6
102
}
330
B6
100
AcDbScale
 70
0
300
10:1
140
10.0
141
1.0
290
0
  0
SCALE
  5
356
102
{ACAD_REACTORS
330
B6
102
}
330
B6
100
AcDbScale
 70
0
300
100:1
140
100.0
141
1.0
290
0
  0
TABLESTYLE
  5
87
102
{ACAD_XDICTIONARY
360
104
102
}
102
{ACAD_REACTORS
330
86
102
}
330
86
100
AcDbTableStyle
  3
Standard
 70
0
 71
0
 40
0.06
 41
0.06
280
0
281
0
  7
Standard
140
0.18
170
2
 62
0
 63
7
283
0
274
-2
284
1
 64
0
275
-2
285
1
 65
0
276
-2
286
1
 66
0
277
-2
287
1
 67
0
278
-2
288
1
 68
0
279
-2
289
1
 69
0
  7
Standard
140
0.25
170
5
 62
0
 63
7
283
0
274
-2
284
1
 64
0
275
-2
285
1
 65
0
276
-2
286
1
 66
0
277
-2
287
1
 67
0
278
-2
288
1
 68
0
279
-2
289
1
 69
0
  7
Standard
140
0.18
170
5
 62
0
 63
7
283
0
274
-2
284
1
 64
0
275
-2
285
1
 65
0
276
-2
286
1
 66
0
277
-2
287
1
 67
0
278
-2
288
1
 68
0
279
-2
289
1
 69
0
  0
VISUALSTYLE
  5
9F
102
{ACAD_XDICTIONARY
360
424
102
}
102
{ACAD_REACTORS
330
99
102
}
330
99
100
AcDbVisualStyle
  2
2dWireframe
 70
4
 71
0
 72
2
 73
1
 90
0
 40
-0.6
 41
-30.0
 62
5
 63
7
 74
1
 91
4
 64
7
 65
257
 75
1
175
1
 42
1.0
 92
0
 66
257
 43
1.0
 76
1
 77
6
 78
2
 67
7
 79
5
170
0
171
0
290
0
174
0
 93
1
 44
0.0
173
0
291
0
 45
0.0
1001
ACAD
1000
AcDbSavedByObjectVersion
1070
0
  0
VISUALSTYLE
  5
A1
102
{ACAD_XDICTIONARY
360
428
102
}
102
{ACAD_REACTORS
330
99
102
}
330
99
100
AcDbVisualStyle
  2
3D Hidden
 70
6
 71
1
 72
2
 73
2
 90
0
 40
-0.6
 41
-30.0
 62
5
 63
7
 74
2
 91
2
 64
7
 65
257
 75
2
175
1
 42
40.0
 92
0
 66
257
 43
1.0
 76
1
 77
6
 78
2
 67
7
 79
3
170
0
171
0
290
0
174
0
 93
1
 44
0.0
173
0
291
0
 45
0.0
1001
ACAD
1000
AcDbSavedByObjectVersion
1070
0
  0
VISUALSTYLE
  5
A0
102
{ACAD_XDICTIONARY
360
426
102
}
102
{ACAD_REACTORS
330
99
102
}
330
99
100
AcDbVisualStyle
  2
3dWireframe
 70
5
 71
0
 72
2
 73
1
 90
0
 40
-0.6
 41
-30.0
 62
5
 63
7
 74
1
 91
4
 64
7
 65
257
 75
1
175
1
 42
1.0
 92
0
 66
257
 43
1.0
 76
1
 77
6
 78
2
 67
7
 79
5
170
0
171
0
290
0
174
0
 93
1
 44
0.0
173
0
291
0
 45
0.0
1001
ACAD
1000
AcDbSavedByObjectVersion
1070
0
  0
VISUALSTYLE
  5
9E
102
{ACAD_XDICTIONARY
360
422
102
}
102
{ACAD_REACTORS
330
99
102
}
330
99
100
AcDbVisualStyle
  2
Basic
 70
7
 71
1
 72
0
 73
1
 90
0
 40
-0.6
 41
-30.0
 62
5
 63
7
 74
0
 91
4
 64
7
 65
257
 75
1
175
1
 42
1.0
 92
8
 66
7
 43
1.0
 76
1
 77
6
 78
2
 67
7
 79
5
170
0
171
0
290
0
174
0
 93
1
 44
0.0
173
0
291
1
 45
0.0
1001
ACAD
1000
AcDbSavedByObjectVersion
1070
0
  0
VISUALSTYLE
  5
A5
102
{ACAD_XDICTIONARY
360
430
102
}
102
{ACAD_REACTORS
330
99
102
}
330
99
100
AcDbVisualStyle
  2
Brighten
 70
12
 71
2
 72
2
 73
1
 90
0
 40
-0.6
 41
-30.0
 62
5
 63
7
 74
1
 91
4
 64
7
 65
257
 75
1
175
1
 42
1.0
 92
8
 66
7
 43
1.0
 76
1
 77
6
 78
2
 67
7
 79
5
170
0
171
0
290
0
174
0
 93
1
 44
50.0
173
0
291
1
 45
0.0
1001
ACAD
1000
AcDbSavedByObjectVersion
1070
0
  0
VISUALSTYLE
  5
A9
102
{ACAD_XDICTIONARY
360
438
102
}
102
{ACAD_REACTORS
330
99
102
}
330
99
100
AcDbVisualStyle
  2
ColorChange
 70
16
 71
2
 72
2
 73
3
 90
0
 40
-0.6
 41
-30.0
 62
5
 63
8
 74
1
 91
4
 64
7
 65
257
 75
1
175
1
 42
1.0
 92
8
 66
8
 43
1.0
 76
1
 77
6
 78
2
 67
7
 79
5
170
0
171
0
290
0
174
0
 93
1
 44
0.0
173
0
291
1
 45
0.0
1001
ACAD
1000
AcDbSavedByObjectVersion
1070
0
  0
VISUALSTYLE
  5
A2
102
{ACAD_XDICTIONARY
360
42A
102
}
102
{ACAD_REACTORS
330
99
102
}
330
99
100
AcDbVisualStyle
  2
Conceptual
 70
9
 71
3
 72
2
 73
1
 90
0
 40
-0.6
 41
-30.0
 62
5
 63
7
 74
2
 91
2
 64
7
 65
257
 75
1
175
1
 42
40.0
 92
8
 66
7
 43
1.0
 76
1
 77
6
 78
2
 67
7
 79
3
170
0
171
0
290
0
174
0
 93
1
 44
0.0
173
0
291
0
 45
0.0
1001
ACAD
1000
AcDbSavedByObjectVersion
1070
0
  0
VISUALSTYLE
  5
A4
102
{ACAD_XDICTIONARY
360
42E
102
}
102
{ACAD_REACTORS
330
99
102
}
330
99
100
AcDbVisualStyle
  2
Dim
 70
11
 71
2
 72
2
 73
1
 90
0
 40
-0.6
 41
-30.0
 62
5
 63
7
 74
1
 91
4
 64
7
 65
257
 75
1
175
1
 42
1.0
 92
8
 66
7
 43
1.0
 76
1
 77
6
 78
2
 67
7
 79
5
170
0
171
0
290
0
174
0
 93
1
 44
-50.0
173
0
291
1
 45
0.0
1001
ACAD
1000
AcDbSavedByObjectVersion
1070
0
  0
VISUALSTYLE
  5
3B8
102
{ACAD_XDICTIONARY
360
440
102
}
102
{ACAD_REACTORS
330
99
102
}
330
99
100
AcDbVisualStyle
  2
EdgeColorOff
 70
22
 71
2
 72
2
 73
0
 90
0
 40
-0.6
 41
-30.0
 62
5
 63
7
 74
1
 91
4
 64
7
 65
257
 75
1
175
1
 42
1.0
 92
8
 66
7
 43
1.0
 76
1
 77
6
 78
2
 67
7
 79
5
170
0
171
0
290
0
174
0
 93
1
 44
0.0
173
0
291
1
 45
0.0
1001
ACAD
1000
AcDbSavedByObjectVersion
1070
0
  0
VISUALSTYLE
  5
A8
102
{ACAD_XDICTIONARY
360
436
102
}
102
{ACAD_REACTORS
330
99
102
}
330
99
100
AcDbVisualStyle
  2
Facepattern
 70
15
 71
2
 72
2
 73
1
 90
0
 40
-0.6
 41
-30.0
 62
5
 63
7
 74
1
 91
4
 64
7
 65
257
 75
1
175
1
 42
1.0
 92
8
 66
7
 43
1.0
 76
1
 77
6
 78
2
 67
7
 79
5
170
0
171
0
290
0
174
0
 93
1
 44
0.0
173
0
291
1
 45
0.0
1001
ACAD
1000
AcDbSavedByObjectVersion
1070
0
  0
VISUALSTYLE
  5
9A
102
{ACAD_XDICTIONARY
360
41A
102
}
102
{ACAD_REACTORS
330
99
102
}
330
99
100
AcDbVisualStyle
  2
Flat
 70
0
 71
2
 72
1
 73
1
 90
2
 40
-0.6
 41
30.0
 62
5
 63
7
 74
0
 91
4
 64
7
 65
257
 75
1
175
1
 42
1.0
 92
8
 66
7
 43
1.0
 76
1
 77
6
 78
2
 67
7
 79
5
170
0
171
0
290
0
174
0
 93
1
 44
0.0
173
0
291
1
 45
0.0
1001
ACAD
1000
AcDbSavedByObjectVersion
1070
0
  0
VISUALSTYLE
  5
9B
102
{ACAD_XDICTIONARY
360
41C
102
}
102
{ACAD_REACTORS
330
99
102
}
330
99
100
AcDbVisualStyle
  2
FlatWithEdges
 70
1
 71
2
 72
1
 73
1
 90
2
 40
-0.6
 41
30.0
 62
5
 63
7
 74
1
 91
4
 64
7
 65
257
 75
1
175
1
 42
1.0
 92
0
 66
257
 43
1.0
 76
1
 77
6
 78
2
 67
7
 79
5
170
0
171
0
290
0
174
0
 93
1
 44
0.0
173
0
291
1
 45
0.0
1001
ACAD
1000
AcDbSavedByObjectVersion
1070
0
  0
VISUALSTYLE
  5
9C
102
{ACAD_XDICTIONARY
360
41E
102
}
102
{ACAD_REACTORS
330
99
102
}
330
99
100
AcDbVisualStyle
  2
Gouraud
 70
2
 71
2
 72
2
 73
1
 90
2
 40
-0.6
 41
30.0
 62
5
 63
7
 74
0
 91
4
 64
7
 65
257
 75
1
175
1
 42
1.0
 92
0
 66
7
 43
1.0
 76
1
 77
6
 78
2
 67
7
 79
5
170
0
171
0
290
0
174
0
 93
1
 44
0.0
173
0
291
1
 45
0.0
1001
ACAD
1000
AcDbSavedByObjectVersion
1070
0
  0
VISUALSTYLE
  5
9D
102
{ACAD_XDICTIONARY
360
420
102
}
102
{ACAD_REACTORS
330
99
102
}
330
99
100
AcDbVisualStyle
  2
GouraudWithEdges
 70
3
 71
2
 72
2
 73
1
 90
2
 40
-0.6
 41
30.0
 62
5
 63
7
 74
1
 91
4
 64
7
 65
257
 75
1
175
1
 42
1.0
 92
0
 66
257
 43
1.0
 76
1
 77
6
 78
2
 67
7
 79
5
170
0
171
0
290
0
174
0
 93
1
 44
0.0
173
0
291
1
 45
0.0
1001
ACAD
1000
AcDbSavedByObjectVersion
1070
0
  0
VISUALSTYLE
  5
3B6
102
{ACAD_XDICTIONARY
360
43C
102
}
102
{ACAD_REACTORS
330
99
102
}
330
99
100
AcDbVisualStyle
  2
JitterOff
 70
20
 71
2
 72
2
 73
0
 90
0
 40
-0.6
 41
-30.0
 62
5
 63
7
 74
1
 91
4
 64
7
 65
257
 75
1
175
1
 42
1.0
 92
10
 66
7
 43
1.0
 76
1
 77
6
 78
2
 67
7
 79
5
170
0
171
0
290
0
174
0
 93
1
 44
0.0
173
0
291
1
 45
0.0
1001
ACAD
1000
AcDbSavedByObjectVersion
1070
0
  0
VISUALSTYLE
  5
A7
102
{ACAD_XDICTIONARY
360
434
102
}
102
{ACAD_REACTORS
330
99
102
}
330
99
100
AcDbVisualStyle
  2
Linepattern
 70
14
 71
2
 72
2
 73
1
 90
0
 40
-0.6
 41
-30.0
 62
5
 63
7
 74
1
 91
4
 64
7
 65
257
 75
7
175
7
 42
1.0
 92
8
 66
7
 43
1.0
 76
1
 77
6
 78
2
 67
7
 79
5
170
0
171
0
290
0
174
0
 93
1
 44
0.0
173
0
291
1
 45
0.0
1001
ACAD
1000
AcDbSavedByObjectVersion
1070
0
  0
VISUALSTYLE
  5
3B7
102
{ACAD_XDICTIONARY
360
43E
102
}
102
{ACAD_REACTORS
330
99
102
}
330
99
100
AcDbVisualStyle
  2
OverhangOff
 70
21
 71
2
 72
2
 73
0
 90
0
 40
-0.6
 41
-30.0
 62
5
 63
7
 74
1
 91
4
 64
7
 65
257
 75
1
175
1
 42
1.0
 92
9
 66
7
 43
1.0
 76
1
 77
6
 78
2
 67
7
 79
5
170
0
171
0
290
0
174
0
 93
1
 44
0.0
173
0
291
1
 45
0.0
1001
ACAD
1000
AcDbSavedByObjectVersion
1070
0
  0
VISUALSTYLE
  5
A3
102
{ACAD_XDICTIONARY
360
42C
102
}
102
{ACAD_REACTORS
330
99
102
}
330
99
100
AcDbVisualStyle
  2
Realistic
 70
8
 71
2
 72
2
 73
1
 90
0
 40
-0.6
 41
-30.0
 62
5
 63
7
 74
1
 91
0
 64
7
 65
257
 75
1
175
1
 42
1.0
 92
8
 66
8
 43
1.0
 76
1
 77
6
 78
2
 67
7
 79
5
170
0
171
0
290
0
174
0
 93
13
 44
0.0
173
0
291
0
 45
0.0
1001
ACAD
1000
AcDbSavedByObjectVersion
1070
0
  0
VISUALSTYLE
  5
A6
102
{ACAD_XDICTIONARY
360
432
102
}
102
{ACAD_REACTORS
330
99
102
}
330
99
100
AcDbVisualStyle
  2
Thicken
 70
13
 71
2
 72
2
 73
1
 90
0
 40
-0.6
 41
-30.0
 62
5
 63
7
 74
1
 91
4
 64
7
 65
257
 75
1
175
1
 42
1.0
 92
12
 66
7
 43
1.0
 76
1
 77
6
 78
2
 67
7
 79
5
170
0
171
0
290
0
174
0
 93
1
 44
0.0
173
0
291
1
 45
0.0
1001
ACAD
1000
AcDbSavedByObjectVersion
1070
0
  0
DICTIONARYVAR
  5
38E
102
{ACAD_REACTORS
330
66
102
}
330
66
100
DictionaryVariables
280
0
  1
0
  0
DICTIONARYVAR
  5
F0
102
{ACAD_REACTORS
330
66
102
}
330
66
100
DictionaryVariables
280
0
  1
1:1
  0
DICTIONARYVAR
  5
EF
102
{ACAD_REACTORS
330
66
102
}
330
66
100
DictionaryVariables
280
0
  1
Civil-Metric
  0
DICTIONARYVAR
  5
89
102
{ACAD_REACTORS
330
66
102
}
330
66
100
DictionaryVariables
280
0
  1
STANDARD
  0
DICTIONARYVAR
  5
67
102
{ACAD_REACTORS
330
66
102
}
330
66
100
DictionaryVariables
280
0
  1
2
  0
DICTIONARYVAR
  5
6B
102
{ACAD_REACTORS
330
66
102
}
330
66
100
DictionaryVariables
280
0
  1
1
  0
DICTIONARYVAR
  5
3D2
102
{ACAD_REACTORS
330
66
102
}
330
66
100
DictionaryVariables
280
0
  1
0
  0
DICTIONARYVAR
  5
14D
102
{ACAD_REACTORS
330
66
102
}
330
66
100
DictionaryVariables
280
0
  1
0
  0
DICTIONARYVAR
  5
14E
102
{ACAD_REACTORS
330
66
102
}
330
66
100
DictionaryVariables
280
0
  1
0
  0
DICTIONARYVAR
  5
38F
102
{ACAD_REACTORS
330
66
102
}
330
66
100
DictionaryVariables
280
0
  1
1
  0
DICTIONARYVAR
  5
3D0
102
{ACAD_REACTORS
330
66
102
}
330
66
100
DictionaryVariables
280
0
  1
1
  0
DICTIONARYVAR
  5
3D1
102
{ACAD_REACTORS
330
66
102
}
330
66
100
DictionaryVariables
280
0
  1
127
  0
DICTIONARYVAR
  5
3D3
102
{ACAD_REACTORS
330
66
102
}
330
66
100
DictionaryVariables
280
0
  1
0
  0
DICTIONARY
  5
2A7
330
59
100
AcDbDictionary
280
1
281
1
  3
ACAD_XREC_ROUNDTRIP
360
413
  3
ADSK_XREC_LAYOUTTHUMBNAIL
360
2A8
  0
DICTIONARY
  5
411
330
22
100
AcDbDictionary
280
1
281
1
  3
ACAD_XREC_ROUNDTRIP
360
412
  0
DICTIONARY
  5
417
330
97
100
AcDbDictionary
280
1
281
1
  3
ACAD_XREC_ROUNDTRIP
360
418
  0
DICTIONARY
  5
415
330
96
100
AcDbDictionary
280
1
281
1
  3
ACAD_XREC_ROUNDTRIP
360
416
  0
DICTIONARY
  5
110
330
98
100
AcDbDictionary
280
1
281
1
  3
ACAD_XREC_ROUNDTRIP
360
419
  3
BUMPTILE
360
112
  3
DIFFUSETILE
360
111
  3
OPACITYTILE
360
113
  3
REFLECTIONTILE
360
114
  0
DICTIONARY
  5
104
330
87
100
AcDbDictionary
280
1
281
1
  3
ACAD_ROUNDTRIP_2008_TABLESTYLE_CELLSTYLEMAP
360
40E
  3
ACAD_XREC_ROUNDTRIP
360
414
  0
DICTIONARY
  5
424
330
9F
100
AcDbDictionary
280
1
281
1
  3
ACAD_XREC_ROUNDTRIP
360
425
  0
DICTIONARY
  5
428
330
A1
100
AcDbDictionary
280
1
281
1
  3
ACAD_XREC_ROUNDTRIP
360
429
  0
DICTIONARY
  5
426
330
A0
100
AcDbDictionary
280
1
281
1
  3
ACAD_XREC_ROUNDTRIP
360
427
  0
DICTIONARY
  5
422
330
9E
100
AcDbDictionary
280
1
281
1
  3
ACAD_XREC_ROUNDTRIP
360
423
  0
DICTIONARY
  5
430
330
A5
100
AcDbDictionary
280
1
281
1
  3
ACAD_XREC_ROUNDTRIP
360
431
  0
DICTIONARY
  5
438
330
A9
100
AcDbDictionary
280
1
281
1
  3
ACAD_XREC_ROUNDTRIP
360
439
  0
DICTIONARY
  5
42A
330
A2
100
AcDbDictionary
280
1
281
1
  3
ACAD_XREC_ROUNDTRIP
360
42B
  0
DICTIONARY
  5
42E
330
A4
100
AcDbDictionary
280
1
281
1
  3
ACAD_XREC_ROUNDTRIP
360
42F
  0
DICTIONARY
  5
440
330
3B8
100
AcDbDictionary
280
1
281
1
  3
ACAD_XREC_ROUNDTRIP
360
441
  0
DICTIONARY
  5
436
330
A8
100
AcDbDictionary
280
1
281
1
  3
ACAD_XREC_ROUNDTRIP
360
437
  0
DICTIONARY
  5
41A
330
9A
100
AcDbDictionary
280
1
281
1
  3
ACAD_XREC_ROUNDTRIP
360
41B
  0
DICTIONARY
  5
41C
330
9B
100
AcDbDictionary
280
1
281
1
  3
ACAD_XREC_ROUNDTRIP
360
41D
  0
DICTIONARY
  5
41E
330
9C
100
AcDbDictionary
280
1
281
1
  3
ACAD_XREC_ROUNDTRIP
360
41F
  0
DICTIONARY
  5
420
330
9D
100
AcDbDictionary
280
1
281
1
  3
ACAD_XREC_ROUNDTRIP
360
421
  0
DICTIONARY
  5
43C
330
3B6
100
AcDbDictionary
280
1
281
1
  3
ACAD_XREC_ROUNDTRIP
360
43D
  0
DICTIONARY
  5
434
330
A7
100
AcDbDictionary
280
1
281
1
  3
ACAD_XREC_ROUNDTRIP
360
435
  0
DICTIONARY
  5
43E
330
3B7
100
AcDbDictionary
280
1
281
1
  3
ACAD_XREC_ROUNDTRIP
360
43F
  0
DICTIONARY
  5
42C
330
A3
100
AcDbDictionary
280
1
281
1
  3
ACAD_XREC_ROUNDTRIP
360
42D
  0
DICTIONARY
  5
432
330
A6
100
AcDbDictionary
280
1
281
1
  3
ACAD_XREC_ROUNDTRIP
360
433
  0
XRECORD
  5
413
102
{ACAD_REACTORS
330
2A7
102
}
330
2A7
100
AcDbXrecord
280
1
102
SHADEPLOT
 70
0
102
SHADEPLOTRESLEVEL
 70
2
102
SHADEPLOTCUSTOMDPI
 70
300
  0
XRECORD
  5
412
102
{ACAD_REACTORS
330
411
102
}
330
411
100
AcDbXrecord
280
1
102
SHADEPLOT
 70
0
102
SHADEPLOTRESLEVEL
 70
2
102
SHADEPLOTCUSTOMDPI
 70
300
  0
XRECORD
  5
418
102
{ACAD_REACTORS
330
417
102
}
330
417
100
AcDbXrecord
280
1
102
MATERIAL
148
0.0
149
0.0
149
0.0
 93
0
 94
63
282
0
 72
1
 77
1
171
1
175
1
179
1
273
0
  0
XRECORD
  5
416
102
{ACAD_REACTORS
330
415
102
}
330
415
100
AcDbXrecord
280
1
102
MATERIAL
148
0.0
149
0.0
149
0.0
 93
0
 94
63
282
0
 72
1
 77
1
171
1
175
1
179
1
273
0
  0
XRECORD
  5
419
102
{ACAD_REACTORS
330
110
102
}
330
110
100
AcDbXrecord
280
1
102
MATERIAL
148
0.0
149
0.0
149
0.0
 93
0
 94
63
282
0
 72
1
 77
1
171
1
175
1
179
1
273
0
  0
XRECORD
  5
112
102
{ACAD_REACTORS
330
110
102
}
330
110
100
AcDbXrecord
280
1
270
1
271
1
  0
XRECORD
  5
111
102
{ACAD_REACTORS
330
110
102
}
330
110
100
AcDbXrecord
280
1
270
1
271
1
  0
XRECORD
  5
113
102
{ACAD_REACTORS
330
110
102
}
330
110
100
AcDbXrecord
280
1
270
1
271
1
  0
XRECORD
  5
114
102
{ACAD_REACTORS
330
110
102
}
330
110
100
AcDbXrecord
280
1
270
1
271
1
  0
CELLSTYLEMAP
  5
40E
102
{ACAD_REACTORS
330
104
102
}
330
104
100
AcDbCellStyleMap
 90
3
300
CELLSTYLE
  1
TABLEFORMAT_BEGIN
 90
5
170
1
 91
0
 92
32768
 62
257
 93
1
300
CONTENTFORMAT
  1
CONTENTFORMAT_BEGIN
 90
0
 91
0
 92
512
 93
0
300

 40
0.0
140
1.0
 94
5
 62
0
340
11
144
0.25
309
CONTENTFORMAT_END
171
1
301
MARGIN
  1
CELLMARGIN_BEGIN
 40
0.06
 40
0.06
 40
0.06
 40
0.06
 40
0.18
 40
0.18
309
CELLMARGIN_END
 94
6
 95
1
302
GRIDFORMAT
  1
GRIDFORMAT_BEGIN
 90
0
 91
1
 62
0
 92
-2
340
0
 93
0
 40
0.045
309
GRIDFORMAT_END
 95
2
302
GRIDFORMAT
  1
GRIDFORMAT_BEGIN
 90
0
 91
1
 62
0
 92
-2
340
0
 93
0
 40
0.045
309
GRIDFORMAT_END
 95
4
302
GRIDFORMAT
  1
GRIDFORMAT_BEGIN
 90
0
 91
1
 62
0
 92
-2
340
0
 93
0
 40
0.045
309
GRIDFORMAT_END
 95
8
302
GRIDFORMAT
  1
GRIDFORMAT_BEGIN
 90
0
 91
1
 62
0
 92
-2
340
0
 93
0
 40
0.045
309
GRIDFORMAT_END
 95
16
302
GRIDFORMAT
  1
GRIDFORMAT_BEGIN
 90
0
 91
1
 62
0
 92
-2
340
0
 93
0
 40
0.045
309
GRIDFORMAT_END
 95
32
302
GRIDFORMAT
  1
GRIDFORMAT_BEGIN
 90
0
 91
1
 62
0
 92
-2
340
0
 93
0
 40
0.045
309
GRIDFORMAT_END
309
TABLEFORMAT_END
  1
CELLSTYLE_BEGIN
 90
1
 91
1
300
_TITLE
309
CELLSTYLE_END
300
CELLSTYLE
  1
TABLEFORMAT_BEGIN
 90
5
170
1
 91
0
 92
0
 62
257
 93
1
300
CONTENTFORMAT
  1
CONTENTFORMAT_BEGIN
 90
0
 91
0
 92
512
 93
0
300

 40
0.0
140
1.0
 94
5
 62
0
340
11
144
0.18
309
CONTENTFORMAT_END
171
1
301
MARGIN
  1
CELLMARGIN_BEGIN
 40
0.06
 40
0.06
 40
0.06
 40
0.06
 40
0.18
 40
0.18
309
CELLMARGIN_END
 94
6
 95
1
302
GRIDFORMAT
  1
GRIDFORMAT_BEGIN
 90
0
 91
1
 62
0
 92
-2
340
0
 93
0
 40
0.045
309
GRIDFORMAT_END
 95
2
302
GRIDFORMAT
  1
GRIDFORMAT_BEGIN
 90
0
 91
1
 62
0
 92
-2
340
0
 93
0
 40
0.045
309
GRIDFORMAT_END
 95
4
302
GRIDFORMAT
  1
GRIDFORMAT_BEGIN
 90
0
 91
1
 62
0
 92
-2
340
0
 93
0
 40
0.045
309
GRIDFORMAT_END
 95
8
302
GRIDFORMAT
  1
GRIDFORMAT_BEGIN
 90
0
 91
1
 62
0
 92
-2
340
0
 93
0
 40
0.045
309
GRIDFORMAT_END
 95
16
302
GRIDFORMAT
  1
GRIDFORMAT_BEGIN
 90
0
 91
1
 62
0
 92
-2
340
0
 93
0
 40
0.045
309
GRIDFORMAT_END
 95
32
302
GRIDFORMAT
  1
GRIDFORMAT_BEGIN
 90
0
 91
1
 62
0
 92
-2
340
0
 93
0
 40
0.045
309
GRIDFORMAT_END
309
TABLEFORMAT_END
  1
CELLSTYLE_BEGIN
 90
2
 91
1
300
_HEADER
309
CELLSTYLE_END
300
CELLSTYLE
  1
TABLEFORMAT_BEGIN
 90
5
170
1
 91
0
 92
0
 62
257
 93
1
300
CONTENTFORMAT
  1
CONTENTFORMAT_BEGIN
 90
0
 91
0
 92
512
 93
0
300

 40
0.0
140
1.0
 94
2
 62
0
340
11
144
0.18
309
CONTENTFORMAT_END
171
1
301
MARGIN
  1
CELLMARGIN_BEGIN
 40
0.06
 40
0.06
 40
0.06
 40
0.06
 40
0.18
 40
0.18
309
CELLMARGIN_END
 94
6
 95
1
302
GRIDFORMAT
  1
GRIDFORMAT_BEGIN
 90
0
 91
1
 62
0
 92
-2
340
0
 93
0
 40
0.045
309
GRIDFORMAT_END
 95
2
302
GRIDFORMAT
  1
GRIDFORMAT_BEGIN
 90
0
 91
1
 62
0
 92
-2
340
0
 93
0
 40
0.045
309
GRIDFORMAT_END
 95
4
302
GRIDFORMAT
  1
GRIDFORMAT_BEGIN
 90
0
 91
1
 62
0
 92
-2
340
0
 93
0
 40
0.045
309
GRIDFORMAT_END
 95
8
302
GRIDFORMAT
  1
GRIDFORMAT_BEGIN
 90
0
 91
1
 62
0
 92
-2
340
0
 93
0
 40
0.045
309
GRIDFORMAT_END
 95
16
302
GRIDFORMAT
  1
GRIDFORMAT_BEGIN
 90
0
 91
1
 62
0
 92
-2
340
0
 93
0
 40
0.045
309
GRIDFORMAT_END
 95
32
302
GRIDFORMAT
  1
GRIDFORMAT_BEGIN
 90
0
 91
1
 62
0
 92
-2
340
0
 93
0
 40
0.045
309
GRIDFORMAT_END
309
TABLEFORMAT_END
  1
CELLSTYLE_BEGIN
 90
3
 91
2
300
_DATA
309
CELLSTYLE_END
  0
XRECORD
  5
414
102
{ACAD_REACTORS
330
104
102
}
330
104
100
AcDbXrecord
280
1
102
ACAD_ROUNDTRIP_PRE2007_TABLESTYLE
 90
512
 91
0
  1

 92
512
 93
0
  2

 94
512
 95
0
  3

  0
XRECORD
  5
425
102
{ACAD_REACTORS
330
424
102
}
330
424
100
AcDbXrecord
280
1
102
RTVSPropertyOp0
 70
1
102
RTVSPropertyOp1
 70
1
102
RTVSPropertyOp2
 70
1
102
RTVSPropertyOp3
 70
1
102
RTVSPropertyOp4
 70
1
102
RTVSPropertyOp5
 70
1
102
RTVSPropertyOp6
 70
1
102
RTVSPropertyOp7
 70
1
102
RTVSPropertyOp8
 70
1
102
RTVSPropertyOp9
 70
1
102
RTVSPropertyOp10
 70
1
102
RTVSPropertyOp11
 70
1
102
RTVSPropertyOp12
 70
1
102
RTVSPropertyOp13
 70
1
102
RTVSPropertyOp14
 70
1
102
RTVSPropertyOp15
 70
1
102
RTVSPropertyOp16
 70
1
102
RTVSPropertyOp17
 70
1
102
RTVSPropertyOp18
 70
1
102
RTVSPropertyOp19
 70
1
102
RTVSPropertyOp20
 70
1
102
RTVSPropertyOp21
 70
1
102
RTVSPropertyOp22
 70
1
102
RTVSPropertyOp23
 70
1
102
RTVSPropertyOp24
 70
1
102
RTVSPropertyOp25
 70
1
102
RTVSPropertyOp26
 70
1
102
RTVSPropertyOp27
 70
1
  0
XRECORD
  5
429
102
{ACAD_REACTORS
330
428
102
}
330
428
100
AcDbXrecord
280
1
102
RTVSPropertyOp0
 70
1
102
RTVSPropertyOp1
 70
1
102
RTVSPropertyOp2
 70
1
102
RTVSPropertyOp3
 70
1
102
RTVSPropertyOp4
 70
1
102
RTVSPropertyOp5
 70
1
102
RTVSPropertyOp6
 70
1
102
RTVSPropertyOp7
 70
1
102
RTVSPropertyOp8
 70
1
102
RTVSPropertyOp9
 70
1
102
RTVSPropertyOp10
 70
1
102
RTVSPropertyOp11
 70
1
102
RTVSPropertyOp12
 70
1
102
RTVSPropertyOp13
 70
1
102
RTVSPropertyOp14
 70
1
102
RTVSPropertyOp15
 70
1
102
RTVSPropertyOp16
 70
1
102
RTVSPropertyOp17
 70
1
102
RTVSPropertyOp18
 70
1
102
RTVSPropertyOp19
 70
1
102
RTVSPropertyOp20
 70
1
102
RTVSPropertyOp21
 70
1
102
RTVSPropertyOp22
 70
1
102
RTVSPropertyOp23
 70
1
102
RTVSPropertyOp24
 70
1
102
RTVSPropertyOp25
 70
1
102
RTVSPropertyOp26
 70
1
102
RTVSPropertyOp27
 70
1
  0
XRECORD
  5
427
102
{ACAD_REACTORS
330
426
102
}
330
426
100
AcDbXrecord
280
1
102
RTVSPropertyOp0
 70
1
102
RTVSPropertyOp1
 70
1
102
RTVSPropertyOp2
 70
1
102
RTVSPropertyOp3
 70
1
102
RTVSPropertyOp4
 70
1
102
RTVSPropertyOp5
 70
1
102
RTVSPropertyOp6
 70
1
102
RTVSPropertyOp7
 70
1
102
RTVSPropertyOp8
 70
1
102
RTVSPropertyOp9
 70
1
102
RTVSPropertyOp10
 70
1
102
RTVSPropertyOp11
 70
1
102
RTVSPropertyOp12
 70
1
102
RTVSPropertyOp13
 70
1
102
RTVSPropertyOp14
 70
1
102
RTVSPropertyOp15
 70
1
102
RTVSPropertyOp16
 70
1
102
RTVSPropertyOp17
 70
1
102
RTVSPropertyOp18
 70
1
102
RTVSPropertyOp19
 70
1
102
RTVSPropertyOp20
 70
1
102
RTVSPropertyOp21
 70
1
102
RTVSPropertyOp22
 70
1
102
RTVSPropertyOp23
 70
1
102
RTVSPropertyOp24
 70
1
102
RTVSPropertyOp25
 70
1
102
RTVSPropertyOp26
 70
1
102
RTVSPropertyOp27
 70
1
  0
XRECORD
  5
423
102
{ACAD_REACTORS
330
422
102
}
330
422
100
AcDbXrecord
280
1
102
RTVSPropertyOp0
 70
1
102
RTVSPropertyOp1
 70
1
102
RTVSPropertyOp2
 70
1
102
RTVSPropertyOp3
 70
1
102
RTVSPropertyOp4
 70
1
102
RTVSPropertyOp5
 70
1
102
RTVSPropertyOp6
 70
1
102
RTVSPropertyOp7
 70
1
102
RTVSPropertyOp8
 70
1
102
RTVSPropertyOp9
 70
1
102
RTVSPropertyOp10
 70
1
102
RTVSPropertyOp11
 70
1
102
RTVSPropertyOp12
 70
1
102
RTVSPropertyOp13
 70
1
102
RTVSPropertyOp14
 70
1
102
RTVSPropertyOp15
 70
1
102
RTVSPropertyOp16
 70
1
102
RTVSPropertyOp17
 70
1
102
RTVSPropertyOp18
 70
1
102
RTVSPropertyOp19
 70
1
102
RTVSPropertyOp20
 70
1
102
RTVSPropertyOp21
 70
1
102
RTVSPropertyOp22
 70
1
102
RTVSPropertyOp23
 70
1
102
RTVSPropertyOp24
 70
1
102
RTVSPropertyOp25
 70
1
102
RTVSPropertyOp26
 70
1
102
RTVSPropertyOp27
 70
1
  0
XRECORD
  5
431
102
{ACAD_REACTORS
330
430
102
}
330
430
100
AcDbXrecord
280
1
102
RTVSPropertyOp0
 70
1
102
RTVSPropertyOp1
 70
1
102
RTVSPropertyOp2
 70
1
102
RTVSPropertyOp3
 70
1
102
RTVSPropertyOp4
 70
1
102
RTVSPropertyOp5
 70
1
102
RTVSPropertyOp6
 70
1
102
RTVSPropertyOp7
 70
1
102
RTVSPropertyOp8
 70
1
102
RTVSPropertyOp9
 70
1
102
RTVSPropertyOp10
 70
1
102
RTVSPropertyOp11
 70
1
102
RTVSPropertyOp12
 70
1
102
RTVSPropertyOp13
 70
1
102
RTVSPropertyOp14
 70
1
102
RTVSPropertyOp15
 70
1
102
RTVSPropertyOp16
 70
1
102
RTVSPropertyOp17
 70
1
102
RTVSPropertyOp18
 70
1
102
RTVSPropertyOp19
 70
1
102
RTVSPropertyOp20
 70
1
102
RTVSPropertyOp21
 70
1
102
RTVSPropertyOp22
 70
1
102
RTVSPropertyOp23
 70
1
102
RTVSPropertyOp24
 70
1
102
RTVSPropertyOp25
 70
1
102
RTVSPropertyOp26
 70
1
102
RTVSPropertyOp27
 70
1
  0
XRECORD
  5
439
102
{ACAD_REACTORS
330
438
102
}
330
438
100
AcDbXrecord
280
1
102
RTVSPropertyOp0
 70
1
102
RTVSPropertyOp1
 70
1
102
RTVSPropertyOp2
 70
1
102
RTVSPropertyOp3
 70
1
102
RTVSPropertyOp4
 70
1
102
RTVSPropertyOp5
 70
1
102
RTVSPropertyOp6
 70
1
102
RTVSPropertyOp7
 70
1
102
RTVSPropertyOp8
 70
1
102
RTVSPropertyOp9
 70
1
102
RTVSPropertyOp10
 70
1
102
RTVSPropertyOp11
 70
1
102
RTVSPropertyOp12
 70
1
102
RTVSPropertyOp13
 70
1
102
RTVSPropertyOp14
 70
1
102
RTVSPropertyOp15
 70
1
102
RTVSPropertyOp16
 70
1
102
RTVSPropertyOp17
 70
1
102
RTVSPropertyOp18
 70
1
102
RTVSPropertyOp19
 70
1
102
RTVSPropertyOp20
 70
1
102
RTVSPropertyOp21
 70
1
102
RTVSPropertyOp22
 70
1
102
RTVSPropertyOp23
 70
1
102
RTVSPropertyOp24
 70
1
102
RTVSPropertyOp25
 70
1
102
RTVSPropertyOp26
 70
1
102
RTVSPropertyOp27
 70
1
  0
XRECORD
  5
42B
102
{ACAD_REACTORS
330
42A
102
}
330
42A
100
AcDbXrecord
280
1
102
RTVSPropertyOp0
 70
1
102
RTVSPropertyOp1
 70
1
102
RTVSPropertyOp2
 70
1
102
RTVSPropertyOp3
 70
1
102
RTVSPropertyOp4
 70
1
102
RTVSPropertyOp5
 70
1
102
RTVSPropertyOp6
 70
1
102
RTVSPropertyOp7
 70
1
102
RTVSPropertyOp8
 70
1
102
RTVSPropertyOp9
 70
1
102
RTVSPropertyOp10
 70
1
102
RTVSPropertyOp11
 70
1
102
RTVSPropertyOp12
 70
1
102
RTVSPropertyOp13
 70
1
102
RTVSPropertyOp14
 70
1
102
RTVSPropertyOp15
 70
1
102
RTVSPropertyOp16
 70
1
102
RTVSPropertyOp17
 70
1
102
RTVSPropertyOp18
 70
1
102
RTVSPropertyOp19
 70
1
102
RTVSPropertyOp20
 70
1
102
RTVSPropertyOp21
 70
1
102
RTVSPropertyOp22
 70
1
102
RTVSPropertyOp23
 70
1
102
RTVSPropertyOp24
 70
1
102
RTVSPropertyOp25
 70
1
102
RTVSPropertyOp26
 70
1
102
RTVSPropertyOp27
 70
1
  0
XRECORD
  5
42F
102
{ACAD_REACTORS
330
42E
102
}
330
42E
100
AcDbXrecord
280
1
102
RTVSPropertyOp0
 70
1
102
RTVSPropertyOp1
 70
1
102
RTVSPropertyOp2
 70
1
102
RTVSPropertyOp3
 70
1
102
RTVSPropertyOp4
 70
1
102
RTVSPropertyOp5
 70
1
102
RTVSPropertyOp6
 70
1
102
RTVSPropertyOp7
 70
1
102
RTVSPropertyOp8
 70
1
102
RTVSPropertyOp9
 70
1
102
RTVSPropertyOp10
 70
1
102
RTVSPropertyOp11
 70
1
102
RTVSPropertyOp12
 70
1
102
RTVSPropertyOp13
 70
1
102
RTVSPropertyOp14
 70
1
102
RTVSPropertyOp15
 70
1
102
RTVSPropertyOp16
 70
1
102
RTVSPropertyOp17
 70
1
102
RTVSPropertyOp18
 70
1
102
RTVSPropertyOp19
 70
1
102
RTVSPropertyOp20
 70
1
102
RTVSPropertyOp21
 70
1
102
RTVSPropertyOp22
 70
1
102
RTVSPropertyOp23
 70
1
102
RTVSPropertyOp24
 70
1
102
RTVSPropertyOp25
 70
1
102
RTVSPropertyOp26
 70
1
102
RTVSPropertyOp27
 70
1
  0
XRECORD
  5
441
102
{ACAD_REACTORS
330
440
102
}
330
440
100
AcDbXrecord
280
1
102
RTVSPropertyOp0
 70
0
102
RTVSPropertyOp1
 70
0
102
RTVSPropertyOp2
 70
0
102
RTVSPropertyOp3
 70
0
102
RTVSPropertyOp4
 70
0
102
RTVSPropertyOp5
 70
0
102
RTVSPropertyOp6
 70
0
102
RTVSPropertyOp7
 70
0
102
RTVSPropertyOp8
 70
0
102
RTVSPropertyOp9
 70
0
102
RTVSPropertyOp10
 70
0
102
RTVSPropertyOp11
 70
0
102
RTVSPropertyOp12
 70
0
102
RTVSPropertyOp13
 70
0
102
RTVSPropertyOp14
 70
2
102
RTVSPropertyOp15
 70
0
102
RTVSPropertyOp16
 70
0
102
RTVSPropertyOp17
 70
0
102
RTVSPropertyOp18
 70
0
102
RTVSPropertyOp19
 70
0
102
RTVSPropertyOp20
 70
0
102
RTVSPropertyOp21
 70
0
102
RTVSPropertyOp22
 70
0
102
RTVSPropertyOp23
 70
0
102
RTVSPropertyOp24
 70
0
102
RTVSPropertyOp25
 70
0
102
RTVSPropertyOp26
 70
0
102
RTVSPropertyOp27
 70
0
  0
XRECORD
  5
437
102
{ACAD_REACTORS
330
436
102
}
330
436
100
AcDbXrecord
280
1
102
RTVSPropertyOp0
 70
1
102
RTVSPropertyOp1
 70
1
102
RTVSPropertyOp2
 70
1
102
RTVSPropertyOp3
 70
1
102
RTVSPropertyOp4
 70
1
102
RTVSPropertyOp5
 70
1
102
RTVSPropertyOp6
 70
1
102
RTVSPropertyOp7
 70
1
102
RTVSPropertyOp8
 70
1
102
RTVSPropertyOp9
 70
1
102
RTVSPropertyOp10
 70
1
102
RTVSPropertyOp11
 70
1
102
RTVSPropertyOp12
 70
1
102
RTVSPropertyOp13
 70
1
102
RTVSPropertyOp14
 70
1
102
RTVSPropertyOp15
 70
1
102
RTVSPropertyOp16
 70
1
102
RTVSPropertyOp17
 70
1
102
RTVSPropertyOp18
 70
1
102
RTVSPropertyOp19
 70
1
102
RTVSPropertyOp20
 70
1
102
RTVSPropertyOp21
 70
1
102
RTVSPropertyOp22
 70
1
102
RTVSPropertyOp23
 70
1
102
RTVSPropertyOp24
 70
1
102
RTVSPropertyOp25
 70
1
102
RTVSPropertyOp26
 70
1
102
RTVSPropertyOp27
 70
1
  0
XRECORD
  5
41B
102
{ACAD_REACTORS
330
41A
102
}
330
41A
100
AcDbXrecord
280
1
102
RTVSPropertyOp0
 70
1
102
RTVSPropertyOp1
 70
1
102
RTVSPropertyOp2
 70
1
102
RTVSPropertyOp3
 70
1
102
RTVSPropertyOp4
 70
1
102
RTVSPropertyOp5
 70
1
102
RTVSPropertyOp6
 70
1
102
RTVSPropertyOp7
 70
1
102
RTVSPropertyOp8
 70
1
102
RTVSPropertyOp9
 70
1
102
RTVSPropertyOp10
 70
1
102
RTVSPropertyOp11
 70
1
102
RTVSPropertyOp12
 70
1
102
RTVSPropertyOp13
 70
1
102
RTVSPropertyOp14
 70
1
102
RTVSPropertyOp15
 70
1
102
RTVSPropertyOp16
 70
1
102
RTVSPropertyOp17
 70
1
102
RTVSPropertyOp18
 70
1
102
RTVSPropertyOp19
 70
1
102
RTVSPropertyOp20
 70
1
102
RTVSPropertyOp21
 70
1
102
RTVSPropertyOp22
 70
1
102
RTVSPropertyOp23
 70
1
102
RTVSPropertyOp24
 70
1
102
RTVSPropertyOp25
 70
1
102
RTVSPropertyOp26
 70
1
102
RTVSPropertyOp27
 70
1
  0
XRECORD
  5
41D
102
{ACAD_REACTORS
330
41C
102
}
330
41C
100
AcDbXrecord
280
1
102
RTVSPropertyOp0
 70
1
102
RTVSPropertyOp1
 70
1
102
RTVSPropertyOp2
 70
1
102
RTVSPropertyOp3
 70
1
102
RTVSPropertyOp4
 70
1
102
RTVSPropertyOp5
 70
1
102
RTVSPropertyOp6
 70
1
102
RTVSPropertyOp7
 70
1
102
RTVSPropertyOp8
 70
1
102
RTVSPropertyOp9
 70
1
102
RTVSPropertyOp10
 70
1
102
RTVSPropertyOp11
 70
1
102
RTVSPropertyOp12
 70
1
102
RTVSPropertyOp13
 70
1
102
RTVSPropertyOp14
 70
1
102
RTVSPropertyOp15
 70
1
102
RTVSPropertyOp16
 70
1
102
RTVSPropertyOp17
 70
1
102
RTVSPropertyOp18
 70
1
102
RTVSPropertyOp19
 70
1
102
RTVSPropertyOp20
 70
1
102
RTVSPropertyOp21
 70
1
102
RTVSPropertyOp22
 70
1
102
RTVSPropertyOp23
 70
1
102
RTVSPropertyOp24
 70
1
102
RTVSPropertyOp25
 70
1
102
RTVSPropertyOp26
 70
1
102
RTVSPropertyOp27
 70
1
  0
XRECORD
  5
41F
102
{ACAD_REACTORS
330
41E
102
}
330
41E
100
AcDbXrecord
280
1
102
RTVSPropertyOp0
 70
1
102
RTVSPropertyOp1
 70
1
102
RTVSPropertyOp2
 70
1
102
RTVSPropertyOp3
 70
1
102
RTVSPropertyOp4
 70
1
102
RTVSPropertyOp5
 70
1
102
RTVSPropertyOp6
 70
1
102
RTVSPropertyOp7
 70
1
102
RTVSPropertyOp8
 70
1
102
RTVSPropertyOp9
 70
1
102
RTVSPropertyOp10
 70
1
102
RTVSPropertyOp11
 70
1
102
RTVSPropertyOp12
 70
1
102
RTVSPropertyOp13
 70
1
102
RTVSPropertyOp14
 70
1
102
RTVSPropertyOp15
 70
1
102
RTVSPropertyOp16
 70
1
102
RTVSPropertyOp17
 70
1
102
RTVSPropertyOp18
 70
1
102
RTVSPropertyOp19
 70
1
102
RTVSPropertyOp20
 70
1
102
RTVSPropertyOp21
 70
1
102
RTVSPropertyOp22
 70
1
102
RTVSPropertyOp23
 70
1
102
RTVSPropertyOp24
 70
1
102
RTVSPropertyOp25
 70
1
102
RTVSPropertyOp26
 70
1
102
RTVSPropertyOp27
 70
1
  0
XRECORD
  5
421
102
{ACAD_REACTORS
330
420
102
}
330
420
100
AcDbXrecord
280
1
102
RTVSPropertyOp0
 70
1
102
RTVSPropertyOp1
 70
1
102
RTVSPropertyOp2
 70
1
102
RTVSPropertyOp3
 70
1
102
RTVSPropertyOp4
 70
1
102
RTVSPropertyOp5
 70
1
102
RTVSPropertyOp6
 70
1
102
RTVSPropertyOp7
 70
1
102
RTVSPropertyOp8
 70
1
102
RTVSPropertyOp9
 70
1
102
RTVSPropertyOp10
 70
1
102
RTVSPropertyOp11
 70
1
102
RTVSPropertyOp12
 70
1
102
RTVSPropertyOp13
 70
1
102
RTVSPropertyOp14
 70
1
102
RTVSPropertyOp15
 70
1
102
RTVSPropertyOp16
 70
1
102
RTVSPropertyOp17
 70
1
102
RTVSPropertyOp18
 70
1
102
RTVSPropertyOp19
 70
1
102
RTVSPropertyOp20
 70
1
102
RTVSPropertyOp21
 70
1
102
RTVSPropertyOp22
 70
1
102
RTVSPropertyOp23
 70
1
102
RTVSPropertyOp24
 70
1
102
RTVSPropertyOp25
 70
1
102
RTVSPropertyOp26
 70
1
102
RTVSPropertyOp27
 70
1
  0
XRECORD
  5
43D
102
{ACAD_REACTORS
330
43C
102
}
330
43C
100
AcDbXrecord
280
1
102
RTVSPropertyOp0
 70
0
102
RTVSPropertyOp1
 70
0
102
RTVSPropertyOp2
 70
0
102
RTVSPropertyOp3
 70
0
102
RTVSPropertyOp4
 70
0
102
RTVSPropertyOp5
 70
0
102
RTVSPropertyOp6
 70
0
102
RTVSPropertyOp7
 70
0
102
RTVSPropertyOp8
 70
0
102
RTVSPropertyOp9
 70
0
102
RTVSPropertyOp10
 70
0
102
RTVSPropertyOp11
 70
0
102
RTVSPropertyOp12
 70
0
102
RTVSPropertyOp13
 70
0
102
RTVSPropertyOp14
 70
2
102
RTVSPropertyOp15
 70
0
102
RTVSPropertyOp16
 70
0
102
RTVSPropertyOp17
 70
0
102
RTVSPropertyOp18
 70
0
102
RTVSPropertyOp19
 70
0
102
RTVSPropertyOp20
 70
0
102
RTVSPropertyOp21
 70
0
102
RTVSPropertyOp22
 70
0
102
RTVSPropertyOp23
 70
0
102
RTVSPropertyOp24
 70
0
102
RTVSPropertyOp25
 70
0
102
RTVSPropertyOp26
 70
0
102
RTVSPropertyOp27
 70
0
  0
XRECORD
  5
435
102
{ACAD_REACTORS
330
434
102
}
330
434
100
AcDbXrecord
280
1
102
RTVSPropertyOp0
 70
1
102
RTVSPropertyOp1
 70
1
102
RTVSPropertyOp2
 70
1
102
RTVSPropertyOp3
 70
1
102
RTVSPropertyOp4
 70
1
102
RTVSPropertyOp5
 70
1
102
RTVSPropertyOp6
 70
1
102
RTVSPropertyOp7
 70
1
102
RTVSPropertyOp8
 70
1
102
RTVSPropertyOp9
 70
1
102
RTVSPropertyOp10
 70
1
102
RTVSPropertyOp11
 70
1
102
RTVSPropertyOp12
 70
1
102
RTVSPropertyOp13
 70
1
102
RTVSPropertyOp14
 70
1
102
RTVSPropertyOp15
 70
1
102
RTVSPropertyOp16
 70
1
102
RTVSPropertyOp17
 70
1
102
RTVSPropertyOp18
 70
1
102
RTVSPropertyOp19
 70
1
102
RTVSPropertyOp20
 70
1
102
RTVSPropertyOp21
 70
1
102
RTVSPropertyOp22
 70
1
102
RTVSPropertyOp23
 70
1
102
RTVSPropertyOp24
 70
1
102
RTVSPropertyOp25
 70
1
102
RTVSPropertyOp26
 70
1
102
RTVSPropertyOp27
 70
1
  0
XRECORD
  5
43F
102
{ACAD_REACTORS
330
43E
102
}
330
43E
100
AcDbXrecord
280
1
102
RTVSPropertyOp0
 70
0
102
RTVSPropertyOp1
 70
0
102
RTVSPropertyOp2
 70
0
102
RTVSPropertyOp3
 70
0
102
RTVSPropertyOp4
 70
0
102
RTVSPropertyOp5
 70
0
102
RTVSPropertyOp6
 70
0
102
RTVSPropertyOp7
 70
0
102
RTVSPropertyOp8
 70
0
102
RTVSPropertyOp9
 70
0
102
RTVSPropertyOp10
 70
0
102
RTVSPropertyOp11
 70
0
102
RTVSPropertyOp12
 70
0
102
RTVSPropertyOp13
 70
0
102
RTVSPropertyOp14
 70
2
102
RTVSPropertyOp15
 70
0
102
RTVSPropertyOp16
 70
0
102
RTVSPropertyOp17
 70
0
102
RTVSPropertyOp18
 70
0
102
RTVSPropertyOp19
 70
0
102
RTVSPropertyOp20
 70
0
102
RTVSPropertyOp21
 70
0
102
RTVSPropertyOp22
 70
0
102
RTVSPropertyOp23
 70
0
102
RTVSPropertyOp24
 70
0
102
RTVSPropertyOp25
 70
0
102
RTVSPropertyOp26
 70
0
102
RTVSPropertyOp27
 70
0
  0
XRECORD
  5
42D
102
{ACAD_REACTORS
330
42C
102
}
330
42C
100
AcDbXrecord
280
1
102
RTVSPropertyOp0
 70
1
102
RTVSPropertyOp1
 70
1
102
RTVSPropertyOp2
 70
1
102
RTVSPropertyOp3
 70
1
102
RTVSPropertyOp4
 70
1
102
RTVSPropertyOp5
 70
1
102
RTVSPropertyOp6
 70
1
102
RTVSPropertyOp7
 70
1
102
RTVSPropertyOp8
 70
1
102
RTVSPropertyOp9
 70
1
102
RTVSPropertyOp10
 70
1
102
RTVSPropertyOp11
 70
1
102
RTVSPropertyOp12
 70
1
102
RTVSPropertyOp13
 70
1
102
RTVSPropertyOp14
 70
1
102
RTVSPropertyOp15
 70
1
102
RTVSPropertyOp16
 70
1
102
RTVSPropertyOp17
 70
1
102
RTVSPropertyOp18
 70
1
102
RTVSPropertyOp19
 70
1
102
RTVSPropertyOp20
 70
1
102
RTVSPropertyOp21
 70
1
102
RTVSPropertyOp22
 70
1
102
RTVSPropertyOp23
 70
1
102
RTVSPropertyOp24
 70
1
102
RTVSPropertyOp25
 70
1
102
RTVSPropertyOp26
 70
1
102
RTVSPropertyOp27
 70
1
  0
XRECORD
  5
433
102
{ACAD_REACTORS
330
432
102
}
330
432
100
AcDbXrecord
280
1
102
RTVSPropertyOp0
 70
1
102
RTVSPropertyOp1
 70
1
102
RTVSPropertyOp2
 70
1
102
RTVSPropertyOp3
 70
1
102
RTVSPropertyOp4
 70
1
102
RTVSPropertyOp5
 70
1
102
RTVSPropertyOp6
 70
1
102
RTVSPropertyOp7
 70
1
102
RTVSPropertyOp8
 70
1
102
RTVSPropertyOp9
 70
1
102
RTVSPropertyOp10
 70
1
102
RTVSPropertyOp11
 70
1
102
RTVSPropertyOp12
 70
1
102
RTVSPropertyOp13
 70
1
102
RTVSPropertyOp14
 70
1
102
RTVSPropertyOp15
 70
1
102
RTVSPropertyOp16
 70
1
102
RTVSPropertyOp17
 70
1
102
RTVSPropertyOp18
 70
1
102
RTVSPropertyOp19
 70
1
102
RTVSPropertyOp20
 70
1
102
RTVSPropertyOp21
 70
1
102
RTVSPropertyOp22
 70
1
102
RTVSPropertyOp23
 70
1
102
RTVSPropertyOp24
 70
1
102
RTVSPropertyOp25
 70
1
102
RTVSPropertyOp26
 70
1
102
RTVSPropertyOp27
 70
1
  0
ENDSEC
  0
EOF
