999
last saved by ezdxf 0.8.2 on 2017-07-11 22:59:12
  0
SECTION
  2
HEADER
  9
$ACADVER
  1
AC1015
  9
$ACADMAINTVER
 70
20
  9
$DWGCODEPAGE
  3
ANSI_1252
  9
$LASTSAVEDBY
  1
unknown
  9
$INSBASE
 10
0.0
 20
0.0
 30
0.0
  9
$EXTMIN
 10
1e+20
 20
1e+20
 30
1e+20
  9
$EXTMAX
 10
-1e+20
 20
-1e+20
 30
-1e+20
  9
$LIMMIN
 10
0.0
 20
0.0
  9
$LIMMAX
 10
12.0
 20
9.0
  9
$ORTHOMODE
 70
0
  9
$REGENMODE
 70
1
  9
$FILLMODE
 70
1
  9
$QTEXTMODE
 70
0
  9
$MIRRTEXT
 70
0
  9
$LTSCALE
 40
1.0
  9
$ATTMODE
 70
1
  9
$TEXTSIZE
 40
0.2
  9
$TRACEWID
 40
0.05
  9
$TEXTSTYLE
  7
Notes
  9
$CLAYER
  8
0
  9
$CELTYPE
  6
ByLayer
  9
$CECOLOR
 62
256
  9
$CELTSCALE
 40
1.0
  9
$DISPSILH
 70
0
  9
$DIMSCALE
 40
1.0
  9
$DIMASZ
 40
3.0
  9
$DIMEXO
 40
1.5
  9
$DIMDLI
 40
6.0
  9
$DIMRND
 40
0.0
  9
$DIMDLE
 40
0.0
  9
$DIMEXE
 40
3.0
  9
$DIMTP
 40
0.0
  9
$DIMTM
 40
0.0
  9
$DIMTXT
 40
3.0
  9
$DIMCEN
 40
3.0
  9
$DIMTSZ
 40
0.0
  9
$DIMTOL
 70
0
  9
$DIMLIM
 70
0
  9
$DIMTIH
 70
0
  9
$DIMTOH
 70
0
  9
$DIMSE1
 70
0
  9
$DIMSE2
 70
0
  9
$DIMTAD
 70
1
  9
$DIMZIN
 70
3
  9
$DIMBLK
  1

  9
$DIMASO
 70
1
  9
$DIMSHO
 70
1
  9
$DIMPOST
  1

  9
$DIMAPOST
  1

  9
$DIMALT
 70
0
  9
$DIMALTD
 70
2
  9
$DIMALTF
 40
25.4
  9
$DIMLFAC
 40
1.0
  9
$DIMTOFL
 70
0
  9
$DIMTVP
 40
0.0
  9
$DIMTIX
 70
0
  9
$DIMSOXD
 70
0
  9
$DIMSAH
 70
0
  9
$DIMBLK1
  1

  9
$DIMBLK2
  1

  9
$DIMSTYLE
  2
Civil-Metric
  9
$DIMCLRD
 70
0
  9
$DIMCLRE
 70
0
  9
$DIMCLRT
 70
0
  9
$DIMTFAC
 40
1.0
  9
$DIMGAP
 40
2.0
  9
$DIMJUST
 70
0
  9
$DIMSD1
 70
0
  9
$DIMSD2
 70
0
  9
$DIMTOLJ
 70
1
  9
$DIMTZIN
 70
0
  9
$DIMALTZ
 70
0
  9
$DIMALTTZ
 70
0
  9
$DIMUPT
 70
0
  9
$DIMDEC
 70
2
  9
$DIMTDEC
 70
2
  9
$DIMALTU
 70
2
  9
$DIMALTTD
 70
2
  9
$DIMTXSTY
  7
Standard
  9
$DIMAUNIT
 70
0
  9
$DIMADEC
 70
2
  9
$DIMALTRND
 40
0.0
  9
$DIMAZIN
 70
2
  9
$DIMDSEP
 70
46
  9
$DIMATFIT
 70
3
  9
$DIMFRAC
 70
1
  9
$DIMLDRBLK
  1

  9
$DIMLUNIT
 70
2
  9
$DIMLWD
 70
-2
  9
$DIMLWE
 70
-2
  9
$DIMTMOVE
 70
0
  9
$LUNITS
 70
2
  9
$LUPREC
 70
4
  9
$SKETCHINC
 40
0.1
  9
$FILLETRAD
 40
0.0
  9
$AUNITS
 70
4
  9
$AUPREC
 70
5
  9
$MENU
  1
.
  9
$ELEVATION
 40
0.0
  9
$PELEVATION
 40
0.0
  9
$THICKNESS
 40
0.0
  9
$LIMCHECK
 70
0
  9
$CHAMFERA
 40
0.0
  9
$CHAMFERB
 40
0.0
  9
$CHAMFERC
 40
0.0
  9
$CHAMFERD
 40
0.0
  9
$SKPOLY
 70
0
  9
$TDCREATE
 40
2457946.95751
  9
$TDUPDATE
 40
2457946.95778
  9
$TDINDWG
 40
0.0
  9
$TDUSRTIMER
 40
0.0
  9
$USRTIMER
 70
1
  9
$ANGBASE
 50
0.0
  9
$ANGDIR
 70
0
  9
$PDMODE
 70
0
  9
$PDSIZE
 40
0.0
  9
$PLINEWID
 40
0.0
  9
$SPLFRAME
 70
0
  9
$SPLINETYPE
 70
6
  9
$SPLINESEGS
 70
8
  9
$HANDSEED
  5
A18
  9
$SURFTAB1
 70
6
  9
$SURFTAB2
 70
6
  9
$SURFTYPE
 70
6
  9
$SURFU
 70
6
  9
$SURFV
 70
6
  9
$UCSBASE
  2

  9
$UCSNAME
  2

  9
$UCSORG
 10
0.0
 20
0.0
 30
0.0
  9
$UCSXDIR
 10
1.0
 20
0.0
 30
0.0
  9
$UCSYDIR
 10
0.0
 20
1.0
 30
0.0
  9
$UCSORTHOREF
  2

  9
$UCSORTHOVIEW
 70
0
  9
$UCSORGTOP
 10
0.0
 20
0.0
 30
0.0
  9
$UCSORGBOTTOM
 10
0.0
 20
0.0
 30
0.0
  9
$UCSORGLEFT
 10
0.0
 20
0.0
 30
0.0
  9
$UCSORGRIGHT
 10
0.0
 20
0.0
 30
0.0
  9
$UCSORGFRONT
 10
0.0
 20
0.0
 30
0.0
  9
$UCSORGBACK
 10
0.0
 20
0.0
 30
0.0
  9
$PUCSBASE
  2

  9
$PUCSNAME
  2

  9
$PUCSORG
 10
0.0
 20
0.0
 30
0.0
  9
$PUCSXDIR
 10
1.0
 20
0.0
 30
0.0
  9
$PUCSYDIR
 10
0.0
 20
1.0
 30
0.0
  9
$PUCSORTHOREF
  2

  9
$PUCSORTHOVIEW
 70
0
  9
$PUCSORGTOP
 10
0.0
 20
0.0
 30
0.0
  9
$PUCSORGBOTTOM
 10
0.0
 20
0.0
 30
0.0
  9
$PUCSORGLEFT
 10
0.0
 20
0.0
 30
0.0
  9
$PUCSORGRIGHT
 10
0.0
 20
0.0
 30
0.0
  9
$PUCSORGFRONT
 10
0.0
 20
0.0
 30
0.0
  9
$PUCSORGBACK
 10
0.0
 20
0.0
 30
0.0
  9
$USERI1
 70
0
  9
$USERI2
 70
0
  9
$USERI3
 70
0
  9
$USERI4
 70
0
  9
$USERI5
 70
0
  9
$USERR1
 40
0.0
  9
$USERR2
 40
0.0
  9
$USERR3
 40
0.0
  9
$USERR4
 40
0.0
  9
$USERR5
 40
0.0
  9
$WORLDVIEW
 70
1
  9
$SHADEDGE
 70
3
  9
$SHADEDIF
 70
70
  9
$TILEMODE
 70
1
  9
$MAXACTVP
 70
64
  9
$PINSBASE
 10
0.0
 20
0.0
 30
0.0
  9
$PLIMCHECK
 70
0
  9
$PEXTMIN
 10
0.628866766397
 20
0.799999952316
 30
0.0
  9
$PEXTMAX
 10
9.02886638493
 20
7.19999957085
 30
0.0
  9
$PLIMMIN
 10
-0.700541819174
 20
-0.228100386192
  9
$PLIMMAX
 10
10.2994579405
 20
8.27189937351
  9
$UNITMODE
 70
0
  9
$VISRETAIN
 70
1
  9
$PLINEGEN
 70
0
  9
$PSLTSCALE
 70
1
  9
$TREEDEPTH
 70
3020
  9
$CMLSTYLE
  2
Standard
  9
$CMLJUST
 70
0
  9
$CMLSCALE
 40
1.0
  9
$PROXYGRAPHICS
 70
1
  9
$MEASUREMENT
 70
1
  9
$CELWEIGHT
370
-1
  9
$ENDCAPS
280
0
  9
$JOINSTYLE
280
0
  9
$LWDISPLAY
290
0
  9
$INSUNITS
 70
4
  9
$HYPERLINKBASE
  1

  9
$STYLESHEET
  1

  9
$XEDIT
290
1
  9
$CEPSNTYPE
380
0
  9
$PSTYLEMODE
290
1
  9
$FINGERPRINTGUID
  2
{39DB1BDD-BC6C-46D3-A333-DFCC0DC4782D}
  9
$VERSIONGUID
  2
{69EEBB2D-7039-498F-9366-3F994E4A07E7}
  9
$EXTNAMES
290
1
  9
$PSVPSCALE
 40
0.0
  9
$OLESTARTUP
290
0
  0
ENDSEC
  0
SECTION
  2
CLASSES
  0
CLASS
  1
ACDBDICTIONARYWDFLT
  2
AcDbDictionaryWithDefault
  3
ObjectDBX Classes
 90
0
280
0
281
0
  0
CLASS
  1
ACDBPLACEHOLDER
  2
AcDbPlaceHolder
  3
ObjectDBX Classes
 90
0
280
0
281
0
  0
CLASS
  1
LAYOUT
  2
AcDbLayout
  3
ObjectDBX Classes
 90
0
280
0
281
0
  0
CLASS
  1
DICTIONARYVAR
  2
AcDbDictionaryVar
  3
ObjectDBX Classes
 90
0
280
0
281
0
  0
CLASS
  1
TABLESTYLE
  2
AcDbTableStyle
  3
ObjectDBX Classes
 90
4095
280
0
281
0
  0
CLASS
  1
MATERIAL
  2
AcDbMaterial
  3
ObjectDBX Classes
 90
1153
280
0
281
0
  0
CLASS
  1
VISUALSTYLE
  2
AcDbVisualStyle
  3
ObjectDBX Classes
 90
4095
280
0
281
0
  0
CLASS
  1
SCALE
  2
AcDbScale
  3
ObjectDBX Classes
 90
1153
280
0
281
0
  0
CLASS
  1
MLEADERSTYLE
  2
AcDbMLeaderStyle
  3
ACDB_MLEADERSTYLE_CLASS
 90
4095
280
0
281
0
  0
CLASS
  1
CELLSTYLEMAP
  2
AcDbCellStyleMap
  3
ObjectDBX Classes
 90
1152
280
0
281
0
  0
CLASS
  1
EXACXREFPANELOBJECT
  2
ExAcXREFPanelObject
  3
EXAC_ESW
 90
33793
280
0
281
0
  0
CLASS
  1
NPOCOLLECTION
  2
AcDbImpNonPersistentObjectsCollection
  3
ObjectDBX Classes
 90
33921
280
0
281
0
  0
CLASS
  1
LAYER_INDEX
  2
AcDbLayerIndex
  3
ObjectDBX Classes
 90
32768
280
0
281
0
  0
CLASS
  1
SPATIAL_INDEX
  2
AcDbSpatialIndex
  3
ObjectDBX Classes
 90
32768
280
0
281
0
  0
CLASS
  1
IDBUFFER
  2
AcDbIdBuffer
  3
ObjectDBX Classes
 90
32768
280
0
281
0
  0
CLASS
  1
DIMASSOC
  2
AcDbDimAssoc
  3
"AcDbDimAssoc|Product Desc:     AcDim ARX App For Dimension|Company:          Autodesk, Inc.|WEB Address:      www.autodesk.com"
 90
32768
280
0
281
0
  0
CLASS
  1
IMAGEDEF
  2
AcDbRasterImageDef
  3
ISM
 90
0
280
0
281
0
  0
CLASS
  1
RASTERVARIABLES
  2
AcDbRasterVariables
  3
ISM
 90
0
280
0
281
0
  0
CLASS
  1
IMAGEDEF_REACTOR
  2
AcDbRasterImageDefReactor
  3
ISM
 90
1
280
0
281
0
  0
CLASS
  1
IMAGE
  2
AcDbRasterImage
  3
ISM
 90
2175
280
0
281
1
  0
CLASS
  1
PDFDEFINITION
  2
AcDbPdfDefinition
  3
ObjectDBX Classes
 90
1153
280
0
281
0
  0
CLASS
  1
PDFUNDERLAY
  2
AcDbPdfReference
  3
ObjectDBX Classes
 90
4095
280
0
281
1
  0
CLASS
  1
DWFDEFINITION
  2
AcDbDwfDefinition
  3
ObjectDBX Classes
 90
1153
280
0
281
0
  0
CLASS
  1
DWFUNDERLAY
  2
AcDbDwfReference
  3
ObjectDBX Classes
 90
1153
280
0
281
1
  0
CLASS
  1
DGNDEFINITION
  2
AcDbDgnDefinition
  3
ObjectDBX Classes
 90
1153
280
0
281
0
  0
CLASS
  1
DGNUNDERLAY
  2
AcDbDgnReference
  3
ObjectDBX Classes
 90
1153
280
0
281
1
  0
ENDSEC
  0
SECTION
  2
TABLES
  0
TABLE
  2
VPORT
  5
8
330
0
100
AcDbSymbolTable
 70
0
  0
ENDTAB
  0
TABLE
  2
LTYPE
  5
5
330
0
100
AcDbSymbolTable
 70
7
  0
LTYPE
  5
14
330
5
100
AcDbSymbolTableRecord
100
AcDbLinetypeTableRecord
  2
ByBlock
 70
0
  3

 72
65
 73
0
 40
0.0
  0
LTYPE
  5
15
330
5
100
AcDbSymbolTableRecord
100
AcDbLinetypeTableRecord
  2
ByLayer
 70
0
  3

 72
65
 73
0
 40
0.0
  0
LTYPE
  5
16
330
5
100
AcDbSymbolTableRecord
100
AcDbLinetypeTableRecord
  2
Continuous
 70
0
  3
Solid line
 72
65
 73
0
 40
0.0
  0
LTYPE
  5
1B1
330
5
100
AcDbSymbolTableRecord
100
AcDbLinetypeTableRecord
  2
CENTER
 70
0
  3
Center ____ _ ____ _ ____ _ ____ _ ____ _ ____
 72
65
 73
4
 40
2.0
 49
1.25
 74
0
 49
-0.25
 74
0
 49
0.25
 74
0
 49
-0.25
 74
0
  0
LTYPE
  5
1B2
330
5
100
AcDbSymbolTableRecord
100
AcDbLinetypeTableRecord
  2
DASHED
 70
0
  3
Dashed __ __ __ __ __ __ __ __ __ __ __ __ __ _
 72
65
 73
2
 40
0.75
 49
0.5
 74
0
 49
-0.25
 74
0
  0
LTYPE
  5
1B3
330
5
100
AcDbSymbolTableRecord
100
AcDbLinetypeTableRecord
  2
PHANTOM
 70
0
  3
Phantom ______  __  __  ______  __  __  ______
 72
65
 73
6
 40
2.5
 49
1.25
 74
0
 49
-0.25
 74
0
 49
0.25
 74
0
 49
-0.25
 74
0
 49
0.25
 74
0
 49
-0.25
 74
0
  0
LTYPE
  5
39E
330
5
100
AcDbSymbolTableRecord
100
AcDbLinetypeTableRecord
  2
HIDDEN
 70
0
  3
Hidden __ __ __ __ __ __ __ __ __ __ __ __ __ __
 72
65
 73
2
 40
9.525
 49
6.35
 74
0
 49
-3.175
 74
0
  0
ENDTAB
  0
TABLE
  2
LAYER
  5
2
330
0
100
AcDbSymbolTable
 70
5
  0
LAYER
  5
10
330
2
100
AcDbSymbolTableRecord
100
AcDbLayerTableRecord
  2
0
 70
0
 62
7
  6
Continuous
370
-3
390
F
  0
LAYER
  5
1B4
330
2
100
AcDbSymbolTableRecord
100
AcDbLayerTableRecord
  2
View Port
 70
0
 62
7
  6
Continuous
290
0
370
-3
390
F
  0
LAYER
  5
21D
330
2
100
AcDbSymbolTableRecord
100
AcDbLayerTableRecord
  2
Defpoints
 70
0
 62
7
  6
Continuous
290
0
370
-3
390
F
  0
LAYER
  5
565
330
2
100
AcDbSymbolTableRecord
100
AcDbLayerTableRecord
  2
frame
 70
0
 62
7
  6
Continuous
290
1
390
4AB
  0
LAYER
  5
566
330
2
100
AcDbSymbolTableRecord
100
AcDbLayerTableRecord
  2
media
 70
0
 62
7
  6
Continuous
290
1
390
4AB
  0
ENDTAB
  0
TABLE
  2
STYLE
  5
3
330
0
100
AcDbSymbolTable
 70
3
  0
STYLE
  5
11
330
3
100
AcDbSymbolTableRecord
100
AcDbTextStyleTableRecord
  2
Standard
 70
0
 40
0.0
 41
1.0
 50
0.0
 71
0
 42
0.2
  3
arial.ttf
  4

  0
STYLE
  5
DC
330
3
100
AcDbSymbolTableRecord
100
AcDbTextStyleTableRecord
  2
Annotative
 70
0
 40
0.0
 41
1.0
 50
0.0
 71
0
 42
0.2
  3
arial.ttf
  4

  0
STYLE
  5
178
330
3
100
AcDbSymbolTableRecord
100
AcDbTextStyleTableRecord
  2
Notes
 70
0
 40
3.0
 41
1.0
 50
0.0
 71
0
 42
0.2
  3
arial.ttf
  4

  0
ENDTAB
  0
TABLE
  2
VIEW
  5
6
330
0
100
AcDbSymbolTable
 70
0
  0
ENDTAB
  0
TABLE
  2
UCS
  5
7
330
0
100
AcDbSymbolTable
 70
0
  0
ENDTAB
  0
TABLE
  2
APPID
  5
9
330
0
100
AcDbSymbolTable
 70
11
  0
APPID
  5
12
330
9
100
AcDbSymbolTableRecord
100
AcDbRegAppTableRecord
  2
ACAD
 70
0
  0
APPID
  5
DD
330
9
100
AcDbSymbolTableRecord
100
AcDbRegAppTableRecord
  2
AcadAnnoPO
 70
0
  0
APPID
  5
DE
330
9
100
AcDbSymbolTableRecord
100
AcDbRegAppTableRecord
  2
AcadAnnotative
 70
0
  0
APPID
  5
DF
330
9
100
AcDbSymbolTableRecord
100
AcDbRegAppTableRecord
  2
ACAD_DSTYLE_DIMJAG
 70
0
  0
APPID
  5
E0
330
9
100
AcDbSymbolTableRecord
100
AcDbRegAppTableRecord
  2
ACAD_DSTYLE_DIMTALN
 70
0
  0
APPID
  5
107
330
9
100
AcDbSymbolTableRecord
100
AcDbRegAppTableRecord
  2
ACAD_MLEADERVER
 70
0
  0
APPID
  5
1B5
330
9
100
AcDbSymbolTableRecord
100
AcDbRegAppTableRecord
  2
AcAecLayerStandard
 70
0
  0
APPID
  5
1BA
330
9
100
AcDbSymbolTableRecord
100
AcDbRegAppTableRecord
  2
ACAD_EXEMPT_FROM_CAD_STANDARDS
 70
0
  0
APPID
  5
237
330
9
100
AcDbSymbolTableRecord
100
AcDbRegAppTableRecord
  2
ACAD_DSTYLE_DIMBREAK
 70
0
  0
APPID
  5
28E
330
9
100
AcDbSymbolTableRecord
100
AcDbRegAppTableRecord
  2
ACAD_PSEXT
 70
0
  0
APPID
  5
482
330
9
100
AcDbSymbolTableRecord
100
AcDbRegAppTableRecord
  2
HATCHBACKGROUNDCOLOR
 70
0
  0
ENDTAB
  0
TABLE
  2
DIMSTYLE
  5
A
330
0
100
AcDbSymbolTable
 70
3
100
AcDbDimStyleTable
 71
3
340
242
340
27
340
E1
  0
DIMSTYLE
105
27
330
A
100
AcDbSymbolTableRecord
100
AcDbDimStyleTableRecord
  2
Standard
 70
0
 41
3.0
 42
2.0
 43
9.0
 44
5.0
140
3.0
141
2.0
147
2.0
340
11
1001
ACAD_DSTYLE_DIMJAG
1070
388
1040
38.0
1001
ACAD_DSTYLE_DIMBREAK
1070
391
1040
90.0
1001
ACAD_DSTYLE_DIMTALN
1070
392
1070
0
  0
DIMSTYLE
105
E1
330
A
100
AcDbSymbolTableRecord
100
AcDbDimStyleTableRecord
  2
Annotative
 70
0
 40
0.0
 41
3.0
 42
2.5
 43
10.0
 44
5.0
140
3.0
141
2.0
147
2.0
340
11
1001
AcadAnnotative
1000
AnnotativeData
1002
{
1070
1
1070
1
1002
}
1001
ACAD_DSTYLE_DIMJAG
1070
388
1040
38.0
1001
ACAD_DSTYLE_DIMBREAK
1070
391
1040
90.0
1001
ACAD_DSTYLE_DIMTALN
1070
392
1070
0
  0
DIMSTYLE
105
242
330
A
100
AcDbSymbolTableRecord
100
AcDbDimStyleTableRecord
  2
Civil-Metric
 70
0
 41
3.0
 42
1.5
 43
6.0
 44
3.0
 73
0
 74
0
 77
1
 78
3
 79
2
140
3.0
141
3.0
147
2.0
179
2
271
2
272
2
276
1
340
11
1001
ACAD_DSTYLE_DIMBREAK
1070
391
1040
3.0
1001
ACAD_DSTYLE_DIMJAG
1070
388
1040
38.0
1001
ACAD_DSTYLE_DIMTALN
1070
392
1070
0
  0
ENDTAB
  0
TABLE
  2
BLOCK_RECORD
  5
1
330
0
100
AcDbSymbolTable
 70
4
  0
BLOCK_RECORD
  5
1F
102
{ACAD_XDICTIONARY
360
15D
102
}
330
1
100
AcDbSymbolTableRecord
100
AcDbBlockTableRecord
  2
*Model_Space
340
4AF
  0
BLOCK_RECORD
  5
58
330
1
100
AcDbSymbolTableRecord
100
AcDbBlockTableRecord
  2
*Paper_Space
340
4B0
  0
BLOCK_RECORD
  5
238
330
1
100
AcDbSymbolTableRecord
100
AcDbBlockTableRecord
  2
_ArchTick
340
0
  0
BLOCK_RECORD
  5
23C
330
1
100
AcDbSymbolTableRecord
100
AcDbBlockTableRecord
  2
_Open30
340
0
  0
ENDTAB
  0
ENDSEC
  0
SECTION
  2
BLOCKS
  0
BLOCK
  5
23A
330
238
100
AcDbEntity
  8
0
100
AcDbBlockBegin
  2
_ArchTick
 70
0
 10
0.0
 20
0.0
 30
0.0
  3
_ArchTick
  1

  0
LWPOLYLINE
  5
239
330
238
100
AcDbEntity
  8
0
  6
ByBlock
 62
0
100
AcDbPolyline
 90
2
 70
0
 43
0.15
 10
-0.5
 20
-0.5
 10
0.5
 20
0.5
  0
ENDBLK
  5
23B
330
238
100
AcDbEntity
  8
0
100
AcDbBlockEnd
  0
BLOCK
  5
20
330
1F
100
AcDbEntity
  8
0
100
AcDbBlockBegin
  2
*Model_Space
 70
0
 10
0.0
 20
0.0
 30
0.0
  3
*Model_Space
  1

  0
ENDBLK
  5
21
330
1F
100
AcDbEntity
  8
0
100
AcDbBlockEnd
  0
BLOCK
  5
5A
330
58
100
AcDbEntity
 67
1
  8
0
100
AcDbBlockBegin
  2
*Paper_Space
 70
0
 10
0.0
 20
0.0
 30
0.0
  3
*Paper_Space
  1

  0
ENDBLK
  5
5B
330
58
100
AcDbEntity
 67
1
  8
0
100
AcDbBlockEnd
  0
BLOCK
  5
240
330
23C
100
AcDbEntity
  8
0
100
AcDbBlockBegin
  2
_Open30
 70
0
 10
0.0
 20
0.0
 30
0.0
  3
_Open30
  1

  0
LINE
  5
23D
330
23C
100
AcDbEntity
  8
0
  6
ByBlock
 62
0
370
-2
100
AcDbLine
 10
-1.0
 20
0.26794919
 30
0.0
 11
0.0
 21
0.0
 31
0.0
  0
LINE
  5
23E
330
23C
100
AcDbEntity
  8
0
  6
ByBlock
 62
0
370
-2
100
AcDbLine
 10
0.0
 20
0.0
 30
0.0
 11
-1.0
 21
-0.26794919
 31
0.0
  0
LINE
  5
23F
330
23C
100
AcDbEntity
  8
0
  6
ByBlock
 62
0
370
-2
100
AcDbLine
 10
0.0
 20
0.0
 30
0.0
 11
-1.0
 21
0.0
 31
0.0
  0
ENDBLK
  5
241
330
23C
100
AcDbEntity
  8
0
100
AcDbBlockEnd
  0
ENDSEC
  0
SECTION
  2
ENTITIES
  0
LWPOLYLINE
  5
567
330
1F
100
AcDbEntity
  8
frame
 67
0
100
AcDbPolyline
 90
5
 70
0
 10
0
 20
0
 10
103.424413724
 20
0
 10
103.424413724
 20
53.4244137242
 10
0
 20
53.4244137242
 10
0
 20
0
  0
CIRCLE
  5
568
330
1F
100
AcDbEntity
  8
media
 67
0
100
AcDbCircle
 10
1.71220686208
 20
1.71220686208
 40
0.460521080125
  0
CIRCLE
  5
569
330
1F
100
AcDbEntity
  8
media
 67
0
100
AcDbCircle
 10
4.27630942618
 20
1.71220686208
 40
0.527428826214
  0
CIRCLE
  5
56A
330
1F
100
AcDbEntity
  8
media
 67
0
100
AcDbCircle
 10
6.84041199028
 20
1.71220686208
 40
0.60904722946
  0
CIRCLE
  5
56B
330
1F
100
AcDbEntity
  8
media
 67
0
100
AcDbCircle
 10
9.40451455439
 20
1.71220686208
 40
0.588972031228
  0
CIRCLE
  5
56C
330
1F
100
AcDbEntity
  8
media
 67
0
100
AcDbCircle
 10
11.9686171185
 20
1.71220686208
 40
0.495813717556
  0
CIRCLE
  5
56D
330
1F
100
AcDbEntity
  8
media
 67
0
100
AcDbCircle
 10
14.5327196826
 20
1.71220686208
 40
0.362896583594
  0
CIRCLE
  5
56E
330
1F
100
AcDbEntity
  8
media
 67
0
100
AcDbCircle
 10
17.0968222467
 20
1.71220686208
 40
0.476780501412
  0
CIRCLE
  5
56F
330
1F
100
AcDbEntity
  8
media
 67
0
100
AcDbCircle
 10
19.6609248108
 20
1.71220686208
 40
0.535436163269
  0
CIRCLE
  5
570
330
1F
100
AcDbEntity
  8
media
 67
0
100
AcDbCircle
 10
22.2250273749
 20
1.71220686208
 40
0.713284197114
  0
CIRCLE
  5
571
330
1F
100
AcDbEntity
  8
media
 67
0
100
AcDbCircle
 10
24.789129939
 20
1.71220686208
 40
0.410361768195
  0
CIRCLE
  5
572
330
1F
100
AcDbEntity
  8
media
 67
0
100
AcDbCircle
 10
27.3532325031
 20
1.71220686208
 40
0.488294045141
  0
CIRCLE
  5
573
330
1F
100
AcDbEntity
  8
media
 67
0
100
AcDbCircle
 10
29.9173350672
 20
1.71220686208
 40
0.483134027992
  0
CIRCLE
  5
574
330
1F
100
AcDbEntity
  8
media
 67
0
100
AcDbCircle
 10
32.4814376313
 20
1.71220686208
 40
0.389404815292
  0
CIRCLE
  5
575
330
1F
100
AcDbEntity
  8
media
 67
0
100
AcDbCircle
 10
35.0455401954
 20
1.71220686208
 40
0.451629676976
  0
CIRCLE
  5
576
330
1F
100
AcDbEntity
  8
media
 67
0
100
AcDbCircle
 10
37.6096427595
 20
1.71220686208
 40
0.429818097389
  0
CIRCLE
  5
577
330
1F
100
AcDbEntity
  8
media
 67
0
100
AcDbCircle
 10
40.1737453236
 20
1.71220686208
 40
0.396111366287
  0
CIRCLE
  5
578
330
1F
100
AcDbEntity
  8
media
 67
0
100
AcDbCircle
 10
42.7378478877
 20
1.71220686208
 40
0.726030424024
  0
CIRCLE
  5
579
330
1F
100
AcDbEntity
  8
media
 67
0
100
AcDbCircle
 10
45.3019504518
 20
1.71220686208
 40
0.522865164638
  0
CIRCLE
  5
57A
330
1F
100
AcDbEntity
  8
media
 67
0
100
AcDbCircle
 10
47.8660530159
 20
1.71220686208
 40
0.431514502476
  0
CIRCLE
  5
57B
330
1F
100
AcDbEntity
  8
media
 67
0
100
AcDbCircle
 10
50.43015558
 20
1.71220686208
 40
0.522510304724
  0
CIRCLE
  5
57C
330
1F
100
AcDbEntity
  8
media
 67
0
100
AcDbCircle
 10
52.9942581441
 20
1.71220686208
 40
0.423627715281
  0
CIRCLE
  5
57D
330
1F
100
AcDbEntity
  8
media
 67
0
100
AcDbCircle
 10
55.5583607082
 20
1.71220686208
 40
0.542199393261
  0
CIRCLE
  5
57E
330
1F
100
AcDbEntity
  8
media
 67
0
100
AcDbCircle
 10
58.1224632723
 20
1.71220686208
 40
0.552958652201
  0
CIRCLE
  5
57F
330
1F
100
AcDbEntity
  8
media
 67
0
100
AcDbCircle
 10
60.6865658364
 20
1.71220686208
 40
0.374414240754
  0
CIRCLE
  5
580
330
1F
100
AcDbEntity
  8
media
 67
0
100
AcDbCircle
 10
63.2506684005
 20
1.71220686208
 40
0.32070301447
  0
CIRCLE
  5
581
330
1F
100
AcDbEntity
  8
media
 67
0
100
AcDbCircle
 10
65.8147709646
 20
1.71220686208
 40
0.64840113963
  0
CIRCLE
  5
582
330
1F
100
AcDbEntity
  8
media
 67
0
100
AcDbCircle
 10
68.3788735287
 20
1.71220686208
 40
0.462012033373
  0
CIRCLE
  5
583
330
1F
100
AcDbEntity
  8
media
 67
0
100
AcDbCircle
 10
70.9429760928
 20
1.71220686208
 40
0.729262462761
  0
CIRCLE
  5
584
330
1F
100
AcDbEntity
  8
media
 67
0
100
AcDbCircle
 10
73.507078657
 20
1.71220686208
 40
0.591491554796
  0
CIRCLE
  5
585
330
1F
100
AcDbEntity
  8
media
 67
0
100
AcDbCircle
 10
76.0711812211
 20
1.71220686208
 40
0.438064226116
  0
CIRCLE
  5
586
330
1F
100
AcDbEntity
  8
media
 67
0
100
AcDbCircle
 10
78.6352837852
 20
1.71220686208
 40
0.534872147049
  0
CIRCLE
  5
587
330
1F
100
AcDbEntity
  8
media
 67
0
100
AcDbCircle
 10
81.1993863493
 20
1.71220686208
 40
0.402871455255
  0
CIRCLE
  5
588
330
1F
100
AcDbEntity
  8
media
 67
0
100
AcDbCircle
 10
83.7634889134
 20
1.71220686208
 40
0.621736801812
  0
CIRCLE
  5
589
330
1F
100
AcDbEntity
  8
media
 67
0
100
AcDbCircle
 10
86.3275914775
 20
1.71220686208
 40
0.646629129118
  0
CIRCLE
  5
58A
330
1F
100
AcDbEntity
  8
media
 67
0
100
AcDbCircle
 10
88.8916940416
 20
1.71220686208
 40
0.484125254436
  0
CIRCLE
  5
58B
330
1F
100
AcDbEntity
  8
media
 67
0
100
AcDbCircle
 10
91.4557966057
 20
1.71220686208
 40
0.504476046226
  0
CIRCLE
  5
58C
330
1F
100
AcDbEntity
  8
media
 67
0
100
AcDbCircle
 10
94.0198991698
 20
1.71220686208
 40
0.466838739809
  0
CIRCLE
  5
58D
330
1F
100
AcDbEntity
  8
media
 67
0
100
AcDbCircle
 10
96.5840017339
 20
1.71220686208
 40
0.495789778427
  0
CIRCLE
  5
58E
330
1F
100
AcDbEntity
  8
media
 67
0
100
AcDbCircle
 10
99.148104298
 20
1.71220686208
 40
0.443619338626
  0
CIRCLE
  5
58F
330
1F
100
AcDbEntity
  8
media
 67
0
100
AcDbCircle
 10
101.712206862
 20
1.71220686208
 40
0.527531291815
  0
CIRCLE
  5
590
330
1F
100
AcDbEntity
  8
media
 67
0
100
AcDbCircle
 10
1.71220686208
 20
3.43634479311
 40
0.355116082239
  0
CIRCLE
  5
591
330
1F
100
AcDbEntity
  8
media
 67
0
100
AcDbCircle
 10
4.27630942618
 20
3.43634479311
 40
0.542971089523
  0
CIRCLE
  5
592
330
1F
100
AcDbEntity
  8
media
 67
0
100
AcDbCircle
 10
6.84041199028
 20
3.43634479311
 40
0.462428629534
  0
CIRCLE
  5
593
330
1F
100
AcDbEntity
  8
media
 67
0
100
AcDbCircle
 10
9.40451455439
 20
3.43634479311
 40
0.446654983313
  0
CIRCLE
  5
594
330
1F
100
AcDbEntity
  8
media
 67
0
100
AcDbCircle
 10
11.9686171185
 20
3.43634479311
 40
0.592509162961
  0
CIRCLE
  5
595
330
1F
100
AcDbEntity
  8
media
 67
0
100
AcDbCircle
 10
14.5327196826
 20
3.43634479311
 40
0.511383634559
  0
CIRCLE
  5
596
330
1F
100
AcDbEntity
  8
media
 67
0
100
AcDbCircle
 10
17.0968222467
 20
3.43634479311
 40
0.315086077391
  0
CIRCLE
  5
597
330
1F
100
AcDbEntity
  8
media
 67
0
100
AcDbCircle
 10
19.6609248108
 20
3.43634479311
 40
0.56314252773
  0
CIRCLE
  5
598
330
1F
100
AcDbEntity
  8
media
 67
0
100
AcDbCircle
 10
22.2250273749
 20
3.43634479311
 40
0.282244858412
  0
CIRCLE
  5
599
330
1F
100
AcDbEntity
  8
media
 67
0
100
AcDbCircle
 10
24.789129939
 20
3.43634479311
 40
0.590409968517
  0
CIRCLE
  5
59A
330
1F
100
AcDbEntity
  8
media
 67
0
100
AcDbCircle
 10
27.3532325031
 20
3.43634479311
 40
0.538467466074
  0
CIRCLE
  5
59B
330
1F
100
AcDbEntity
  8
media
 67
0
100
AcDbCircle
 10
29.9173350672
 20
3.43634479311
 40
0.494245025748
  0
CIRCLE
  5
59C
330
1F
100
AcDbEntity
  8
media
 67
0
100
AcDbCircle
 10
32.4814376313
 20
3.43634479311
 40
0.547013086908
  0
CIRCLE
  5
59D
330
1F
100
AcDbEntity
  8
media
 67
0
100
AcDbCircle
 10
35.0455401954
 20
3.43634479311
 40
0.453518100894
  0
CIRCLE
  5
59E
330
1F
100
AcDbEntity
  8
media
 67
0
100
AcDbCircle
 10
37.6096427595
 20
3.43634479311
 40
0.486422250979
  0
CIRCLE
  5
59F
330
1F
100
AcDbEntity
  8
media
 67
0
100
AcDbCircle
 10
40.1737453236
 20
3.43634479311
 40
0.600343070016
  0
CIRCLE
  5
5A0
330
1F
100
AcDbEntity
  8
media
 67
0
100
AcDbCircle
 10
42.7378478877
 20
3.43634479311
 40
0.579523091267
  0
CIRCLE
  5
5A1
330
1F
100
AcDbEntity
  8
media
 67
0
100
AcDbCircle
 10
45.3019504518
 20
3.43634479311
 40
0.5678629316
  0
CIRCLE
  5
5A2
330
1F
100
AcDbEntity
  8
media
 67
0
100
AcDbCircle
 10
47.8660530159
 20
3.43634479311
 40
0.426183370848
  0
CIRCLE
  5
5A3
330
1F
100
AcDbEntity
  8
media
 67
0
100
AcDbCircle
 10
50.43015558
 20
3.43634479311
 40
0.488247720584
  0
CIRCLE
  5
5A4
330
1F
100
AcDbEntity
  8
media
 67
0
100
AcDbCircle
 10
52.9942581441
 20
3.43634479311
 40
0.49842474385
  0
CIRCLE
  5
5A5
330
1F
100
AcDbEntity
  8
media
 67
0
100
AcDbCircle
 10
55.5583607082
 20
3.43634479311
 40
0.463280270235
  0
CIRCLE
  5
5A6
330
1F
100
AcDbEntity
  8
media
 67
0
100
AcDbCircle
 10
58.1224632723
 20
3.43634479311
 40
0.388965019957
  0
CIRCLE
  5
5A7
330
1F
100
AcDbEntity
  8
media
 67
0
100
AcDbCircle
 10
60.6865658364
 20
3.43634479311
 40
0.665819395963
  0
CIRCLE
  5
5A8
330
1F
100
AcDbEntity
  8
media
 67
0
100
AcDbCircle
 10
63.2506684005
 20
3.43634479311
 40
0.623491416153
  0
CIRCLE
  5
5A9
330
1F
100
AcDbEntity
  8
media
 67
0
100
AcDbCircle
 10
65.8147709646
 20
3.43634479311
 40
0.447136996029
  0
CIRCLE
  5
5AA
330
1F
100
AcDbEntity
  8
media
 67
0
100
AcDbCircle
 10
68.3788735287
 20
3.43634479311
 40
0.652984333866
  0
CIRCLE
  5
5AB
330
1F
100
AcDbEntity
  8
media
 67
0
100
AcDbCircle
 10
70.9429760928
 20
3.43634479311
 40
0.768133497569
  0
CIRCLE
  5
5AC
330
1F
100
AcDbEntity
  8
media
 67
0
100
AcDbCircle
 10
73.507078657
 20
3.43634479311
 40
0.521491357594
  0
CIRCLE
  5
5AD
330
1F
100
AcDbEntity
  8
media
 67
0
100
AcDbCircle
 10
76.0711812211
 20
3.43634479311
 40
0.634063009185
  0
CIRCLE
  5
5AE
330
1F
100
AcDbEntity
  8
media
 67
0
100
AcDbCircle
 10
78.6352837852
 20
3.43634479311
 40
0.601919486255
  0
CIRCLE
  5
5AF
330
1F
100
AcDbEntity
  8
media
 67
0
100
AcDbCircle
 10
81.1993863493
 20
3.43634479311
 40
0.508711527457
  0
CIRCLE
  5
5B0
330
1F
100
AcDbEntity
  8
media
 67
0
100
AcDbCircle
 10
83.7634889134
 20
3.43634479311
 40
0.395247138243
  0
CIRCLE
  5
5B1
330
1F
100
AcDbEntity
  8
media
 67
0
100
AcDbCircle
 10
86.3275914775
 20
3.43634479311
 40
0.41503290451
  0
CIRCLE
  5
5B2
330
1F
100
AcDbEntity
  8
media
 67
0
100
AcDbCircle
 10
88.8916940416
 20
3.43634479311
 40
0.526119126247
  0
CIRCLE
  5
5B3
330
1F
100
AcDbEntity
  8
media
 67
0
100
AcDbCircle
 10
91.4557966057
 20
3.43634479311
 40
0.495840911155
  0
CIRCLE
  5
5B4
330
1F
100
AcDbEntity
  8
media
 67
0
100
AcDbCircle
 10
94.0198991698
 20
3.43634479311
 40
0.533793730916
  0
CIRCLE
  5
5B5
330
1F
100
AcDbEntity
  8
media
 67
0
100
AcDbCircle
 10
96.5840017339
 20
3.43634479311
 40
0.353012663279
  0
CIRCLE
  5
5B6
330
1F
100
AcDbEntity
  8
media
 67
0
100
AcDbCircle
 10
99.148104298
 20
3.43634479311
 40
0.402968712099
  0
CIRCLE
  5
5B7
330
1F
100
AcDbEntity
  8
media
 67
0
100
AcDbCircle
 10
101.712206862
 20
3.43634479311
 40
0.298539927241
  0
CIRCLE
  5
5B8
330
1F
100
AcDbEntity
  8
media
 67
0
100
AcDbCircle
 10
1.71220686208
 20
5.16048272415
 40
0.628275029775
  0
CIRCLE
  5
5B9
330
1F
100
AcDbEntity
  8
media
 67
0
100
AcDbCircle
 10
4.27630942618
 20
5.16048272415
 40
0.494402753016
  0
CIRCLE
  5
5BA
330
1F
100
AcDbEntity
  8
media
 67
0
100
AcDbCircle
 10
6.84041199028
 20
5.16048272415
 40
0.580612655554
  0
CIRCLE
  5
5BB
330
1F
100
AcDbEntity
  8
media
 67
0
100
AcDbCircle
 10
9.40451455439
 20
5.16048272415
 40
0.383766282316
  0
CIRCLE
  5
5BC
330
1F
100
AcDbEntity
  8
media
 67
0
100
AcDbCircle
 10
11.9686171185
 20
5.16048272415
 40
0.43177010077
  0
CIRCLE
  5
5BD
330
1F
100
AcDbEntity
  8
media
 67
0
100
AcDbCircle
 10
14.5327196826
 20
5.16048272415
 40
0.325975727556
  0
CIRCLE
  5
5BE
330
1F
100
AcDbEntity
  8
media
 67
0
100
AcDbCircle
 10
17.0968222467
 20
5.16048272415
 40
0.473536708517
  0
CIRCLE
  5
5BF
330
1F
100
AcDbEntity
  8
media
 67
0
100
AcDbCircle
 10
19.6609248108
 20
5.16048272415
 40
0.531926554221
  0
CIRCLE
  5
5C0
330
1F
100
AcDbEntity
  8
media
 67
0
100
AcDbCircle
 10
22.2250273749
 20
5.16048272415
 40
0.676632479469
  0
CIRCLE
  5
5C1
330
1F
100
AcDbEntity
  8
media
 67
0
100
AcDbCircle
 10
24.789129939
 20
5.16048272415
 40
0.590976297363
  0
CIRCLE
  5
5C2
330
1F
100
AcDbEntity
  8
media
 67
0
100
AcDbCircle
 10
27.3532325031
 20
5.16048272415
 40
0.535518221034
  0
CIRCLE
  5
5C3
330
1F
100
AcDbEntity
  8
media
 67
0
100
AcDbCircle
 10
29.9173350672
 20
5.16048272415
 40
0.496371559114
  0
CIRCLE
  5
5C4
330
1F
100
AcDbEntity
  8
media
 67
0
100
AcDbCircle
 10
32.4814376313
 20
5.16048272415
 40
0.474460634061
  0
CIRCLE
  5
5C5
330
1F
100
AcDbEntity
  8
media
 67
0
100
AcDbCircle
 10
35.0455401954
 20
5.16048272415
 40
0.400092512548
  0
CIRCLE
  5
5C6
330
1F
100
AcDbEntity
  8
media
 67
0
100
AcDbCircle
 10
37.6096427595
 20
5.16048272415
 40
0.429301550082
  0
CIRCLE
  5
5C7
330
1F
100
AcDbEntity
  8
media
 67
0
100
AcDbCircle
 10
40.1737453236
 20
5.16048272415
 40
0.444244685556
  0
CIRCLE
  5
5C8
330
1F
100
AcDbEntity
  8
media
 67
0
100
AcDbCircle
 10
42.7378478877
 20
5.16048272415
 40
0.517029364134
  0
CIRCLE
  5
5C9
330
1F
100
AcDbEntity
  8
media
 67
0
100
AcDbCircle
 10
45.3019504518
 20
5.16048272415
 40
0.420753353862
  0
CIRCLE
  5
5CA
330
1F
100
AcDbEntity
  8
media
 67
0
100
AcDbCircle
 10
47.8660530159
 20
5.16048272415
 40
0.432543158772
  0
CIRCLE
  5
5CB
330
1F
100
AcDbEntity
  8
media
 67
0
100
AcDbCircle
 10
50.43015558
 20
5.16048272415
 40
0.644938612178
  0
CIRCLE
  5
5CC
330
1F
100
AcDbEntity
  8
media
 67
0
100
AcDbCircle
 10
52.9942581441
 20
5.16048272415
 40
0.604377693784
  0
CIRCLE
  5
5CD
330
1F
100
AcDbEntity
  8
media
 67
0
100
AcDbCircle
 10
55.5583607082
 20
5.16048272415
 40
0.450471749679
  0
CIRCLE
  5
5CE
330
1F
100
AcDbEntity
  8
media
 67
0
100
AcDbCircle
 10
58.1224632723
 20
5.16048272415
 40
0.463696446371
  0
CIRCLE
  5
5CF
330
1F
100
AcDbEntity
  8
media
 67
0
100
AcDbCircle
 10
60.6865658364
 20
5.16048272415
 40
0.427005407061
  0
CIRCLE
  5
5D0
330
1F
100
AcDbEntity
  8
media
 67
0
100
AcDbCircle
 10
63.2506684005
 20
5.16048272415
 40
0.485792952204
  0
CIRCLE
  5
5D1
330
1F
100
AcDbEntity
  8
media
 67
0
100
AcDbCircle
 10
65.8147709646
 20
5.16048272415
 40
0.566366544316
  0
CIRCLE
  5
5D2
330
1F
100
AcDbEntity
  8
media
 67
0
100
AcDbCircle
 10
68.3788735287
 20
5.16048272415
 40
0.534726888585
  0
CIRCLE
  5
5D3
330
1F
100
AcDbEntity
  8
media
 67
0
100
AcDbCircle
 10
70.9429760928
 20
5.16048272415
 40
0.556753926305
  0
CIRCLE
  5
5D4
330
1F
100
AcDbEntity
  8
media
 67
0
100
AcDbCircle
 10
73.507078657
 20
5.16048272415
 40
0.301359850428
  0
CIRCLE
  5
5D5
330
1F
100
AcDbEntity
  8
media
 67
0
100
AcDbCircle
 10
76.0711812211
 20
5.16048272415
 40
0.513298240177
  0
CIRCLE
  5
5D6
330
1F
100
AcDbEntity
  8
media
 67
0
100
AcDbCircle
 10
78.6352837852
 20
5.16048272415
 40
0.491932269954
  0
CIRCLE
  5
5D7
330
1F
100
AcDbEntity
  8
media
 67
0
100
AcDbCircle
 10
81.1993863493
 20
5.16048272415
 40
0.712554884225
  0
CIRCLE
  5
5D8
330
1F
100
AcDbEntity
  8
media
 67
0
100
AcDbCircle
 10
83.7634889134
 20
5.16048272415
 40
0.512689104333
  0
CIRCLE
  5
5D9
330
1F
100
AcDbEntity
  8
media
 67
0
100
AcDbCircle
 10
86.3275914775
 20
5.16048272415
 40
0.457661813606
  0
CIRCLE
  5
5DA
330
1F
100
AcDbEntity
  8
media
 67
0
100
AcDbCircle
 10
88.8916940416
 20
5.16048272415
 40
0.649294762893
  0
CIRCLE
  5
5DB
330
1F
100
AcDbEntity
  8
media
 67
0
100
AcDbCircle
 10
91.4557966057
 20
5.16048272415
 40
0.593500509994
  0
CIRCLE
  5
5DC
330
1F
100
AcDbEntity
  8
media
 67
0
100
AcDbCircle
 10
94.0198991698
 20
5.16048272415
 40
0.516514049961
  0
CIRCLE
  5
5DD
330
1F
100
AcDbEntity
  8
media
 67
0
100
AcDbCircle
 10
96.5840017339
 20
5.16048272415
 40
0.36972332447
  0
CIRCLE
  5
5DE
330
1F
100
AcDbEntity
  8
media
 67
0
100
AcDbCircle
 10
99.148104298
 20
5.16048272415
 40
0.654034930675
  0
CIRCLE
  5
5DF
330
1F
100
AcDbEntity
  8
media
 67
0
100
AcDbCircle
 10
101.712206862
 20
5.16048272415
 40
0.435530219548
  0
CIRCLE
  5
5E0
330
1F
100
AcDbEntity
  8
media
 67
0
100
AcDbCircle
 10
1.71220686208
 20
6.88462065518
 40
0.309751172291
  0
CIRCLE
  5
5E1
330
1F
100
AcDbEntity
  8
media
 67
0
100
AcDbCircle
 10
4.27630942618
 20
6.88462065518
 40
0.570244154024
  0
CIRCLE
  5
5E2
330
1F
100
AcDbEntity
  8
media
 67
0
100
AcDbCircle
 10
6.84041199028
 20
6.88462065518
 40
0.53352204027
  0
CIRCLE
  5
5E3
330
1F
100
AcDbEntity
  8
media
 67
0
100
AcDbCircle
 10
9.40451455439
 20
6.88462065518
 40
0.538046270479
  0
CIRCLE
  5
5E4
330
1F
100
AcDbEntity
  8
media
 67
0
100
AcDbCircle
 10
11.9686171185
 20
6.88462065518
 40
0.400961776784
  0
CIRCLE
  5
5E5
330
1F
100
AcDbEntity
  8
media
 67
0
100
AcDbCircle
 10
14.5327196826
 20
6.88462065518
 40
0.474327274848
  0
CIRCLE
  5
5E6
330
1F
100
AcDbEntity
  8
media
 67
0
100
AcDbCircle
 10
17.0968222467
 20
6.88462065518
 40
0.493357576134
  0
CIRCLE
  5
5E7
330
1F
100
AcDbEntity
  8
media
 67
0
100
AcDbCircle
 10
19.6609248108
 20
6.88462065518
 40
0.460532530208
  0
CIRCLE
  5
5E8
330
1F
100
AcDbEntity
  8
media
 67
0
100
AcDbCircle
 10
22.2250273749
 20
6.88462065518
 40
0.575202925025
  0
CIRCLE
  5
5E9
330
1F
100
AcDbEntity
  8
media
 67
0
100
AcDbCircle
 10
24.789129939
 20
6.88462065518
 40
0.547272813441
  0
CIRCLE
  5
5EA
330
1F
100
AcDbEntity
  8
media
 67
0
100
AcDbCircle
 10
27.3532325031
 20
6.88462065518
 40
0.587772880341
  0
CIRCLE
  5
5EB
330
1F
100
AcDbEntity
  8
media
 67
0
100
AcDbCircle
 10
29.9173350672
 20
6.88462065518
 40
0.627174819808
  0
CIRCLE
  5
5EC
330
1F
100
AcDbEntity
  8
media
 67
0
100
AcDbCircle
 10
32.4814376313
 20
6.88462065518
 40
0.508513723522
  0
CIRCLE
  5
5ED
330
1F
100
AcDbEntity
  8
media
 67
0
100
AcDbCircle
 10
35.0455401954
 20
6.88462065518
 40
0.471818169647
  0
CIRCLE
  5
5EE
330
1F
100
AcDbEntity
  8
media
 67
0
100
AcDbCircle
 10
37.6096427595
 20
6.88462065518
 40
0.519284426406
  0
CIRCLE
  5
5EF
330
1F
100
AcDbEntity
  8
media
 67
0
100
AcDbCircle
 10
40.1737453236
 20
6.88462065518
 40
0.416978096898
  0
CIRCLE
  5
5F0
330
1F
100
AcDbEntity
  8
media
 67
0
100
AcDbCircle
 10
42.7378478877
 20
6.88462065518
 40
0.556879655387
  0
CIRCLE
  5
5F1
330
1F
100
AcDbEntity
  8
media
 67
0
100
AcDbCircle
 10
45.3019504518
 20
6.88462065518
 40
0.456900942992
  0
CIRCLE
  5
5F2
330
1F
100
AcDbEntity
  8
media
 67
0
100
AcDbCircle
 10
47.8660530159
 20
6.88462065518
 40
0.505425665979
  0
CIRCLE
  5
5F3
330
1F
100
AcDbEntity
  8
media
 67
0
100
AcDbCircle
 10
50.43015558
 20
6.88462065518
 40
0.477783536843
  0
CIRCLE
  5
5F4
330
1F
100
AcDbEntity
  8
media
 67
0
100
AcDbCircle
 10
52.9942581441
 20
6.88462065518
 40
0.50722975652
  0
CIRCLE
  5
5F5
330
1F
100
AcDbEntity
  8
media
 67
0
100
AcDbCircle
 10
55.5583607082
 20
6.88462065518
 40
0.480049347568
  0
CIRCLE
  5
5F6
330
1F
100
AcDbEntity
  8
media
 67
0
100
AcDbCircle
 10
58.1224632723
 20
6.88462065518
 40
0.598939069834
  0
CIRCLE
  5
5F7
330
1F
100
AcDbEntity
  8
media
 67
0
100
AcDbCircle
 10
60.6865658364
 20
6.88462065518
 40
0.537668603913
  0
CIRCLE
  5
5F8
330
1F
100
AcDbEntity
  8
media
 67
0
100
AcDbCircle
 10
63.2506684005
 20
6.88462065518
 40
0.548150131144
  0
CIRCLE
  5
5F9
330
1F
100
AcDbEntity
  8
media
 67
0
100
AcDbCircle
 10
65.8147709646
 20
6.88462065518
 40
0.571942844456
  0
CIRCLE
  5
5FA
330
1F
100
AcDbEntity
  8
media
 67
0
100
AcDbCircle
 10
68.3788735287
 20
6.88462065518
 40
0.62443748872
  0
CIRCLE
  5
5FB
330
1F
100
AcDbEntity
  8
media
 67
0
100
AcDbCircle
 10
70.9429760928
 20
6.88462065518
 40
0.373512045679
  0
CIRCLE
  5
5FC
330
1F
100
AcDbEntity
  8
media
 67
0
100
AcDbCircle
 10
73.507078657
 20
6.88462065518
 40
0.39651470246
  0
CIRCLE
  5
5FD
330
1F
100
AcDbEntity
  8
media
 67
0
100
AcDbCircle
 10
76.0711812211
 20
6.88462065518
 40
0.359992001207
  0
CIRCLE
  5
5FE
330
1F
100
AcDbEntity
  8
media
 67
0
100
AcDbCircle
 10
78.6352837852
 20
6.88462065518
 40
0.428435835275
  0
CIRCLE
  5
5FF
330
1F
100
AcDbEntity
  8
media
 67
0
100
AcDbCircle
 10
81.1993863493
 20
6.88462065518
 40
0.731079376511
  0
CIRCLE
  5
600
330
1F
100
AcDbEntity
  8
media
 67
0
100
AcDbCircle
 10
83.7634889134
 20
6.88462065518
 40
0.585327998757
  0
CIRCLE
  5
601
330
1F
100
AcDbEntity
  8
media
 67
0
100
AcDbCircle
 10
86.3275914775
 20
6.88462065518
 40
0.342458191249
  0
CIRCLE
  5
602
330
1F
100
AcDbEntity
  8
media
 67
0
100
AcDbCircle
 10
88.8916940416
 20
6.88462065518
 40
0.483376639218
  0
CIRCLE
  5
603
330
1F
100
AcDbEntity
  8
media
 67
0
100
AcDbCircle
 10
91.4557966057
 20
6.88462065518
 40
0.586386030607
  0
CIRCLE
  5
604
330
1F
100
AcDbEntity
  8
media
 67
0
100
AcDbCircle
 10
94.0198991698
 20
6.88462065518
 40
0.594729208648
  0
CIRCLE
  5
605
330
1F
100
AcDbEntity
  8
media
 67
0
100
AcDbCircle
 10
96.5840017339
 20
6.88462065518
 40
0.602555866088
  0
CIRCLE
  5
606
330
1F
100
AcDbEntity
  8
media
 67
0
100
AcDbCircle
 10
99.148104298
 20
6.88462065518
 40
0.480486649113
  0
CIRCLE
  5
607
330
1F
100
AcDbEntity
  8
media
 67
0
100
AcDbCircle
 10
101.712206862
 20
6.88462065518
 40
0.38484775846
  0
CIRCLE
  5
608
330
1F
100
AcDbEntity
  8
media
 67
0
100
AcDbCircle
 10
1.71220686208
 20
8.60875858622
 40
0.362101093908
  0
CIRCLE
  5
609
330
1F
100
AcDbEntity
  8
media
 67
0
100
AcDbCircle
 10
4.27630942618
 20
8.60875858622
 40
0.438485813427
  0
CIRCLE
  5
60A
330
1F
100
AcDbEntity
  8
media
 67
0
100
AcDbCircle
 10
6.84041199028
 20
8.60875858622
 40
0.582085650211
  0
CIRCLE
  5
60B
330
1F
100
AcDbEntity
  8
media
 67
0
100
AcDbCircle
 10
9.40451455439
 20
8.60875858622
 40
0.541919454499
  0
CIRCLE
  5
60C
330
1F
100
AcDbEntity
  8
media
 67
0
100
AcDbCircle
 10
11.9686171185
 20
8.60875858622
 40
0.519010900967
  0
CIRCLE
  5
60D
330
1F
100
AcDbEntity
  8
media
 67
0
100
AcDbCircle
 10
14.5327196826
 20
8.60875858622
 40
0.554355575393
  0
CIRCLE
  5
60E
330
1F
100
AcDbEntity
  8
media
 67
0
100
AcDbCircle
 10
17.0968222467
 20
8.60875858622
 40
0.558408198313
  0
CIRCLE
  5
60F
330
1F
100
AcDbEntity
  8
media
 67
0
100
AcDbCircle
 10
19.6609248108
 20
8.60875858622
 40
0.523816320585
  0
CIRCLE
  5
610
330
1F
100
AcDbEntity
  8
media
 67
0
100
AcDbCircle
 10
22.2250273749
 20
8.60875858622
 40
0.596592997096
  0
CIRCLE
  5
611
330
1F
100
AcDbEntity
  8
media
 67
0
100
AcDbCircle
 10
24.789129939
 20
8.60875858622
 40
0.553389707645
  0
CIRCLE
  5
612
330
1F
100
AcDbEntity
  8
media
 67
0
100
AcDbCircle
 10
27.3532325031
 20
8.60875858622
 40
0.437366190608
  0
CIRCLE
  5
613
330
1F
100
AcDbEntity
  8
media
 67
0
100
AcDbCircle
 10
29.9173350672
 20
8.60875858622
 40
0.42712967814
  0
CIRCLE
  5
614
330
1F
100
AcDbEntity
  8
media
 67
0
100
AcDbCircle
 10
32.4814376313
 20
8.60875858622
 40
0.616797055545
  0
CIRCLE
  5
615
330
1F
100
AcDbEntity
  8
media
 67
0
100
AcDbCircle
 10
35.0455401954
 20
8.60875858622
 40
0.315385967198
  0
CIRCLE
  5
616
330
1F
100
AcDbEntity
  8
media
 67
0
100
AcDbCircle
 10
37.6096427595
 20
8.60875858622
 40
0.631156700583
  0
CIRCLE
  5
617
330
1F
100
AcDbEntity
  8
media
 67
0
100
AcDbCircle
 10
40.1737453236
 20
8.60875858622
 40
0.411559431036
  0
CIRCLE
  5
618
330
1F
100
AcDbEntity
  8
media
 67
0
100
AcDbCircle
 10
42.7378478877
 20
8.60875858622
 40
0.550898287402
  0
CIRCLE
  5
619
330
1F
100
AcDbEntity
  8
media
 67
0
100
AcDbCircle
 10
45.3019504518
 20
8.60875858622
 40
0.620459618089
  0
CIRCLE
  5
61A
330
1F
100
AcDbEntity
  8
media
 67
0
100
AcDbCircle
 10
47.8660530159
 20
8.60875858622
 40
0.647048062937
  0
CIRCLE
  5
61B
330
1F
100
AcDbEntity
  8
media
 67
0
100
AcDbCircle
 10
50.43015558
 20
8.60875858622
 40
0.511517481994
  0
CIRCLE
  5
61C
330
1F
100
AcDbEntity
  8
media
 67
0
100
AcDbCircle
 10
52.9942581441
 20
8.60875858622
 40
0.467231192773
  0
CIRCLE
  5
61D
330
1F
100
AcDbEntity
  8
media
 67
0
100
AcDbCircle
 10
55.5583607082
 20
8.60875858622
 40
0.554899206183
  0
CIRCLE
  5
61E
330
1F
100
AcDbEntity
  8
media
 67
0
100
AcDbCircle
 10
58.1224632723
 20
8.60875858622
 40
0.57753899212
  0
CIRCLE
  5
61F
330
1F
100
AcDbEntity
  8
media
 67
0
100
AcDbCircle
 10
60.6865658364
 20
8.60875858622
 40
0.501990125626
  0
CIRCLE
  5
620
330
1F
100
AcDbEntity
  8
media
 67
0
100
AcDbCircle
 10
63.2506684005
 20
8.60875858622
 40
0.410029825883
  0
CIRCLE
  5
621
330
1F
100
AcDbEntity
  8
media
 67
0
100
AcDbCircle
 10
65.8147709646
 20
8.60875858622
 40
0.589259395923
  0
CIRCLE
  5
622
330
1F
100
AcDbEntity
  8
media
 67
0
100
AcDbCircle
 10
68.3788735287
 20
8.60875858622
 40
0.647766479195
  0
CIRCLE
  5
623
330
1F
100
AcDbEntity
  8
media
 67
0
100
AcDbCircle
 10
70.9429760928
 20
8.60875858622
 40
0.475536242948
  0
CIRCLE
  5
624
330
1F
100
AcDbEntity
  8
media
 67
0
100
AcDbCircle
 10
73.507078657
 20
8.60875858622
 40
0.525626733294
  0
CIRCLE
  5
625
330
1F
100
AcDbEntity
  8
media
 67
0
100
AcDbCircle
 10
76.0711812211
 20
8.60875858622
 40
0.769685908303
  0
CIRCLE
  5
626
330
1F
100
AcDbEntity
  8
media
 67
0
100
AcDbCircle
 10
78.6352837852
 20
8.60875858622
 40
0.474215776818
  0
CIRCLE
  5
627
330
1F
100
AcDbEntity
  8
media
 67
0
100
AcDbCircle
 10
81.1993863493
 20
8.60875858622
 40
0.630595540161
  0
CIRCLE
  5
628
330
1F
100
AcDbEntity
  8
media
 67
0
100
AcDbCircle
 10
83.7634889134
 20
8.60875858622
 40
0.547411361792
  0
CIRCLE
  5
629
330
1F
100
AcDbEntity
  8
media
 67
0
100
AcDbCircle
 10
86.3275914775
 20
8.60875858622
 40
0.600288659561
  0
CIRCLE
  5
62A
330
1F
100
AcDbEntity
  8
media
 67
0
100
AcDbCircle
 10
88.8916940416
 20
8.60875858622
 40
0.591497186586
  0
CIRCLE
  5
62B
330
1F
100
AcDbEntity
  8
media
 67
0
100
AcDbCircle
 10
91.4557966057
 20
8.60875858622
 40
0.509771300269
  0
CIRCLE
  5
62C
330
1F
100
AcDbEntity
  8
media
 67
0
100
AcDbCircle
 10
94.0198991698
 20
8.60875858622
 40
0.607998978003
  0
CIRCLE
  5
62D
330
1F
100
AcDbEntity
  8
media
 67
0
100
AcDbCircle
 10
96.5840017339
 20
8.60875858622
 40
0.45585062955
  0
CIRCLE
  5
62E
330
1F
100
AcDbEntity
  8
media
 67
0
100
AcDbCircle
 10
99.148104298
 20
8.60875858622
 40
0.508325133689
  0
CIRCLE
  5
62F
330
1F
100
AcDbEntity
  8
media
 67
0
100
AcDbCircle
 10
101.712206862
 20
8.60875858622
 40
0.48745133262
  0
CIRCLE
  5
630
330
1F
100
AcDbEntity
  8
media
 67
0
100
AcDbCircle
 10
1.71220686208
 20
10.3328965173
 40
0.511929234136
  0
CIRCLE
  5
631
330
1F
100
AcDbEntity
  8
media
 67
0
100
AcDbCircle
 10
4.27630942618
 20
10.3328965173
 40
0.603756458263
  0
CIRCLE
  5
632
330
1F
100
AcDbEntity
  8
media
 67
0
100
AcDbCircle
 10
6.84041199028
 20
10.3328965173
 40
0.493758221137
  0
CIRCLE
  5
633
330
1F
100
AcDbEntity
  8
media
 67
0
100
AcDbCircle
 10
9.40451455439
 20
10.3328965173
 40
0.540847387459
  0
CIRCLE
  5
634
330
1F
100
AcDbEntity
  8
media
 67
0
100
AcDbCircle
 10
11.9686171185
 20
10.3328965173
 40
0.832315993949
  0
CIRCLE
  5
635
330
1F
100
AcDbEntity
  8
media
 67
0
100
AcDbCircle
 10
14.5327196826
 20
10.3328965173
 40
0.418853062444
  0
CIRCLE
  5
636
330
1F
100
AcDbEntity
  8
media
 67
0
100
AcDbCircle
 10
17.0968222467
 20
10.3328965173
 40
0.506856820903
  0
CIRCLE
  5
637
330
1F
100
AcDbEntity
  8
media
 67
0
100
AcDbCircle
 10
19.6609248108
 20
10.3328965173
 40
0.61193881876
  0
CIRCLE
  5
638
330
1F
100
AcDbEntity
  8
media
 67
0
100
AcDbCircle
 10
22.2250273749
 20
10.3328965173
 40
0.445223758309
  0
CIRCLE
  5
639
330
1F
100
AcDbEntity
  8
media
 67
0
100
AcDbCircle
 10
24.789129939
 20
10.3328965173
 40
0.456934984796
  0
CIRCLE
  5
63A
330
1F
100
AcDbEntity
  8
media
 67
0
100
AcDbCircle
 10
27.3532325031
 20
10.3328965173
 40
0.296196405194
  0
CIRCLE
  5
63B
330
1F
100
AcDbEntity
  8
media
 67
0
100
AcDbCircle
 10
29.9173350672
 20
10.3328965173
 40
0.52310164299
  0
CIRCLE
  5
63C
330
1F
100
AcDbEntity
  8
media
 67
0
100
AcDbCircle
 10
32.4814376313
 20
10.3328965173
 40
0.528702389698
  0
CIRCLE
  5
63D
330
1F
100
AcDbEntity
  8
media
 67
0
100
AcDbCircle
 10
35.0455401954
 20
10.3328965173
 40
0.377266108103
  0
CIRCLE
  5
63E
330
1F
100
AcDbEntity
  8
media
 67
0
100
AcDbCircle
 10
37.6096427595
 20
10.3328965173
 40
0.489801980963
  0
CIRCLE
  5
63F
330
1F
100
AcDbEntity
  8
media
 67
0
100
AcDbCircle
 10
40.1737453236
 20
10.3328965173
 40
0.545553262572
  0
CIRCLE
  5
640
330
1F
100
AcDbEntity
  8
media
 67
0
100
AcDbCircle
 10
42.7378478877
 20
10.3328965173
 40
0.444678291466
  0
CIRCLE
  5
641
330
1F
100
AcDbEntity
  8
media
 67
0
100
AcDbCircle
 10
45.3019504518
 20
10.3328965173
 40
0.485879622083
  0
CIRCLE
  5
642
330
1F
100
AcDbEntity
  8
media
 67
0
100
AcDbCircle
 10
47.8660530159
 20
10.3328965173
 40
0.471874367614
  0
CIRCLE
  5
643
330
1F
100
AcDbEntity
  8
media
 67
0
100
AcDbCircle
 10
50.43015558
 20
10.3328965173
 40
0.404993863617
  0
CIRCLE
  5
644
330
1F
100
AcDbEntity
  8
media
 67
0
100
AcDbCircle
 10
52.9942581441
 20
10.3328965173
 40
0.478729484838
  0
CIRCLE
  5
645
330
1F
100
AcDbEntity
  8
media
 67
0
100
AcDbCircle
 10
55.5583607082
 20
10.3328965173
 40
0.568648934777
  0
CIRCLE
  5
646
330
1F
100
AcDbEntity
  8
media
 67
0
100
AcDbCircle
 10
58.1224632723
 20
10.3328965173
 40
0.521150712204
  0
CIRCLE
  5
647
330
1F
100
AcDbEntity
  8
media
 67
0
100
AcDbCircle
 10
60.6865658364
 20
10.3328965173
 40
0.367959650257
  0
CIRCLE
  5
648
330
1F
100
AcDbEntity
  8
media
 67
0
100
AcDbCircle
 10
63.2506684005
 20
10.3328965173
 40
0.489347096629
  0
CIRCLE
  5
649
330
1F
100
AcDbEntity
  8
media
 67
0
100
AcDbCircle
 10
65.8147709646
 20
10.3328965173
 40
0.529568073705
  0
CIRCLE
  5
64A
330
1F
100
AcDbEntity
  8
media
 67
0
100
AcDbCircle
 10
68.3788735287
 20
10.3328965173
 40
0.62615268154
  0
CIRCLE
  5
64B
330
1F
100
AcDbEntity
  8
media
 67
0
100
AcDbCircle
 10
70.9429760928
 20
10.3328965173
 40
0.613133005877
  0
CIRCLE
  5
64C
330
1F
100
AcDbEntity
  8
media
 67
0
100
AcDbCircle
 10
73.507078657
 20
10.3328965173
 40
0.507447415592
  0
CIRCLE
  5
64D
330
1F
100
AcDbEntity
  8
media
 67
0
100
AcDbCircle
 10
76.0711812211
 20
10.3328965173
 40
0.47457956747
  0
CIRCLE
  5
64E
330
1F
100
AcDbEntity
  8
media
 67
0
100
AcDbCircle
 10
78.6352837852
 20
10.3328965173
 40
0.502700933585
  0
CIRCLE
  5
64F
330
1F
100
AcDbEntity
  8
media
 67
0
100
AcDbCircle
 10
81.1993863493
 20
10.3328965173
 40
0.622637518763
  0
CIRCLE
  5
650
330
1F
100
AcDbEntity
  8
media
 67
0
100
AcDbCircle
 10
83.7634889134
 20
10.3328965173
 40
0.369299280265
  0
CIRCLE
  5
651
330
1F
100
AcDbEntity
  8
media
 67
0
100
AcDbCircle
 10
86.3275914775
 20
10.3328965173
 40
0.403858958131
  0
CIRCLE
  5
652
330
1F
100
AcDbEntity
  8
media
 67
0
100
AcDbCircle
 10
88.8916940416
 20
10.3328965173
 40
0.498911012819
  0
CIRCLE
  5
653
330
1F
100
AcDbEntity
  8
media
 67
0
100
AcDbCircle
 10
91.4557966057
 20
10.3328965173
 40
0.428359419205
  0
CIRCLE
  5
654
330
1F
100
AcDbEntity
  8
media
 67
0
100
AcDbCircle
 10
94.0198991698
 20
10.3328965173
 40
0.52061582378
  0
CIRCLE
  5
655
330
1F
100
AcDbEntity
  8
media
 67
0
100
AcDbCircle
 10
96.5840017339
 20
10.3328965173
 40
0.382322019768
  0
CIRCLE
  5
656
330
1F
100
AcDbEntity
  8
media
 67
0
100
AcDbCircle
 10
99.148104298
 20
10.3328965173
 40
0.511259034775
  0
CIRCLE
  5
657
330
1F
100
AcDbEntity
  8
media
 67
0
100
AcDbCircle
 10
101.712206862
 20
10.3328965173
 40
0.443299016595
  0
CIRCLE
  5
658
330
1F
100
AcDbEntity
  8
media
 67
0
100
AcDbCircle
 10
1.71220686208
 20
12.0570344483
 40
0.461952830236
  0
CIRCLE
  5
659
330
1F
100
AcDbEntity
  8
media
 67
0
100
AcDbCircle
 10
4.27630942618
 20
12.0570344483
 40
0.555949971054
  0
CIRCLE
  5
65A
330
1F
100
AcDbEntity
  8
media
 67
0
100
AcDbCircle
 10
6.84041199028
 20
12.0570344483
 40
0.75596524362
  0
CIRCLE
  5
65B
330
1F
100
AcDbEntity
  8
media
 67
0
100
AcDbCircle
 10
9.40451455439
 20
12.0570344483
 40
0.499390852481
  0
CIRCLE
  5
65C
330
1F
100
AcDbEntity
  8
media
 67
0
100
AcDbCircle
 10
11.9686171185
 20
12.0570344483
 40
0.461330623755
  0
CIRCLE
  5
65D
330
1F
100
AcDbEntity
  8
media
 67
0
100
AcDbCircle
 10
14.5327196826
 20
12.0570344483
 40
0.473770233162
  0
CIRCLE
  5
65E
330
1F
100
AcDbEntity
  8
media
 67
0
100
AcDbCircle
 10
17.0968222467
 20
12.0570344483
 40
0.427885824265
  0
CIRCLE
  5
65F
330
1F
100
AcDbEntity
  8
media
 67
0
100
AcDbCircle
 10
19.6609248108
 20
12.0570344483
 40
0.407844005867
  0
CIRCLE
  5
660
330
1F
100
AcDbEntity
  8
media
 67
0
100
AcDbCircle
 10
22.2250273749
 20
12.0570344483
 40
0.3647334868
  0
CIRCLE
  5
661
330
1F
100
AcDbEntity
  8
media
 67
0
100
AcDbCircle
 10
24.789129939
 20
12.0570344483
 40
0.574880946949
  0
CIRCLE
  5
662
330
1F
100
AcDbEntity
  8
media
 67
0
100
AcDbCircle
 10
27.3532325031
 20
12.0570344483
 40
0.4894194313
  0
CIRCLE
  5
663
330
1F
100
AcDbEntity
  8
media
 67
0
100
AcDbCircle
 10
29.9173350672
 20
12.0570344483
 40
0.456487733704
  0
CIRCLE
  5
664
330
1F
100
AcDbEntity
  8
media
 67
0
100
AcDbCircle
 10
32.4814376313
 20
12.0570344483
 40
0.370665077193
  0
CIRCLE
  5
665
330
1F
100
AcDbEntity
  8
media
 67
0
100
AcDbCircle
 10
35.0455401954
 20
12.0570344483
 40
0.528194336796
  0
CIRCLE
  5
666
330
1F
100
AcDbEntity
  8
media
 67
0
100
AcDbCircle
 10
37.6096427595
 20
12.0570344483
 40
0.394313586398
  0
CIRCLE
  5
667
330
1F
100
AcDbEntity
  8
media
 67
0
100
AcDbCircle
 10
40.1737453236
 20
12.0570344483
 40
0.400689125259
  0
CIRCLE
  5
668
330
1F
100
AcDbEntity
  8
media
 67
0
100
AcDbCircle
 10
42.7378478877
 20
12.0570344483
 40
0.467429521981
  0
CIRCLE
  5
669
330
1F
100
AcDbEntity
  8
media
 67
0
100
AcDbCircle
 10
45.3019504518
 20
12.0570344483
 40
0.392871835326
  0
CIRCLE
  5
66A
330
1F
100
AcDbEntity
  8
media
 67
0
100
AcDbCircle
 10
47.8660530159
 20
12.0570344483
 40
0.385266653487
  0
CIRCLE
  5
66B
330
1F
100
AcDbEntity
  8
media
 67
0
100
AcDbCircle
 10
50.43015558
 20
12.0570344483
 40
0.578746286957
  0
CIRCLE
  5
66C
330
1F
100
AcDbEntity
  8
media
 67
0
100
AcDbCircle
 10
52.9942581441
 20
12.0570344483
 40
0.641979059144
  0
CIRCLE
  5
66D
330
1F
100
AcDbEntity
  8
media
 67
0
100
AcDbCircle
 10
55.5583607082
 20
12.0570344483
 40
0.459480753649
  0
CIRCLE
  5
66E
330
1F
100
AcDbEntity
  8
media
 67
0
100
AcDbCircle
 10
58.1224632723
 20
12.0570344483
 40
0.560799529982
  0
CIRCLE
  5
66F
330
1F
100
AcDbEntity
  8
media
 67
0
100
AcDbCircle
 10
60.6865658364
 20
12.0570344483
 40
0.493398668261
  0
CIRCLE
  5
670
330
1F
100
AcDbEntity
  8
media
 67
0
100
AcDbCircle
 10
63.2506684005
 20
12.0570344483
 40
0.585417557395
  0
CIRCLE
  5
671
330
1F
100
AcDbEntity
  8
media
 67
0
100
AcDbCircle
 10
65.8147709646
 20
12.0570344483
 40
0.545073628809
  0
CIRCLE
  5
672
330
1F
100
AcDbEntity
  8
media
 67
0
100
AcDbCircle
 10
68.3788735287
 20
12.0570344483
 40
0.605582511685
  0
CIRCLE
  5
673
330
1F
100
AcDbEntity
  8
media
 67
0
100
AcDbCircle
 10
70.9429760928
 20
12.0570344483
 40
0.419818176826
  0
CIRCLE
  5
674
330
1F
100
AcDbEntity
  8
media
 67
0
100
AcDbCircle
 10
73.507078657
 20
12.0570344483
 40
0.347119556166
  0
CIRCLE
  5
675
330
1F
100
AcDbEntity
  8
media
 67
0
100
AcDbCircle
 10
76.0711812211
 20
12.0570344483
 40
0.4323268753
  0
CIRCLE
  5
676
330
1F
100
AcDbEntity
  8
media
 67
0
100
AcDbCircle
 10
78.6352837852
 20
12.0570344483
 40
0.429982495461
  0
CIRCLE
  5
677
330
1F
100
AcDbEntity
  8
media
 67
0
100
AcDbCircle
 10
81.1993863493
 20
12.0570344483
 40
0.401071065593
  0
CIRCLE
  5
678
330
1F
100
AcDbEntity
  8
media
 67
0
100
AcDbCircle
 10
83.7634889134
 20
12.0570344483
 40
0.566954205038
  0
CIRCLE
  5
679
330
1F
100
AcDbEntity
  8
media
 67
0
100
AcDbCircle
 10
86.3275914775
 20
12.0570344483
 40
0.600105181065
  0
CIRCLE
  5
67A
330
1F
100
AcDbEntity
  8
media
 67
0
100
AcDbCircle
 10
88.8916940416
 20
12.0570344483
 40
0.421189574435
  0
CIRCLE
  5
67B
330
1F
100
AcDbEntity
  8
media
 67
0
100
AcDbCircle
 10
91.4557966057
 20
12.0570344483
 40
0.502812536504
  0
CIRCLE
  5
67C
330
1F
100
AcDbEntity
  8
media
 67
0
100
AcDbCircle
 10
94.0198991698
 20
12.0570344483
 40
0.564041568786
  0
CIRCLE
  5
67D
330
1F
100
AcDbEntity
  8
media
 67
0
100
AcDbCircle
 10
96.5840017339
 20
12.0570344483
 40
0.504512672989
  0
CIRCLE
  5
67E
330
1F
100
AcDbEntity
  8
media
 67
0
100
AcDbCircle
 10
99.148104298
 20
12.0570344483
 40
0.401907030772
  0
CIRCLE
  5
67F
330
1F
100
AcDbEntity
  8
media
 67
0
100
AcDbCircle
 10
101.712206862
 20
12.0570344483
 40
0.570587651351
  0
CIRCLE
  5
680
330
1F
100
AcDbEntity
  8
media
 67
0
100
AcDbCircle
 10
1.71220686208
 20
13.7811723793
 40
0.623220997607
  0
CIRCLE
  5
681
330
1F
100
AcDbEntity
  8
media
 67
0
100
AcDbCircle
 10
4.27630942618
 20
13.7811723793
 40
0.372355040326
  0
CIRCLE
  5
682
330
1F
100
AcDbEntity
  8
media
 67
0
100
AcDbCircle
 10
6.84041199028
 20
13.7811723793
 40
0.650163000359
  0
CIRCLE
  5
683
330
1F
100
AcDbEntity
  8
media
 67
0
100
AcDbCircle
 10
9.40451455439
 20
13.7811723793
 40
0.425948177219
  0
CIRCLE
  5
684
330
1F
100
AcDbEntity
  8
media
 67
0
100
AcDbCircle
 10
11.9686171185
 20
13.7811723793
 40
0.577099144128
  0
CIRCLE
  5
685
330
1F
100
AcDbEntity
  8
media
 67
0
100
AcDbCircle
 10
14.5327196826
 20
13.7811723793
 40
0.483340134577
  0
CIRCLE
  5
686
330
1F
100
AcDbEntity
  8
media
 67
0
100
AcDbCircle
 10
17.0968222467
 20
13.7811723793
 40
0.569721676732
  0
CIRCLE
  5
687
330
1F
100
AcDbEntity
  8
media
 67
0
100
AcDbCircle
 10
19.6609248108
 20
13.7811723793
 40
0.476204360572
  0
CIRCLE
  5
688
330
1F
100
AcDbEntity
  8
media
 67
0
100
AcDbCircle
 10
22.2250273749
 20
13.7811723793
 40
0.52399651454
  0
CIRCLE
  5
689
330
1F
100
AcDbEntity
  8
media
 67
0
100
AcDbCircle
 10
24.789129939
 20
13.7811723793
 40
0.4445200032
  0
CIRCLE
  5
68A
330
1F
100
AcDbEntity
  8
media
 67
0
100
AcDbCircle
 10
27.3532325031
 20
13.7811723793
 40
0.397685138323
  0
CIRCLE
  5
68B
330
1F
100
AcDbEntity
  8
media
 67
0
100
AcDbCircle
 10
29.9173350672
 20
13.7811723793
 40
0.739704704316
  0
CIRCLE
  5
68C
330
1F
100
AcDbEntity
  8
media
 67
0
100
AcDbCircle
 10
32.4814376313
 20
13.7811723793
 40
0.691885550212
  0
CIRCLE
  5
68D
330
1F
100
AcDbEntity
  8
media
 67
0
100
AcDbCircle
 10
35.0455401954
 20
13.7811723793
 40
0.675689084707
  0
CIRCLE
  5
68E
330
1F
100
AcDbEntity
  8
media
 67
0
100
AcDbCircle
 10
37.6096427595
 20
13.7811723793
 40
0.440279915497
  0
CIRCLE
  5
68F
330
1F
100
AcDbEntity
  8
media
 67
0
100
AcDbCircle
 10
40.1737453236
 20
13.7811723793
 40
0.605727309172
  0
CIRCLE
  5
690
330
1F
100
AcDbEntity
  8
media
 67
0
100
AcDbCircle
 10
42.7378478877
 20
13.7811723793
 40
0.566506947544
  0
CIRCLE
  5
691
330
1F
100
AcDbEntity
  8
media
 67
0
100
AcDbCircle
 10
45.3019504518
 20
13.7811723793
 40
0.647498705176
  0
CIRCLE
  5
692
330
1F
100
AcDbEntity
  8
media
 67
0
100
AcDbCircle
 10
47.8660530159
 20
13.7811723793
 40
0.47273891483
  0
CIRCLE
  5
693
330
1F
100
AcDbEntity
  8
media
 67
0
100
AcDbCircle
 10
50.43015558
 20
13.7811723793
 40
0.507683185439
  0
CIRCLE
  5
694
330
1F
100
AcDbEntity
  8
media
 67
0
100
AcDbCircle
 10
52.9942581441
 20
13.7811723793
 40
0.440626102506
  0
CIRCLE
  5
695
330
1F
100
AcDbEntity
  8
media
 67
0
100
AcDbCircle
 10
55.5583607082
 20
13.7811723793
 40
0.393584621589
  0
CIRCLE
  5
696
330
1F
100
AcDbEntity
  8
media
 67
0
100
AcDbCircle
 10
58.1224632723
 20
13.7811723793
 40
0.337208497365
  0
CIRCLE
  5
697
330
1F
100
AcDbEntity
  8
media
 67
0
100
AcDbCircle
 10
60.6865658364
 20
13.7811723793
 40
0.549104738848
  0
CIRCLE
  5
698
330
1F
100
AcDbEntity
  8
media
 67
0
100
AcDbCircle
 10
63.2506684005
 20
13.7811723793
 40
0.313575043291
  0
CIRCLE
  5
699
330
1F
100
AcDbEntity
  8
media
 67
0
100
AcDbCircle
 10
65.8147709646
 20
13.7811723793
 40
0.470973173159
  0
CIRCLE
  5
69A
330
1F
100
AcDbEntity
  8
media
 67
0
100
AcDbCircle
 10
68.3788735287
 20
13.7811723793
 40
0.567211114161
  0
CIRCLE
  5
69B
330
1F
100
AcDbEntity
  8
media
 67
0
100
AcDbCircle
 10
70.9429760928
 20
13.7811723793
 40
0.344859709401
  0
CIRCLE
  5
69C
330
1F
100
AcDbEntity
  8
media
 67
0
100
AcDbCircle
 10
73.507078657
 20
13.7811723793
 40
0.483280043111
  0
CIRCLE
  5
69D
330
1F
100
AcDbEntity
  8
media
 67
0
100
AcDbCircle
 10
76.0711812211
 20
13.7811723793
 40
0.614994888016
  0
CIRCLE
  5
69E
330
1F
100
AcDbEntity
  8
media
 67
0
100
AcDbCircle
 10
78.6352837852
 20
13.7811723793
 40
0.306299799521
  0
CIRCLE
  5
69F
330
1F
100
AcDbEntity
  8
media
 67
0
100
AcDbCircle
 10
81.1993863493
 20
13.7811723793
 40
0.605267991137
  0
CIRCLE
  5
6A0
330
1F
100
AcDbEntity
  8
media
 67
0
100
AcDbCircle
 10
83.7634889134
 20
13.7811723793
 40
0.492735417963
  0
CIRCLE
  5
6A1
330
1F
100
AcDbEntity
  8
media
 67
0
100
AcDbCircle
 10
86.3275914775
 20
13.7811723793
 40
0.63651796737
  0
CIRCLE
  5
6A2
330
1F
100
AcDbEntity
  8
media
 67
0
100
AcDbCircle
 10
88.8916940416
 20
13.7811723793
 40
0.420775318265
  0
CIRCLE
  5
6A3
330
1F
100
AcDbEntity
  8
media
 67
0
100
AcDbCircle
 10
91.4557966057
 20
13.7811723793
 40
0.549957102995
  0
CIRCLE
  5
6A4
330
1F
100
AcDbEntity
  8
media
 67
0
100
AcDbCircle
 10
94.0198991698
 20
13.7811723793
 40
0.577630837593
  0
CIRCLE
  5
6A5
330
1F
100
AcDbEntity
  8
media
 67
0
100
AcDbCircle
 10
96.5840017339
 20
13.7811723793
 40
0.4743812796
  0
CIRCLE
  5
6A6
330
1F
100
AcDbEntity
  8
media
 67
0
100
AcDbCircle
 10
99.148104298
 20
13.7811723793
 40
0.428149358617
  0
CIRCLE
  5
6A7
330
1F
100
AcDbEntity
  8
media
 67
0
100
AcDbCircle
 10
101.712206862
 20
13.7811723793
 40
0.617990044823
  0
CIRCLE
  5
6A8
330
1F
100
AcDbEntity
  8
media
 67
0
100
AcDbCircle
 10
1.71220686208
 20
15.5053103104
 40
0.357898306688
  0
CIRCLE
  5
6A9
330
1F
100
AcDbEntity
  8
media
 67
0
100
AcDbCircle
 10
4.27630942618
 20
15.5053103104
 40
0.431236406666
  0
CIRCLE
  5
6AA
330
1F
100
AcDbEntity
  8
media
 67
0
100
AcDbCircle
 10
6.84041199028
 20
15.5053103104
 40
0.399798759944
  0
CIRCLE
  5
6AB
330
1F
100
AcDbEntity
  8
media
 67
0
100
AcDbCircle
 10
9.40451455439
 20
15.5053103104
 40
0.510907673013
  0
CIRCLE
  5
6AC
330
1F
100
AcDbEntity
  8
media
 67
0
100
AcDbCircle
 10
11.9686171185
 20
15.5053103104
 40
0.673393528042
  0
CIRCLE
  5
6AD
330
1F
100
AcDbEntity
  8
media
 67
0
100
AcDbCircle
 10
14.5327196826
 20
15.5053103104
 40
0.487756488208
  0
CIRCLE
  5
6AE
330
1F
100
AcDbEntity
  8
media
 67
0
100
AcDbCircle
 10
17.0968222467
 20
15.5053103104
 40
0.379248090616
  0
CIRCLE
  5
6AF
330
1F
100
AcDbEntity
  8
media
 67
0
100
AcDbCircle
 10
19.6609248108
 20
15.5053103104
 40
0.398277212063
  0
CIRCLE
  5
6B0
330
1F
100
AcDbEntity
  8
media
 67
0
100
AcDbCircle
 10
22.2250273749
 20
15.5053103104
 40
0.398861593907
  0
CIRCLE
  5
6B1
330
1F
100
AcDbEntity
  8
media
 67
0
100
AcDbCircle
 10
24.789129939
 20
15.5053103104
 40
0.665961316073
  0
CIRCLE
  5
6B2
330
1F
100
AcDbEntity
  8
media
 67
0
100
AcDbCircle
 10
27.3532325031
 20
15.5053103104
 40
0.452634488937
  0
CIRCLE
  5
6B3
330
1F
100
AcDbEntity
  8
media
 67
0
100
AcDbCircle
 10
29.9173350672
 20
15.5053103104
 40
0.532826229713
  0
CIRCLE
  5
6B4
330
1F
100
AcDbEntity
  8
media
 67
0
100
AcDbCircle
 10
32.4814376313
 20
15.5053103104
 40
0.428756283765
  0
CIRCLE
  5
6B5
330
1F
100
AcDbEntity
  8
media
 67
0
100
AcDbCircle
 10
35.0455401954
 20
15.5053103104
 40
0.805266192173
  0
CIRCLE
  5
6B6
330
1F
100
AcDbEntity
  8
media
 67
0
100
AcDbCircle
 10
37.6096427595
 20
15.5053103104
 40
0.425643557262
  0
CIRCLE
  5
6B7
330
1F
100
AcDbEntity
  8
media
 67
0
100
AcDbCircle
 10
40.1737453236
 20
15.5053103104
 40
0.590319574028
  0
CIRCLE
  5
6B8
330
1F
100
AcDbEntity
  8
media
 67
0
100
AcDbCircle
 10
42.7378478877
 20
15.5053103104
 40
0.511221872166
  0
CIRCLE
  5
6B9
330
1F
100
AcDbEntity
  8
media
 67
0
100
AcDbCircle
 10
45.3019504518
 20
15.5053103104
 40
0.534406845707
  0
CIRCLE
  5
6BA
330
1F
100
AcDbEntity
  8
media
 67
0
100
AcDbCircle
 10
47.8660530159
 20
15.5053103104
 40
0.556862196238
  0
CIRCLE
  5
6BB
330
1F
100
AcDbEntity
  8
media
 67
0
100
AcDbCircle
 10
50.43015558
 20
15.5053103104
 40
0.454714743981
  0
CIRCLE
  5
6BC
330
1F
100
AcDbEntity
  8
media
 67
0
100
AcDbCircle
 10
52.9942581441
 20
15.5053103104
 40
0.383619825291
  0
CIRCLE
  5
6BD
330
1F
100
AcDbEntity
  8
media
 67
0
100
AcDbCircle
 10
55.5583607082
 20
15.5053103104
 40
0.590570811978
  0
CIRCLE
  5
6BE
330
1F
100
AcDbEntity
  8
media
 67
0
100
AcDbCircle
 10
58.1224632723
 20
15.5053103104
 40
0.517231710329
  0
CIRCLE
  5
6BF
330
1F
100
AcDbEntity
  8
media
 67
0
100
AcDbCircle
 10
60.6865658364
 20
15.5053103104
 40
0.452782536774
  0
CIRCLE
  5
6C0
330
1F
100
AcDbEntity
  8
media
 67
0
100
AcDbCircle
 10
63.2506684005
 20
15.5053103104
 40
0.462778747808
  0
CIRCLE
  5
6C1
330
1F
100
AcDbEntity
  8
media
 67
0
100
AcDbCircle
 10
65.8147709646
 20
15.5053103104
 40
0.54667375189
  0
CIRCLE
  5
6C2
330
1F
100
AcDbEntity
  8
media
 67
0
100
AcDbCircle
 10
68.3788735287
 20
15.5053103104
 40
0.379276328363
  0
CIRCLE
  5
6C3
330
1F
100
AcDbEntity
  8
media
 67
0
100
AcDbCircle
 10
70.9429760928
 20
15.5053103104
 40
0.505137321189
  0
CIRCLE
  5
6C4
330
1F
100
AcDbEntity
  8
media
 67
0
100
AcDbCircle
 10
73.507078657
 20
15.5053103104
 40
0.428699023026
  0
CIRCLE
  5
6C5
330
1F
100
AcDbEntity
  8
media
 67
0
100
AcDbCircle
 10
76.0711812211
 20
15.5053103104
 40
0.615735367542
  0
CIRCLE
  5
6C6
330
1F
100
AcDbEntity
  8
media
 67
0
100
AcDbCircle
 10
78.6352837852
 20
15.5053103104
 40
0.604470736498
  0
CIRCLE
  5
6C7
330
1F
100
AcDbEntity
  8
media
 67
0
100
AcDbCircle
 10
81.1993863493
 20
15.5053103104
 40
0.326974324356
  0
CIRCLE
  5
6C8
330
1F
100
AcDbEntity
  8
media
 67
0
100
AcDbCircle
 10
83.7634889134
 20
15.5053103104
 40
0.339544265489
  0
CIRCLE
  5
6C9
330
1F
100
AcDbEntity
  8
media
 67
0
100
AcDbCircle
 10
86.3275914775
 20
15.5053103104
 40
0.68117062541
  0
CIRCLE
  5
6CA
330
1F
100
AcDbEntity
  8
media
 67
0
100
AcDbCircle
 10
88.8916940416
 20
15.5053103104
 40
0.440800699633
  0
CIRCLE
  5
6CB
330
1F
100
AcDbEntity
  8
media
 67
0
100
AcDbCircle
 10
91.4557966057
 20
15.5053103104
 40
0.254570428691
  0
CIRCLE
  5
6CC
330
1F
100
AcDbEntity
  8
media
 67
0
100
AcDbCircle
 10
94.0198991698
 20
15.5053103104
 40
0.55624299548
  0
CIRCLE
  5
6CD
330
1F
100
AcDbEntity
  8
media
 67
0
100
AcDbCircle
 10
96.5840017339
 20
15.5053103104
 40
0.533765498429
  0
CIRCLE
  5
6CE
330
1F
100
AcDbEntity
  8
media
 67
0
100
AcDbCircle
 10
99.148104298
 20
15.5053103104
 40
0.419341294787
  0
CIRCLE
  5
6CF
330
1F
100
AcDbEntity
  8
media
 67
0
100
AcDbCircle
 10
101.712206862
 20
15.5053103104
 40
0.463148640944
  0
CIRCLE
  5
6D0
330
1F
100
AcDbEntity
  8
media
 67
0
100
AcDbCircle
 10
1.71220686208
 20
17.2294482414
 40
0.527976411713
  0
CIRCLE
  5
6D1
330
1F
100
AcDbEntity
  8
media
 67
0
100
AcDbCircle
 10
4.27630942618
 20
17.2294482414
 40
0.555034982994
  0
CIRCLE
  5
6D2
330
1F
100
AcDbEntity
  8
media
 67
0
100
AcDbCircle
 10
6.84041199028
 20
17.2294482414
 40
0.556328126107
  0
CIRCLE
  5
6D3
330
1F
100
AcDbEntity
  8
media
 67
0
100
AcDbCircle
 10
9.40451455439
 20
17.2294482414
 40
0.499706631452
  0
CIRCLE
  5
6D4
330
1F
100
AcDbEntity
  8
media
 67
0
100
AcDbCircle
 10
11.9686171185
 20
17.2294482414
 40
0.391861116721
  0
CIRCLE
  5
6D5
330
1F
100
AcDbEntity
  8
media
 67
0
100
AcDbCircle
 10
14.5327196826
 20
17.2294482414
 40
0.46963585159
  0
CIRCLE
  5
6D6
330
1F
100
AcDbEntity
  8
media
 67
0
100
AcDbCircle
 10
17.0968222467
 20
17.2294482414
 40
0.52012156851
  0
CIRCLE
  5
6D7
330
1F
100
AcDbEntity
  8
media
 67
0
100
AcDbCircle
 10
19.6609248108
 20
17.2294482414
 40
0.414138999184
  0
CIRCLE
  5
6D8
330
1F
100
AcDbEntity
  8
media
 67
0
100
AcDbCircle
 10
22.2250273749
 20
17.2294482414
 40
0.609742526295
  0
CIRCLE
  5
6D9
330
1F
100
AcDbEntity
  8
media
 67
0
100
AcDbCircle
 10
24.789129939
 20
17.2294482414
 40
0.620088691554
  0
CIRCLE
  5
6DA
330
1F
100
AcDbEntity
  8
media
 67
0
100
AcDbCircle
 10
27.3532325031
 20
17.2294482414
 40
0.521303739336
  0
CIRCLE
  5
6DB
330
1F
100
AcDbEntity
  8
media
 67
0
100
AcDbCircle
 10
29.9173350672
 20
17.2294482414
 40
0.668328823924
  0
CIRCLE
  5
6DC
330
1F
100
AcDbEntity
  8
media
 67
0
100
AcDbCircle
 10
32.4814376313
 20
17.2294482414
 40
0.613340362035
  0
CIRCLE
  5
6DD
330
1F
100
AcDbEntity
  8
media
 67
0
100
AcDbCircle
 10
35.0455401954
 20
17.2294482414
 40
0.544541878289
  0
CIRCLE
  5
6DE
330
1F
100
AcDbEntity
  8
media
 67
0
100
AcDbCircle
 10
37.6096427595
 20
17.2294482414
 40
0.504390674837
  0
CIRCLE
  5
6DF
330
1F
100
AcDbEntity
  8
media
 67
0
100
AcDbCircle
 10
40.1737453236
 20
17.2294482414
 40
0.369521221524
  0
CIRCLE
  5
6E0
330
1F
100
AcDbEntity
  8
media
 67
0
100
AcDbCircle
 10
42.7378478877
 20
17.2294482414
 40
0.463966658961
  0
CIRCLE
  5
6E1
330
1F
100
AcDbEntity
  8
media
 67
0
100
AcDbCircle
 10
45.3019504518
 20
17.2294482414
 40
0.456754618423
  0
CIRCLE
  5
6E2
330
1F
100
AcDbEntity
  8
media
 67
0
100
AcDbCircle
 10
47.8660530159
 20
17.2294482414
 40
0.435795655146
  0
CIRCLE
  5
6E3
330
1F
100
AcDbEntity
  8
media
 67
0
100
AcDbCircle
 10
50.43015558
 20
17.2294482414
 40
0.430377834451
  0
CIRCLE
  5
6E4
330
1F
100
AcDbEntity
  8
media
 67
0
100
AcDbCircle
 10
52.9942581441
 20
17.2294482414
 40
0.502703236582
  0
CIRCLE
  5
6E5
330
1F
100
AcDbEntity
  8
media
 67
0
100
AcDbCircle
 10
55.5583607082
 20
17.2294482414
 40
0.422214898086
  0
CIRCLE
  5
6E6
330
1F
100
AcDbEntity
  8
media
 67
0
100
AcDbCircle
 10
58.1224632723
 20
17.2294482414
 40
0.631752122104
  0
CIRCLE
  5
6E7
330
1F
100
AcDbEntity
  8
media
 67
0
100
AcDbCircle
 10
60.6865658364
 20
17.2294482414
 40
0.583517848427
  0
CIRCLE
  5
6E8
330
1F
100
AcDbEntity
  8
media
 67
0
100
AcDbCircle
 10
63.2506684005
 20
17.2294482414
 40
0.527005701394
  0
CIRCLE
  5
6E9
330
1F
100
AcDbEntity
  8
media
 67
0
100
AcDbCircle
 10
65.8147709646
 20
17.2294482414
 40
0.417464511911
  0
CIRCLE
  5
6EA
330
1F
100
AcDbEntity
  8
media
 67
0
100
AcDbCircle
 10
68.3788735287
 20
17.2294482414
 40
0.527837705149
  0
CIRCLE
  5
6EB
330
1F
100
AcDbEntity
  8
media
 67
0
100
AcDbCircle
 10
70.9429760928
 20
17.2294482414
 40
0.717331739686
  0
CIRCLE
  5
6EC
330
1F
100
AcDbEntity
  8
media
 67
0
100
AcDbCircle
 10
73.507078657
 20
17.2294482414
 40
0.504541857037
  0
CIRCLE
  5
6ED
330
1F
100
AcDbEntity
  8
media
 67
0
100
AcDbCircle
 10
76.0711812211
 20
17.2294482414
 40
0.571973255767
  0
CIRCLE
  5
6EE
330
1F
100
AcDbEntity
  8
media
 67
0
100
AcDbCircle
 10
78.6352837852
 20
17.2294482414
 40
0.573124887751
  0
CIRCLE
  5
6EF
330
1F
100
AcDbEntity
  8
media
 67
0
100
AcDbCircle
 10
81.1993863493
 20
17.2294482414
 40
0.360136985765
  0
CIRCLE
  5
6F0
330
1F
100
AcDbEntity
  8
media
 67
0
100
AcDbCircle
 10
83.7634889134
 20
17.2294482414
 40
0.420770878809
  0
CIRCLE
  5
6F1
330
1F
100
AcDbEntity
  8
media
 67
0
100
AcDbCircle
 10
86.3275914775
 20
17.2294482414
 40
0.486605831171
  0
CIRCLE
  5
6F2
330
1F
100
AcDbEntity
  8
media
 67
0
100
AcDbCircle
 10
88.8916940416
 20
17.2294482414
 40
0.514696138225
  0
CIRCLE
  5
6F3
330
1F
100
AcDbEntity
  8
media
 67
0
100
AcDbCircle
 10
91.4557966057
 20
17.2294482414
 40
0.373727920639
  0
CIRCLE
  5
6F4
330
1F
100
AcDbEntity
  8
media
 67
0
100
AcDbCircle
 10
94.0198991698
 20
17.2294482414
 40
0.604714468853
  0
CIRCLE
  5
6F5
330
1F
100
AcDbEntity
  8
media
 67
0
100
AcDbCircle
 10
96.5840017339
 20
17.2294482414
 40
0.487610366926
  0
CIRCLE
  5
6F6
330
1F
100
AcDbEntity
  8
media
 67
0
100
AcDbCircle
 10
99.148104298
 20
17.2294482414
 40
0.412688668482
  0
CIRCLE
  5
6F7
330
1F
100
AcDbEntity
  8
media
 67
0
100
AcDbCircle
 10
101.712206862
 20
17.2294482414
 40
0.495793324588
  0
CIRCLE
  5
6F8
330
1F
100
AcDbEntity
  8
media
 67
0
100
AcDbCircle
 10
1.71220686208
 20
18.9535861724
 40
0.470916627684
  0
CIRCLE
  5
6F9
330
1F
100
AcDbEntity
  8
media
 67
0
100
AcDbCircle
 10
4.27630942618
 20
18.9535861724
 40
0.462898596484
  0
CIRCLE
  5
6FA
330
1F
100
AcDbEntity
  8
media
 67
0
100
AcDbCircle
 10
6.84041199028
 20
18.9535861724
 40
0.58677112617
  0
CIRCLE
  5
6FB
330
1F
100
AcDbEntity
  8
media
 67
0
100
AcDbCircle
 10
9.40451455439
 20
18.9535861724
 40
0.51793620874
  0
CIRCLE
  5
6FC
330
1F
100
AcDbEntity
  8
media
 67
0
100
AcDbCircle
 10
11.9686171185
 20
18.9535861724
 40
0.582109681461
  0
CIRCLE
  5
6FD
330
1F
100
AcDbEntity
  8
media
 67
0
100
AcDbCircle
 10
14.5327196826
 20
18.9535861724
 40
0.40031498279
  0
CIRCLE
  5
6FE
330
1F
100
AcDbEntity
  8
media
 67
0
100
AcDbCircle
 10
17.0968222467
 20
18.9535861724
 40
0.46156860293
  0
CIRCLE
  5
6FF
330
1F
100
AcDbEntity
  8
media
 67
0
100
AcDbCircle
 10
19.6609248108
 20
18.9535861724
 40
0.500347518537
  0
CIRCLE
  5
700
330
1F
100
AcDbEntity
  8
media
 67
0
100
AcDbCircle
 10
22.2250273749
 20
18.9535861724
 40
0.487058973539
  0
CIRCLE
  5
701
330
1F
100
AcDbEntity
  8
media
 67
0
100
AcDbCircle
 10
24.789129939
 20
18.9535861724
 40
0.500093932752
  0
CIRCLE
  5
702
330
1F
100
AcDbEntity
  8
media
 67
0
100
AcDbCircle
 10
27.3532325031
 20
18.9535861724
 40
0.610485900587
  0
CIRCLE
  5
703
330
1F
100
AcDbEntity
  8
media
 67
0
100
AcDbCircle
 10
29.9173350672
 20
18.9535861724
 40
0.30639916837
  0
CIRCLE
  5
704
330
1F
100
AcDbEntity
  8
media
 67
0
100
AcDbCircle
 10
32.4814376313
 20
18.9535861724
 40
0.440516486855
  0
CIRCLE
  5
705
330
1F
100
AcDbEntity
  8
media
 67
0
100
AcDbCircle
 10
35.0455401954
 20
18.9535861724
 40
0.296673540374
  0
CIRCLE
  5
706
330
1F
100
AcDbEntity
  8
media
 67
0
100
AcDbCircle
 10
37.6096427595
 20
18.9535861724
 40
0.73435886328
  0
CIRCLE
  5
707
330
1F
100
AcDbEntity
  8
media
 67
0
100
AcDbCircle
 10
40.1737453236
 20
18.9535861724
 40
0.44864502035
  0
CIRCLE
  5
708
330
1F
100
AcDbEntity
  8
media
 67
0
100
AcDbCircle
 10
42.7378478877
 20
18.9535861724
 40
0.513514300771
  0
CIRCLE
  5
709
330
1F
100
AcDbEntity
  8
media
 67
0
100
AcDbCircle
 10
45.3019504518
 20
18.9535861724
 40
0.532882346655
  0
CIRCLE
  5
70A
330
1F
100
AcDbEntity
  8
media
 67
0
100
AcDbCircle
 10
47.8660530159
 20
18.9535861724
 40
0.342372407697
  0
CIRCLE
  5
70B
330
1F
100
AcDbEntity
  8
media
 67
0
100
AcDbCircle
 10
50.43015558
 20
18.9535861724
 40
0.732777411031
  0
CIRCLE
  5
70C
330
1F
100
AcDbEntity
  8
media
 67
0
100
AcDbCircle
 10
52.9942581441
 20
18.9535861724
 40
0.506563462363
  0
CIRCLE
  5
70D
330
1F
100
AcDbEntity
  8
media
 67
0
100
AcDbCircle
 10
55.5583607082
 20
18.9535861724
 40
0.691963672945
  0
CIRCLE
  5
70E
330
1F
100
AcDbEntity
  8
media
 67
0
100
AcDbCircle
 10
58.1224632723
 20
18.9535861724
 40
0.528480594538
  0
CIRCLE
  5
70F
330
1F
100
AcDbEntity
  8
media
 67
0
100
AcDbCircle
 10
60.6865658364
 20
18.9535861724
 40
0.317133214663
  0
CIRCLE
  5
710
330
1F
100
AcDbEntity
  8
media
 67
0
100
AcDbCircle
 10
63.2506684005
 20
18.9535861724
 40
0.443870625823
  0
CIRCLE
  5
711
330
1F
100
AcDbEntity
  8
media
 67
0
100
AcDbCircle
 10
65.8147709646
 20
18.9535861724
 40
0.526534351862
  0
CIRCLE
  5
712
330
1F
100
AcDbEntity
  8
media
 67
0
100
AcDbCircle
 10
68.3788735287
 20
18.9535861724
 40
0.449398581487
  0
CIRCLE
  5
713
330
1F
100
AcDbEntity
  8
media
 67
0
100
AcDbCircle
 10
70.9429760928
 20
18.9535861724
 40
0.476426006243
  0
CIRCLE
  5
714
330
1F
100
AcDbEntity
  8
media
 67
0
100
AcDbCircle
 10
73.507078657
 20
18.9535861724
 40
0.729229580215
  0
CIRCLE
  5
715
330
1F
100
AcDbEntity
  8
media
 67
0
100
AcDbCircle
 10
76.0711812211
 20
18.9535861724
 40
0.4751342425
  0
CIRCLE
  5
716
330
1F
100
AcDbEntity
  8
media
 67
0
100
AcDbCircle
 10
78.6352837852
 20
18.9535861724
 40
0.373160186278
  0
CIRCLE
  5
717
330
1F
100
AcDbEntity
  8
media
 67
0
100
AcDbCircle
 10
81.1993863493
 20
18.9535861724
 40
0.291216586687
  0
CIRCLE
  5
718
330
1F
100
AcDbEntity
  8
media
 67
0
100
AcDbCircle
 10
83.7634889134
 20
18.9535861724
 40
0.343787630319
  0
CIRCLE
  5
719
330
1F
100
AcDbEntity
  8
media
 67
0
100
AcDbCircle
 10
86.3275914775
 20
18.9535861724
 40
0.43384746459
  0
CIRCLE
  5
71A
330
1F
100
AcDbEntity
  8
media
 67
0
100
AcDbCircle
 10
88.8916940416
 20
18.9535861724
 40
0.391613590235
  0
CIRCLE
  5
71B
330
1F
100
AcDbEntity
  8
media
 67
0
100
AcDbCircle
 10
91.4557966057
 20
18.9535861724
 40
0.424425304827
  0
CIRCLE
  5
71C
330
1F
100
AcDbEntity
  8
media
 67
0
100
AcDbCircle
 10
94.0198991698
 20
18.9535861724
 40
0.534829038049
  0
CIRCLE
  5
71D
330
1F
100
AcDbEntity
  8
media
 67
0
100
AcDbCircle
 10
96.5840017339
 20
18.9535861724
 40
0.63398278358
  0
CIRCLE
  5
71E
330
1F
100
AcDbEntity
  8
media
 67
0
100
AcDbCircle
 10
99.148104298
 20
18.9535861724
 40
0.490924742562
  0
CIRCLE
  5
71F
330
1F
100
AcDbEntity
  8
media
 67
0
100
AcDbCircle
 10
101.712206862
 20
18.9535861724
 40
0.540505224526
  0
CIRCLE
  5
720
330
1F
100
AcDbEntity
  8
media
 67
0
100
AcDbCircle
 10
1.71220686208
 20
20.6777241035
 40
0.544430445381
  0
CIRCLE
  5
721
330
1F
100
AcDbEntity
  8
media
 67
0
100
AcDbCircle
 10
4.27630942618
 20
20.6777241035
 40
0.434431626004
  0
CIRCLE
  5
722
330
1F
100
AcDbEntity
  8
media
 67
0
100
AcDbCircle
 10
6.84041199028
 20
20.6777241035
 40
0.51595973056
  0
CIRCLE
  5
723
330
1F
100
AcDbEntity
  8
media
 67
0
100
AcDbCircle
 10
9.40451455439
 20
20.6777241035
 40
0.701095680351
  0
CIRCLE
  5
724
330
1F
100
AcDbEntity
  8
media
 67
0
100
AcDbCircle
 10
11.9686171185
 20
20.6777241035
 40
0.490993723466
  0
CIRCLE
  5
725
330
1F
100
AcDbEntity
  8
media
 67
0
100
AcDbCircle
 10
14.5327196826
 20
20.6777241035
 40
0.423602184099
  0
CIRCLE
  5
726
330
1F
100
AcDbEntity
  8
media
 67
0
100
AcDbCircle
 10
17.0968222467
 20
20.6777241035
 40
0.482061909916
  0
CIRCLE
  5
727
330
1F
100
AcDbEntity
  8
media
 67
0
100
AcDbCircle
 10
19.6609248108
 20
20.6777241035
 40
0.567281760898
  0
CIRCLE
  5
728
330
1F
100
AcDbEntity
  8
media
 67
0
100
AcDbCircle
 10
22.2250273749
 20
20.6777241035
 40
0.510817921372
  0
CIRCLE
  5
729
330
1F
100
AcDbEntity
  8
media
 67
0
100
AcDbCircle
 10
24.789129939
 20
20.6777241035
 40
0.448693192954
  0
CIRCLE
  5
72A
330
1F
100
AcDbEntity
  8
media
 67
0
100
AcDbCircle
 10
27.3532325031
 20
20.6777241035
 40
0.438329719929
  0
CIRCLE
  5
72B
330
1F
100
AcDbEntity
  8
media
 67
0
100
AcDbCircle
 10
29.9173350672
 20
20.6777241035
 40
0.495519740661
  0
CIRCLE
  5
72C
330
1F
100
AcDbEntity
  8
media
 67
0
100
AcDbCircle
 10
32.4814376313
 20
20.6777241035
 40
0.500073623813
  0
CIRCLE
  5
72D
330
1F
100
AcDbEntity
  8
media
 67
0
100
AcDbCircle
 10
35.0455401954
 20
20.6777241035
 40
0.327278696183
  0
CIRCLE
  5
72E
330
1F
100
AcDbEntity
  8
media
 67
0
100
AcDbCircle
 10
37.6096427595
 20
20.6777241035
 40
0.504614709149
  0
CIRCLE
  5
72F
330
1F
100
AcDbEntity
  8
media
 67
0
100
AcDbCircle
 10
40.1737453236
 20
20.6777241035
 40
0.573824785539
  0
CIRCLE
  5
730
330
1F
100
AcDbEntity
  8
media
 67
0
100
AcDbCircle
 10
42.7378478877
 20
20.6777241035
 40
0.317943109869
  0
CIRCLE
  5
731
330
1F
100
AcDbEntity
  8
media
 67
0
100
AcDbCircle
 10
45.3019504518
 20
20.6777241035
 40
0.404387204704
  0
CIRCLE
  5
732
330
1F
100
AcDbEntity
  8
media
 67
0
100
AcDbCircle
 10
47.8660530159
 20
20.6777241035
 40
0.500232431233
  0
CIRCLE
  5
733
330
1F
100
AcDbEntity
  8
media
 67
0
100
AcDbCircle
 10
50.43015558
 20
20.6777241035
 40
0.248623940082
  0
CIRCLE
  5
734
330
1F
100
AcDbEntity
  8
media
 67
0
100
AcDbCircle
 10
52.9942581441
 20
20.6777241035
 40
0.451858179299
  0
CIRCLE
  5
735
330
1F
100
AcDbEntity
  8
media
 67
0
100
AcDbCircle
 10
55.5583607082
 20
20.6777241035
 40
0.663185650538
  0
CIRCLE
  5
736
330
1F
100
AcDbEntity
  8
media
 67
0
100
AcDbCircle
 10
58.1224632723
 20
20.6777241035
 40
0.472026475676
  0
CIRCLE
  5
737
330
1F
100
AcDbEntity
  8
media
 67
0
100
AcDbCircle
 10
60.6865658364
 20
20.6777241035
 40
0.506461777917
  0
CIRCLE
  5
738
330
1F
100
AcDbEntity
  8
media
 67
0
100
AcDbCircle
 10
63.2506684005
 20
20.6777241035
 40
0.420502760868
  0
CIRCLE
  5
739
330
1F
100
AcDbEntity
  8
media
 67
0
100
AcDbCircle
 10
65.8147709646
 20
20.6777241035
 40
0.503317115659
  0
CIRCLE
  5
73A
330
1F
100
AcDbEntity
  8
media
 67
0
100
AcDbCircle
 10
68.3788735287
 20
20.6777241035
 40
0.537448035166
  0
CIRCLE
  5
73B
330
1F
100
AcDbEntity
  8
media
 67
0
100
AcDbCircle
 10
70.9429760928
 20
20.6777241035
 40
0.448732783332
  0
CIRCLE
  5
73C
330
1F
100
AcDbEntity
  8
media
 67
0
100
AcDbCircle
 10
73.507078657
 20
20.6777241035
 40
0.584615635574
  0
CIRCLE
  5
73D
330
1F
100
AcDbEntity
  8
media
 67
0
100
AcDbCircle
 10
76.0711812211
 20
20.6777241035
 40
0.612772616394
  0
CIRCLE
  5
73E
330
1F
100
AcDbEntity
  8
media
 67
0
100
AcDbCircle
 10
78.6352837852
 20
20.6777241035
 40
0.530763425632
  0
CIRCLE
  5
73F
330
1F
100
AcDbEntity
  8
media
 67
0
100
AcDbCircle
 10
81.1993863493
 20
20.6777241035
 40
0.577585159967
  0
CIRCLE
  5
740
330
1F
100
AcDbEntity
  8
media
 67
0
100
AcDbCircle
 10
83.7634889134
 20
20.6777241035
 40
0.730316735033
  0
CIRCLE
  5
741
330
1F
100
AcDbEntity
  8
media
 67
0
100
AcDbCircle
 10
86.3275914775
 20
20.6777241035
 40
0.392705812821
  0
CIRCLE
  5
742
330
1F
100
AcDbEntity
  8
media
 67
0
100
AcDbCircle
 10
88.8916940416
 20
20.6777241035
 40
0.500936577751
  0
CIRCLE
  5
743
330
1F
100
AcDbEntity
  8
media
 67
0
100
AcDbCircle
 10
91.4557966057
 20
20.6777241035
 40
0.603625869355
  0
CIRCLE
  5
744
330
1F
100
AcDbEntity
  8
media
 67
0
100
AcDbCircle
 10
94.0198991698
 20
20.6777241035
 40
0.440417436554
  0
CIRCLE
  5
745
330
1F
100
AcDbEntity
  8
media
 67
0
100
AcDbCircle
 10
96.5840017339
 20
20.6777241035
 40
0.549872634044
  0
CIRCLE
  5
746
330
1F
100
AcDbEntity
  8
media
 67
0
100
AcDbCircle
 10
99.148104298
 20
20.6777241035
 40
0.511056844735
  0
CIRCLE
  5
747
330
1F
100
AcDbEntity
  8
media
 67
0
100
AcDbCircle
 10
101.712206862
 20
20.6777241035
 40
0.495624660834
  0
CIRCLE
  5
748
330
1F
100
AcDbEntity
  8
media
 67
0
100
AcDbCircle
 10
1.71220686208
 20
22.4018620345
 40
0.600335527481
  0
CIRCLE
  5
749
330
1F
100
AcDbEntity
  8
media
 67
0
100
AcDbCircle
 10
4.27630942618
 20
22.4018620345
 40
0.422906469863
  0
CIRCLE
  5
74A
330
1F
100
AcDbEntity
  8
media
 67
0
100
AcDbCircle
 10
6.84041199028
 20
22.4018620345
 40
0.227750150004
  0
CIRCLE
  5
74B
330
1F
100
AcDbEntity
  8
media
 67
0
100
AcDbCircle
 10
9.40451455439
 20
22.4018620345
 40
0.424512192976
  0
CIRCLE
  5
74C
330
1F
100
AcDbEntity
  8
media
 67
0
100
AcDbCircle
 10
11.9686171185
 20
22.4018620345
 40
0.436619387301
  0
CIRCLE
  5
74D
330
1F
100
AcDbEntity
  8
media
 67
0
100
AcDbCircle
 10
14.5327196826
 20
22.4018620345
 40
0.423834277144
  0
CIRCLE
  5
74E
330
1F
100
AcDbEntity
  8
media
 67
0
100
AcDbCircle
 10
17.0968222467
 20
22.4018620345
 40
0.596762379227
  0
CIRCLE
  5
74F
330
1F
100
AcDbEntity
  8
media
 67
0
100
AcDbCircle
 10
19.6609248108
 20
22.4018620345
 40
0.361359675484
  0
CIRCLE
  5
750
330
1F
100
AcDbEntity
  8
media
 67
0
100
AcDbCircle
 10
22.2250273749
 20
22.4018620345
 40
0.458242698693
  0
CIRCLE
  5
751
330
1F
100
AcDbEntity
  8
media
 67
0
100
AcDbCircle
 10
24.789129939
 20
22.4018620345
 40
0.754667792352
  0
CIRCLE
  5
752
330
1F
100
AcDbEntity
  8
media
 67
0
100
AcDbCircle
 10
27.3532325031
 20
22.4018620345
 40
0.510452714271
  0
CIRCLE
  5
753
330
1F
100
AcDbEntity
  8
media
 67
0
100
AcDbCircle
 10
29.9173350672
 20
22.4018620345
 40
0.464147278493
  0
CIRCLE
  5
754
330
1F
100
AcDbEntity
  8
media
 67
0
100
AcDbCircle
 10
32.4814376313
 20
22.4018620345
 40
0.531621046589
  0
CIRCLE
  5
755
330
1F
100
AcDbEntity
  8
media
 67
0
100
AcDbCircle
 10
35.0455401954
 20
22.4018620345
 40
0.430908023235
  0
CIRCLE
  5
756
330
1F
100
AcDbEntity
  8
media
 67
0
100
AcDbCircle
 10
37.6096427595
 20
22.4018620345
 40
0.48753676635
  0
CIRCLE
  5
757
330
1F
100
AcDbEntity
  8
media
 67
0
100
AcDbCircle
 10
40.1737453236
 20
22.4018620345
 40
0.543318242334
  0
CIRCLE
  5
758
330
1F
100
AcDbEntity
  8
media
 67
0
100
AcDbCircle
 10
42.7378478877
 20
22.4018620345
 40
0.576690993307
  0
CIRCLE
  5
759
330
1F
100
AcDbEntity
  8
media
 67
0
100
AcDbCircle
 10
45.3019504518
 20
22.4018620345
 40
0.644143218983
  0
CIRCLE
  5
75A
330
1F
100
AcDbEntity
  8
media
 67
0
100
AcDbCircle
 10
47.8660530159
 20
22.4018620345
 40
0.279039145038
  0
CIRCLE
  5
75B
330
1F
100
AcDbEntity
  8
media
 67
0
100
AcDbCircle
 10
50.43015558
 20
22.4018620345
 40
0.674496332462
  0
CIRCLE
  5
75C
330
1F
100
AcDbEntity
  8
media
 67
0
100
AcDbCircle
 10
52.9942581441
 20
22.4018620345
 40
0.518721962982
  0
CIRCLE
  5
75D
330
1F
100
AcDbEntity
  8
media
 67
0
100
AcDbCircle
 10
55.5583607082
 20
22.4018620345
 40
0.496532681476
  0
CIRCLE
  5
75E
330
1F
100
AcDbEntity
  8
media
 67
0
100
AcDbCircle
 10
58.1224632723
 20
22.4018620345
 40
0.736212189007
  0
CIRCLE
  5
75F
330
1F
100
AcDbEntity
  8
media
 67
0
100
AcDbCircle
 10
60.6865658364
 20
22.4018620345
 40
0.647229435509
  0
CIRCLE
  5
760
330
1F
100
AcDbEntity
  8
media
 67
0
100
AcDbCircle
 10
63.2506684005
 20
22.4018620345
 40
0.525936105866
  0
CIRCLE
  5
761
330
1F
100
AcDbEntity
  8
media
 67
0
100
AcDbCircle
 10
65.8147709646
 20
22.4018620345
 40
0.515483002509
  0
CIRCLE
  5
762
330
1F
100
AcDbEntity
  8
media
 67
0
100
AcDbCircle
 10
68.3788735287
 20
22.4018620345
 40
0.424886260749
  0
CIRCLE
  5
763
330
1F
100
AcDbEntity
  8
media
 67
0
100
AcDbCircle
 10
70.9429760928
 20
22.4018620345
 40
0.441216314852
  0
CIRCLE
  5
764
330
1F
100
AcDbEntity
  8
media
 67
0
100
AcDbCircle
 10
73.507078657
 20
22.4018620345
 40
0.472794470113
  0
CIRCLE
  5
765
330
1F
100
AcDbEntity
  8
media
 67
0
100
AcDbCircle
 10
76.0711812211
 20
22.4018620345
 40
0.407080174231
  0
CIRCLE
  5
766
330
1F
100
AcDbEntity
  8
media
 67
0
100
AcDbCircle
 10
78.6352837852
 20
22.4018620345
 40
0.510529996393
  0
CIRCLE
  5
767
330
1F
100
AcDbEntity
  8
media
 67
0
100
AcDbCircle
 10
81.1993863493
 20
22.4018620345
 40
0.418821137631
  0
CIRCLE
  5
768
330
1F
100
AcDbEntity
  8
media
 67
0
100
AcDbCircle
 10
83.7634889134
 20
22.4018620345
 40
0.472476369463
  0
CIRCLE
  5
769
330
1F
100
AcDbEntity
  8
media
 67
0
100
AcDbCircle
 10
86.3275914775
 20
22.4018620345
 40
0.448574764952
  0
CIRCLE
  5
76A
330
1F
100
AcDbEntity
  8
media
 67
0
100
AcDbCircle
 10
88.8916940416
 20
22.4018620345
 40
0.393858628441
  0
CIRCLE
  5
76B
330
1F
100
AcDbEntity
  8
media
 67
0
100
AcDbCircle
 10
91.4557966057
 20
22.4018620345
 40
0.415518855045
  0
CIRCLE
  5
76C
330
1F
100
AcDbEntity
  8
media
 67
0
100
AcDbCircle
 10
94.0198991698
 20
22.4018620345
 40
0.568913581837
  0
CIRCLE
  5
76D
330
1F
100
AcDbEntity
  8
media
 67
0
100
AcDbCircle
 10
96.5840017339
 20
22.4018620345
 40
0.540560958946
  0
CIRCLE
  5
76E
330
1F
100
AcDbEntity
  8
media
 67
0
100
AcDbCircle
 10
99.148104298
 20
22.4018620345
 40
0.498082350951
  0
CIRCLE
  5
76F
330
1F
100
AcDbEntity
  8
media
 67
0
100
AcDbCircle
 10
101.712206862
 20
22.4018620345
 40
0.498171884189
  0
CIRCLE
  5
770
330
1F
100
AcDbEntity
  8
media
 67
0
100
AcDbCircle
 10
1.71220686208
 20
24.1259999655
 40
0.635910025767
  0
CIRCLE
  5
771
330
1F
100
AcDbEntity
  8
media
 67
0
100
AcDbCircle
 10
4.27630942618
 20
24.1259999655
 40
0.33855435375
  0
CIRCLE
  5
772
330
1F
100
AcDbEntity
  8
media
 67
0
100
AcDbCircle
 10
6.84041199028
 20
24.1259999655
 40
0.455288864373
  0
CIRCLE
  5
773
330
1F
100
AcDbEntity
  8
media
 67
0
100
AcDbCircle
 10
9.40451455439
 20
24.1259999655
 40
0.454684786192
  0
CIRCLE
  5
774
330
1F
100
AcDbEntity
  8
media
 67
0
100
AcDbCircle
 10
11.9686171185
 20
24.1259999655
 40
0.61186382435
  0
CIRCLE
  5
775
330
1F
100
AcDbEntity
  8
media
 67
0
100
AcDbCircle
 10
14.5327196826
 20
24.1259999655
 40
0.578106497286
  0
CIRCLE
  5
776
330
1F
100
AcDbEntity
  8
media
 67
0
100
AcDbCircle
 10
17.0968222467
 20
24.1259999655
 40
0.491076096589
  0
CIRCLE
  5
777
330
1F
100
AcDbEntity
  8
media
 67
0
100
AcDbCircle
 10
19.6609248108
 20
24.1259999655
 40
0.592172401402
  0
CIRCLE
  5
778
330
1F
100
AcDbEntity
  8
media
 67
0
100
AcDbCircle
 10
22.2250273749
 20
24.1259999655
 40
0.553646430245
  0
CIRCLE
  5
779
330
1F
100
AcDbEntity
  8
media
 67
0
100
AcDbCircle
 10
24.789129939
 20
24.1259999655
 40
0.729082191463
  0
CIRCLE
  5
77A
330
1F
100
AcDbEntity
  8
media
 67
0
100
AcDbCircle
 10
27.3532325031
 20
24.1259999655
 40
0.554650752083
  0
CIRCLE
  5
77B
330
1F
100
AcDbEntity
  8
media
 67
0
100
AcDbCircle
 10
29.9173350672
 20
24.1259999655
 40
0.615502000983
  0
CIRCLE
  5
77C
330
1F
100
AcDbEntity
  8
media
 67
0
100
AcDbCircle
 10
32.4814376313
 20
24.1259999655
 40
0.512143126552
  0
CIRCLE
  5
77D
330
1F
100
AcDbEntity
  8
media
 67
0
100
AcDbCircle
 10
35.0455401954
 20
24.1259999655
 40
0.346886515729
  0
CIRCLE
  5
77E
330
1F
100
AcDbEntity
  8
media
 67
0
100
AcDbCircle
 10
37.6096427595
 20
24.1259999655
 40
0.564464536541
  0
CIRCLE
  5
77F
330
1F
100
AcDbEntity
  8
media
 67
0
100
AcDbCircle
 10
40.1737453236
 20
24.1259999655
 40
0.369042675692
  0
CIRCLE
  5
780
330
1F
100
AcDbEntity
  8
media
 67
0
100
AcDbCircle
 10
42.7378478877
 20
24.1259999655
 40
0.379071482793
  0
CIRCLE
  5
781
330
1F
100
AcDbEntity
  8
media
 67
0
100
AcDbCircle
 10
45.3019504518
 20
24.1259999655
 40
0.279132791221
  0
CIRCLE
  5
782
330
1F
100
AcDbEntity
  8
media
 67
0
100
AcDbCircle
 10
47.8660530159
 20
24.1259999655
 40
0.364743329444
  0
CIRCLE
  5
783
330
1F
100
AcDbEntity
  8
media
 67
0
100
AcDbCircle
 10
50.43015558
 20
24.1259999655
 40
0.424201780312
  0
CIRCLE
  5
784
330
1F
100
AcDbEntity
  8
media
 67
0
100
AcDbCircle
 10
52.9942581441
 20
24.1259999655
 40
0.533279630238
  0
CIRCLE
  5
785
330
1F
100
AcDbEntity
  8
media
 67
0
100
AcDbCircle
 10
55.5583607082
 20
24.1259999655
 40
0.317244284553
  0
CIRCLE
  5
786
330
1F
100
AcDbEntity
  8
media
 67
0
100
AcDbCircle
 10
58.1224632723
 20
24.1259999655
 40
0.617691260695
  0
CIRCLE
  5
787
330
1F
100
AcDbEntity
  8
media
 67
0
100
AcDbCircle
 10
60.6865658364
 20
24.1259999655
 40
0.513843903364
  0
CIRCLE
  5
788
330
1F
100
AcDbEntity
  8
media
 67
0
100
AcDbCircle
 10
63.2506684005
 20
24.1259999655
 40
0.442377161552
  0
CIRCLE
  5
789
330
1F
100
AcDbEntity
  8
media
 67
0
100
AcDbCircle
 10
65.8147709646
 20
24.1259999655
 40
0.585723042788
  0
CIRCLE
  5
78A
330
1F
100
AcDbEntity
  8
media
 67
0
100
AcDbCircle
 10
68.3788735287
 20
24.1259999655
 40
0.410378306277
  0
CIRCLE
  5
78B
330
1F
100
AcDbEntity
  8
media
 67
0
100
AcDbCircle
 10
70.9429760928
 20
24.1259999655
 40
0.457563277923
  0
CIRCLE
  5
78C
330
1F
100
AcDbEntity
  8
media
 67
0
100
AcDbCircle
 10
73.507078657
 20
24.1259999655
 40
0.488417717626
  0
CIRCLE
  5
78D
330
1F
100
AcDbEntity
  8
media
 67
0
100
AcDbCircle
 10
76.0711812211
 20
24.1259999655
 40
0.60076266773
  0
CIRCLE
  5
78E
330
1F
100
AcDbEntity
  8
media
 67
0
100
AcDbCircle
 10
78.6352837852
 20
24.1259999655
 40
0.328362206268
  0
CIRCLE
  5
78F
330
1F
100
AcDbEntity
  8
media
 67
0
100
AcDbCircle
 10
81.1993863493
 20
24.1259999655
 40
0.454302327072
  0
CIRCLE
  5
790
330
1F
100
AcDbEntity
  8
media
 67
0
100
AcDbCircle
 10
83.7634889134
 20
24.1259999655
 40
0.550101552446
  0
CIRCLE
  5
791
330
1F
100
AcDbEntity
  8
media
 67
0
100
AcDbCircle
 10
86.3275914775
 20
24.1259999655
 40
0.610030172977
  0
CIRCLE
  5
792
330
1F
100
AcDbEntity
  8
media
 67
0
100
AcDbCircle
 10
88.8916940416
 20
24.1259999655
 40
0.363721365846
  0
CIRCLE
  5
793
330
1F
100
AcDbEntity
  8
media
 67
0
100
AcDbCircle
 10
91.4557966057
 20
24.1259999655
 40
0.68556963752
  0
CIRCLE
  5
794
330
1F
100
AcDbEntity
  8
media
 67
0
100
AcDbCircle
 10
94.0198991698
 20
24.1259999655
 40
0.426767940583
  0
CIRCLE
  5
795
330
1F
100
AcDbEntity
  8
media
 67
0
100
AcDbCircle
 10
96.5840017339
 20
24.1259999655
 40
0.667216419375
  0
CIRCLE
  5
796
330
1F
100
AcDbEntity
  8
media
 67
0
100
AcDbCircle
 10
99.148104298
 20
24.1259999655
 40
0.472382209657
  0
CIRCLE
  5
797
330
1F
100
AcDbEntity
  8
media
 67
0
100
AcDbCircle
 10
101.712206862
 20
24.1259999655
 40
0.476989140998
  0
CIRCLE
  5
798
330
1F
100
AcDbEntity
  8
media
 67
0
100
AcDbCircle
 10
1.71220686208
 20
25.8501378966
 40
0.626798279358
  0
CIRCLE
  5
799
330
1F
100
AcDbEntity
  8
media
 67
0
100
AcDbCircle
 10
4.27630942618
 20
25.8501378966
 40
0.417586514852
  0
CIRCLE
  5
79A
330
1F
100
AcDbEntity
  8
media
 67
0
100
AcDbCircle
 10
6.84041199028
 20
25.8501378966
 40
0.456089313099
  0
CIRCLE
  5
79B
330
1F
100
AcDbEntity
  8
media
 67
0
100
AcDbCircle
 10
9.40451455439
 20
25.8501378966
 40
0.281852041748
  0
CIRCLE
  5
79C
330
1F
100
AcDbEntity
  8
media
 67
0
100
AcDbCircle
 10
11.9686171185
 20
25.8501378966
 40
0.350627460079
  0
CIRCLE
  5
79D
330
1F
100
AcDbEntity
  8
media
 67
0
100
AcDbCircle
 10
14.5327196826
 20
25.8501378966
 40
0.481134074026
  0
CIRCLE
  5
79E
330
1F
100
AcDbEntity
  8
media
 67
0
100
AcDbCircle
 10
17.0968222467
 20
25.8501378966
 40
0.373470343622
  0
CIRCLE
  5
79F
330
1F
100
AcDbEntity
  8
media
 67
0
100
AcDbCircle
 10
19.6609248108
 20
25.8501378966
 40
0.43125325351
  0
CIRCLE
  5
7A0
330
1F
100
AcDbEntity
  8
media
 67
0
100
AcDbCircle
 10
22.2250273749
 20
25.8501378966
 40
0.403505387148
  0
CIRCLE
  5
7A1
330
1F
100
AcDbEntity
  8
media
 67
0
100
AcDbCircle
 10
24.789129939
 20
25.8501378966
 40
0.432614719226
  0
CIRCLE
  5
7A2
330
1F
100
AcDbEntity
  8
media
 67
0
100
AcDbCircle
 10
27.3532325031
 20
25.8501378966
 40
0.676523648295
  0
CIRCLE
  5
7A3
330
1F
100
AcDbEntity
  8
media
 67
0
100
AcDbCircle
 10
29.9173350672
 20
25.8501378966
 40
0.501033892305
  0
CIRCLE
  5
7A4
330
1F
100
AcDbEntity
  8
media
 67
0
100
AcDbCircle
 10
32.4814376313
 20
25.8501378966
 40
0.498976445463
  0
CIRCLE
  5
7A5
330
1F
100
AcDbEntity
  8
media
 67
0
100
AcDbCircle
 10
35.0455401954
 20
25.8501378966
 40
0.532335655669
  0
CIRCLE
  5
7A6
330
1F
100
AcDbEntity
  8
media
 67
0
100
AcDbCircle
 10
37.6096427595
 20
25.8501378966
 40
0.523751548247
  0
CIRCLE
  5
7A7
330
1F
100
AcDbEntity
  8
media
 67
0
100
AcDbCircle
 10
40.1737453236
 20
25.8501378966
 40
0.618656017941
  0
CIRCLE
  5
7A8
330
1F
100
AcDbEntity
  8
media
 67
0
100
AcDbCircle
 10
42.7378478877
 20
25.8501378966
 40
0.556344557699
  0
CIRCLE
  5
7A9
330
1F
100
AcDbEntity
  8
media
 67
0
100
AcDbCircle
 10
45.3019504518
 20
25.8501378966
 40
0.534918686729
  0
CIRCLE
  5
7AA
330
1F
100
AcDbEntity
  8
media
 67
0
100
AcDbCircle
 10
47.8660530159
 20
25.8501378966
 40
0.645763111507
  0
CIRCLE
  5
7AB
330
1F
100
AcDbEntity
  8
media
 67
0
100
AcDbCircle
 10
50.43015558
 20
25.8501378966
 40
0.525708732679
  0
CIRCLE
  5
7AC
330
1F
100
AcDbEntity
  8
media
 67
0
100
AcDbCircle
 10
52.9942581441
 20
25.8501378966
 40
0.467756591466
  0
CIRCLE
  5
7AD
330
1F
100
AcDbEntity
  8
media
 67
0
100
AcDbCircle
 10
55.5583607082
 20
25.8501378966
 40
0.561578621353
  0
CIRCLE
  5
7AE
330
1F
100
AcDbEntity
  8
media
 67
0
100
AcDbCircle
 10
58.1224632723
 20
25.8501378966
 40
0.415223130511
  0
CIRCLE
  5
7AF
330
1F
100
AcDbEntity
  8
media
 67
0
100
AcDbCircle
 10
60.6865658364
 20
25.8501378966
 40
0.57054479356
  0
CIRCLE
  5
7B0
330
1F
100
AcDbEntity
  8
media
 67
0
100
AcDbCircle
 10
63.2506684005
 20
25.8501378966
 40
0.485572383298
  0
CIRCLE
  5
7B1
330
1F
100
AcDbEntity
  8
media
 67
0
100
AcDbCircle
 10
65.8147709646
 20
25.8501378966
 40
0.449606648481
  0
CIRCLE
  5
7B2
330
1F
100
AcDbEntity
  8
media
 67
0
100
AcDbCircle
 10
68.3788735287
 20
25.8501378966
 40
0.486951955154
  0
CIRCLE
  5
7B3
330
1F
100
AcDbEntity
  8
media
 67
0
100
AcDbCircle
 10
70.9429760928
 20
25.8501378966
 40
0.49019445058
  0
CIRCLE
  5
7B4
330
1F
100
AcDbEntity
  8
media
 67
0
100
AcDbCircle
 10
73.507078657
 20
25.8501378966
 40
0.254505910396
  0
CIRCLE
  5
7B5
330
1F
100
AcDbEntity
  8
media
 67
0
100
AcDbCircle
 10
76.0711812211
 20
25.8501378966
 40
0.428895526855
  0
CIRCLE
  5
7B6
330
1F
100
AcDbEntity
  8
media
 67
0
100
AcDbCircle
 10
78.6352837852
 20
25.8501378966
 40
0.458028366146
  0
CIRCLE
  5
7B7
330
1F
100
AcDbEntity
  8
media
 67
0
100
AcDbCircle
 10
81.1993863493
 20
25.8501378966
 40
0.477095855455
  0
CIRCLE
  5
7B8
330
1F
100
AcDbEntity
  8
media
 67
0
100
AcDbCircle
 10
83.7634889134
 20
25.8501378966
 40
0.354434193425
  0
CIRCLE
  5
7B9
330
1F
100
AcDbEntity
  8
media
 67
0
100
AcDbCircle
 10
86.3275914775
 20
25.8501378966
 40
0.489163065716
  0
CIRCLE
  5
7BA
330
1F
100
AcDbEntity
  8
media
 67
0
100
AcDbCircle
 10
88.8916940416
 20
25.8501378966
 40
0.39696819908
  0
CIRCLE
  5
7BB
330
1F
100
AcDbEntity
  8
media
 67
0
100
AcDbCircle
 10
91.4557966057
 20
25.8501378966
 40
0.473095788134
  0
CIRCLE
  5
7BC
330
1F
100
AcDbEntity
  8
media
 67
0
100
AcDbCircle
 10
94.0198991698
 20
25.8501378966
 40
0.493042325835
  0
CIRCLE
  5
7BD
330
1F
100
AcDbEntity
  8
media
 67
0
100
AcDbCircle
 10
96.5840017339
 20
25.8501378966
 40
0.522483216079
  0
CIRCLE
  5
7BE
330
1F
100
AcDbEntity
  8
media
 67
0
100
AcDbCircle
 10
99.148104298
 20
25.8501378966
 40
0.503091437962
  0
CIRCLE
  5
7BF
330
1F
100
AcDbEntity
  8
media
 67
0
100
AcDbCircle
 10
101.712206862
 20
25.8501378966
 40
0.413562682017
  0
CIRCLE
  5
7C0
330
1F
100
AcDbEntity
  8
media
 67
0
100
AcDbCircle
 10
1.71220686208
 20
27.5742758276
 40
0.576724200602
  0
CIRCLE
  5
7C1
330
1F
100
AcDbEntity
  8
media
 67
0
100
AcDbCircle
 10
4.27630942618
 20
27.5742758276
 40
0.418042316806
  0
CIRCLE
  5
7C2
330
1F
100
AcDbEntity
  8
media
 67
0
100
AcDbCircle
 10
6.84041199028
 20
27.5742758276
 40
0.518457233311
  0
CIRCLE
  5
7C3
330
1F
100
AcDbEntity
  8
media
 67
0
100
AcDbCircle
 10
9.40451455439
 20
27.5742758276
 40
0.382475999705
  0
CIRCLE
  5
7C4
330
1F
100
AcDbEntity
  8
media
 67
0
100
AcDbCircle
 10
11.9686171185
 20
27.5742758276
 40
0.436514812218
  0
CIRCLE
  5
7C5
330
1F
100
AcDbEntity
  8
media
 67
0
100
AcDbCircle
 10
14.5327196826
 20
27.5742758276
 40
0.505286082773
  0
CIRCLE
  5
7C6
330
1F
100
AcDbEntity
  8
media
 67
0
100
AcDbCircle
 10
17.0968222467
 20
27.5742758276
 40
0.612171509758
  0
CIRCLE
  5
7C7
330
1F
100
AcDbEntity
  8
media
 67
0
100
AcDbCircle
 10
19.6609248108
 20
27.5742758276
 40
0.524615163201
  0
CIRCLE
  5
7C8
330
1F
100
AcDbEntity
  8
media
 67
0
100
AcDbCircle
 10
22.2250273749
 20
27.5742758276
 40
0.524991102636
  0
CIRCLE
  5
7C9
330
1F
100
AcDbEntity
  8
media
 67
0
100
AcDbCircle
 10
24.789129939
 20
27.5742758276
 40
0.4109042835
  0
CIRCLE
  5
7CA
330
1F
100
AcDbEntity
  8
media
 67
0
100
AcDbCircle
 10
27.3532325031
 20
27.5742758276
 40
0.592562321401
  0
CIRCLE
  5
7CB
330
1F
100
AcDbEntity
  8
media
 67
0
100
AcDbCircle
 10
29.9173350672
 20
27.5742758276
 40
0.469361605039
  0
CIRCLE
  5
7CC
330
1F
100
AcDbEntity
  8
media
 67
0
100
AcDbCircle
 10
32.4814376313
 20
27.5742758276
 40
0.564575364705
  0
CIRCLE
  5
7CD
330
1F
100
AcDbEntity
  8
media
 67
0
100
AcDbCircle
 10
35.0455401954
 20
27.5742758276
 40
0.448973015004
  0
CIRCLE
  5
7CE
330
1F
100
AcDbEntity
  8
media
 67
0
100
AcDbCircle
 10
37.6096427595
 20
27.5742758276
 40
0.459752902888
  0
CIRCLE
  5
7CF
330
1F
100
AcDbEntity
  8
media
 67
0
100
AcDbCircle
 10
40.1737453236
 20
27.5742758276
 40
0.463694025103
  0
CIRCLE
  5
7D0
330
1F
100
AcDbEntity
  8
media
 67
0
100
AcDbCircle
 10
42.7378478877
 20
27.5742758276
 40
0.593558076205
  0
CIRCLE
  5
7D1
330
1F
100
AcDbEntity
  8
media
 67
0
100
AcDbCircle
 10
45.3019504518
 20
27.5742758276
 40
0.580079456938
  0
CIRCLE
  5
7D2
330
1F
100
AcDbEntity
  8
media
 67
0
100
AcDbCircle
 10
47.8660530159
 20
27.5742758276
 40
0.424716657295
  0
CIRCLE
  5
7D3
330
1F
100
AcDbEntity
  8
media
 67
0
100
AcDbCircle
 10
50.43015558
 20
27.5742758276
 40
0.391392061279
  0
CIRCLE
  5
7D4
330
1F
100
AcDbEntity
  8
media
 67
0
100
AcDbCircle
 10
52.9942581441
 20
27.5742758276
 40
0.429245229934
  0
CIRCLE
  5
7D5
330
1F
100
AcDbEntity
  8
media
 67
0
100
AcDbCircle
 10
55.5583607082
 20
27.5742758276
 40
0.624801545923
  0
CIRCLE
  5
7D6
330
1F
100
AcDbEntity
  8
media
 67
0
100
AcDbCircle
 10
58.1224632723
 20
27.5742758276
 40
0.482600414904
  0
CIRCLE
  5
7D7
330
1F
100
AcDbEntity
  8
media
 67
0
100
AcDbCircle
 10
60.6865658364
 20
27.5742758276
 40
0.658312517427
  0
CIRCLE
  5
7D8
330
1F
100
AcDbEntity
  8
media
 67
0
100
AcDbCircle
 10
63.2506684005
 20
27.5742758276
 40
0.556882122065
  0
CIRCLE
  5
7D9
330
1F
100
AcDbEntity
  8
media
 67
0
100
AcDbCircle
 10
65.8147709646
 20
27.5742758276
 40
0.356498449852
  0
CIRCLE
  5
7DA
330
1F
100
AcDbEntity
  8
media
 67
0
100
AcDbCircle
 10
68.3788735287
 20
27.5742758276
 40
0.555830124897
  0
CIRCLE
  5
7DB
330
1F
100
AcDbEntity
  8
media
 67
0
100
AcDbCircle
 10
70.9429760928
 20
27.5742758276
 40
0.451216064946
  0
CIRCLE
  5
7DC
330
1F
100
AcDbEntity
  8
media
 67
0
100
AcDbCircle
 10
73.507078657
 20
27.5742758276
 40
0.390069468791
  0
CIRCLE
  5
7DD
330
1F
100
AcDbEntity
  8
media
 67
0
100
AcDbCircle
 10
76.0711812211
 20
27.5742758276
 40
0.471304139248
  0
CIRCLE
  5
7DE
330
1F
100
AcDbEntity
  8
media
 67
0
100
AcDbCircle
 10
78.6352837852
 20
27.5742758276
 40
0.515200765397
  0
CIRCLE
  5
7DF
330
1F
100
AcDbEntity
  8
media
 67
0
100
AcDbCircle
 10
81.1993863493
 20
27.5742758276
 40
0.546086677014
  0
CIRCLE
  5
7E0
330
1F
100
AcDbEntity
  8
media
 67
0
100
AcDbCircle
 10
83.7634889134
 20
27.5742758276
 40
0.507598253779
  0
CIRCLE
  5
7E1
330
1F
100
AcDbEntity
  8
media
 67
0
100
AcDbCircle
 10
86.3275914775
 20
27.5742758276
 40
0.683645341905
  0
CIRCLE
  5
7E2
330
1F
100
AcDbEntity
  8
media
 67
0
100
AcDbCircle
 10
88.8916940416
 20
27.5742758276
 40
0.488465859675
  0
CIRCLE
  5
7E3
330
1F
100
AcDbEntity
  8
media
 67
0
100
AcDbCircle
 10
91.4557966057
 20
27.5742758276
 40
0.542430533357
  0
CIRCLE
  5
7E4
330
1F
100
AcDbEntity
  8
media
 67
0
100
AcDbCircle
 10
94.0198991698
 20
27.5742758276
 40
0.597629509872
  0
CIRCLE
  5
7E5
330
1F
100
AcDbEntity
  8
media
 67
0
100
AcDbCircle
 10
96.5840017339
 20
27.5742758276
 40
0.641449234179
  0
CIRCLE
  5
7E6
330
1F
100
AcDbEntity
  8
media
 67
0
100
AcDbCircle
 10
99.148104298
 20
27.5742758276
 40
0.547980860408
  0
CIRCLE
  5
7E7
330
1F
100
AcDbEntity
  8
media
 67
0
100
AcDbCircle
 10
101.712206862
 20
27.5742758276
 40
0.416780523719
  0
CIRCLE
  5
7E8
330
1F
100
AcDbEntity
  8
media
 67
0
100
AcDbCircle
 10
1.71220686208
 20
29.2984137586
 40
0.361117007876
  0
CIRCLE
  5
7E9
330
1F
100
AcDbEntity
  8
media
 67
0
100
AcDbCircle
 10
4.27630942618
 20
29.2984137586
 40
0.580249649386
  0
CIRCLE
  5
7EA
330
1F
100
AcDbEntity
  8
media
 67
0
100
AcDbCircle
 10
6.84041199028
 20
29.2984137586
 40
0.610647214565
  0
CIRCLE
  5
7EB
330
1F
100
AcDbEntity
  8
media
 67
0
100
AcDbCircle
 10
9.40451455439
 20
29.2984137586
 40
0.551155080773
  0
CIRCLE
  5
7EC
330
1F
100
AcDbEntity
  8
media
 67
0
100
AcDbCircle
 10
11.9686171185
 20
29.2984137586
 40
0.580078514802
  0
CIRCLE
  5
7ED
330
1F
100
AcDbEntity
  8
media
 67
0
100
AcDbCircle
 10
14.5327196826
 20
29.2984137586
 40
0.448142545239
  0
CIRCLE
  5
7EE
330
1F
100
AcDbEntity
  8
media
 67
0
100
AcDbCircle
 10
17.0968222467
 20
29.2984137586
 40
0.728120661896
  0
CIRCLE
  5
7EF
330
1F
100
AcDbEntity
  8
media
 67
0
100
AcDbCircle
 10
19.6609248108
 20
29.2984137586
 40
0.344717077428
  0
CIRCLE
  5
7F0
330
1F
100
AcDbEntity
  8
media
 67
0
100
AcDbCircle
 10
22.2250273749
 20
29.2984137586
 40
0.376719764448
  0
CIRCLE
  5
7F1
330
1F
100
AcDbEntity
  8
media
 67
0
100
AcDbCircle
 10
24.789129939
 20
29.2984137586
 40
0.414594055909
  0
CIRCLE
  5
7F2
330
1F
100
AcDbEntity
  8
media
 67
0
100
AcDbCircle
 10
27.3532325031
 20
29.2984137586
 40
0.489765145804
  0
CIRCLE
  5
7F3
330
1F
100
AcDbEntity
  8
media
 67
0
100
AcDbCircle
 10
29.9173350672
 20
29.2984137586
 40
0.282308557887
  0
CIRCLE
  5
7F4
330
1F
100
AcDbEntity
  8
media
 67
0
100
AcDbCircle
 10
32.4814376313
 20
29.2984137586
 40
0.592102421194
  0
CIRCLE
  5
7F5
330
1F
100
AcDbEntity
  8
media
 67
0
100
AcDbCircle
 10
35.0455401954
 20
29.2984137586
 40
0.47112321362
  0
CIRCLE
  5
7F6
330
1F
100
AcDbEntity
  8
media
 67
0
100
AcDbCircle
 10
37.6096427595
 20
29.2984137586
 40
0.498597322158
  0
CIRCLE
  5
7F7
330
1F
100
AcDbEntity
  8
media
 67
0
100
AcDbCircle
 10
40.1737453236
 20
29.2984137586
 40
0.439919073111
  0
CIRCLE
  5
7F8
330
1F
100
AcDbEntity
  8
media
 67
0
100
AcDbCircle
 10
42.7378478877
 20
29.2984137586
 40
0.698375371597
  0
CIRCLE
  5
7F9
330
1F
100
AcDbEntity
  8
media
 67
0
100
AcDbCircle
 10
45.3019504518
 20
29.2984137586
 40
0.579003960337
  0
CIRCLE
  5
7FA
330
1F
100
AcDbEntity
  8
media
 67
0
100
AcDbCircle
 10
47.8660530159
 20
29.2984137586
 40
0.325823882655
  0
CIRCLE
  5
7FB
330
1F
100
AcDbEntity
  8
media
 67
0
100
AcDbCircle
 10
50.43015558
 20
29.2984137586
 40
0.339330692419
  0
CIRCLE
  5
7FC
330
1F
100
AcDbEntity
  8
media
 67
0
100
AcDbCircle
 10
52.9942581441
 20
29.2984137586
 40
0.498909313697
  0
CIRCLE
  5
7FD
330
1F
100
AcDbEntity
  8
media
 67
0
100
AcDbCircle
 10
55.5583607082
 20
29.2984137586
 40
0.538516688242
  0
CIRCLE
  5
7FE
330
1F
100
AcDbEntity
  8
media
 67
0
100
AcDbCircle
 10
58.1224632723
 20
29.2984137586
 40
0.496363857344
  0
CIRCLE
  5
7FF
330
1F
100
AcDbEntity
  8
media
 67
0
100
AcDbCircle
 10
60.6865658364
 20
29.2984137586
 40
0.41886990278
  0
CIRCLE
  5
800
330
1F
100
AcDbEntity
  8
media
 67
0
100
AcDbCircle
 10
63.2506684005
 20
29.2984137586
 40
0.385496143764
  0
CIRCLE
  5
801
330
1F
100
AcDbEntity
  8
media
 67
0
100
AcDbCircle
 10
65.8147709646
 20
29.2984137586
 40
0.45990176052
  0
CIRCLE
  5
802
330
1F
100
AcDbEntity
  8
media
 67
0
100
AcDbCircle
 10
68.3788735287
 20
29.2984137586
 40
0.48231010808
  0
CIRCLE
  5
803
330
1F
100
AcDbEntity
  8
media
 67
0
100
AcDbCircle
 10
70.9429760928
 20
29.2984137586
 40
0.478726458029
  0
CIRCLE
  5
804
330
1F
100
AcDbEntity
  8
media
 67
0
100
AcDbCircle
 10
73.507078657
 20
29.2984137586
 40
0.463595548411
  0
CIRCLE
  5
805
330
1F
100
AcDbEntity
  8
media
 67
0
100
AcDbCircle
 10
76.0711812211
 20
29.2984137586
 40
0.505136204024
  0
CIRCLE
  5
806
330
1F
100
AcDbEntity
  8
media
 67
0
100
AcDbCircle
 10
78.6352837852
 20
29.2984137586
 40
0.46714069031
  0
CIRCLE
  5
807
330
1F
100
AcDbEntity
  8
media
 67
0
100
AcDbCircle
 10
81.1993863493
 20
29.2984137586
 40
0.63987794426
  0
CIRCLE
  5
808
330
1F
100
AcDbEntity
  8
media
 67
0
100
AcDbCircle
 10
83.7634889134
 20
29.2984137586
 40
0.467733600912
  0
CIRCLE
  5
809
330
1F
100
AcDbEntity
  8
media
 67
0
100
AcDbCircle
 10
86.3275914775
 20
29.2984137586
 40
0.460280242615
  0
CIRCLE
  5
80A
330
1F
100
AcDbEntity
  8
media
 67
0
100
AcDbCircle
 10
88.8916940416
 20
29.2984137586
 40
0.502599472692
  0
CIRCLE
  5
80B
330
1F
100
AcDbEntity
  8
media
 67
0
100
AcDbCircle
 10
91.4557966057
 20
29.2984137586
 40
0.583713122977
  0
CIRCLE
  5
80C
330
1F
100
AcDbEntity
  8
media
 67
0
100
AcDbCircle
 10
94.0198991698
 20
29.2984137586
 40
0.369098458598
  0
CIRCLE
  5
80D
330
1F
100
AcDbEntity
  8
media
 67
0
100
AcDbCircle
 10
96.5840017339
 20
29.2984137586
 40
0.46908328682
  0
CIRCLE
  5
80E
330
1F
100
AcDbEntity
  8
media
 67
0
100
AcDbCircle
 10
99.148104298
 20
29.2984137586
 40
0.590517118325
  0
CIRCLE
  5
80F
330
1F
100
AcDbEntity
  8
media
 67
0
100
AcDbCircle
 10
101.712206862
 20
29.2984137586
 40
0.476527238398
  0
CIRCLE
  5
810
330
1F
100
AcDbEntity
  8
media
 67
0
100
AcDbCircle
 10
1.71220686208
 20
31.0225516897
 40
0.545852566682
  0
CIRCLE
  5
811
330
1F
100
AcDbEntity
  8
media
 67
0
100
AcDbCircle
 10
4.27630942618
 20
31.0225516897
 40
0.435907180131
  0
CIRCLE
  5
812
330
1F
100
AcDbEntity
  8
media
 67
0
100
AcDbCircle
 10
6.84041199028
 20
31.0225516897
 40
0.333968466315
  0
CIRCLE
  5
813
330
1F
100
AcDbEntity
  8
media
 67
0
100
AcDbCircle
 10
9.40451455439
 20
31.0225516897
 40
0.441269491316
  0
CIRCLE
  5
814
330
1F
100
AcDbEntity
  8
media
 67
0
100
AcDbCircle
 10
11.9686171185
 20
31.0225516897
 40
0.453357506828
  0
CIRCLE
  5
815
330
1F
100
AcDbEntity
  8
media
 67
0
100
AcDbCircle
 10
14.5327196826
 20
31.0225516897
 40
0.701567123373
  0
CIRCLE
  5
816
330
1F
100
AcDbEntity
  8
media
 67
0
100
AcDbCircle
 10
17.0968222467
 20
31.0225516897
 40
0.320678054936
  0
CIRCLE
  5
817
330
1F
100
AcDbEntity
  8
media
 67
0
100
AcDbCircle
 10
19.6609248108
 20
31.0225516897
 40
0.517974788997
  0
CIRCLE
  5
818
330
1F
100
AcDbEntity
  8
media
 67
0
100
AcDbCircle
 10
22.2250273749
 20
31.0225516897
 40
0.409377668353
  0
CIRCLE
  5
819
330
1F
100
AcDbEntity
  8
media
 67
0
100
AcDbCircle
 10
24.789129939
 20
31.0225516897
 40
0.56393634417
  0
CIRCLE
  5
81A
330
1F
100
AcDbEntity
  8
media
 67
0
100
AcDbCircle
 10
27.3532325031
 20
31.0225516897
 40
0.518502631876
  0
CIRCLE
  5
81B
330
1F
100
AcDbEntity
  8
media
 67
0
100
AcDbCircle
 10
29.9173350672
 20
31.0225516897
 40
0.44375619616
  0
CIRCLE
  5
81C
330
1F
100
AcDbEntity
  8
media
 67
0
100
AcDbCircle
 10
32.4814376313
 20
31.0225516897
 40
0.385194479012
  0
CIRCLE
  5
81D
330
1F
100
AcDbEntity
  8
media
 67
0
100
AcDbCircle
 10
35.0455401954
 20
31.0225516897
 40
0.603132674192
  0
CIRCLE
  5
81E
330
1F
100
AcDbEntity
  8
media
 67
0
100
AcDbCircle
 10
37.6096427595
 20
31.0225516897
 40
0.6039737637
  0
CIRCLE
  5
81F
330
1F
100
AcDbEntity
  8
media
 67
0
100
AcDbCircle
 10
40.1737453236
 20
31.0225516897
 40
0.435793365619
  0
CIRCLE
  5
820
330
1F
100
AcDbEntity
  8
media
 67
0
100
AcDbCircle
 10
42.7378478877
 20
31.0225516897
 40
0.488127419998
  0
CIRCLE
  5
821
330
1F
100
AcDbEntity
  8
media
 67
0
100
AcDbCircle
 10
45.3019504518
 20
31.0225516897
 40
0.568515998286
  0
CIRCLE
  5
822
330
1F
100
AcDbEntity
  8
media
 67
0
100
AcDbCircle
 10
47.8660530159
 20
31.0225516897
 40
0.646889330832
  0
CIRCLE
  5
823
330
1F
100
AcDbEntity
  8
media
 67
0
100
AcDbCircle
 10
50.43015558
 20
31.0225516897
 40
0.289371462774
  0
CIRCLE
  5
824
330
1F
100
AcDbEntity
  8
media
 67
0
100
AcDbCircle
 10
52.9942581441
 20
31.0225516897
 40
0.460933597944
  0
CIRCLE
  5
825
330
1F
100
AcDbEntity
  8
media
 67
0
100
AcDbCircle
 10
55.5583607082
 20
31.0225516897
 40
0.468468595924
  0
CIRCLE
  5
826
330
1F
100
AcDbEntity
  8
media
 67
0
100
AcDbCircle
 10
58.1224632723
 20
31.0225516897
 40
0.546198333487
  0
CIRCLE
  5
827
330
1F
100
AcDbEntity
  8
media
 67
0
100
AcDbCircle
 10
60.6865658364
 20
31.0225516897
 40
0.313639377518
  0
CIRCLE
  5
828
330
1F
100
AcDbEntity
  8
media
 67
0
100
AcDbCircle
 10
63.2506684005
 20
31.0225516897
 40
0.468249279968
  0
CIRCLE
  5
829
330
1F
100
AcDbEntity
  8
media
 67
0
100
AcDbCircle
 10
65.8147709646
 20
31.0225516897
 40
0.604682565795
  0
CIRCLE
  5
82A
330
1F
100
AcDbEntity
  8
media
 67
0
100
AcDbCircle
 10
68.3788735287
 20
31.0225516897
 40
0.570692672952
  0
CIRCLE
  5
82B
330
1F
100
AcDbEntity
  8
media
 67
0
100
AcDbCircle
 10
70.9429760928
 20
31.0225516897
 40
0.708161120423
  0
CIRCLE
  5
82C
330
1F
100
AcDbEntity
  8
media
 67
0
100
AcDbCircle
 10
73.507078657
 20
31.0225516897
 40
0.436810456866
  0
CIRCLE
  5
82D
330
1F
100
AcDbEntity
  8
media
 67
0
100
AcDbCircle
 10
76.0711812211
 20
31.0225516897
 40
0.495256607257
  0
CIRCLE
  5
82E
330
1F
100
AcDbEntity
  8
media
 67
0
100
AcDbCircle
 10
78.6352837852
 20
31.0225516897
 40
0.521344285048
  0
CIRCLE
  5
82F
330
1F
100
AcDbEntity
  8
media
 67
0
100
AcDbCircle
 10
81.1993863493
 20
31.0225516897
 40
0.585595498185
  0
CIRCLE
  5
830
330
1F
100
AcDbEntity
  8
media
 67
0
100
AcDbCircle
 10
83.7634889134
 20
31.0225516897
 40
0.377527464735
  0
CIRCLE
  5
831
330
1F
100
AcDbEntity
  8
media
 67
0
100
AcDbCircle
 10
86.3275914775
 20
31.0225516897
 40
0.238526962288
  0
CIRCLE
  5
832
330
1F
100
AcDbEntity
  8
media
 67
0
100
AcDbCircle
 10
88.8916940416
 20
31.0225516897
 40
0.627140271791
  0
CIRCLE
  5
833
330
1F
100
AcDbEntity
  8
media
 67
0
100
AcDbCircle
 10
91.4557966057
 20
31.0225516897
 40
0.55804636259
  0
CIRCLE
  5
834
330
1F
100
AcDbEntity
  8
media
 67
0
100
AcDbCircle
 10
94.0198991698
 20
31.0225516897
 40
0.85610343104
  0
CIRCLE
  5
835
330
1F
100
AcDbEntity
  8
media
 67
0
100
AcDbCircle
 10
96.5840017339
 20
31.0225516897
 40
0.532345604495
  0
CIRCLE
  5
836
330
1F
100
AcDbEntity
  8
media
 67
0
100
AcDbCircle
 10
99.148104298
 20
31.0225516897
 40
0.372831980824
  0
CIRCLE
  5
837
330
1F
100
AcDbEntity
  8
media
 67
0
100
AcDbCircle
 10
101.712206862
 20
31.0225516897
 40
0.576971111437
  0
CIRCLE
  5
838
330
1F
100
AcDbEntity
  8
media
 67
0
100
AcDbCircle
 10
1.71220686208
 20
32.7466896207
 40
0.394857872165
  0
CIRCLE
  5
839
330
1F
100
AcDbEntity
  8
media
 67
0
100
AcDbCircle
 10
4.27630942618
 20
32.7466896207
 40
0.597083931817
  0
CIRCLE
  5
83A
330
1F
100
AcDbEntity
  8
media
 67
0
100
AcDbCircle
 10
6.84041199028
 20
32.7466896207
 40
0.347096054652
  0
CIRCLE
  5
83B
330
1F
100
AcDbEntity
  8
media
 67
0
100
AcDbCircle
 10
9.40451455439
 20
32.7466896207
 40
0.481482214318
  0
CIRCLE
  5
83C
330
1F
100
AcDbEntity
  8
media
 67
0
100
AcDbCircle
 10
11.9686171185
 20
32.7466896207
 40
0.400136138646
  0
CIRCLE
  5
83D
330
1F
100
AcDbEntity
  8
media
 67
0
100
AcDbCircle
 10
14.5327196826
 20
32.7466896207
 40
0.672141398829
  0
CIRCLE
  5
83E
330
1F
100
AcDbEntity
  8
media
 67
0
100
AcDbCircle
 10
17.0968222467
 20
32.7466896207
 40
0.513366124727
  0
CIRCLE
  5
83F
330
1F
100
AcDbEntity
  8
media
 67
0
100
AcDbCircle
 10
19.6609248108
 20
32.7466896207
 40
0.41758712077
  0
CIRCLE
  5
840
330
1F
100
AcDbEntity
  8
media
 67
0
100
AcDbCircle
 10
22.2250273749
 20
32.7466896207
 40
0.485732965568
  0
CIRCLE
  5
841
330
1F
100
AcDbEntity
  8
media
 67
0
100
AcDbCircle
 10
24.789129939
 20
32.7466896207
 40
0.422221499194
  0
CIRCLE
  5
842
330
1F
100
AcDbEntity
  8
media
 67
0
100
AcDbCircle
 10
27.3532325031
 20
32.7466896207
 40
0.635552210853
  0
CIRCLE
  5
843
330
1F
100
AcDbEntity
  8
media
 67
0
100
AcDbCircle
 10
29.9173350672
 20
32.7466896207
 40
0.30953149459
  0
CIRCLE
  5
844
330
1F
100
AcDbEntity
  8
media
 67
0
100
AcDbCircle
 10
32.4814376313
 20
32.7466896207
 40
0.490518417303
  0
CIRCLE
  5
845
330
1F
100
AcDbEntity
  8
media
 67
0
100
AcDbCircle
 10
35.0455401954
 20
32.7466896207
 40
0.547092857773
  0
CIRCLE
  5
846
330
1F
100
AcDbEntity
  8
media
 67
0
100
AcDbCircle
 10
37.6096427595
 20
32.7466896207
 40
0.461530508448
  0
CIRCLE
  5
847
330
1F
100
AcDbEntity
  8
media
 67
0
100
AcDbCircle
 10
40.1737453236
 20
32.7466896207
 40
0.482914831687
  0
CIRCLE
  5
848
330
1F
100
AcDbEntity
  8
media
 67
0
100
AcDbCircle
 10
42.7378478877
 20
32.7466896207
 40
0.512333318906
  0
CIRCLE
  5
849
330
1F
100
AcDbEntity
  8
media
 67
0
100
AcDbCircle
 10
45.3019504518
 20
32.7466896207
 40
0.472335971104
  0
CIRCLE
  5
84A
330
1F
100
AcDbEntity
  8
media
 67
0
100
AcDbCircle
 10
47.8660530159
 20
32.7466896207
 40
0.490816159511
  0
CIRCLE
  5
84B
330
1F
100
AcDbEntity
  8
media
 67
0
100
AcDbCircle
 10
50.43015558
 20
32.7466896207
 40
0.307733237276
  0
CIRCLE
  5
84C
330
1F
100
AcDbEntity
  8
media
 67
0
100
AcDbCircle
 10
52.9942581441
 20
32.7466896207
 40
0.35048363963
  0
CIRCLE
  5
84D
330
1F
100
AcDbEntity
  8
media
 67
0
100
AcDbCircle
 10
55.5583607082
 20
32.7466896207
 40
0.544166072241
  0
CIRCLE
  5
84E
330
1F
100
AcDbEntity
  8
media
 67
0
100
AcDbCircle
 10
58.1224632723
 20
32.7466896207
 40
0.372642205426
  0
CIRCLE
  5
84F
330
1F
100
AcDbEntity
  8
media
 67
0
100
AcDbCircle
 10
60.6865658364
 20
32.7466896207
 40
0.403082439985
  0
CIRCLE
  5
850
330
1F
100
AcDbEntity
  8
media
 67
0
100
AcDbCircle
 10
63.2506684005
 20
32.7466896207
 40
0.449385806087
  0
CIRCLE
  5
851
330
1F
100
AcDbEntity
  8
media
 67
0
100
AcDbCircle
 10
65.8147709646
 20
32.7466896207
 40
0.480864027541
  0
CIRCLE
  5
852
330
1F
100
AcDbEntity
  8
media
 67
0
100
AcDbCircle
 10
68.3788735287
 20
32.7466896207
 40
0.491029114114
  0
CIRCLE
  5
853
330
1F
100
AcDbEntity
  8
media
 67
0
100
AcDbCircle
 10
70.9429760928
 20
32.7466896207
 40
0.55581057488
  0
CIRCLE
  5
854
330
1F
100
AcDbEntity
  8
media
 67
0
100
AcDbCircle
 10
73.507078657
 20
32.7466896207
 40
0.471860930738
  0
CIRCLE
  5
855
330
1F
100
AcDbEntity
  8
media
 67
0
100
AcDbCircle
 10
76.0711812211
 20
32.7466896207
 40
0.445682337788
  0
CIRCLE
  5
856
330
1F
100
AcDbEntity
  8
media
 67
0
100
AcDbCircle
 10
78.6352837852
 20
32.7466896207
 40
0.45871448653
  0
CIRCLE
  5
857
330
1F
100
AcDbEntity
  8
media
 67
0
100
AcDbCircle
 10
81.1993863493
 20
32.7466896207
 40
0.42960250556
  0
CIRCLE
  5
858
330
1F
100
AcDbEntity
  8
media
 67
0
100
AcDbCircle
 10
83.7634889134
 20
32.7466896207
 40
0.459820617485
  0
CIRCLE
  5
859
330
1F
100
AcDbEntity
  8
media
 67
0
100
AcDbCircle
 10
86.3275914775
 20
32.7466896207
 40
0.536496833587
  0
CIRCLE
  5
85A
330
1F
100
AcDbEntity
  8
media
 67
0
100
AcDbCircle
 10
88.8916940416
 20
32.7466896207
 40
0.597304883765
  0
CIRCLE
  5
85B
330
1F
100
AcDbEntity
  8
media
 67
0
100
AcDbCircle
 10
91.4557966057
 20
32.7466896207
 40
0.334515734294
  0
CIRCLE
  5
85C
330
1F
100
AcDbEntity
  8
media
 67
0
100
AcDbCircle
 10
94.0198991698
 20
32.7466896207
 40
0.510704478821
  0
CIRCLE
  5
85D
330
1F
100
AcDbEntity
  8
media
 67
0
100
AcDbCircle
 10
96.5840017339
 20
32.7466896207
 40
0.651115331038
  0
CIRCLE
  5
85E
330
1F
100
AcDbEntity
  8
media
 67
0
100
AcDbCircle
 10
99.148104298
 20
32.7466896207
 40
0.480415288083
  0
CIRCLE
  5
85F
330
1F
100
AcDbEntity
  8
media
 67
0
100
AcDbCircle
 10
101.712206862
 20
32.7466896207
 40
0.237704089544
  0
CIRCLE
  5
860
330
1F
100
AcDbEntity
  8
media
 67
0
100
AcDbCircle
 10
1.71220686208
 20
34.4708275517
 40
0.390175805136
  0
CIRCLE
  5
861
330
1F
100
AcDbEntity
  8
media
 67
0
100
AcDbCircle
 10
4.27630942618
 20
34.4708275517
 40
0.630694156051
  0
CIRCLE
  5
862
330
1F
100
AcDbEntity
  8
media
 67
0
100
AcDbCircle
 10
6.84041199028
 20
34.4708275517
 40
0.389442093517
  0
CIRCLE
  5
863
330
1F
100
AcDbEntity
  8
media
 67
0
100
AcDbCircle
 10
9.40451455439
 20
34.4708275517
 40
0.551011957645
  0
CIRCLE
  5
864
330
1F
100
AcDbEntity
  8
media
 67
0
100
AcDbCircle
 10
11.9686171185
 20
34.4708275517
 40
0.574187528563
  0
CIRCLE
  5
865
330
1F
100
AcDbEntity
  8
media
 67
0
100
AcDbCircle
 10
14.5327196826
 20
34.4708275517
 40
0.539679160712
  0
CIRCLE
  5
866
330
1F
100
AcDbEntity
  8
media
 67
0
100
AcDbCircle
 10
17.0968222467
 20
34.4708275517
 40
0.536020931836
  0
CIRCLE
  5
867
330
1F
100
AcDbEntity
  8
media
 67
0
100
AcDbCircle
 10
19.6609248108
 20
34.4708275517
 40
0.649606712107
  0
CIRCLE
  5
868
330
1F
100
AcDbEntity
  8
media
 67
0
100
AcDbCircle
 10
22.2250273749
 20
34.4708275517
 40
0.421198667817
  0
CIRCLE
  5
869
330
1F
100
AcDbEntity
  8
media
 67
0
100
AcDbCircle
 10
24.789129939
 20
34.4708275517
 40
0.490948156017
  0
CIRCLE
  5
86A
330
1F
100
AcDbEntity
  8
media
 67
0
100
AcDbCircle
 10
27.3532325031
 20
34.4708275517
 40
0.493157000574
  0
CIRCLE
  5
86B
330
1F
100
AcDbEntity
  8
media
 67
0
100
AcDbCircle
 10
29.9173350672
 20
34.4708275517
 40
0.336369864678
  0
CIRCLE
  5
86C
330
1F
100
AcDbEntity
  8
media
 67
0
100
AcDbCircle
 10
32.4814376313
 20
34.4708275517
 40
0.424019888647
  0
CIRCLE
  5
86D
330
1F
100
AcDbEntity
  8
media
 67
0
100
AcDbCircle
 10
35.0455401954
 20
34.4708275517
 40
0.528397711483
  0
CIRCLE
  5
86E
330
1F
100
AcDbEntity
  8
media
 67
0
100
AcDbCircle
 10
37.6096427595
 20
34.4708275517
 40
0.358658694179
  0
CIRCLE
  5
86F
330
1F
100
AcDbEntity
  8
media
 67
0
100
AcDbCircle
 10
40.1737453236
 20
34.4708275517
 40
0.453161233494
  0
CIRCLE
  5
870
330
1F
100
AcDbEntity
  8
media
 67
0
100
AcDbCircle
 10
42.7378478877
 20
34.4708275517
 40
0.402816058584
  0
CIRCLE
  5
871
330
1F
100
AcDbEntity
  8
media
 67
0
100
AcDbCircle
 10
45.3019504518
 20
34.4708275517
 40
0.385728885203
  0
CIRCLE
  5
872
330
1F
100
AcDbEntity
  8
media
 67
0
100
AcDbCircle
 10
47.8660530159
 20
34.4708275517
 40
0.628790697172
  0
CIRCLE
  5
873
330
1F
100
AcDbEntity
  8
media
 67
0
100
AcDbCircle
 10
50.43015558
 20
34.4708275517
 40
0.423386374666
  0
CIRCLE
  5
874
330
1F
100
AcDbEntity
  8
media
 67
0
100
AcDbCircle
 10
52.9942581441
 20
34.4708275517
 40
0.530803649082
  0
CIRCLE
  5
875
330
1F
100
AcDbEntity
  8
media
 67
0
100
AcDbCircle
 10
55.5583607082
 20
34.4708275517
 40
0.618882199072
  0
CIRCLE
  5
876
330
1F
100
AcDbEntity
  8
media
 67
0
100
AcDbCircle
 10
58.1224632723
 20
34.4708275517
 40
0.455872927398
  0
CIRCLE
  5
877
330
1F
100
AcDbEntity
  8
media
 67
0
100
AcDbCircle
 10
60.6865658364
 20
34.4708275517
 40
0.506206278227
  0
CIRCLE
  5
878
330
1F
100
AcDbEntity
  8
media
 67
0
100
AcDbCircle
 10
63.2506684005
 20
34.4708275517
 40
0.667544406545
  0
CIRCLE
  5
879
330
1F
100
AcDbEntity
  8
media
 67
0
100
AcDbCircle
 10
65.8147709646
 20
34.4708275517
 40
0.451154380827
  0
CIRCLE
  5
87A
330
1F
100
AcDbEntity
  8
media
 67
0
100
AcDbCircle
 10
68.3788735287
 20
34.4708275517
 40
0.568646970118
  0
CIRCLE
  5
87B
330
1F
100
AcDbEntity
  8
media
 67
0
100
AcDbCircle
 10
70.9429760928
 20
34.4708275517
 40
0.351921547213
  0
CIRCLE
  5
87C
330
1F
100
AcDbEntity
  8
media
 67
0
100
AcDbCircle
 10
73.507078657
 20
34.4708275517
 40
0.543950810518
  0
CIRCLE
  5
87D
330
1F
100
AcDbEntity
  8
media
 67
0
100
AcDbCircle
 10
76.0711812211
 20
34.4708275517
 40
0.499959306058
  0
CIRCLE
  5
87E
330
1F
100
AcDbEntity
  8
media
 67
0
100
AcDbCircle
 10
78.6352837852
 20
34.4708275517
 40
0.534670759678
  0
CIRCLE
  5
87F
330
1F
100
AcDbEntity
  8
media
 67
0
100
AcDbCircle
 10
81.1993863493
 20
34.4708275517
 40
0.632645517583
  0
CIRCLE
  5
880
330
1F
100
AcDbEntity
  8
media
 67
0
100
AcDbCircle
 10
83.7634889134
 20
34.4708275517
 40
0.557543406762
  0
CIRCLE
  5
881
330
1F
100
AcDbEntity
  8
media
 67
0
100
AcDbCircle
 10
86.3275914775
 20
34.4708275517
 40
0.556145440144
  0
CIRCLE
  5
882
330
1F
100
AcDbEntity
  8
media
 67
0
100
AcDbCircle
 10
88.8916940416
 20
34.4708275517
 40
0.537394336533
  0
CIRCLE
  5
883
330
1F
100
AcDbEntity
  8
media
 67
0
100
AcDbCircle
 10
91.4557966057
 20
34.4708275517
 40
0.466151597776
  0
CIRCLE
  5
884
330
1F
100
AcDbEntity
  8
media
 67
0
100
AcDbCircle
 10
94.0198991698
 20
34.4708275517
 40
0.570000807486
  0
CIRCLE
  5
885
330
1F
100
AcDbEntity
  8
media
 67
0
100
AcDbCircle
 10
96.5840017339
 20
34.4708275517
 40
0.301376556185
  0
CIRCLE
  5
886
330
1F
100
AcDbEntity
  8
media
 67
0
100
AcDbCircle
 10
99.148104298
 20
34.4708275517
 40
0.560750321105
  0
CIRCLE
  5
887
330
1F
100
AcDbEntity
  8
media
 67
0
100
AcDbCircle
 10
101.712206862
 20
34.4708275517
 40
0.394351010962
  0
CIRCLE
  5
888
330
1F
100
AcDbEntity
  8
media
 67
0
100
AcDbCircle
 10
1.71220686208
 20
36.1949654828
 40
0.629834457057
  0
CIRCLE
  5
889
330
1F
100
AcDbEntity
  8
media
 67
0
100
AcDbCircle
 10
4.27630942618
 20
36.1949654828
 40
0.570476178394
  0
CIRCLE
  5
88A
330
1F
100
AcDbEntity
  8
media
 67
0
100
AcDbCircle
 10
6.84041199028
 20
36.1949654828
 40
0.599244753212
  0
CIRCLE
  5
88B
330
1F
100
AcDbEntity
  8
media
 67
0
100
AcDbCircle
 10
9.40451455439
 20
36.1949654828
 40
0.313597162578
  0
CIRCLE
  5
88C
330
1F
100
AcDbEntity
  8
media
 67
0
100
AcDbCircle
 10
11.9686171185
 20
36.1949654828
 40
0.656451258458
  0
CIRCLE
  5
88D
330
1F
100
AcDbEntity
  8
media
 67
0
100
AcDbCircle
 10
14.5327196826
 20
36.1949654828
 40
0.553527621421
  0
CIRCLE
  5
88E
330
1F
100
AcDbEntity
  8
media
 67
0
100
AcDbCircle
 10
17.0968222467
 20
36.1949654828
 40
0.227992227606
  0
CIRCLE
  5
88F
330
1F
100
AcDbEntity
  8
media
 67
0
100
AcDbCircle
 10
19.6609248108
 20
36.1949654828
 40
0.577248364631
  0
CIRCLE
  5
890
330
1F
100
AcDbEntity
  8
media
 67
0
100
AcDbCircle
 10
22.2250273749
 20
36.1949654828
 40
0.559271196357
  0
CIRCLE
  5
891
330
1F
100
AcDbEntity
  8
media
 67
0
100
AcDbCircle
 10
24.789129939
 20
36.1949654828
 40
0.472905150933
  0
CIRCLE
  5
892
330
1F
100
AcDbEntity
  8
media
 67
0
100
AcDbCircle
 10
27.3532325031
 20
36.1949654828
 40
0.570699609038
  0
CIRCLE
  5
893
330
1F
100
AcDbEntity
  8
media
 67
0
100
AcDbCircle
 10
29.9173350672
 20
36.1949654828
 40
0.344363388238
  0
CIRCLE
  5
894
330
1F
100
AcDbEntity
  8
media
 67
0
100
AcDbCircle
 10
32.4814376313
 20
36.1949654828
 40
0.421916448368
  0
CIRCLE
  5
895
330
1F
100
AcDbEntity
  8
media
 67
0
100
AcDbCircle
 10
35.0455401954
 20
36.1949654828
 40
0.521806111761
  0
CIRCLE
  5
896
330
1F
100
AcDbEntity
  8
media
 67
0
100
AcDbCircle
 10
37.6096427595
 20
36.1949654828
 40
0.54037624223
  0
CIRCLE
  5
897
330
1F
100
AcDbEntity
  8
media
 67
0
100
AcDbCircle
 10
40.1737453236
 20
36.1949654828
 40
0.60117572751
  0
CIRCLE
  5
898
330
1F
100
AcDbEntity
  8
media
 67
0
100
AcDbCircle
 10
42.7378478877
 20
36.1949654828
 40
0.637786680816
  0
CIRCLE
  5
899
330
1F
100
AcDbEntity
  8
media
 67
0
100
AcDbCircle
 10
45.3019504518
 20
36.1949654828
 40
0.527599717353
  0
CIRCLE
  5
89A
330
1F
100
AcDbEntity
  8
media
 67
0
100
AcDbCircle
 10
47.8660530159
 20
36.1949654828
 40
0.586407640009
  0
CIRCLE
  5
89B
330
1F
100
AcDbEntity
  8
media
 67
0
100
AcDbCircle
 10
50.43015558
 20
36.1949654828
 40
0.584205159379
  0
CIRCLE
  5
89C
330
1F
100
AcDbEntity
  8
media
 67
0
100
AcDbCircle
 10
52.9942581441
 20
36.1949654828
 40
0.56471804862
  0
CIRCLE
  5
89D
330
1F
100
AcDbEntity
  8
media
 67
0
100
AcDbCircle
 10
55.5583607082
 20
36.1949654828
 40
0.556901698893
  0
CIRCLE
  5
89E
330
1F
100
AcDbEntity
  8
media
 67
0
100
AcDbCircle
 10
58.1224632723
 20
36.1949654828
 40
0.682325283302
  0
CIRCLE
  5
89F
330
1F
100
AcDbEntity
  8
media
 67
0
100
AcDbCircle
 10
60.6865658364
 20
36.1949654828
 40
0.455999111817
  0
CIRCLE
  5
8A0
330
1F
100
AcDbEntity
  8
media
 67
0
100
AcDbCircle
 10
63.2506684005
 20
36.1949654828
 40
0.480598211162
  0
CIRCLE
  5
8A1
330
1F
100
AcDbEntity
  8
media
 67
0
100
AcDbCircle
 10
65.8147709646
 20
36.1949654828
 40
0.664658468005
  0
CIRCLE
  5
8A2
330
1F
100
AcDbEntity
  8
media
 67
0
100
AcDbCircle
 10
68.3788735287
 20
36.1949654828
 40
0.606944530483
  0
CIRCLE
  5
8A3
330
1F
100
AcDbEntity
  8
media
 67
0
100
AcDbCircle
 10
70.9429760928
 20
36.1949654828
 40
0.65383866377
  0
CIRCLE
  5
8A4
330
1F
100
AcDbEntity
  8
media
 67
0
100
AcDbCircle
 10
73.507078657
 20
36.1949654828
 40
0.384958435892
  0
CIRCLE
  5
8A5
330
1F
100
AcDbEntity
  8
media
 67
0
100
AcDbCircle
 10
76.0711812211
 20
36.1949654828
 40
0.525004501275
  0
CIRCLE
  5
8A6
330
1F
100
AcDbEntity
  8
media
 67
0
100
AcDbCircle
 10
78.6352837852
 20
36.1949654828
 40
0.595826009925
  0
CIRCLE
  5
8A7
330
1F
100
AcDbEntity
  8
media
 67
0
100
AcDbCircle
 10
81.1993863493
 20
36.1949654828
 40
0.42110627841
  0
CIRCLE
  5
8A8
330
1F
100
AcDbEntity
  8
media
 67
0
100
AcDbCircle
 10
83.7634889134
 20
36.1949654828
 40
0.392595614584
  0
CIRCLE
  5
8A9
330
1F
100
AcDbEntity
  8
media
 67
0
100
AcDbCircle
 10
86.3275914775
 20
36.1949654828
 40
0.395426788528
  0
CIRCLE
  5
8AA
330
1F
100
AcDbEntity
  8
media
 67
0
100
AcDbCircle
 10
88.8916940416
 20
36.1949654828
 40
0.609398525362
  0
CIRCLE
  5
8AB
330
1F
100
AcDbEntity
  8
media
 67
0
100
AcDbCircle
 10
91.4557966057
 20
36.1949654828
 40
0.489556606321
  0
CIRCLE
  5
8AC
330
1F
100
AcDbEntity
  8
media
 67
0
100
AcDbCircle
 10
94.0198991698
 20
36.1949654828
 40
0.380179569125
  0
CIRCLE
  5
8AD
330
1F
100
AcDbEntity
  8
media
 67
0
100
AcDbCircle
 10
96.5840017339
 20
36.1949654828
 40
0.405054033351
  0
CIRCLE
  5
8AE
330
1F
100
AcDbEntity
  8
media
 67
0
100
AcDbCircle
 10
99.148104298
 20
36.1949654828
 40
0.491639998302
  0
CIRCLE
  5
8AF
330
1F
100
AcDbEntity
  8
media
 67
0
100
AcDbCircle
 10
101.712206862
 20
36.1949654828
 40
0.576476101566
  0
CIRCLE
  5
8B0
330
1F
100
AcDbEntity
  8
media
 67
0
100
AcDbCircle
 10
1.71220686208
 20
37.9191034138
 40
0.52770952225
  0
CIRCLE
  5
8B1
330
1F
100
AcDbEntity
  8
media
 67
0
100
AcDbCircle
 10
4.27630942618
 20
37.9191034138
 40
0.43132384665
  0
CIRCLE
  5
8B2
330
1F
100
AcDbEntity
  8
media
 67
0
100
AcDbCircle
 10
6.84041199028
 20
37.9191034138
 40
0.543275229536
  0
CIRCLE
  5
8B3
330
1F
100
AcDbEntity
  8
media
 67
0
100
AcDbCircle
 10
9.40451455439
 20
37.9191034138
 40
0.524370299167
  0
CIRCLE
  5
8B4
330
1F
100
AcDbEntity
  8
media
 67
0
100
AcDbCircle
 10
11.9686171185
 20
37.9191034138
 40
0.53196894265
  0
CIRCLE
  5
8B5
330
1F
100
AcDbEntity
  8
media
 67
0
100
AcDbCircle
 10
14.5327196826
 20
37.9191034138
 40
0.401709720964
  0
CIRCLE
  5
8B6
330
1F
100
AcDbEntity
  8
media
 67
0
100
AcDbCircle
 10
17.0968222467
 20
37.9191034138
 40
0.507421394386
  0
CIRCLE
  5
8B7
330
1F
100
AcDbEntity
  8
media
 67
0
100
AcDbCircle
 10
19.6609248108
 20
37.9191034138
 40
0.619124898617
  0
CIRCLE
  5
8B8
330
1F
100
AcDbEntity
  8
media
 67
0
100
AcDbCircle
 10
22.2250273749
 20
37.9191034138
 40
0.598671246947
  0
CIRCLE
  5
8B9
330
1F
100
AcDbEntity
  8
media
 67
0
100
AcDbCircle
 10
24.789129939
 20
37.9191034138
 40
0.497990664964
  0
CIRCLE
  5
8BA
330
1F
100
AcDbEntity
  8
media
 67
0
100
AcDbCircle
 10
27.3532325031
 20
37.9191034138
 40
0.651517296575
  0
CIRCLE
  5
8BB
330
1F
100
AcDbEntity
  8
media
 67
0
100
AcDbCircle
 10
29.9173350672
 20
37.9191034138
 40
0.618411195643
  0
CIRCLE
  5
8BC
330
1F
100
AcDbEntity
  8
media
 67
0
100
AcDbCircle
 10
32.4814376313
 20
37.9191034138
 40
0.404736523717
  0
CIRCLE
  5
8BD
330
1F
100
AcDbEntity
  8
media
 67
0
100
AcDbCircle
 10
35.0455401954
 20
37.9191034138
 40
0.515204241624
  0
CIRCLE
  5
8BE
330
1F
100
AcDbEntity
  8
media
 67
0
100
AcDbCircle
 10
37.6096427595
 20
37.9191034138
 40
0.531615367138
  0
CIRCLE
  5
8BF
330
1F
100
AcDbEntity
  8
media
 67
0
100
AcDbCircle
 10
40.1737453236
 20
37.9191034138
 40
0.433979306772
  0
CIRCLE
  5
8C0
330
1F
100
AcDbEntity
  8
media
 67
0
100
AcDbCircle
 10
42.7378478877
 20
37.9191034138
 40
0.475998241368
  0
CIRCLE
  5
8C1
330
1F
100
AcDbEntity
  8
media
 67
0
100
AcDbCircle
 10
45.3019504518
 20
37.9191034138
 40
0.28937735131
  0
CIRCLE
  5
8C2
330
1F
100
AcDbEntity
  8
media
 67
0
100
AcDbCircle
 10
47.8660530159
 20
37.9191034138
 40
0.465882804602
  0
CIRCLE
  5
8C3
330
1F
100
AcDbEntity
  8
media
 67
0
100
AcDbCircle
 10
50.43015558
 20
37.9191034138
 40
0.590862031046
  0
CIRCLE
  5
8C4
330
1F
100
AcDbEntity
  8
media
 67
0
100
AcDbCircle
 10
52.9942581441
 20
37.9191034138
 40
0.409756433146
  0
CIRCLE
  5
8C5
330
1F
100
AcDbEntity
  8
media
 67
0
100
AcDbCircle
 10
55.5583607082
 20
37.9191034138
 40
0.342610183878
  0
CIRCLE
  5
8C6
330
1F
100
AcDbEntity
  8
media
 67
0
100
AcDbCircle
 10
58.1224632723
 20
37.9191034138
 40
0.584904252573
  0
CIRCLE
  5
8C7
330
1F
100
AcDbEntity
  8
media
 67
0
100
AcDbCircle
 10
60.6865658364
 20
37.9191034138
 40
0.324529838192
  0
CIRCLE
  5
8C8
330
1F
100
AcDbEntity
  8
media
 67
0
100
AcDbCircle
 10
63.2506684005
 20
37.9191034138
 40
0.491690304652
  0
CIRCLE
  5
8C9
330
1F
100
AcDbEntity
  8
media
 67
0
100
AcDbCircle
 10
65.8147709646
 20
37.9191034138
 40
0.442896551569
  0
CIRCLE
  5
8CA
330
1F
100
AcDbEntity
  8
media
 67
0
100
AcDbCircle
 10
68.3788735287
 20
37.9191034138
 40
0.53916216903
  0
CIRCLE
  5
8CB
330
1F
100
AcDbEntity
  8
media
 67
0
100
AcDbCircle
 10
70.9429760928
 20
37.9191034138
 40
0.465547254685
  0
CIRCLE
  5
8CC
330
1F
100
AcDbEntity
  8
media
 67
0
100
AcDbCircle
 10
73.507078657
 20
37.9191034138
 40
0.355325066307
  0
CIRCLE
  5
8CD
330
1F
100
AcDbEntity
  8
media
 67
0
100
AcDbCircle
 10
76.0711812211
 20
37.9191034138
 40
0.563119355428
  0
CIRCLE
  5
8CE
330
1F
100
AcDbEntity
  8
media
 67
0
100
AcDbCircle
 10
78.6352837852
 20
37.9191034138
 40
0.483726592516
  0
CIRCLE
  5
8CF
330
1F
100
AcDbEntity
  8
media
 67
0
100
AcDbCircle
 10
81.1993863493
 20
37.9191034138
 40
0.382256129822
  0
CIRCLE
  5
8D0
330
1F
100
AcDbEntity
  8
media
 67
0
100
AcDbCircle
 10
83.7634889134
 20
37.9191034138
 40
0.443349494265
  0
CIRCLE
  5
8D1
330
1F
100
AcDbEntity
  8
media
 67
0
100
AcDbCircle
 10
86.3275914775
 20
37.9191034138
 40
0.454819640336
  0
CIRCLE
  5
8D2
330
1F
100
AcDbEntity
  8
media
 67
0
100
AcDbCircle
 10
88.8916940416
 20
37.9191034138
 40
0.450507808192
  0
CIRCLE
  5
8D3
330
1F
100
AcDbEntity
  8
media
 67
0
100
AcDbCircle
 10
91.4557966057
 20
37.9191034138
 40
0.600334725265
  0
CIRCLE
  5
8D4
330
1F
100
AcDbEntity
  8
media
 67
0
100
AcDbCircle
 10
94.0198991698
 20
37.9191034138
 40
0.577179535616
  0
CIRCLE
  5
8D5
330
1F
100
AcDbEntity
  8
media
 67
0
100
AcDbCircle
 10
96.5840017339
 20
37.9191034138
 40
0.468437396343
  0
CIRCLE
  5
8D6
330
1F
100
AcDbEntity
  8
media
 67
0
100
AcDbCircle
 10
99.148104298
 20
37.9191034138
 40
0.227409915655
  0
CIRCLE
  5
8D7
330
1F
100
AcDbEntity
  8
media
 67
0
100
AcDbCircle
 10
101.712206862
 20
37.9191034138
 40
0.537314307036
  0
CIRCLE
  5
8D8
330
1F
100
AcDbEntity
  8
media
 67
0
100
AcDbCircle
 10
1.71220686208
 20
39.6432413448
 40
0.343096620133
  0
CIRCLE
  5
8D9
330
1F
100
AcDbEntity
  8
media
 67
0
100
AcDbCircle
 10
4.27630942618
 20
39.6432413448
 40
0.611735057882
  0
CIRCLE
  5
8DA
330
1F
100
AcDbEntity
  8
media
 67
0
100
AcDbCircle
 10
6.84041199028
 20
39.6432413448
 40
0.386283743607
  0
CIRCLE
  5
8DB
330
1F
100
AcDbEntity
  8
media
 67
0
100
AcDbCircle
 10
9.40451455439
 20
39.6432413448
 40
0.394656902776
  0
CIRCLE
  5
8DC
330
1F
100
AcDbEntity
  8
media
 67
0
100
AcDbCircle
 10
11.9686171185
 20
39.6432413448
 40
0.690457601304
  0
CIRCLE
  5
8DD
330
1F
100
AcDbEntity
  8
media
 67
0
100
AcDbCircle
 10
14.5327196826
 20
39.6432413448
 40
0.588951519775
  0
CIRCLE
  5
8DE
330
1F
100
AcDbEntity
  8
media
 67
0
100
AcDbCircle
 10
17.0968222467
 20
39.6432413448
 40
0.277309025316
  0
CIRCLE
  5
8DF
330
1F
100
AcDbEntity
  8
media
 67
0
100
AcDbCircle
 10
19.6609248108
 20
39.6432413448
 40
0.54943983488
  0
CIRCLE
  5
8E0
330
1F
100
AcDbEntity
  8
media
 67
0
100
AcDbCircle
 10
22.2250273749
 20
39.6432413448
 40
0.572627832891
  0
CIRCLE
  5
8E1
330
1F
100
AcDbEntity
  8
media
 67
0
100
AcDbCircle
 10
24.789129939
 20
39.6432413448
 40
0.454844641178
  0
CIRCLE
  5
8E2
330
1F
100
AcDbEntity
  8
media
 67
0
100
AcDbCircle
 10
27.3532325031
 20
39.6432413448
 40
0.462759112118
  0
CIRCLE
  5
8E3
330
1F
100
AcDbEntity
  8
media
 67
0
100
AcDbCircle
 10
29.9173350672
 20
39.6432413448
 40
0.465266476465
  0
CIRCLE
  5
8E4
330
1F
100
AcDbEntity
  8
media
 67
0
100
AcDbCircle
 10
32.4814376313
 20
39.6432413448
 40
0.52293719544
  0
CIRCLE
  5
8E5
330
1F
100
AcDbEntity
  8
media
 67
0
100
AcDbCircle
 10
35.0455401954
 20
39.6432413448
 40
0.645762699605
  0
CIRCLE
  5
8E6
330
1F
100
AcDbEntity
  8
media
 67
0
100
AcDbCircle
 10
37.6096427595
 20
39.6432413448
 40
0.332515214699
  0
CIRCLE
  5
8E7
330
1F
100
AcDbEntity
  8
media
 67
0
100
AcDbCircle
 10
40.1737453236
 20
39.6432413448
 40
0.434705723496
  0
CIRCLE
  5
8E8
330
1F
100
AcDbEntity
  8
media
 67
0
100
AcDbCircle
 10
42.7378478877
 20
39.6432413448
 40
0.347052311732
  0
CIRCLE
  5
8E9
330
1F
100
AcDbEntity
  8
media
 67
0
100
AcDbCircle
 10
45.3019504518
 20
39.6432413448
 40
0.410977952598
  0
CIRCLE
  5
8EA
330
1F
100
AcDbEntity
  8
media
 67
0
100
AcDbCircle
 10
47.8660530159
 20
39.6432413448
 40
0.612986828226
  0
CIRCLE
  5
8EB
330
1F
100
AcDbEntity
  8
media
 67
0
100
AcDbCircle
 10
50.43015558
 20
39.6432413448
 40
0.361619633654
  0
CIRCLE
  5
8EC
330
1F
100
AcDbEntity
  8
media
 67
0
100
AcDbCircle
 10
52.9942581441
 20
39.6432413448
 40
0.485934603481
  0
CIRCLE
  5
8ED
330
1F
100
AcDbEntity
  8
media
 67
0
100
AcDbCircle
 10
55.5583607082
 20
39.6432413448
 40
0.59459119948
  0
CIRCLE
  5
8EE
330
1F
100
AcDbEntity
  8
media
 67
0
100
AcDbCircle
 10
58.1224632723
 20
39.6432413448
 40
0.355394405176
  0
CIRCLE
  5
8EF
330
1F
100
AcDbEntity
  8
media
 67
0
100
AcDbCircle
 10
60.6865658364
 20
39.6432413448
 40
0.498476858714
  0
CIRCLE
  5
8F0
330
1F
100
AcDbEntity
  8
media
 67
0
100
AcDbCircle
 10
63.2506684005
 20
39.6432413448
 40
0.506262047063
  0
CIRCLE
  5
8F1
330
1F
100
AcDbEntity
  8
media
 67
0
100
AcDbCircle
 10
65.8147709646
 20
39.6432413448
 40
0.488351569101
  0
CIRCLE
  5
8F2
330
1F
100
AcDbEntity
  8
media
 67
0
100
AcDbCircle
 10
68.3788735287
 20
39.6432413448
 40
0.551533060491
  0
CIRCLE
  5
8F3
330
1F
100
AcDbEntity
  8
media
 67
0
100
AcDbCircle
 10
70.9429760928
 20
39.6432413448
 40
0.522908141991
  0
CIRCLE
  5
8F4
330
1F
100
AcDbEntity
  8
media
 67
0
100
AcDbCircle
 10
73.507078657
 20
39.6432413448
 40
0.343607941218
  0
CIRCLE
  5
8F5
330
1F
100
AcDbEntity
  8
media
 67
0
100
AcDbCircle
 10
76.0711812211
 20
39.6432413448
 40
0.390861021512
  0
CIRCLE
  5
8F6
330
1F
100
AcDbEntity
  8
media
 67
0
100
AcDbCircle
 10
78.6352837852
 20
39.6432413448
 40
0.473647194183
  0
CIRCLE
  5
8F7
330
1F
100
AcDbEntity
  8
media
 67
0
100
AcDbCircle
 10
81.1993863493
 20
39.6432413448
 40
0.50533852507
  0
CIRCLE
  5
8F8
330
1F
100
AcDbEntity
  8
media
 67
0
100
AcDbCircle
 10
83.7634889134
 20
39.6432413448
 40
0.735518351889
  0
CIRCLE
  5
8F9
330
1F
100
AcDbEntity
  8
media
 67
0
100
AcDbCircle
 10
86.3275914775
 20
39.6432413448
 40
0.669857599837
  0
CIRCLE
  5
8FA
330
1F
100
AcDbEntity
  8
media
 67
0
100
AcDbCircle
 10
88.8916940416
 20
39.6432413448
 40
0.462045062665
  0
CIRCLE
  5
8FB
330
1F
100
AcDbEntity
  8
media
 67
0
100
AcDbCircle
 10
91.4557966057
 20
39.6432413448
 40
0.498186554476
  0
CIRCLE
  5
8FC
330
1F
100
AcDbEntity
  8
media
 67
0
100
AcDbCircle
 10
94.0198991698
 20
39.6432413448
 40
0.542655127501
  0
CIRCLE
  5
8FD
330
1F
100
AcDbEntity
  8
media
 67
0
100
AcDbCircle
 10
96.5840017339
 20
39.6432413448
 40
0.520468318278
  0
CIRCLE
  5
8FE
330
1F
100
AcDbEntity
  8
media
 67
0
100
AcDbCircle
 10
99.148104298
 20
39.6432413448
 40
0.426709198724
  0
CIRCLE
  5
8FF
330
1F
100
AcDbEntity
  8
media
 67
0
100
AcDbCircle
 10
101.712206862
 20
39.6432413448
 40
0.644919370604
  0
CIRCLE
  5
900
330
1F
100
AcDbEntity
  8
media
 67
0
100
AcDbCircle
 10
1.71220686208
 20
41.3673792759
 40
0.398228430561
  0
CIRCLE
  5
901
330
1F
100
AcDbEntity
  8
media
 67
0
100
AcDbCircle
 10
4.27630942618
 20
41.3673792759
 40
0.383347043299
  0
CIRCLE
  5
902
330
1F
100
AcDbEntity
  8
media
 67
0
100
AcDbCircle
 10
6.84041199028
 20
41.3673792759
 40
0.612050753324
  0
CIRCLE
  5
903
330
1F
100
AcDbEntity
  8
media
 67
0
100
AcDbCircle
 10
9.40451455439
 20
41.3673792759
 40
0.637823227339
  0
CIRCLE
  5
904
330
1F
100
AcDbEntity
  8
media
 67
0
100
AcDbCircle
 10
11.9686171185
 20
41.3673792759
 40
0.42577189119
  0
CIRCLE
  5
905
330
1F
100
AcDbEntity
  8
media
 67
0
100
AcDbCircle
 10
14.5327196826
 20
41.3673792759
 40
0.514031719781
  0
CIRCLE
  5
906
330
1F
100
AcDbEntity
  8
media
 67
0
100
AcDbCircle
 10
17.0968222467
 20
41.3673792759
 40
0.341280134321
  0
CIRCLE
  5
907
330
1F
100
AcDbEntity
  8
media
 67
0
100
AcDbCircle
 10
19.6609248108
 20
41.3673792759
 40
0.545311236338
  0
CIRCLE
  5
908
330
1F
100
AcDbEntity
  8
media
 67
0
100
AcDbCircle
 10
22.2250273749
 20
41.3673792759
 40
0.551255704357
  0
CIRCLE
  5
909
330
1F
100
AcDbEntity
  8
media
 67
0
100
AcDbCircle
 10
24.789129939
 20
41.3673792759
 40
0.432238747847
  0
CIRCLE
  5
90A
330
1F
100
AcDbEntity
  8
media
 67
0
100
AcDbCircle
 10
27.3532325031
 20
41.3673792759
 40
0.57168732803
  0
CIRCLE
  5
90B
330
1F
100
AcDbEntity
  8
media
 67
0
100
AcDbCircle
 10
29.9173350672
 20
41.3673792759
 40
0.556764736261
  0
CIRCLE
  5
90C
330
1F
100
AcDbEntity
  8
media
 67
0
100
AcDbCircle
 10
32.4814376313
 20
41.3673792759
 40
0.549828819252
  0
CIRCLE
  5
90D
330
1F
100
AcDbEntity
  8
media
 67
0
100
AcDbCircle
 10
35.0455401954
 20
41.3673792759
 40
0.628315556789
  0
CIRCLE
  5
90E
330
1F
100
AcDbEntity
  8
media
 67
0
100
AcDbCircle
 10
37.6096427595
 20
41.3673792759
 40
0.553258445614
  0
CIRCLE
  5
90F
330
1F
100
AcDbEntity
  8
media
 67
0
100
AcDbCircle
 10
40.1737453236
 20
41.3673792759
 40
0.392924225765
  0
CIRCLE
  5
910
330
1F
100
AcDbEntity
  8
media
 67
0
100
AcDbCircle
 10
42.7378478877
 20
41.3673792759
 40
0.431550686788
  0
CIRCLE
  5
911
330
1F
100
AcDbEntity
  8
media
 67
0
100
AcDbCircle
 10
45.3019504518
 20
41.3673792759
 40
0.499072927138
  0
CIRCLE
  5
912
330
1F
100
AcDbEntity
  8
media
 67
0
100
AcDbCircle
 10
47.8660530159
 20
41.3673792759
 40
0.514310510627
  0
CIRCLE
  5
913
330
1F
100
AcDbEntity
  8
media
 67
0
100
AcDbCircle
 10
50.43015558
 20
41.3673792759
 40
0.542680114934
  0
CIRCLE
  5
914
330
1F
100
AcDbEntity
  8
media
 67
0
100
AcDbCircle
 10
52.9942581441
 20
41.3673792759
 40
0.416892832846
  0
CIRCLE
  5
915
330
1F
100
AcDbEntity
  8
media
 67
0
100
AcDbCircle
 10
55.5583607082
 20
41.3673792759
 40
0.330624798441
  0
CIRCLE
  5
916
330
1F
100
AcDbEntity
  8
media
 67
0
100
AcDbCircle
 10
58.1224632723
 20
41.3673792759
 40
0.516823794846
  0
CIRCLE
  5
917
330
1F
100
AcDbEntity
  8
media
 67
0
100
AcDbCircle
 10
60.6865658364
 20
41.3673792759
 40
0.390965251319
  0
CIRCLE
  5
918
330
1F
100
AcDbEntity
  8
media
 67
0
100
AcDbCircle
 10
63.2506684005
 20
41.3673792759
 40
0.514507228992
  0
CIRCLE
  5
919
330
1F
100
AcDbEntity
  8
media
 67
0
100
AcDbCircle
 10
65.8147709646
 20
41.3673792759
 40
0.514014941269
  0
CIRCLE
  5
91A
330
1F
100
AcDbEntity
  8
media
 67
0
100
AcDbCircle
 10
68.3788735287
 20
41.3673792759
 40
0.446439113623
  0
CIRCLE
  5
91B
330
1F
100
AcDbEntity
  8
media
 67
0
100
AcDbCircle
 10
70.9429760928
 20
41.3673792759
 40
0.539265622854
  0
CIRCLE
  5
91C
330
1F
100
AcDbEntity
  8
media
 67
0
100
AcDbCircle
 10
73.507078657
 20
41.3673792759
 40
0.533305332993
  0
CIRCLE
  5
91D
330
1F
100
AcDbEntity
  8
media
 67
0
100
AcDbCircle
 10
76.0711812211
 20
41.3673792759
 40
0.532534053512
  0
CIRCLE
  5
91E
330
1F
100
AcDbEntity
  8
media
 67
0
100
AcDbCircle
 10
78.6352837852
 20
41.3673792759
 40
0.453066205829
  0
CIRCLE
  5
91F
330
1F
100
AcDbEntity
  8
media
 67
0
100
AcDbCircle
 10
81.1993863493
 20
41.3673792759
 40
0.602417942743
  0
CIRCLE
  5
920
330
1F
100
AcDbEntity
  8
media
 67
0
100
AcDbCircle
 10
83.7634889134
 20
41.3673792759
 40
0.319906388956
  0
CIRCLE
  5
921
330
1F
100
AcDbEntity
  8
media
 67
0
100
AcDbCircle
 10
86.3275914775
 20
41.3673792759
 40
0.620913482844
  0
CIRCLE
  5
922
330
1F
100
AcDbEntity
  8
media
 67
0
100
AcDbCircle
 10
88.8916940416
 20
41.3673792759
 40
0.500699254258
  0
CIRCLE
  5
923
330
1F
100
AcDbEntity
  8
media
 67
0
100
AcDbCircle
 10
91.4557966057
 20
41.3673792759
 40
0.693735372984
  0
CIRCLE
  5
924
330
1F
100
AcDbEntity
  8
media
 67
0
100
AcDbCircle
 10
94.0198991698
 20
41.3673792759
 40
0.460786719475
  0
CIRCLE
  5
925
330
1F
100
AcDbEntity
  8
media
 67
0
100
AcDbCircle
 10
96.5840017339
 20
41.3673792759
 40
0.208546602653
  0
CIRCLE
  5
926
330
1F
100
AcDbEntity
  8
media
 67
0
100
AcDbCircle
 10
99.148104298
 20
41.3673792759
 40
0.68254811843
  0
CIRCLE
  5
927
330
1F
100
AcDbEntity
  8
media
 67
0
100
AcDbCircle
 10
101.712206862
 20
41.3673792759
 40
0.528148210436
  0
CIRCLE
  5
928
330
1F
100
AcDbEntity
  8
media
 67
0
100
AcDbCircle
 10
1.71220686208
 20
43.0915172069
 40
0.521351392438
  0
CIRCLE
  5
929
330
1F
100
AcDbEntity
  8
media
 67
0
100
AcDbCircle
 10
4.27630942618
 20
43.0915172069
 40
0.455015578354
  0
CIRCLE
  5
92A
330
1F
100
AcDbEntity
  8
media
 67
0
100
AcDbCircle
 10
6.84041199028
 20
43.0915172069
 40
0.243650097049
  0
CIRCLE
  5
92B
330
1F
100
AcDbEntity
  8
media
 67
0
100
AcDbCircle
 10
9.40451455439
 20
43.0915172069
 40
0.425054580991
  0
CIRCLE
  5
92C
330
1F
100
AcDbEntity
  8
media
 67
0
100
AcDbCircle
 10
11.9686171185
 20
43.0915172069
 40
0.616247485851
  0
CIRCLE
  5
92D
330
1F
100
AcDbEntity
  8
media
 67
0
100
AcDbCircle
 10
14.5327196826
 20
43.0915172069
 40
0.535365130786
  0
CIRCLE
  5
92E
330
1F
100
AcDbEntity
  8
media
 67
0
100
AcDbCircle
 10
17.0968222467
 20
43.0915172069
 40
0.435298721425
  0
CIRCLE
  5
92F
330
1F
100
AcDbEntity
  8
media
 67
0
100
AcDbCircle
 10
19.6609248108
 20
43.0915172069
 40
0.3821980252
  0
CIRCLE
  5
930
330
1F
100
AcDbEntity
  8
media
 67
0
100
AcDbCircle
 10
22.2250273749
 20
43.0915172069
 40
0.50130523305
  0
CIRCLE
  5
931
330
1F
100
AcDbEntity
  8
media
 67
0
100
AcDbCircle
 10
24.789129939
 20
43.0915172069
 40
0.380980167627
  0
CIRCLE
  5
932
330
1F
100
AcDbEntity
  8
media
 67
0
100
AcDbCircle
 10
27.3532325031
 20
43.0915172069
 40
0.702673143766
  0
CIRCLE
  5
933
330
1F
100
AcDbEntity
  8
media
 67
0
100
AcDbCircle
 10
29.9173350672
 20
43.0915172069
 40
0.425347154573
  0
CIRCLE
  5
934
330
1F
100
AcDbEntity
  8
media
 67
0
100
AcDbCircle
 10
32.4814376313
 20
43.0915172069
 40
0.536992042322
  0
CIRCLE
  5
935
330
1F
100
AcDbEntity
  8
media
 67
0
100
AcDbCircle
 10
35.0455401954
 20
43.0915172069
 40
0.523953983167
  0
CIRCLE
  5
936
330
1F
100
AcDbEntity
  8
media
 67
0
100
AcDbCircle
 10
37.6096427595
 20
43.0915172069
 40
0.622021494469
  0
CIRCLE
  5
937
330
1F
100
AcDbEntity
  8
media
 67
0
100
AcDbCircle
 10
40.1737453236
 20
43.0915172069
 40
0.487386322646
  0
CIRCLE
  5
938
330
1F
100
AcDbEntity
  8
media
 67
0
100
AcDbCircle
 10
42.7378478877
 20
43.0915172069
 40
0.385834061764
  0
CIRCLE
  5
939
330
1F
100
AcDbEntity
  8
media
 67
0
100
AcDbCircle
 10
45.3019504518
 20
43.0915172069
 40
0.492865969955
  0
CIRCLE
  5
93A
330
1F
100
AcDbEntity
  8
media
 67
0
100
AcDbCircle
 10
47.8660530159
 20
43.0915172069
 40
0.556051867956
  0
CIRCLE
  5
93B
330
1F
100
AcDbEntity
  8
media
 67
0
100
AcDbCircle
 10
50.43015558
 20
43.0915172069
 40
0.426101713398
  0
CIRCLE
  5
93C
330
1F
100
AcDbEntity
  8
media
 67
0
100
AcDbCircle
 10
52.9942581441
 20
43.0915172069
 40
0.464998944762
  0
CIRCLE
  5
93D
330
1F
100
AcDbEntity
  8
media
 67
0
100
AcDbCircle
 10
55.5583607082
 20
43.0915172069
 40
0.484257979852
  0
CIRCLE
  5
93E
330
1F
100
AcDbEntity
  8
media
 67
0
100
AcDbCircle
 10
58.1224632723
 20
43.0915172069
 40
0.417349667337
  0
CIRCLE
  5
93F
330
1F
100
AcDbEntity
  8
media
 67
0
100
AcDbCircle
 10
60.6865658364
 20
43.0915172069
 40
0.607897233514
  0
CIRCLE
  5
940
330
1F
100
AcDbEntity
  8
media
 67
0
100
AcDbCircle
 10
63.2506684005
 20
43.0915172069
 40
0.431281538824
  0
CIRCLE
  5
941
330
1F
100
AcDbEntity
  8
media
 67
0
100
AcDbCircle
 10
65.8147709646
 20
43.0915172069
 40
0.582151062911
  0
CIRCLE
  5
942
330
1F
100
AcDbEntity
  8
media
 67
0
100
AcDbCircle
 10
68.3788735287
 20
43.0915172069
 40
0.519029496274
  0
CIRCLE
  5
943
330
1F
100
AcDbEntity
  8
media
 67
0
100
AcDbCircle
 10
70.9429760928
 20
43.0915172069
 40
0.533305397877
  0
CIRCLE
  5
944
330
1F
100
AcDbEntity
  8
media
 67
0
100
AcDbCircle
 10
73.507078657
 20
43.0915172069
 40
0.691697243923
  0
CIRCLE
  5
945
330
1F
100
AcDbEntity
  8
media
 67
0
100
AcDbCircle
 10
76.0711812211
 20
43.0915172069
 40
0.571603584702
  0
CIRCLE
  5
946
330
1F
100
AcDbEntity
  8
media
 67
0
100
AcDbCircle
 10
78.6352837852
 20
43.0915172069
 40
0.344412093137
  0
CIRCLE
  5
947
330
1F
100
AcDbEntity
  8
media
 67
0
100
AcDbCircle
 10
81.1993863493
 20
43.0915172069
 40
0.486649250644
  0
CIRCLE
  5
948
330
1F
100
AcDbEntity
  8
media
 67
0
100
AcDbCircle
 10
83.7634889134
 20
43.0915172069
 40
0.520564294389
  0
CIRCLE
  5
949
330
1F
100
AcDbEntity
  8
media
 67
0
100
AcDbCircle
 10
86.3275914775
 20
43.0915172069
 40
0.48756610502
  0
CIRCLE
  5
94A
330
1F
100
AcDbEntity
  8
media
 67
0
100
AcDbCircle
 10
88.8916940416
 20
43.0915172069
 40
0.499197494728
  0
CIRCLE
  5
94B
330
1F
100
AcDbEntity
  8
media
 67
0
100
AcDbCircle
 10
91.4557966057
 20
43.0915172069
 40
0.605326551022
  0
CIRCLE
  5
94C
330
1F
100
AcDbEntity
  8
media
 67
0
100
AcDbCircle
 10
94.0198991698
 20
43.0915172069
 40
0.474149422984
  0
CIRCLE
  5
94D
330
1F
100
AcDbEntity
  8
media
 67
0
100
AcDbCircle
 10
96.5840017339
 20
43.0915172069
 40
0.476273178236
  0
CIRCLE
  5
94E
330
1F
100
AcDbEntity
  8
media
 67
0
100
AcDbCircle
 10
99.148104298
 20
43.0915172069
 40
0.69078594487
  0
CIRCLE
  5
94F
330
1F
100
AcDbEntity
  8
media
 67
0
100
AcDbCircle
 10
101.712206862
 20
43.0915172069
 40
0.446917474296
  0
CIRCLE
  5
950
330
1F
100
AcDbEntity
  8
media
 67
0
100
AcDbCircle
 10
1.71220686208
 20
44.8156551379
 40
0.507363863259
  0
CIRCLE
  5
951
330
1F
100
AcDbEntity
  8
media
 67
0
100
AcDbCircle
 10
4.27630942618
 20
44.8156551379
 40
0.435108523767
  0
CIRCLE
  5
952
330
1F
100
AcDbEntity
  8
media
 67
0
100
AcDbCircle
 10
6.84041199028
 20
44.8156551379
 40
0.475646504282
  0
CIRCLE
  5
953
330
1F
100
AcDbEntity
  8
media
 67
0
100
AcDbCircle
 10
9.40451455439
 20
44.8156551379
 40
0.451294537561
  0
CIRCLE
  5
954
330
1F
100
AcDbEntity
  8
media
 67
0
100
AcDbCircle
 10
11.9686171185
 20
44.8156551379
 40
0.59665173361
  0
CIRCLE
  5
955
330
1F
100
AcDbEntity
  8
media
 67
0
100
AcDbCircle
 10
14.5327196826
 20
44.8156551379
 40
0.546837914362
  0
CIRCLE
  5
956
330
1F
100
AcDbEntity
  8
media
 67
0
100
AcDbCircle
 10
17.0968222467
 20
44.8156551379
 40
0.409682689527
  0
CIRCLE
  5
957
330
1F
100
AcDbEntity
  8
media
 67
0
100
AcDbCircle
 10
19.6609248108
 20
44.8156551379
 40
0.474209235611
  0
CIRCLE
  5
958
330
1F
100
AcDbEntity
  8
media
 67
0
100
AcDbCircle
 10
22.2250273749
 20
44.8156551379
 40
0.519501068688
  0
CIRCLE
  5
959
330
1F
100
AcDbEntity
  8
media
 67
0
100
AcDbCircle
 10
24.789129939
 20
44.8156551379
 40
0.521510245466
  0
CIRCLE
  5
95A
330
1F
100
AcDbEntity
  8
media
 67
0
100
AcDbCircle
 10
27.3532325031
 20
44.8156551379
 40
0.495182962899
  0
CIRCLE
  5
95B
330
1F
100
AcDbEntity
  8
media
 67
0
100
AcDbCircle
 10
29.9173350672
 20
44.8156551379
 40
0.553139724455
  0
CIRCLE
  5
95C
330
1F
100
AcDbEntity
  8
media
 67
0
100
AcDbCircle
 10
32.4814376313
 20
44.8156551379
 40
0.663679386593
  0
CIRCLE
  5
95D
330
1F
100
AcDbEntity
  8
media
 67
0
100
AcDbCircle
 10
35.0455401954
 20
44.8156551379
 40
0.636258756561
  0
CIRCLE
  5
95E
330
1F
100
AcDbEntity
  8
media
 67
0
100
AcDbCircle
 10
37.6096427595
 20
44.8156551379
 40
0.721652155021
  0
CIRCLE
  5
95F
330
1F
100
AcDbEntity
  8
media
 67
0
100
AcDbCircle
 10
40.1737453236
 20
44.8156551379
 40
0.332387815881
  0
CIRCLE
  5
960
330
1F
100
AcDbEntity
  8
media
 67
0
100
AcDbCircle
 10
42.7378478877
 20
44.8156551379
 40
0.524184840995
  0
CIRCLE
  5
961
330
1F
100
AcDbEntity
  8
media
 67
0
100
AcDbCircle
 10
45.3019504518
 20
44.8156551379
 40
0.392082167756
  0
CIRCLE
  5
962
330
1F
100
AcDbEntity
  8
media
 67
0
100
AcDbCircle
 10
47.8660530159
 20
44.8156551379
 40
0.500547347285
  0
CIRCLE
  5
963
330
1F
100
AcDbEntity
  8
media
 67
0
100
AcDbCircle
 10
50.43015558
 20
44.8156551379
 40
0.491678427993
  0
CIRCLE
  5
964
330
1F
100
AcDbEntity
  8
media
 67
0
100
AcDbCircle
 10
52.9942581441
 20
44.8156551379
 40
0.458611731504
  0
CIRCLE
  5
965
330
1F
100
AcDbEntity
  8
media
 67
0
100
AcDbCircle
 10
55.5583607082
 20
44.8156551379
 40
0.398553051357
  0
CIRCLE
  5
966
330
1F
100
AcDbEntity
  8
media
 67
0
100
AcDbCircle
 10
58.1224632723
 20
44.8156551379
 40
0.580994898696
  0
CIRCLE
  5
967
330
1F
100
AcDbEntity
  8
media
 67
0
100
AcDbCircle
 10
60.6865658364
 20
44.8156551379
 40
0.49847205714
  0
CIRCLE
  5
968
330
1F
100
AcDbEntity
  8
media
 67
0
100
AcDbCircle
 10
63.2506684005
 20
44.8156551379
 40
0.536516074435
  0
CIRCLE
  5
969
330
1F
100
AcDbEntity
  8
media
 67
0
100
AcDbCircle
 10
65.8147709646
 20
44.8156551379
 40
0.459737728476
  0
CIRCLE
  5
96A
330
1F
100
AcDbEntity
  8
media
 67
0
100
AcDbCircle
 10
68.3788735287
 20
44.8156551379
 40
0.501817890943
  0
CIRCLE
  5
96B
330
1F
100
AcDbEntity
  8
media
 67
0
100
AcDbCircle
 10
70.9429760928
 20
44.8156551379
 40
0.517090114021
  0
CIRCLE
  5
96C
330
1F
100
AcDbEntity
  8
media
 67
0
100
AcDbCircle
 10
73.507078657
 20
44.8156551379
 40
0.585459654908
  0
CIRCLE
  5
96D
330
1F
100
AcDbEntity
  8
media
 67
0
100
AcDbCircle
 10
76.0711812211
 20
44.8156551379
 40
0.539481753262
  0
CIRCLE
  5
96E
330
1F
100
AcDbEntity
  8
media
 67
0
100
AcDbCircle
 10
78.6352837852
 20
44.8156551379
 40
0.630114886389
  0
CIRCLE
  5
96F
330
1F
100
AcDbEntity
  8
media
 67
0
100
AcDbCircle
 10
81.1993863493
 20
44.8156551379
 40
0.603564006178
  0
CIRCLE
  5
970
330
1F
100
AcDbEntity
  8
media
 67
0
100
AcDbCircle
 10
83.7634889134
 20
44.8156551379
 40
0.517431510409
  0
CIRCLE
  5
971
330
1F
100
AcDbEntity
  8
media
 67
0
100
AcDbCircle
 10
86.3275914775
 20
44.8156551379
 40
0.477627537013
  0
CIRCLE
  5
972
330
1F
100
AcDbEntity
  8
media
 67
0
100
AcDbCircle
 10
88.8916940416
 20
44.8156551379
 40
0.479178773448
  0
CIRCLE
  5
973
330
1F
100
AcDbEntity
  8
media
 67
0
100
AcDbCircle
 10
91.4557966057
 20
44.8156551379
 40
0.514342396235
  0
CIRCLE
  5
974
330
1F
100
AcDbEntity
  8
media
 67
0
100
AcDbCircle
 10
94.0198991698
 20
44.8156551379
 40
0.56196615305
  0
CIRCLE
  5
975
330
1F
100
AcDbEntity
  8
media
 67
0
100
AcDbCircle
 10
96.5840017339
 20
44.8156551379
 40
0.209870042559
  0
CIRCLE
  5
976
330
1F
100
AcDbEntity
  8
media
 67
0
100
AcDbCircle
 10
99.148104298
 20
44.8156551379
 40
0.521830021586
  0
CIRCLE
  5
977
330
1F
100
AcDbEntity
  8
media
 67
0
100
AcDbCircle
 10
101.712206862
 20
44.8156551379
 40
0.608585119191
  0
CIRCLE
  5
978
330
1F
100
AcDbEntity
  8
media
 67
0
100
AcDbCircle
 10
1.71220686208
 20
46.539793069
 40
0.436347300021
  0
CIRCLE
  5
979
330
1F
100
AcDbEntity
  8
media
 67
0
100
AcDbCircle
 10
4.27630942618
 20
46.539793069
 40
0.474403468715
  0
CIRCLE
  5
97A
330
1F
100
AcDbEntity
  8
media
 67
0
100
AcDbCircle
 10
6.84041199028
 20
46.539793069
 40
0.425904968432
  0
CIRCLE
  5
97B
330
1F
100
AcDbEntity
  8
media
 67
0
100
AcDbCircle
 10
9.40451455439
 20
46.539793069
 40
0.473948022939
  0
CIRCLE
  5
97C
330
1F
100
AcDbEntity
  8
media
 67
0
100
AcDbCircle
 10
11.9686171185
 20
46.539793069
 40
0.508589685029
  0
CIRCLE
  5
97D
330
1F
100
AcDbEntity
  8
media
 67
0
100
AcDbCircle
 10
14.5327196826
 20
46.539793069
 40
0.347343976456
  0
CIRCLE
  5
97E
330
1F
100
AcDbEntity
  8
media
 67
0
100
AcDbCircle
 10
17.0968222467
 20
46.539793069
 40
0.508264075387
  0
CIRCLE
  5
97F
330
1F
100
AcDbEntity
  8
media
 67
0
100
AcDbCircle
 10
19.6609248108
 20
46.539793069
 40
0.5148011353
  0
CIRCLE
  5
980
330
1F
100
AcDbEntity
  8
media
 67
0
100
AcDbCircle
 10
22.2250273749
 20
46.539793069
 40
0.515396240165
  0
CIRCLE
  5
981
330
1F
100
AcDbEntity
  8
media
 67
0
100
AcDbCircle
 10
24.789129939
 20
46.539793069
 40
0.520389699268
  0
CIRCLE
  5
982
330
1F
100
AcDbEntity
  8
media
 67
0
100
AcDbCircle
 10
27.3532325031
 20
46.539793069
 40
0.584364062087
  0
CIRCLE
  5
983
330
1F
100
AcDbEntity
  8
media
 67
0
100
AcDbCircle
 10
29.9173350672
 20
46.539793069
 40
0.446583144021
  0
CIRCLE
  5
984
330
1F
100
AcDbEntity
  8
media
 67
0
100
AcDbCircle
 10
32.4814376313
 20
46.539793069
 40
0.424973757611
  0
CIRCLE
  5
985
330
1F
100
AcDbEntity
  8
media
 67
0
100
AcDbCircle
 10
35.0455401954
 20
46.539793069
 40
0.299332772034
  0
CIRCLE
  5
986
330
1F
100
AcDbEntity
  8
media
 67
0
100
AcDbCircle
 10
37.6096427595
 20
46.539793069
 40
0.722644716213
  0
CIRCLE
  5
987
330
1F
100
AcDbEntity
  8
media
 67
0
100
AcDbCircle
 10
40.1737453236
 20
46.539793069
 40
0.591001141902
  0
CIRCLE
  5
988
330
1F
100
AcDbEntity
  8
media
 67
0
100
AcDbCircle
 10
42.7378478877
 20
46.539793069
 40
0.236699726884
  0
CIRCLE
  5
989
330
1F
100
AcDbEntity
  8
media
 67
0
100
AcDbCircle
 10
45.3019504518
 20
46.539793069
 40
0.577658120762
  0
CIRCLE
  5
98A
330
1F
100
AcDbEntity
  8
media
 67
0
100
AcDbCircle
 10
47.8660530159
 20
46.539793069
 40
0.353115158651
  0
CIRCLE
  5
98B
330
1F
100
AcDbEntity
  8
media
 67
0
100
AcDbCircle
 10
50.43015558
 20
46.539793069
 40
0.588056202655
  0
CIRCLE
  5
98C
330
1F
100
AcDbEntity
  8
media
 67
0
100
AcDbCircle
 10
52.9942581441
 20
46.539793069
 40
0.513002491957
  0
CIRCLE
  5
98D
330
1F
100
AcDbEntity
  8
media
 67
0
100
AcDbCircle
 10
55.5583607082
 20
46.539793069
 40
0.581431631302
  0
CIRCLE
  5
98E
330
1F
100
AcDbEntity
  8
media
 67
0
100
AcDbCircle
 10
58.1224632723
 20
46.539793069
 40
0.36385469201
  0
CIRCLE
  5
98F
330
1F
100
AcDbEntity
  8
media
 67
0
100
AcDbCircle
 10
60.6865658364
 20
46.539793069
 40
0.415257321686
  0
CIRCLE
  5
990
330
1F
100
AcDbEntity
  8
media
 67
0
100
AcDbCircle
 10
63.2506684005
 20
46.539793069
 40
0.700480438034
  0
CIRCLE
  5
991
330
1F
100
AcDbEntity
  8
media
 67
0
100
AcDbCircle
 10
65.8147709646
 20
46.539793069
 40
0.449430537875
  0
CIRCLE
  5
992
330
1F
100
AcDbEntity
  8
media
 67
0
100
AcDbCircle
 10
68.3788735287
 20
46.539793069
 40
0.381704013599
  0
CIRCLE
  5
993
330
1F
100
AcDbEntity
  8
media
 67
0
100
AcDbCircle
 10
70.9429760928
 20
46.539793069
 40
0.497605718787
  0
CIRCLE
  5
994
330
1F
100
AcDbEntity
  8
media
 67
0
100
AcDbCircle
 10
73.507078657
 20
46.539793069
 40
0.412104042209
  0
CIRCLE
  5
995
330
1F
100
AcDbEntity
  8
media
 67
0
100
AcDbCircle
 10
76.0711812211
 20
46.539793069
 40
0.186192027622
  0
CIRCLE
  5
996
330
1F
100
AcDbEntity
  8
media
 67
0
100
AcDbCircle
 10
78.6352837852
 20
46.539793069
 40
0.451720191744
  0
CIRCLE
  5
997
330
1F
100
AcDbEntity
  8
media
 67
0
100
AcDbCircle
 10
81.1993863493
 20
46.539793069
 40
0.608628674354
  0
CIRCLE
  5
998
330
1F
100
AcDbEntity
  8
media
 67
0
100
AcDbCircle
 10
83.7634889134
 20
46.539793069
 40
0.432270350048
  0
CIRCLE
  5
999
330
1F
100
AcDbEntity
  8
media
 67
0
100
AcDbCircle
 10
86.3275914775
 20
46.539793069
 40
0.41089801241
  0
CIRCLE
  5
99A
330
1F
100
AcDbEntity
  8
media
 67
0
100
AcDbCircle
 10
88.8916940416
 20
46.539793069
 40
0.528711285252
  0
CIRCLE
  5
99B
330
1F
100
AcDbEntity
  8
media
 67
0
100
AcDbCircle
 10
91.4557966057
 20
46.539793069
 40
0.622450423719
  0
CIRCLE
  5
99C
330
1F
100
AcDbEntity
  8
media
 67
0
100
AcDbCircle
 10
94.0198991698
 20
46.539793069
 40
0.574772604965
  0
CIRCLE
  5
99D
330
1F
100
AcDbEntity
  8
media
 67
0
100
AcDbCircle
 10
96.5840017339
 20
46.539793069
 40
0.644446812684
  0
CIRCLE
  5
99E
330
1F
100
AcDbEntity
  8
media
 67
0
100
AcDbCircle
 10
99.148104298
 20
46.539793069
 40
0.545137841348
  0
CIRCLE
  5
99F
330
1F
100
AcDbEntity
  8
media
 67
0
100
AcDbCircle
 10
101.712206862
 20
46.539793069
 40
0.464426217588
  0
CIRCLE
  5
9A0
330
1F
100
AcDbEntity
  8
media
 67
0
100
AcDbCircle
 10
1.71220686208
 20
48.263931
 40
0.70845111796
  0
CIRCLE
  5
9A1
330
1F
100
AcDbEntity
  8
media
 67
0
100
AcDbCircle
 10
4.27630942618
 20
48.263931
 40
0.311582881752
  0
CIRCLE
  5
9A2
330
1F
100
AcDbEntity
  8
media
 67
0
100
AcDbCircle
 10
6.84041199028
 20
48.263931
 40
0.539268872173
  0
CIRCLE
  5
9A3
330
1F
100
AcDbEntity
  8
media
 67
0
100
AcDbCircle
 10
9.40451455439
 20
48.263931
 40
0.481772226572
  0
CIRCLE
  5
9A4
330
1F
100
AcDbEntity
  8
media
 67
0
100
AcDbCircle
 10
11.9686171185
 20
48.263931
 40
0.654544805362
  0
CIRCLE
  5
9A5
330
1F
100
AcDbEntity
  8
media
 67
0
100
AcDbCircle
 10
14.5327196826
 20
48.263931
 40
0.422847293829
  0
CIRCLE
  5
9A6
330
1F
100
AcDbEntity
  8
media
 67
0
100
AcDbCircle
 10
17.0968222467
 20
48.263931
 40
0.541888535615
  0
CIRCLE
  5
9A7
330
1F
100
AcDbEntity
  8
media
 67
0
100
AcDbCircle
 10
19.6609248108
 20
48.263931
 40
0.724324339252
  0
CIRCLE
  5
9A8
330
1F
100
AcDbEntity
  8
media
 67
0
100
AcDbCircle
 10
22.2250273749
 20
48.263931
 40
0.503655447163
  0
CIRCLE
  5
9A9
330
1F
100
AcDbEntity
  8
media
 67
0
100
AcDbCircle
 10
24.789129939
 20
48.263931
 40
0.482316969523
  0
CIRCLE
  5
9AA
330
1F
100
AcDbEntity
  8
media
 67
0
100
AcDbCircle
 10
27.3532325031
 20
48.263931
 40
0.438418516279
  0
CIRCLE
  5
9AB
330
1F
100
AcDbEntity
  8
media
 67
0
100
AcDbCircle
 10
29.9173350672
 20
48.263931
 40
0.308842965489
  0
CIRCLE
  5
9AC
330
1F
100
AcDbEntity
  8
media
 67
0
100
AcDbCircle
 10
32.4814376313
 20
48.263931
 40
0.527306272317
  0
CIRCLE
  5
9AD
330
1F
100
AcDbEntity
  8
media
 67
0
100
AcDbCircle
 10
35.0455401954
 20
48.263931
 40
0.674902328668
  0
CIRCLE
  5
9AE
330
1F
100
AcDbEntity
  8
media
 67
0
100
AcDbCircle
 10
37.6096427595
 20
48.263931
 40
0.621883623661
  0
CIRCLE
  5
9AF
330
1F
100
AcDbEntity
  8
media
 67
0
100
AcDbCircle
 10
40.1737453236
 20
48.263931
 40
0.474799708346
  0
CIRCLE
  5
9B0
330
1F
100
AcDbEntity
  8
media
 67
0
100
AcDbCircle
 10
42.7378478877
 20
48.263931
 40
0.458340345515
  0
CIRCLE
  5
9B1
330
1F
100
AcDbEntity
  8
media
 67
0
100
AcDbCircle
 10
45.3019504518
 20
48.263931
 40
0.519552248731
  0
CIRCLE
  5
9B2
330
1F
100
AcDbEntity
  8
media
 67
0
100
AcDbCircle
 10
47.8660530159
 20
48.263931
 40
0.550468201013
  0
CIRCLE
  5
9B3
330
1F
100
AcDbEntity
  8
media
 67
0
100
AcDbCircle
 10
50.43015558
 20
48.263931
 40
0.396461371307
  0
CIRCLE
  5
9B4
330
1F
100
AcDbEntity
  8
media
 67
0
100
AcDbCircle
 10
52.9942581441
 20
48.263931
 40
0.459735456411
  0
CIRCLE
  5
9B5
330
1F
100
AcDbEntity
  8
media
 67
0
100
AcDbCircle
 10
55.5583607082
 20
48.263931
 40
0.373309883231
  0
CIRCLE
  5
9B6
330
1F
100
AcDbEntity
  8
media
 67
0
100
AcDbCircle
 10
58.1224632723
 20
48.263931
 40
0.552282450579
  0
CIRCLE
  5
9B7
330
1F
100
AcDbEntity
  8
media
 67
0
100
AcDbCircle
 10
60.6865658364
 20
48.263931
 40
0.606694343849
  0
CIRCLE
  5
9B8
330
1F
100
AcDbEntity
  8
media
 67
0
100
AcDbCircle
 10
63.2506684005
 20
48.263931
 40
0.519323120781
  0
CIRCLE
  5
9B9
330
1F
100
AcDbEntity
  8
media
 67
0
100
AcDbCircle
 10
65.8147709646
 20
48.263931
 40
0.534362149379
  0
CIRCLE
  5
9BA
330
1F
100
AcDbEntity
  8
media
 67
0
100
AcDbCircle
 10
68.3788735287
 20
48.263931
 40
0.399772615649
  0
CIRCLE
  5
9BB
330
1F
100
AcDbEntity
  8
media
 67
0
100
AcDbCircle
 10
70.9429760928
 20
48.263931
 40
0.45234135931
  0
CIRCLE
  5
9BC
330
1F
100
AcDbEntity
  8
media
 67
0
100
AcDbCircle
 10
73.507078657
 20
48.263931
 40
0.425689331828
  0
CIRCLE
  5
9BD
330
1F
100
AcDbEntity
  8
media
 67
0
100
AcDbCircle
 10
76.0711812211
 20
48.263931
 40
0.406795524212
  0
CIRCLE
  5
9BE
330
1F
100
AcDbEntity
  8
media
 67
0
100
AcDbCircle
 10
78.6352837852
 20
48.263931
 40
0.540452889546
  0
CIRCLE
  5
9BF
330
1F
100
AcDbEntity
  8
media
 67
0
100
AcDbCircle
 10
81.1993863493
 20
48.263931
 40
0.353868268689
  0
CIRCLE
  5
9C0
330
1F
100
AcDbEntity
  8
media
 67
0
100
AcDbCircle
 10
83.7634889134
 20
48.263931
 40
0.618249850263
  0
CIRCLE
  5
9C1
330
1F
100
AcDbEntity
  8
media
 67
0
100
AcDbCircle
 10
86.3275914775
 20
48.263931
 40
0.463567405365
  0
CIRCLE
  5
9C2
330
1F
100
AcDbEntity
  8
media
 67
0
100
AcDbCircle
 10
88.8916940416
 20
48.263931
 40
0.552455401168
  0
CIRCLE
  5
9C3
330
1F
100
AcDbEntity
  8
media
 67
0
100
AcDbCircle
 10
91.4557966057
 20
48.263931
 40
0.380896587048
  0
CIRCLE
  5
9C4
330
1F
100
AcDbEntity
  8
media
 67
0
100
AcDbCircle
 10
94.0198991698
 20
48.263931
 40
0.611038568508
  0
CIRCLE
  5
9C5
330
1F
100
AcDbEntity
  8
media
 67
0
100
AcDbCircle
 10
96.5840017339
 20
48.263931
 40
0.37924648566
  0
CIRCLE
  5
9C6
330
1F
100
AcDbEntity
  8
media
 67
0
100
AcDbCircle
 10
99.148104298
 20
48.263931
 40
0.457563200724
  0
CIRCLE
  5
9C7
330
1F
100
AcDbEntity
  8
media
 67
0
100
AcDbCircle
 10
101.712206862
 20
48.263931
 40
0.390798353685
  0
CIRCLE
  5
9C8
330
1F
100
AcDbEntity
  8
media
 67
0
100
AcDbCircle
 10
1.71220686208
 20
49.988068931
 40
0.494085796041
  0
CIRCLE
  5
9C9
330
1F
100
AcDbEntity
  8
media
 67
0
100
AcDbCircle
 10
4.27630942618
 20
49.988068931
 40
0.479877787308
  0
CIRCLE
  5
9CA
330
1F
100
AcDbEntity
  8
media
 67
0
100
AcDbCircle
 10
6.84041199028
 20
49.988068931
 40
0.457188144967
  0
CIRCLE
  5
9CB
330
1F
100
AcDbEntity
  8
media
 67
0
100
AcDbCircle
 10
9.40451455439
 20
49.988068931
 40
0.39873793614
  0
CIRCLE
  5
9CC
330
1F
100
AcDbEntity
  8
media
 67
0
100
AcDbCircle
 10
11.9686171185
 20
49.988068931
 40
0.411626720555
  0
CIRCLE
  5
9CD
330
1F
100
AcDbEntity
  8
media
 67
0
100
AcDbCircle
 10
14.5327196826
 20
49.988068931
 40
0.610322969946
  0
CIRCLE
  5
9CE
330
1F
100
AcDbEntity
  8
media
 67
0
100
AcDbCircle
 10
17.0968222467
 20
49.988068931
 40
0.426981631541
  0
CIRCLE
  5
9CF
330
1F
100
AcDbEntity
  8
media
 67
0
100
AcDbCircle
 10
19.6609248108
 20
49.988068931
 40
0.436782880909
  0
CIRCLE
  5
9D0
330
1F
100
AcDbEntity
  8
media
 67
0
100
AcDbCircle
 10
22.2250273749
 20
49.988068931
 40
0.496160094038
  0
CIRCLE
  5
9D1
330
1F
100
AcDbEntity
  8
media
 67
0
100
AcDbCircle
 10
24.789129939
 20
49.988068931
 40
0.285509983873
  0
CIRCLE
  5
9D2
330
1F
100
AcDbEntity
  8
media
 67
0
100
AcDbCircle
 10
27.3532325031
 20
49.988068931
 40
0.401861397348
  0
CIRCLE
  5
9D3
330
1F
100
AcDbEntity
  8
media
 67
0
100
AcDbCircle
 10
29.9173350672
 20
49.988068931
 40
0.438532841177
  0
CIRCLE
  5
9D4
330
1F
100
AcDbEntity
  8
media
 67
0
100
AcDbCircle
 10
32.4814376313
 20
49.988068931
 40
0.471568469499
  0
CIRCLE
  5
9D5
330
1F
100
AcDbEntity
  8
media
 67
0
100
AcDbCircle
 10
35.0455401954
 20
49.988068931
 40
0.506888682207
  0
CIRCLE
  5
9D6
330
1F
100
AcDbEntity
  8
media
 67
0
100
AcDbCircle
 10
37.6096427595
 20
49.988068931
 40
0.573199844701
  0
CIRCLE
  5
9D7
330
1F
100
AcDbEntity
  8
media
 67
0
100
AcDbCircle
 10
40.1737453236
 20
49.988068931
 40
0.441842205092
  0
CIRCLE
  5
9D8
330
1F
100
AcDbEntity
  8
media
 67
0
100
AcDbCircle
 10
42.7378478877
 20
49.988068931
 40
0.522529248851
  0
CIRCLE
  5
9D9
330
1F
100
AcDbEntity
  8
media
 67
0
100
AcDbCircle
 10
45.3019504518
 20
49.988068931
 40
0.449229234366
  0
CIRCLE
  5
9DA
330
1F
100
AcDbEntity
  8
media
 67
0
100
AcDbCircle
 10
47.8660530159
 20
49.988068931
 40
0.468533403206
  0
CIRCLE
  5
9DB
330
1F
100
AcDbEntity
  8
media
 67
0
100
AcDbCircle
 10
50.43015558
 20
49.988068931
 40
0.514536052337
  0
CIRCLE
  5
9DC
330
1F
100
AcDbEntity
  8
media
 67
0
100
AcDbCircle
 10
52.9942581441
 20
49.988068931
 40
0.58134846153
  0
CIRCLE
  5
9DD
330
1F
100
AcDbEntity
  8
media
 67
0
100
AcDbCircle
 10
55.5583607082
 20
49.988068931
 40
0.446426593929
  0
CIRCLE
  5
9DE
330
1F
100
AcDbEntity
  8
media
 67
0
100
AcDbCircle
 10
58.1224632723
 20
49.988068931
 40
0.434011284367
  0
CIRCLE
  5
9DF
330
1F
100
AcDbEntity
  8
media
 67
0
100
AcDbCircle
 10
60.6865658364
 20
49.988068931
 40
0.540900808858
  0
CIRCLE
  5
9E0
330
1F
100
AcDbEntity
  8
media
 67
0
100
AcDbCircle
 10
63.2506684005
 20
49.988068931
 40
0.485730782226
  0
CIRCLE
  5
9E1
330
1F
100
AcDbEntity
  8
media
 67
0
100
AcDbCircle
 10
65.8147709646
 20
49.988068931
 40
0.460342807667
  0
CIRCLE
  5
9E2
330
1F
100
AcDbEntity
  8
media
 67
0
100
AcDbCircle
 10
68.3788735287
 20
49.988068931
 40
0.541931587394
  0
CIRCLE
  5
9E3
330
1F
100
AcDbEntity
  8
media
 67
0
100
AcDbCircle
 10
70.9429760928
 20
49.988068931
 40
0.614792140597
  0
CIRCLE
  5
9E4
330
1F
100
AcDbEntity
  8
media
 67
0
100
AcDbCircle
 10
73.507078657
 20
49.988068931
 40
0.530732972392
  0
CIRCLE
  5
9E5
330
1F
100
AcDbEntity
  8
media
 67
0
100
AcDbCircle
 10
76.0711812211
 20
49.988068931
 40
0.605928400282
  0
CIRCLE
  5
9E6
330
1F
100
AcDbEntity
  8
media
 67
0
100
AcDbCircle
 10
78.6352837852
 20
49.988068931
 40
0.406054656164
  0
CIRCLE
  5
9E7
330
1F
100
AcDbEntity
  8
media
 67
0
100
AcDbCircle
 10
81.1993863493
 20
49.988068931
 40
0.529681913337
  0
CIRCLE
  5
9E8
330
1F
100
AcDbEntity
  8
media
 67
0
100
AcDbCircle
 10
83.7634889134
 20
49.988068931
 40
0.551750835214
  0
CIRCLE
  5
9E9
330
1F
100
AcDbEntity
  8
media
 67
0
100
AcDbCircle
 10
86.3275914775
 20
49.988068931
 40
0.54125746872
  0
CIRCLE
  5
9EA
330
1F
100
AcDbEntity
  8
media
 67
0
100
AcDbCircle
 10
88.8916940416
 20
49.988068931
 40
0.647663023912
  0
CIRCLE
  5
9EB
330
1F
100
AcDbEntity
  8
media
 67
0
100
AcDbCircle
 10
91.4557966057
 20
49.988068931
 40
0.569749353066
  0
CIRCLE
  5
9EC
330
1F
100
AcDbEntity
  8
media
 67
0
100
AcDbCircle
 10
94.0198991698
 20
49.988068931
 40
0.564055646302
  0
CIRCLE
  5
9ED
330
1F
100
AcDbEntity
  8
media
 67
0
100
AcDbCircle
 10
96.5840017339
 20
49.988068931
 40
0.561604775043
  0
CIRCLE
  5
9EE
330
1F
100
AcDbEntity
  8
media
 67
0
100
AcDbCircle
 10
99.148104298
 20
49.988068931
 40
0.373097057511
  0
CIRCLE
  5
9EF
330
1F
100
AcDbEntity
  8
media
 67
0
100
AcDbCircle
 10
101.712206862
 20
49.988068931
 40
0.617359702374
  0
CIRCLE
  5
9F0
330
1F
100
AcDbEntity
  8
media
 67
0
100
AcDbCircle
 10
1.71220686208
 20
51.7122068621
 40
0.581978230364
  0
CIRCLE
  5
9F1
330
1F
100
AcDbEntity
  8
media
 67
0
100
AcDbCircle
 10
4.27630942618
 20
51.7122068621
 40
0.465738072438
  0
CIRCLE
  5
9F2
330
1F
100
AcDbEntity
  8
media
 67
0
100
AcDbCircle
 10
6.84041199028
 20
51.7122068621
 40
0.602733768607
  0
CIRCLE
  5
9F3
330
1F
100
AcDbEntity
  8
media
 67
0
100
AcDbCircle
 10
9.40451455439
 20
51.7122068621
 40
0.606082008855
  0
CIRCLE
  5
9F4
330
1F
100
AcDbEntity
  8
media
 67
0
100
AcDbCircle
 10
11.9686171185
 20
51.7122068621
 40
0.540953685772
  0
CIRCLE
  5
9F5
330
1F
100
AcDbEntity
  8
media
 67
0
100
AcDbCircle
 10
14.5327196826
 20
51.7122068621
 40
0.442347894552
  0
CIRCLE
  5
9F6
330
1F
100
AcDbEntity
  8
media
 67
0
100
AcDbCircle
 10
17.0968222467
 20
51.7122068621
 40
0.518628986159
  0
CIRCLE
  5
9F7
330
1F
100
AcDbEntity
  8
media
 67
0
100
AcDbCircle
 10
19.6609248108
 20
51.7122068621
 40
0.592006360698
  0
CIRCLE
  5
9F8
330
1F
100
AcDbEntity
  8
media
 67
0
100
AcDbCircle
 10
22.2250273749
 20
51.7122068621
 40
0.421054593953
  0
CIRCLE
  5
9F9
330
1F
100
AcDbEntity
  8
media
 67
0
100
AcDbCircle
 10
24.789129939
 20
51.7122068621
 40
0.634650754861
  0
CIRCLE
  5
9FA
330
1F
100
AcDbEntity
  8
media
 67
0
100
AcDbCircle
 10
27.3532325031
 20
51.7122068621
 40
0.577962086442
  0
CIRCLE
  5
9FB
330
1F
100
AcDbEntity
  8
media
 67
0
100
AcDbCircle
 10
29.9173350672
 20
51.7122068621
 40
0.422504884473
  0
CIRCLE
  5
9FC
330
1F
100
AcDbEntity
  8
media
 67
0
100
AcDbCircle
 10
32.4814376313
 20
51.7122068621
 40
0.233397623522
  0
CIRCLE
  5
9FD
330
1F
100
AcDbEntity
  8
media
 67
0
100
AcDbCircle
 10
35.0455401954
 20
51.7122068621
 40
0.555146294759
  0
CIRCLE
  5
9FE
330
1F
100
AcDbEntity
  8
media
 67
0
100
AcDbCircle
 10
37.6096427595
 20
51.7122068621
 40
0.620916303955
  0
CIRCLE
  5
9FF
330
1F
100
AcDbEntity
  8
media
 67
0
100
AcDbCircle
 10
40.1737453236
 20
51.7122068621
 40
0.419907575487
  0
CIRCLE
  5
A00
330
1F
100
AcDbEntity
  8
media
 67
0
100
AcDbCircle
 10
42.7378478877
 20
51.7122068621
 40
0.516524253525
  0
CIRCLE
  5
A01
330
1F
100
AcDbEntity
  8
media
 67
0
100
AcDbCircle
 10
45.3019504518
 20
51.7122068621
 40
0.582148708754
  0
CIRCLE
  5
A02
330
1F
100
AcDbEntity
  8
media
 67
0
100
AcDbCircle
 10
47.8660530159
 20
51.7122068621
 40
0.520602237992
  0
CIRCLE
  5
A03
330
1F
100
AcDbEntity
  8
media
 67
0
100
AcDbCircle
 10
50.43015558
 20
51.7122068621
 40
0.403391307393
  0
CIRCLE
  5
A04
330
1F
100
AcDbEntity
  8
media
 67
0
100
AcDbCircle
 10
52.9942581441
 20
51.7122068621
 40
0.546338267073
  0
CIRCLE
  5
A05
330
1F
100
AcDbEntity
  8
media
 67
0
100
AcDbCircle
 10
55.5583607082
 20
51.7122068621
 40
0.509044291992
  0
CIRCLE
  5
A06
330
1F
100
AcDbEntity
  8
media
 67
0
100
AcDbCircle
 10
58.1224632723
 20
51.7122068621
 40
0.595576790806
  0
CIRCLE
  5
A07
330
1F
100
AcDbEntity
  8
media
 67
0
100
AcDbCircle
 10
60.6865658364
 20
51.7122068621
 40
0.448549012834
  0
CIRCLE
  5
A08
330
1F
100
AcDbEntity
  8
media
 67
0
100
AcDbCircle
 10
63.2506684005
 20
51.7122068621
 40
0.564874245458
  0
CIRCLE
  5
A09
330
1F
100
AcDbEntity
  8
media
 67
0
100
AcDbCircle
 10
65.8147709646
 20
51.7122068621
 40
0.448276052576
  0
CIRCLE
  5
A0A
330
1F
100
AcDbEntity
  8
media
 67
0
100
AcDbCircle
 10
68.3788735287
 20
51.7122068621
 40
0.728178674786
  0
CIRCLE
  5
A0B
330
1F
100
AcDbEntity
  8
media
 67
0
100
AcDbCircle
 10
70.9429760928
 20
51.7122068621
 40
0.502836259982
  0
CIRCLE
  5
A0C
330
1F
100
AcDbEntity
  8
media
 67
0
100
AcDbCircle
 10
73.507078657
 20
51.7122068621
 40
0.431897604117
  0
CIRCLE
  5
A0D
330
1F
100
AcDbEntity
  8
media
 67
0
100
AcDbCircle
 10
76.0711812211
 20
51.7122068621
 40
0.47110163926
  0
CIRCLE
  5
A0E
330
1F
100
AcDbEntity
  8
media
 67
0
100
AcDbCircle
 10
78.6352837852
 20
51.7122068621
 40
0.657884335196
  0
CIRCLE
  5
A0F
330
1F
100
AcDbEntity
  8
media
 67
0
100
AcDbCircle
 10
81.1993863493
 20
51.7122068621
 40
0.62529906738
  0
CIRCLE
  5
A10
330
1F
100
AcDbEntity
  8
media
 67
0
100
AcDbCircle
 10
83.7634889134
 20
51.7122068621
 40
0.545133675238
  0
CIRCLE
  5
A11
330
1F
100
AcDbEntity
  8
media
 67
0
100
AcDbCircle
 10
86.3275914775
 20
51.7122068621
 40
0.548577433119
  0
CIRCLE
  5
A12
330
1F
100
AcDbEntity
  8
media
 67
0
100
AcDbCircle
 10
88.8916940416
 20
51.7122068621
 40
0.576447266015
  0
CIRCLE
  5
A13
330
1F
100
AcDbEntity
  8
media
 67
0
100
AcDbCircle
 10
91.4557966057
 20
51.7122068621
 40
0.610610165678
  0
CIRCLE
  5
A14
330
1F
100
AcDbEntity
  8
media
 67
0
100
AcDbCircle
 10
94.0198991698
 20
51.7122068621
 40
0.495196117313
  0
CIRCLE
  5
A15
330
1F
100
AcDbEntity
  8
media
 67
0
100
AcDbCircle
 10
96.5840017339
 20
51.7122068621
 40
0.402171258173
  0
CIRCLE
  5
A16
330
1F
100
AcDbEntity
  8
media
 67
0
100
AcDbCircle
 10
99.148104298
 20
51.7122068621
 40
0.507005302662
  0
CIRCLE
  5
A17
330
1F
100
AcDbEntity
  8
media
 67
0
100
AcDbCircle
 10
101.712206862
 20
51.7122068621
 40
0.367044523916
  0
ENDSEC
  0
SECTION
  2
OBJECTS
  0
DICTIONARY
  5
C
330
0
100
AcDbDictionary
281
1
  3
ACAD_COLOR
350
4A3
  3
ACAD_GROUP
350
4A4
  3
ACAD_LAYOUT
350
4A5
  3
ACAD_MATERIAL
350
4A6
  3
ACAD_MLEADERSTYLE
350
4A7
  3
ACAD_MLINESTYLE
350
4A8
  3
ACAD_PLOTSETTINGS
350
4A9
  3
ACAD_PLOTSTYLENAME
350
4AB
  3
ACAD_SCALELIST
350
4AC
  3
ACAD_TABLESTYLE
350
4AD
  3
ACAD_VISUALSTYLE
350
4AE
  0
DICTIONARY
  5
4A3
330
C
100
AcDbDictionary
281
1
  0
DICTIONARY
  5
4A4
330
C
100
AcDbDictionary
281
1
  0
DICTIONARY
  5
4A5
330
C
100
AcDbDictionary
281
1
  3
Model
350
4AF
  3
Layout1
350
4B0
  0
DICTIONARY
  5
4A6
330
C
100
AcDbDictionary
281
1
  0
DICTIONARY
  5
4A7
330
C
100
AcDbDictionary
281
1
  0
DICTIONARY
  5
4A8
330
C
100
AcDbDictionary
281
1
  0
DICTIONARY
  5
4A9
330
C
100
AcDbDictionary
281
1
  0
ACDBPLACEHOLDER
  5
4AA
330
4AB
  0
ACDBDICTIONARYWDFLT
  5
4AB
330
C
100
AcDbDictionary
281
1
  3
Normal
350
4AA
100
AcDbDictionaryWithDefault
340
4AA
  0
DICTIONARY
  5
4AC
330
C
100
AcDbDictionary
281
1
  0
DICTIONARY
  5
4AD
330
C
100
AcDbDictionary
281
1
  0
DICTIONARY
  5
4AE
330
C
100
AcDbDictionary
281
1
  0
LAYOUT
  5
4AF
330
4A5
100
AcDbPlotSettings
  1

  2
DWFx ePlot (XPS Compatible).pc3
  4
ANSI_A_(8.50_x_11.00_Inches)
  6

 40
5.8
 41
17.8
 42
5.8
 43
17.8
 44
215.9
 45
279.4
 46
0.0
 47
0.0
 48
0.0
 49
0.0
140
0.0
141
0.0
142
1.0
143
14.53
 70
11952
 72
0
 73
1
 74
0
  7

 75
0
147
0.069
148
114.98
149
300.29
100
AcDbLayout
  1
Model
 70
1
 71
0
 10
0.0
 20
0.0
 11
12.0
 21
9.0
 12
0.0
 22
0.0
 32
0.0
 14
0.0
 24
0.0
 34
0.0
 15
0.0
 25
0.0
 35
0.0
146
0.0
 13
0.0
 23
0.0
 33
0.0
 16
1.0
 26
0.0
 36
0.0
 17
0.0
 27
1.0
 37
0.0
 76
0
330
1F
  0
LAYOUT
  5
4B0
330
4A5
100
AcDbPlotSettings
  1

  2
DWFx ePlot (XPS Compatible).pc3
  4
ANSI_A_(8.50_x_11.00_Inches)
  6

 40
5.8
 41
17.8
 42
5.8
 43
17.8
 44
215.9
 45
279.4
 46
0.0
 47
0.0
 48
0.0
 49
0.0
140
0.0
141
0.0
142
1.0
143
1.0
 70
688
 72
0
 73
1
 74
5
  7
acad.ctb
 75
16
147
1.0
148
0.0
149
0.0
100
AcDbLayout
  1
Layout1
 70
1
 71
1
 10
-0.7
 20
-0.23
 11
10.3
 21
8.27
 12
0.0
 22
0.0
 32
0.0
 14
0.63
 24
0.8
 34
0.0
 15
9.0
 25
7.2
 35
0.0
146
0.0
 13
0.0
 23
0.0
 33
0.0
 16
1.0
 26
0.0
 36
0.0
 17
0.0
 27
1.0
 37
0.0
 76
0
330
58
  0
ENDSEC
  0
EOF
